<?xml version="1.0" encoding="UTF-8" standalone="no"?>
<!-- Created with Inkscape (http://www.inkscape.org/) -->

<svg
   width="150mm"
   height="150mm"
   viewBox="0 0 150 150"
   version="1.1"
   id="svg5"
   xml:space="preserve"
   inkscape:version="1.2.2 (732a01da63, 2022-12-09)"
   sodipodi:docname="LOGO.svg"
   xmlns:inkscape="http://www.inkscape.org/namespaces/inkscape"
   xmlns:sodipodi="http://sodipodi.sourceforge.net/DTD/sodipodi-0.dtd"
   xmlns:xlink="http://www.w3.org/1999/xlink"
   xmlns="http://www.w3.org/2000/svg"
   xmlns:svg="http://www.w3.org/2000/svg"><sodipodi:namedview
     id="namedview7"
     pagecolor="#ffffff"
     bordercolor="#000000"
     borderopacity="0.25"
     inkscape:showpageshadow="2"
     inkscape:pageopacity="0.0"
     inkscape:pagecheckerboard="0"
     inkscape:deskcolor="#d1d1d1"
     inkscape:document-units="mm"
     showgrid="false"
     inkscape:zoom="0.78127806"
     inkscape:cx="7.6797242"
     inkscape:cy="216.31223"
     inkscape:window-width="2560"
     inkscape:window-height="1057"
     inkscape:window-x="-8"
     inkscape:window-y="-6"
     inkscape:window-maximized="1"
     inkscape:current-layer="layer2" /><defs
     id="defs2" /><g
     inkscape:groupmode="layer"
     id="layer2"
     inkscape:label="Capa 2"><path
       style="fill:none;stroke:#ffffff;stroke-width:8.46704;stroke-linecap:round;stroke-dasharray:none;stroke-opacity:1"
       d="m 68.658685,21.176733 c 0,0 -25.089769,25.85363 -30.436766,31.905733 -3.657803,4.140148 -4.246415,5.200305 -5.111969,11.751645 -0.865552,6.551353 -0.293789,17.686236 -0.293789,17.686236"
       id="path953"
       sodipodi:nodetypes="cszc" /><path
       style="fill:none;stroke:#ffffff;stroke-width:8.46704;stroke-linecap:round;stroke-dasharray:none;stroke-opacity:1"
       d="m 76.890541,13.224724 c 0,0 1.911224,7.977286 2.659093,13.544769 0.747872,5.567469 0.166196,12.381398 -6.232251,18.696757 C 66.918938,51.781595 55.945926,61.546677 52.8092,67.652345 48.861365,75.336853 50.206316,89.635342 63.589165,95.139642 80.533114,102.10861 93.12487,88.427886 93.260579,76.8768 93.532052,53.771961 93.206029,24.568228 93.206029,24.568228"
       id="path1375"
       sodipodi:nodetypes="csssssc" /><path
       style="fill:none;stroke:#ffffff;stroke-width:8.46704;stroke-linecap:round;stroke-dasharray:none;stroke-opacity:1"
       d="m 60.726325,8.484957 c 0,0 -32.728341,35.137435 -36.488871,39.309258 -3.760526,4.171837 -6.110856,8.167407 -6.228373,12.809303 -0.117512,4.641897 0,31.905719 0.235034,36.723897 0.235034,4.818175 1.175167,7.109745 6.228373,13.103095 5.053211,5.99333 32.258276,31.72944 32.258276,31.72944"
       id="path1377" /><path
       style="fill:none;stroke:#ffffff;stroke-width:8.46704;stroke-linecap:round;stroke-dasharray:none;stroke-opacity:1"
       d="M 40.337214,104.84847 78.28639,142.21006"
       id="path1379"
       sodipodi:nodetypes="cc" /><path
       style="fill:none;stroke:#ffffff;stroke-width:8.46704;stroke-linecap:round;stroke-dasharray:none;stroke-opacity:1"
       d="m 136.11314,65.597977 0.23504,30.90683"
       id="path1381"
       sodipodi:nodetypes="cc" /><path
       style="fill:none;stroke:#ffffff;stroke-width:8.46704;stroke-linecap:round;stroke-dasharray:none;stroke-opacity:1"
       d="m 107.61539,38.921726 c 0,0 0.19305,44.069181 0.11757,49.768236 -0.11757,8.872489 -14.101983,26.147408 -25.207287,26.264918 -8.813246,0.0933 -12.985571,0.11757 -12.985571,0.11757"
       id="path1383"
       sodipodi:nodetypes="cssc" /><path
       style="fill:none;stroke:#ffffff;stroke-width:8.46704;stroke-linecap:round;stroke-dasharray:none;stroke-opacity:1"
       d="m 122.01205,51.256111 c 0,0 0.33239,45.314614 0.24929,51.796149 -0.0832,6.48155 -2.3267,9.47302 -5.48438,13.12927 -3.15768,3.65627 -24.347345,25.84308 -24.347345,25.84308"
       id="path1385"
       sodipodi:nodetypes="cssc" /><circle
       style="fill:#ffffff;stroke:#ffffff;stroke-width:8.46704;stroke-linecap:round;stroke-dasharray:none;stroke-opacity:1"
       id="path1496"
       cx="72.48642"
       cy="75.796524"
       r="6.980123" /></g><g
     inkscape:groupmode="layer"
     id="layer3"
     inkscape:label="Capa 3" /></svg>
