<?xml version="1.0" encoding="iso-8859-1"?>
<!-- Generator: Adobe Illustrator 19.0.0, SVG Export Plug-In . SVG Version: 6.00 Build 0)  -->
<svg version="1.1" id="Layer_1" xmlns="http://www.w3.org/2000/svg" xmlns:xlink="http://www.w3.org/1999/xlink" x="0px" y="0px"
	 viewBox="0 0 60 60" style="enable-background:new 0 0 60 60;" xml:space="preserve" fill="rgba(42, 80, 130, 0.5)" color="#2A5082">
  <path class="back" d="M22.9,11.8v-0.5l-3.1-3.2L1.9,8.2v35.4c0,1,0.3,1.2,1.3,1.2h28.9c0.8,0,1.6-0.4,2.1-1l14.1-13.2V29H33l-3.6,2.8
    H17.8L6.2,42.7H3.7V11.8H22.9z"/>
<path  class="front" fill="currentColor" d="M43.3,27.4l4.2-4.2V21h-7.4l4.7-7v-2.1H24.7v-1.3l-4.2-4.2H0.1v37.4c0,1.5,1.2,2.7,2.7,2.7h29.8
    c1.3,0,2.4-0.9,2.8-1.4l14.8-13.7v-4C50.2,27.4,43.3,27.4,43.3,27.4z M42.8,13.7L37.9,21H11.4l-4,12.5L9.2,34l3.6-11.2h32.5
    l-4.6,4.6h-8.1L29,30.1H17.2l-11.6,11V13.7h13.7h5.5H42.8z M48.4,30.6L34.2,43.9c-0.5,0.5-1.1,0.9-1.5,0.9H2.8
    c-0.5,0-0.9-0.4-0.9-0.9V8.2h17.9l3.1,3.1v0.5h-3.6H3.7v31h2.5l11.7-10.9h11.6l3.6-2.7h5.7h2.6h6.9v1.4
    C48.3,30.6,48.4,30.6,48.4,30.6z"/>
<g>
    <rect  class="front" fill="currentColor" x="41.2" y="3.7" width="1.8" height="4.6"/>
</g>
<g>
    <rect   class="front" fill="currentColor" x="44.3" y="6" transform="matrix(0.4999 -0.8661 0.8661 0.4999 17.2434 43.6453)"  width="4.3" height="1.8"/>
</g>
<g>
    <rect  class="front" fill="currentColor" x="47.5" y="9.3" transform="matrix(0.8661 -0.4999 0.4999 0.8661 1.5417 26.1815)"  width="4.3" height="1.8"/>
</g>
</svg>