<?xml version="1.0" encoding="iso-8859-1"?>
<!-- Generator: Adobe Illustrator 19.0.0, SVG Export Plug-In . SVG Version: 6.00 Build 0)  -->
<svg version="1.1" id="Layer_1" xmlns="http://www.w3.org/2000/svg" xmlns:xlink="http://www.w3.org/1999/xlink" x="0px" y="0px"
	 viewBox="0 0 60 60" style="enable-background:new 0 0 60 60;" xml:space="preserve" fill="rgba(42, 80, 130, 0.5)" color="#2A5082">
     <path   class="back"  d="M32.7,13.8l-7-5.2L2.2,8.8v35.5c0,1,1.3,0.8,2.3,0.8l43.6,0.1c0.9,0,2.2-0.8,2.4-2.4l0.1-29L32.7,13.8z"/>
<path   class="front" fill="currentColor"   d="M48.1,46.8h-45c-1.6,0-2.9-1.3-2.9-2.9v-37l20.9-0.2l5.2-0.1l7.3,5.5l18.8-0.2l-0.1,30.5
    C52.3,46.2,49.3,46.8,48.1,46.8z M2.2,8.8V44c0,0.5,0.4,1,1,1h45c0.3,0,2.3,0,2.3-2.6l0.1-28.6L29.4,14l-4.6,0.1L6.2,14.4L5.9,42.2
    H4l0.1-11.9l0.1-17.7h0.9L30.3,12l-4.6-3.4l-4.5,0.1L2.2,8.8z"/>
</svg>