<?xml version="1.0" encoding="iso-8859-1"?>
<!-- Generator: Adobe Illustrator 19.0.0, SVG Export Plug-In . SVG Version: 6.00 Build 0)  -->
<svg version="1.1" id="Layer_1" xmlns="http://www.w3.org/2000/svg" xmlns:xlink="http://www.w3.org/1999/xlink" x="0px" y="0px"
	 viewBox="0 0 60 60" style="enable-background:new 0 0 60 60;" xml:space="preserve" fill="rgba(42, 80, 130, 0.5)" color="#2A5082">
<polyline class="back" points="6.3,12.6 17.6,12.6 17.6,1.4 "/>
<g>
    <path class="front" fill="currentColor" d="M45.3,53.2H8.9v-2.4h36.4c0.7,0,1.2-0.5,1.2-1.2V3.5c0-0.7-0.5-1.2-1.2-1.2H16.7l-9,9v39.5H5.3V10.3L15.7-0.1
        h29.6c2,0,3.6,1.6,3.6,3.6v46.1C48.9,51.6,47.3,53.2,45.3,53.2z"/>
</g>
<g>
    <polygon class="front" fill="currentColor" points="18.6,13.2 10.1,13.2 10.1,10.8 16.2,10.8 16.2,4.7 18.6,4.7  "/>
</g>
<g>
    <rect x="15" y="24.6" class="front" fill="currentColor" width="24.2" height="2.4"/>
</g>
<g>
    <rect x="15" y="29.5" class="front" fill="currentColor" width="14.5" height="2.4"/>
</g>
<g>
    <rect x="15" y="19.8" class="front" fill="currentColor" width="24.2" height="2.4"/>
</g>
</svg>