<?xml version="1.0" encoding="utf-8"?>
<!-- Generator: Adobe Illustrator 25.2.1, SVG Export Plug-In . SVG Version: 6.00 Build 0)  -->
<svg version="1.1" id="Layer_1" xmlns="http://www.w3.org/2000/svg" xmlns:xlink="http://www.w3.org/1999/xlink" x="0px" y="0px"
	 viewBox="0 0 100 40.5" style="enable-background:new 0 0 100 40.5;" xml:space="preserve">
<style type="text/css">
	.st0{fill:#3A445D;}
</style>
<path class="st0" d="M80.3,21.2C80.3,21.2,80.3,21.2,80.3,21.2c-0.1,0-0.2,0.1-0.2,0.1c0,0.1,0,0.1,0,0.2l0.2,0.4l0.2,0
	C80.5,21.5,80.5,21.3,80.3,21.2z M83,27.4l0.2-0.2L83,26.7c-0.2,0-0.3,0-0.2,0.1C82.7,27,82.8,27.3,83,27.4z M80.7,20.5
	c-0.1-0.1-0.2-0.2-0.3-0.3c-0.1,0.1-0.1,0.1-0.1,0.2c0.1,0.1,0.2,0.2,0.3,0.3C80.8,20.6,80.8,20.6,80.7,20.5L80.7,20.5z M83.9,29.5
	c0,0.1,0.1,0.1,0.1,0.2c0.1-0.1,0.3-0.1,0.4-0.2c-0.1-0.2-0.2-0.5-0.3-0.7s-0.2-0.5-0.4-0.7c-0.1-0.2-0.2-0.5-0.4-0.7
	c-0.1,0-0.2,0-0.3,0.1c-0.1,0-0.1,0.1-0.1,0.2c0,0,0,0,0,0c0,0.1,0,0.1,0.1,0.1L83.9,29.5z M80.8,23.1c0.4,0.9,0.8,1.8,1.3,2.7
	c0,0.1,0.1,0.1,0.1,0.2h0.1c0.3,0,0.4,0,0.2-0.3c0-0.1,0-0.1-0.1-0.1c-0.4-0.9-0.8-1.7-1.2-2.6c-0.1-0.2-0.2-0.4-0.3-0.6
	c0-0.1-0.1-0.1-0.2,0c0,0,0,0,0,0c-0.1,0.1-0.1,0.2,0,0.2C80.7,22.8,80.8,23,80.8,23.1L80.8,23.1z M83.5,25.1c0-0.2-0.1-0.4-0.3-0.5
	c-0.3-0.3-0.5-0.6-0.7-1c0-0.1-0.1-0.1-0.1-0.2l-0.2-0.2c-0.1-0.1-0.1-0.1-0.3,0.1c0.4,0.7,0.9,1.3,1.4,1.9L83.5,25.1z M84.9,27.1
	C85,27.1,85,27,84.9,27.1c0-0.2,0-0.2-0.1-0.3l-0.4-0.5c-0.1-0.1-0.2-0.2-0.2-0.3s-0.1,0-0.1,0l-0.2,0.2c0,0.1,0.1,0.1,0.1,0.2
	s0.2,0.3,0.4,0.5c0.1,0.2,0.2,0.3,0.4,0.4C84.8,27.3,84.9,27.2,84.9,27.1L84.9,27.1z M87.9,31.8l0.1,0.2c0.1,0.1,0.2,0.1,0.3,0.1
	c0.1,0,0.3-0.1,0.4-0.2l-0.1-0.1c-0.2-0.3-0.4-0.6-0.6-0.9c-0.4-0.4-0.7-0.9-1-1.3c0,0-0.1-0.1-0.1-0.2c0-0.1-0.2-0.2-0.3-0.3
	l-0.3,0.2c0,0.2,0.1,0.2,0.1,0.3L87.9,31.8z M90.4,30.3c0.1-0.1,0.2-0.2,0.4-0.4c0.1-0.1,0.1-0.2,0-0.2c0,0,0,0,0,0l-0.1-0.1
	l-2.3-1.9c-0.1,0-0.1-0.1-0.2-0.1L88,27.9c0,0,0,0.1,0,0.1L90.4,30.3L90.4,30.3z M87.4,27.5c0.2-0.2,0.2-0.2,0.2-0.2
	c0-0.1,0-0.2-0.1-0.2c-0.1-0.1-0.2-0.1-0.2-0.2L85.5,25l-0.1-0.1c-0.1-0.1-0.2-0.1-0.2,0c-0.1,0.1-0.1,0.2,0,0.2l0.3,0.3
	c0.1,0.1,0.3,0.2,0.4,0.3c0.4,0.4,0.8,0.8,1.2,1.2L87.4,27.5z M85.8,28.7l0.2-0.1l0.2-0.1c-0.1-0.2-0.3-0.4-0.4-0.6
	c-0.2-0.2-0.3-0.4-0.5-0.6l-0.3,0.1c0,0.1,0,0.1,0,0.2C85.2,28,85.5,28.4,85.8,28.7z M80.2,18.9C80.2,18.9,80.2,18.9,80.2,18.9
	C80.2,19,80.2,18.9,80.2,18.9c0.1,0,0.1,0,0.2-0.1c0,0,0-0.1,0-0.2C80.3,18.6,80.2,18.7,80.2,18.9z M81.2,14.7
	c-0.2,0.6-0.4,1.2-0.6,1.8l-0.4,1.2c0,0,0.1,0,0.1,0c0,0,0.1,0,0.1,0c0,0,0,0,0.1-0.1c0,0,0-0.1,0-0.1c0.3-0.8,0.8-2,1.1-2.8
	c0-0.1,0-0.1,0-0.2c0-0.1,0-0.1-0.1-0.2c0,0,0,0,0,0C81.3,14.6,81.2,14.7,81.2,14.7L81.2,14.7z M82.6,10.7c-0.1,0-0.2,0.1-0.2,0.2
	c0,0.1-0.1,0.1-0.1,0.2l-0.2,0.6l-0.5,1.5c0,0.1-0.1,0.3-0.1,0.5h0.3c0.3-1,0.7-1.9,1-2.9C82.7,10.7,82.7,10.7,82.6,10.7L82.6,10.7z
	 M80.4,23c0.1,0,0.1,0,0.1-0.1v-0.1c0-0.1,0-0.2,0-0.3s-0.1-0.1-0.2-0.1s-0.1,0.1-0.1,0.2s0.1,0.3,0.1,0.4S80.3,23.1,80.4,23
	L80.4,23z M80.5,18l-0.1,0.1l0,0L80.5,18L80.5,18z M82.7,16.3C82.7,16.3,82.7,16.4,82.7,16.3C82.7,16.4,82.8,16.4,82.7,16.3
	c0.1,0.1,0.2,0,0.2,0c0.2-0.2,0.4-0.4,0.6-0.6c0,0,0-0.1,0.1-0.1v-0.1c0,0-0.1,0-0.1,0C83.1,15.8,82.9,16,82.7,16.3L82.7,16.3z
	 M84.4,11.5l-0.1,0.1c-0.2,0.3-0.3,0.6-0.5,1s-0.5,0.8-0.7,1.1C83.1,13.9,83,14,83,14.2c0,0,0,0.1,0,0.1c0,0.1,0.1,0.1,0.2,0.1
	c0,0,0,0,0.1-0.1l0.8-1.2c0.3-0.5,0.6-0.9,0.9-1.4v-0.1c0,0,0-0.1,0-0.1C84.7,11.3,84.6,11.4,84.4,11.5L84.4,11.5z M91.9,28.2
	c0.1,0,0.1,0.1,0.2,0.1c0.1-0.1,0.2-0.2,0.2-0.3c0.1-0.2,0.1-0.2-0.1-0.3L89.6,26l-0.2-0.1l-0.2,0.4c0.1,0.1,0.2,0.2,0.3,0.2
	l1.7,1.1L91.9,28.2z M79.5,33.8c0,0.1,0,0.1,0,0.2c0,0.2,0.2,0.3,0.4,0.2c0.1,0,0.3-0.1,0.3-0.3c0-0.1,0-0.2,0-0.2v-2.1
	c0-0.2-0.1-0.3-0.3-0.4c-0.1,0.2-0.2,0.1-0.3,0.1c-0.1,0.1-0.1,0.2-0.1,0.3L79.5,33.8z M79.8,27.3c-0.1,0-0.2,0.1-0.2,0.2
	c0,0.1,0,0.2,0,0.3c0,0.4,0,0.8,0,1.1c0,0.2,0,0.4,0,0.6c0,0.3,0,0.6,0.1,0.8c0,0,0,0,0,0.1c0.1,0,0.1,0.1,0.2,0.1
	c0.1,0,0.1-0.1,0.1-0.1c0-0.1,0-0.1,0-0.2c0-0.6,0-1.2-0.1-1.8c0-0.3,0-0.6,0-0.9C79.9,27.4,79.8,27.3,79.8,27.3z M79.9,18.5
	c0,0,0,0.1,0.1,0.1s0.1-0.2,0.2-0.3s0-0.1-0.1-0.2C80,18.3,79.9,18.4,79.9,18.5z M80.1,20.8C80.1,20.8,80.1,20.8,80.1,20.8
	C80,20.8,80,20.9,80.1,20.8c0,0.1,0,0.1,0,0.1C80.2,20.9,80.2,20.9,80.1,20.8z M79.9,21.6C79.9,21.7,79.9,21.7,79.9,21.6
	c0.1,0.1,0.1,0,0.2,0c0-0.1,0-0.1-0.1-0.1C80,21.5,79.9,21.6,79.9,21.6z M75.1,26.2L75.1,26.2c-0.1-0.1-0.3-0.1-0.3,0.1c0,0,0,0,0,0
	c-0.1,0.1-0.2,0.3-0.3,0.4c-0.2,0.3-0.4,0.6-0.6,1l-0.3,0.5c0.1,0.1,0.2,0.2,0.4,0.3c0,0,0.1-0.1,0.1-0.1c0.4-0.6,0.7-1.2,1.1-1.8
	C75.3,26.5,75.3,26.3,75.1,26.2C75.2,26.2,75.2,26.2,75.1,26.2L75.1,26.2L75.1,26.2z M80.2,15.1c0.1,0,0.2,0,0.2-0.1
	c0,0,0-0.1,0-0.1c0-0.1,0.1-0.4,0-0.5c-0.1,0-0.2,0-0.2,0.1c-0.1,0.1-0.1,0.3-0.1,0.4C80.1,15,80.2,15.1,80.2,15.1
	C80.2,15.1,80.2,15.1,80.2,15.1z M80.6,13.5c0-0.3,0.1-0.5,0.1-0.8c0,0,0-0.1,0-0.1c-0.2-0.1-0.3,0-0.3,0.1c0,0.1-0.1,0.2-0.1,0.4
	c0,0.2,0,0.4,0,0.6C80.6,13.7,80.6,13.7,80.6,13.5z M82.4,4.6c0.5-1.5,1-3,1.4-4.6h-1.7c-0.2,1.4-0.4,2.7-0.7,4.1
	c-0.1,0.4-0.4,1.2,0,1.5C82.1,6.2,82.3,5.1,82.4,4.6z M81,9.6c0.1,0,0.3,0,0.4-0.1s0.1-0.3,0.1-0.5s0-0.4,0.1-0.6s0.1-0.5,0.2-0.8
	s0-0.4,0.1-0.6V7c0-0.1-0.3-0.2-0.4-0.2c-0.1,0-0.2,0.1-0.2,0.2c0,0,0,0,0,0.1c-0.1,0.6-0.2,1.2-0.3,1.8c0,0.3-0.1,0.5-0.1,0.8
	C80.8,9.6,80.9,9.7,81,9.6C81,9.7,81,9.7,81,9.6z M79.8,24.5c0-0.1-0.1-0.1-0.1-0.1c-0.1,0-0.1,0-0.2,0.1c0,0.1,0,0.1,0,0.2v0.6l0,0
	V26c0,0.1,0,0.1,0,0.2c0,0.1,0.1,0.1,0.2,0.1c0.1,0,0.1,0,0.2-0.1c0-0.1,0-0.1,0-0.2c0-0.4,0-0.9,0-1.3
	C79.8,24.6,79.8,24.6,79.8,24.5z M80.7,12.3c0.1,0,0.1,0,0.2-0.1c0-0.1,0.1-0.1,0.1-0.2c0-0.3,0.1-0.7,0.1-1c0,0,0,0,0-0.1
	c0,0,0-0.1,0-0.1c0-0.1-0.1-0.1-0.2-0.1c-0.1,0-0.1,0.1-0.1,0.1c0,0,0,0,0,0.1c-0.1,0.4-0.1,0.7-0.2,1.1c0,0,0,0.1,0,0.1
	C80.6,12.2,80.6,12.3,80.7,12.3z M80,17.4c0-0.1,0.1-0.2,0.1-0.3c0.1-0.5,0.2-1,0.3-1.6c0-0.1,0-0.1,0-0.2c0,0,0-0.1,0-0.1
	c0,0-0.1-0.1-0.1-0.1c0,0-0.1,0-0.1,0c0,0.1-0.1,0.1-0.1,0.2c-0.1,0.6-0.1,1.2-0.2,1.7c0,0,0,0.1,0,0.1C79.9,17.4,80,17.5,80,17.4z
	 M78,22.1c0-0.1,0-0.2-0.1-0.2c-0.1,0-0.1,0-0.2,0.1l-0.1,0.1l-1.5,2.3c-0.1,0.1-0.2,0.3-0.3,0.5c0.1,0,0.1,0.1,0.1,0.1
	c0.2,0.1,0.3,0.1,0.4-0.1l1.6-2.5C78,22.2,78,22.1,78,22.1L78,22.1z M75.5,26L75.5,26c0-0.1,0-0.2-0.1-0.3c0,0-0.1,0-0.1,0
	c0,0-0.1,0-0.1,0c-0.1,0.1-0.2,0.3-0.1,0.4h0.2L75.5,26z M65.1,30.3c1-0.8,2.1-1.5,3.1-2.3c0.5-0.4,1.9-1.1,1.2-1.9
	c-0.2-0.2-0.5,0-0.7,0.1c-0.7,0.3-1.3,0.7-1.9,1.1c-1,0.6-2.1,1.2-3.2,1.8c-0.4,0.2-1,0.5-1.2,0.8c-0.1,0.3-0.1,0.5-0.1,0.8v1.8
	C63.3,31.8,64.2,31.1,65.1,30.3z M93.5,25.8c0.1-0.1,0.3-0.2,0.3-0.4c0,0-0.1-0.1-0.1-0.1l-3.2-1.2c-0.1,0-0.1,0-0.2,0
	c-0.1,0.1-0.2,0.2-0.2,0.4c0.4,0.2,0.8,0.3,1.1,0.5l1.1,0.5C92.8,25.5,93.1,25.7,93.5,25.8z M77.2,25.8c0.1-0.1,0.1-0.2,0.1-0.3
	c0-0.1,0-0.1-0.1-0.2c-0.1,0-0.1,0-0.2,0.1C77,25.5,77,25.6,77,25.8L77.2,25.8z M84.7,14.2c-0.1,0.1-0.3,0.3-0.4,0.4
	C84.2,14.8,84,15,84,15.1l0.2,0.1c0.4-0.4,0.8-0.8,1.1-1.3c0-0.1-0.1-0.2-0.2-0.2S84.8,14.1,84.7,14.2L84.7,14.2z M83.7,7.4
	l-0.4,1.1l-0.4,1.1c0,0.1,0,0.2,0,0.2c0.1,0.1,0.2,0.1,0.3,0.1c0.1,0,0.2-0.1,0.2-0.2c0-0.1,0-0.1,0.1-0.1l0.9-2
	c0-0.1,0.1-0.2,0.1-0.3c-0.1-0.1-0.2-0.2-0.4-0.3c-0.1,0-0.2,0-0.2,0.1C83.7,7.2,83.7,7.3,83.7,7.4L83.7,7.4z M99.8,23
	c-0.2-0.2-0.7-0.1-1-0.2c-0.8-0.1-1.6-0.2-2.3-0.3c-0.3,0-0.8-0.2-1-0.1s-0.2,0.4-0.2,0.6l4.7,1C99.9,23.8,100.1,23.2,99.8,23z
	 M97.9,14.9l-1.4,0.4c-0.6,0.1-1.1,0.3-1.7,0.5c-0.2,0.1-0.3,0.3-0.2,0.5c0,0,0,0.1,0.1,0.1c0.3,0.3,1.3-0.1,1.7-0.2l2.6-0.6
	c0.2-0.1,0.7-0.1,0.9-0.3s0.1-0.7,0.1-1C99.2,14.4,98.5,14.6,97.9,14.9L97.9,14.9z M99.9,29v-1.2c-1.5-0.5-3-1-4.4-1.6
	c-0.6-0.2-1.4-0.8-1.7,0.1c1.3,0.8,2.7,1.3,4.1,1.9C98.6,28.5,99.2,28.8,99.9,29z M91.9,19.2l-0.8,0.1c-0.1,0.1-0.1,0.2,0,0.3
	c0,0.1,0.2,0.1,0.2,0.1l0,0l2.9,0.1c0.1,0,0.3,0,0.4,0c0-0.1,0-0.3,0-0.4c-0.1-0.2-0.4-0.2-0.6-0.2L91.9,19.2z M94.3,22.7
	c0.1-0.2,0.1-0.4,0-0.5c0,0-0.1-0.1-0.1-0.1c-0.1,0-0.1,0-0.2,0l-1.9-0.3c-0.1,0-0.3,0-0.4,0c-0.1,0.1-0.1,0.2-0.1,0.3
	c0.1,0.1,0.2,0.2,0.3,0.2h0.2l1.8,0.3C94,22.7,94.2,22.7,94.3,22.7L94.3,22.7z M100,19.1c-1.6,0-3.2,0.2-4.8,0.2V20l4.8,0.1V19.1z
	 M85.1,6.1c0.4-0.5,0.8-1.1,1-1.7c0.5-0.9,1.1-1.8,1.6-2.7c0.4-0.5,0.6-1,0.9-1.6h-1.4c-0.2,0-0.4,0-0.6,0.1
	c-0.4,0.3-0.6,1.2-0.7,1.7c-0.6,1.4-1.2,2.9-1.7,4.3C84.4,6.1,84.8,6.3,85.1,6.1z M87.2,6.4c-0.1,0.2-0.3,0.5-0.1,0.7
	c0.7,0.8,1.6-0.6,1.9-1.1C90,4.7,91,3.5,91.9,2.3c0.6-0.7,1.2-1.5,1.7-2.3h-1.6c-0.2,0-0.5,0-0.7,0c-0.4,0.2-0.7,0.9-0.9,1.3
	c-0.7,1.1-1.4,2.2-2.1,3.2C88,5.2,87.6,5.8,87.2,6.4z M93.5,16.3L93,16.4c-0.1,0-0.1,0.1-0.2,0.1c0,0.1,0,0.2,0.1,0.3
	c0.3,0,0.7-0.1,1-0.3c0-0.1,0-0.3-0.1-0.4L93.5,16.3z M98.3,7.5c0.6-0.3,1.1-0.6,1.5-1c0.2-0.6,0.2-1.4,0-2
	c-1.1,0.8-2.2,1.7-3.2,2.5l-2.1,1.6c-0.8,0.6-1.6,1.2-2.3,1.8c-0.2,0.2-0.6,0.6-0.2,0.9c0.2,0.2,0.6,0,0.8-0.2
	c0.6-0.4,1.2-0.8,1.8-1.2C95.8,9.1,97,8.3,98.3,7.5z M90.1,8.3c-0.3,0.2-0.7,0.6-0.3,0.9c0.6,0.6,1.1,0.2,1.6-0.2l1.5-1.3
	c1.6-1.4,3.2-2.8,4.8-4.2c0.5-0.5,1.1-0.9,1.6-1.4c0.2-0.2,0.6-0.4,0.7-0.8c0.1-0.4,0.1-0.9,0-1.3C99.3,0,98.8,0,98.2,0
	c-0.3,0.2-0.5,0.4-0.8,0.6l-1.1,1.2c-1.5,1.5-3,3.1-4.5,4.6C91.3,7.1,90.7,7.7,90.1,8.3z M81.2,20.4c0.1,0,0.1,0,0.1-0.1
	s0-0.1,0-0.1L80.8,20c0,0-0.1,0-0.1,0s0,0.1,0,0.1C80.8,20.3,81,20.4,81.2,20.4z M85.2,22.1l0.1-0.2L85,21.8l-1.3-0.5L83,20.9
	c-0.1-0.1-0.2-0.1-0.3-0.1c-0.1,0.2-0.1,0.2,0.1,0.3h0.1L85,22C85.1,22.1,85.1,22.1,85.2,22.1L85.2,22.1z M82.5,21.7
	c0.1,0.1,0.2,0.2,0.3,0.3c0.1,0,0.1,0,0.2,0c0-0.1,0-0.1,0-0.2c-0.1-0.1-0.3-0.2-0.4-0.2C82.4,21.5,82.4,21.6,82.5,21.7L82.5,21.7z
	 M82.8,19.7c0.1,0,0.3,0,0.4,0h1c0.2,0,0.2,0,0.2-0.2c0,0,0-0.1,0-0.1c-0.5,0-1,0-1.6,0.1L82.8,19.7z M85.2,18.7
	c0.1,0,0.1-0.1,0.1-0.2s0-0.2-0.2-0.2h-0.3c-0.1,0-0.3,0-0.4,0c-0.1,0-0.2,0-0.3,0c-0.1,0-0.2,0.1-0.3,0.1c-0.4,0-0.7,0.1-1.1,0.3
	c0,0,0,0-0.1,0.1c0,0.1,0.2,0.2,0.3,0.2l0.9-0.1l0.8-0.1L85.2,18.7z M82.7,18.4l-0.1-0.2c-0.2,0-0.4,0.1-0.6,0.2
	c0.1,0.2,0.1,0.2,0.2,0.2L82.7,18.4C82.7,18.5,82.7,18.5,82.7,18.4L82.7,18.4z M88.6,17.6l-0.5,0.1c-0.1,0-0.3,0.1-0.4,0.1
	c-0.3,0-0.7,0.1-1,0.2c-0.2,0-0.2,0.1-0.1,0.3c0,0,0,0.1,0.1,0.1c0.1,0,0.1,0,0.2,0c1-0.2,2.1-0.4,3.1-0.7c0-0.1,0-0.2,0-0.3
	c0-0.1-0.1-0.1-0.1-0.1c0,0,0,0,0,0c-0.2,0-0.5,0.1-0.7,0.2C88.9,17.5,88.8,17.6,88.6,17.6L88.6,17.6z M82.2,20
	C82.2,20,82.2,19.9,82.2,20c-0.1-0.1-0.2-0.1-0.2-0.1h-0.1c0,0,0,0.1,0,0.1C81.9,20.1,82.1,20.2,82.2,20C82.2,20.1,82.2,20,82.2,20z
	 M82.1,20.6c0,0,0-0.1-0.1-0.1l-0.3-0.2c-0.1,0-0.1,0-0.2,0.1c0,0,0,0.1,0,0.1c0,0,0,0,0,0c0.1,0.1,0.2,0.1,0.4,0.1
	C81.9,20.6,82,20.6,82.1,20.6L82.1,20.6z M82.3,19.6c0,0,0-0.1,0-0.1c0,0-0.1,0-0.1,0h-0.6c-0.2,0-0.2,0-0.2,0.3h0.8
	C82.2,19.7,82.2,19.6,82.3,19.6L82.3,19.6z M81.2,18.4C81.1,18.4,81.1,18.5,81.2,18.4c-0.1,0.1-0.1,0.1-0.1,0.1c0,0,0.1,0,0.1,0
	C81.2,18.5,81.3,18.5,81.2,18.4C81.2,18.5,81.2,18.5,81.2,18.4L81.2,18.4z M81.5,20.9l0.2,0.2c0,0,0.1,0,0.1-0.1c0,0,0,0,0-0.1
	C81.8,20.8,81.7,20.8,81.5,20.9C81.5,20.8,81.4,20.9,81.5,20.9L81.5,20.9z M88.6,15.2l-0.3,0.1c-0.4,0.2-0.7,0.3-1.1,0.6
	c-0.3,0.2-0.6,0.3-0.8,0.5s-0.4,0.3-0.6,0.4l0.1,0.3h0.1c0,0,0.1,0,0.1,0l3.1-1.6l0,0l0,0c0-0.1-0.1-0.3-0.2-0.4L88.6,15.2z
	 M88.2,25.5l0.2,0.2c0.1,0,0.2,0,0.3-0.1c0,0,0,0,0,0c0.1-0.1,0.1-0.2,0-0.3c0,0,0,0,0,0l-0.2-0.1C88.3,25.3,88.2,25.4,88.2,25.5z
	 M85.7,13.7l0.7-0.6c0.2-0.1,0.2-0.2,0-0.4l-0.1-0.1l-0.1,0.1c-0.2,0.2-0.5,0.4-0.7,0.7s-0.1,0.2,0.1,0.4
	C85.5,13.8,85.6,13.8,85.7,13.7z M89.6,24.1c0.1,0,0.1,0,0.2,0c0.1-0.1,0.1-0.1,0.1-0.2l-0.1-0.1l-2.8-1.2c-0.1,0-0.2-0.1-0.4-0.1
	c-0.2,0.3-0.2,0.3,0,0.4h0.1l2.7,1.1C89.4,24.1,89.5,24.1,89.6,24.1z M91,22c0.1,0.1,0.2,0.1,0.3,0.1c0.1,0,0.2-0.1,0.2-0.3
	s0-0.1-0.1-0.1c-0.1,0-0.2,0-0.3-0.1C91,21.8,90.9,21.9,91,22z M81,18.9c-0.2,0-0.3,0.1-0.4,0.3c0.1,0,0.1,0.1,0.2,0.1
	c0.2,0,0.3-0.1,0.4-0.2C81.2,18.9,81.1,18.9,81,18.9z M87.1,7.9c-0.2,0-0.3-0.2-0.6-0.1c-0.5,0.8-1,1.7-1.4,2.5
	C85,10.4,85,10.5,85,10.7c0,0.1,0.1,0.2,0.1,0.2c0,0,0,0,0,0c0.1,0,0.2,0,0.2-0.1c0.1-0.1,0.2-0.2,0.3-0.3l1.4-2.1
	c0-0.1,0.1-0.2,0.1-0.2S87.2,7.9,87.1,7.9L87.1,7.9z M92.6,13.5l-0.2-0.1c-0.1-0.1-0.3-0.1-0.4,0l-2.1,1c-0.2,0.1-0.3,0.3-0.4,0.5
	s0,0.1,0,0.2c0.3,0.1,0.7,0,1-0.2l0.2-0.1l1.7-0.8C92.6,13.9,92.7,13.7,92.6,13.5C92.7,13.5,92.7,13.5,92.6,13.5L92.6,13.5z
	 M85.3,23.5c0-0.1,0.1-0.1,0.1-0.2c-0.7-0.5-1.4-0.9-2.1-1.3c0,0,0,0-0.1,0l-0.1,0.2l0.6,0.5c0.4,0.3,0.9,0.6,1.3,0.9
	C85.1,23.6,85.2,23.6,85.3,23.5C85.3,23.5,85.4,23.4,85.3,23.5L85.3,23.5z M84.7,15.7c0.1,0.1,0.1,0.2,0.2,0.2c0.1,0,0.2,0,0.2-0.1
	c0,0,0.1,0,0.1-0.1l2-1.5c0.1,0,0.1-0.1,0.2-0.1c0.1-0.1,0.1-0.2,0-0.3c-0.1-0.1-0.2-0.2-0.4-0.1c0,0,0,0,0,0L87,13.9l-1.4,1
	C85.3,15.1,85,15.4,84.7,15.7L84.7,15.7z M84.1,16.6c0.1,0,0.2-0.1,0.2-0.2c0,0,0,0-0.1-0.1s-0.1,0-0.1,0c-0.1,0-0.1,0.1-0.2,0.1
	c0,0.1,0,0.1,0,0.2C84,16.6,84.1,16.6,84.1,16.6L84.1,16.6z M83.6,23.4c-0.2,0.1-0.3,0.2-0.1,0.3l0.1,0.1l0.8,0.7l0,0
	c0.2-0.1,0.2-0.2,0.1-0.3l-0.6-0.6L83.6,23.4z M82.8,18.3C82.8,18.4,82.8,18.4,82.8,18.3l0.1,0.1l1.3-0.6l0.7-0.3
	c0.2-0.1,0.2-0.2,0-0.3c-0.1-0.1-0.2-0.1-0.3,0l-0.2,0.1L83.2,18C83.1,18.1,82.9,18.2,82.8,18.3L82.8,18.3z M92,17.2
	c0.2,0,0.4-0.1,0.6-0.2c0-0.4-0.1-0.4-0.4-0.3l-1,0.3c-0.2,0-0.3,0.1-0.4,0.2v0.3c0.3,0,0.3,0,0.4,0C91.5,17.3,91.7,17.2,92,17.2z
	 M82.4,22.7l0.6,0.5c0,0,0.1,0.1,0.1,0.1c0.1,0.1,0.2,0.1,0.3,0c0,0,0-0.1,0.1-0.1c0-0.1,0-0.2-0.1-0.2l-1-0.9l-0.5-0.3l-0.2,0.2
	C81.8,22.2,82.1,22.5,82.4,22.7z M85.8,22.3C85.8,22.3,85.8,22.3,85.8,22.3c0.1-0.1,0.1-0.1,0.1-0.1c0-0.1-0.2-0.2-0.3-0.2
	c-0.1,0-0.1,0-0.1,0.1c0,0,0,0.1,0,0.1C85.6,22.3,85.7,22.3,85.8,22.3z M86.2,20.7c0-0.1-0.1-0.1-0.2-0.1c-0.2-0.1-0.4-0.1-0.7-0.1
	l-1.6-0.3L82.9,20c-0.1,0-0.2,0-0.2,0.2c0,0.1,0,0.2,0.1,0.2c0,0,0,0,0,0c0.2,0,0.6,0.1,0.8,0.1c0.4,0,0.8,0.1,1.1,0.2
	c0,0,0.1,0,0.1,0l0.6,0.1c0.2,0,0.4,0.1,0.6,0.1C86.2,20.9,86.2,20.8,86.2,20.7z M80.7,21.3c0,0.1,0,0.2,0.1,0.2c0,0,0,0,0.1,0
	c0,0,0.1,0,0.1-0.1C80.9,21.4,80.9,21.3,80.7,21.3C80.8,21.3,80.8,21.3,80.7,21.3z M87.7,25.2c0.1,0.1,0.2,0.1,0.2,0.1
	c0,0,0.1,0,0.1,0c0.1-0.1,0.1-0.2,0-0.4c0,0,0,0,0,0L88,24.9c-0.4-0.2-0.8-0.5-1.2-0.8c-0.1-0.1-0.3-0.2-0.4-0.3l-0.3,0.3
	c0.1,0.1,0.1,0.1,0.2,0.2C86.7,24.6,87.2,24.9,87.7,25.2L87.7,25.2z M81.9,23c0-0.1,0-0.1,0-0.2c-0.2-0.3-0.4-0.5-0.6-0.7
	c-0.1,0-0.1,0.1-0.1,0.1c0.1,0.3,0.3,0.5,0.5,0.7C81.7,23,81.8,23.1,81.9,23C81.9,23,81.9,23,81.9,23z M91.2,11.2
	c-0.1,0-0.3,0-0.4,0.1l-2.2,1.3c-0.1,0-0.1,0.1-0.2,0.1c0,0.1-0.1,0.1-0.1,0.2s-0.2,0.1-0.2,0.2l0.3,0.3c0.2-0.1,0.4-0.2,0.6-0.3
	l2.2-1.3c0.1,0,0.1-0.1,0.2-0.1c0.1-0.1,0.1-0.2,0.1-0.4C91.5,11.2,91.3,11.1,91.2,11.2L91.2,11.2z M81.4,21.5c0,0,0.1-0.1,0.1-0.1
	c-0.1-0.2-0.3-0.4-0.5-0.5l-0.2,0.1l0.4,0.5C81.3,21.5,81.3,21.5,81.4,21.5z M89.6,9.8c-0.2-0.3-0.3-0.2-0.5,0L87,11.9L86.9,12
	c-0.1,0.1-0.1,0.3,0.1,0.3h0.1c0.1,0,0.2,0,0.3-0.1c0.2-0.1,0.2-0.1,0.4-0.2l0.3-0.3c0.2-0.1,0.3-0.3,0.5-0.5
	c0.3-0.3,0.4-0.3,0.8-0.7l0.3-0.3c0.1-0.1,0.1-0.2,0-0.3C89.6,9.9,89.6,9.8,89.6,9.8z M89.9,21.4c-0.1,0-0.3,0-0.4,0
	c-0.1-0.1-0.3-0.1-0.5-0.1C89,21.4,89,21.5,89,21.6c0.3,0.1,0.6,0.1,0.9,0.2C90,21.7,90.1,21.6,89.9,21.4z M87.3,21.3
	c0.4,0,0.7,0.1,1.1,0.2h0.2c0.1,0,0.2,0,0.2-0.1c0.1-0.1,0-0.1,0-0.2L87.9,21l-0.6-0.1c-0.1,0-0.2,0-0.2,0.1c0,0,0,0,0,0
	c0,0.1,0,0.2,0.2,0.2L87.3,21.3z M90.4,19.7c0.1-0.1,0.1-0.3,0-0.4h-0.2c-1.3,0-2.9,0-3.3,0c0,0.1,0,0.2,0,0.2
	c0,0.1,0.1,0.1,0.2,0.1h0.1h3.1C90.3,19.7,90.4,19.7,90.4,19.7z M82,15.6l-1,1.6c-0.1,0.2-0.2,0.3-0.3,0.5c0,0,0,0.1,0,0.1
	c0,0,0.3-0.2,0.3-0.3c0.1-0.1,0.1-0.2,0.2-0.2l0.3-0.4c0.2-0.3,0.4-0.5,0.6-0.8c0.1-0.2,0.2-0.4,0.3-0.6c-0.1,0-0.1-0.1-0.2-0.1
	S82.1,15.6,82,15.6z M85.8,18.4c-0.1-0.1-0.2-0.1-0.3-0.1c0,0-0.1,0-0.1,0.1c0,0.1,0,0.1,0.1,0.2c0,0,0,0,0,0c0.1,0,0.2,0,0.3-0.1
	C85.8,18.5,85.8,18.4,85.8,18.4L85.8,18.4z M86,19.6c0.1,0,0.2-0.1,0.2-0.2c0,0,0,0,0,0c0-0.1-0.1-0.1-0.1-0.1h-0.1h-1
	c-0.1,0-0.2,0-0.2,0.1c0,0,0,0,0,0c0,0.1,0,0.1,0,0.2h0.8L86,19.6z M82,19.2C82,19.2,82.1,19.1,82,19.2L82,19.2c0.1-0.1,0-0.1,0-0.1
	c-0.1,0-0.1,0-0.2,0.1c0,0,0,0,0,0.1S81.9,19.2,82,19.2L82,19.2z M81.6,18.7c-0.1,0-0.1,0.1-0.1,0.1s0.1,0.1,0.1,0.1l0.2-0.1
	c0,0,0-0.1,0-0.1C81.7,18.7,81.6,18.7,81.6,18.7C81.5,18.7,81.5,18.7,81.6,18.7L81.6,18.7z M83.3,16.9l-1.1,0.8
	c-0.1,0.1-0.1,0.1-0.2,0.2c0,0-0.1,0.1,0,0.2c0,0,0,0,0,0c0.1,0,0.2,0,0.2,0c0.1,0,0.2-0.1,0.2-0.1c0.3-0.3,0.7-0.5,1-0.8
	c0.2-0.1,0.3-0.2,0.4-0.4l-0.1-0.2C83.5,16.7,83.4,16.8,83.3,16.9L83.3,16.9z M80.7,19.7H81c0.1-0.2,0.1-0.2-0.1-0.2
	c-0.1,0-0.2,0-0.3,0c0,0-0.1,0.1-0.1,0.1C80.5,19.6,80.6,19.7,80.7,19.7L80.7,19.7z M66.9,20.1c0.3-0.2,0.2-0.7,0.2-1
	c-1.6,0-3.2-0.2-4.7-0.2v1.6c0.9,0,1.8,0,2.7-0.1c0.1,0,0.2,0.1,0.3,0.1c-0.1,0-0.2-0.1-0.2-0.1c0.2,0,0.4,0,0.7-0.1
	S66.6,20.3,66.9,20.1L66.9,20.1z M80.6,18.5C80.6,18.5,80.7,18.5,80.6,18.5c0.1,0.1,0.2,0.1,0.2,0.1c0.1-0.1,0.1-0.1,0.2-0.2
	c-0.1-0.1-0.2-0.1-0.2,0S80.6,18.4,80.6,18.5L80.6,18.5z M82.2,17.2c0,0,0.1-0.1,0.1-0.1c0,0,0-0.1,0-0.1c-0.2,0-0.3,0.2-0.4,0.3
	s-0.2,0.2-0.3,0.3c-0.2,0.1-0.3,0.3-0.5,0.5c0.1,0.1,0.2,0.1,0.3,0.1L82.2,17.2z M82.7,16.7c0,0,0-0.1,0-0.1h-0.1
	C82.6,16.6,82.5,16.7,82.7,16.7C82.6,16.8,82.6,16.8,82.7,16.7C82.6,16.8,82.6,16.7,82.7,16.7L82.7,16.7z M82.5,15.1L82.5,15.1
	c-0.1,0.1-0.1,0.2,0,0.2c0.1,0,0.1,0,0.2-0.1l0,0C82.7,15.2,82.6,15.1,82.5,15.1C82.5,15.1,82.4,15.1,82.5,15.1L82.5,15.1z M76,12.4
	l0.2,0.5l0.4,0.8c0.1,0.2,0.2,0.4,0.3,0.6c0,0.1,0.1,0.1,0.2,0c0,0,0,0,0,0c0.1,0,0.1-0.1,0.1-0.2c0,0,0,0,0,0
	c-0.1-0.2-0.2-0.3-0.2-0.5c-0.1-0.3-0.4-0.6-0.5-0.9c-0.1-0.2-0.2-0.4-0.3-0.5c0,0-0.1-0.1-0.1-0.1C76,12.2,75.9,12.3,76,12.4z
	 M79.5,15.9C79.5,15.9,79.6,15.9,79.5,15.9c0.1-0.1,0.1-0.2,0.1-0.2c0-0.3-0.1-0.8-0.1-1.1c-0.1,0-0.2,0-0.2,0.1c0,0,0,0,0,0.1
	c0,0.2,0,0.5,0,0.9C79.4,15.7,79.4,15.8,79.5,15.9L79.5,15.9z M79.5,17.8C79.5,17.8,79.5,17.8,79.5,17.8c0.1-0.1,0.1-0.2,0.1-0.3
	c0-0.3,0-0.6-0.1-1c0-0.1,0-0.2,0-0.2c0,0,0-0.1-0.1-0.1c0,0-0.1,0.1-0.1,0.1c0,0.1,0,0.2,0,0.4s0,0.5,0,0.8
	C79.4,17.6,79.5,17.7,79.5,17.8z M79.4,24c0,0.1,0.1,0.2,0.2,0.2s0.1-0.1,0.1-0.2v-0.7l0,0v-0.6c0-0.1,0-0.2,0-0.2
	c0,0-0.1-0.1-0.1-0.1c-0.1,0-0.1,0-0.1,0.1c0,0.1-0.1,0.1-0.1,0.2C79.5,23,79.5,23.5,79.4,24C79.5,23.9,79.5,24,79.4,24z M79.6,21.8
	C79.6,21.8,79.7,21.8,79.6,21.8c0.1-0.2,0.1-0.3,0.1-0.5c0,0-0.1-0.1-0.2-0.1C79.5,21.4,79.5,21.6,79.6,21.8
	C79.5,21.8,79.6,21.8,79.6,21.8L79.6,21.8z M79.3,14c0.1,0,0.2-0.1,0.3-0.1v-0.3L79.6,11c0-0.1,0-0.1,0-0.2c0-0.1-0.1-0.1-0.1-0.1
	c-0.1,0-0.2,0-0.2,0.2s0,0.1,0,0.1c0,0.7,0,1.4,0,2.2c0,0.1,0,0.2,0,0.3v0.3C79.2,13.8,79.3,13.9,79.3,14z M78.8,5.5
	c0.2,0.2,0.8,0.3,0.9-0.1c0-0.4,0-0.8,0-1.2c0.1-1.4,0.1-2.8,0.1-4.2h-1.6c0.2,1.4,0.2,2.8,0.4,4.2C78.6,4.6,78.5,5.3,78.8,5.5
	L78.8,5.5z M73.4,7.7c0.2-0.2,0-0.6-0.1-0.9c-0.3-0.6-0.7-1.3-1-1.9c-0.7-1.2-1.3-2.4-2-3.6c-0.2-0.3-0.4-1.1-0.8-1.3
	c-0.2,0-0.5,0-0.7,0h-1.6c1.3,2.2,2.9,4.2,4.3,6.3C71.8,6.8,72.7,8.5,73.4,7.7L73.4,7.7z M69.2,7.2c0.5,0.6,1,1.1,1.5,1.7
	c0.2,0.2,0.5,0.4,0.7,0.1S71.3,8.2,71.1,8c-0.5-0.7-1-1.3-1.4-1.9c-1-1.5-2.1-2.9-3.2-4.3l-0.8-1.1c-0.1-0.2-0.3-0.4-0.5-0.5
	c-0.2,0-0.5,0-0.7,0H63c0.5,0.9,1.1,1.6,1.8,2.2C66.2,3.9,67.7,5.5,69.2,7.2L69.2,7.2z M77.5,11.7c0.1,0.3,0.2,0.5,0.3,0.8
	c0.2,0.6,0.3,1.1,0.5,1.7l0.1,0.1h0.2c0,0,0-0.1,0-0.1c0-0.2-0.1-0.5-0.2-0.7c0-0.1-0.1-0.2-0.1-0.3c0-0.2-0.1-0.4-0.1-0.6
	c-0.1-0.4-0.3-0.8-0.4-1.2c0-0.1-0.1-0.1-0.2-0.1c-0.1,0-0.1,0.1-0.2,0.2c0,0,0,0.1,0,0.1L77.5,11.7z M79.6,18.2L79.6,18.2
	c-0.1,0-0.1,0-0.1,0.1c0,0.1,0,0.2,0,0.4C79.7,18.5,79.7,18.3,79.6,18.2L79.6,18.2z M75.4,6.2c0.1,0.1,0.3,0.2,0.4,0.1
	c0.4-0.3,0-1.3-0.1-1.7c-0.4-1.5-0.7-3.1-0.8-4.6h-1.8c0.6,1.7,1.2,3.4,1.8,5.1C75.1,5.5,75.2,5.9,75.4,6.2L75.4,6.2z M76.9,10
	c0,0.1,0,0.3,0.2,0.4l0.2-0.1c0.1,0,0.1-0.1,0.1-0.2c0-0.1,0-0.1,0-0.2c-0.2-0.8-0.4-1.6-0.6-2.4c-0.1-0.4-0.2-0.3-0.5-0.2
	c-0.1,0-0.2,0.2-0.1,0.3l0.1,0.2C76.4,8.6,76.7,9.3,76.9,10z M62.3,24c1.5-0.3,2.9-0.8,4.3-1.2c0.4-0.1,1.3-0.3,1-1
	c-0.2-0.4-1-0.1-1.3-0.1L65,21.8l0,0l0,0c-0.9,0.1-1.8,0.2-2.6,0.3L62.3,24z M78.5,21.4c-0.1,0-0.2-0.1-0.2-0.1s0,0,0,0.1
	s0,0.1,0,0.1C78.4,21.5,78.5,21.4,78.5,21.4L78.5,21.4z M64,5.8c1.1,1,2.2,2.2,3.4,3.2c0.6,0.5,1.1,1.1,1.7,1.6
	c0.2,0.2,0.6,0.4,0.9,0.2s0-0.6-0.1-0.8c-0.4-0.6-0.9-1-1.4-1.5c-1.2-1.3-2.4-2.5-3.6-3.8c-0.8-1-1.7-1.9-2.6-2.8v1.6
	c0,0.3,0,0.6,0.1,0.8C62.7,4.9,63.5,5.3,64,5.8z M73.2,26.1c0.3-0.2,0.5-0.5,0.8-0.7c0,0,0.1-0.1,0.1-0.1l0.2-0.4
	c0,0-0.1-0.1-0.1-0.1c-0.1,0-0.2,0-0.3,0.1l-0.8,0.8c0,0,0,0,0,0c0,0.1,0,0.1,0,0.2C73.1,26,73.2,26,73.2,26.1L73.2,26.1z
	 M78.8,20.4c0,0,0-0.1,0-0.1c0,0-0.1,0-0.1,0c-0.1,0.1-0.1,0.1-0.2,0.2c0,0,0,0.1,0,0.2C78.7,20.6,78.7,20.5,78.8,20.4L78.8,20.4z
	 M75.6,29.5C75.6,29.5,75.6,29.5,75.6,29.5c0.1,0,0.1-0.1,0.1-0.1c0.4-0.9,0.8-1.8,1.1-2.7c0-0.1,0-0.1,0-0.2
	c-0.1-0.1-0.2-0.2-0.4-0.2c-0.1,0.1-0.2,0.3-0.2,0.4c-0.1,0.2-0.2,0.4-0.3,0.6c-0.2,0.5-0.4,1-0.7,1.5
	C75.2,29.3,75.3,29.4,75.6,29.5L75.6,29.5z M79.8,6.9c0-0.2,0-0.3-0.3-0.4c-0.1,0-0.3,0-0.4,0c-0.1,0-0.1,0.1-0.1,0.1c0,0,0,0,0,0
	v0.3c0,0.3,0,0.7,0.1,1c0,0.6,0.1,1.1,0.1,1.7v0.2c0,0.1,0.1,0.1,0.2,0.1c0.1,0,0.1-0.1,0.1-0.1c0-0.1,0-0.2,0-0.3
	c0.1-0.7,0.1-1.4,0.2-2.2l0,0c0-0.1,0-0.1,0-0.2C79.7,7,79.8,6.9,79.8,6.9z M79.5,21C79.5,21,79.5,21.1,79.5,21
	c0.1,0.1,0.2,0.1,0.2,0c0-0.1,0-0.2,0-0.2c0,0,0-0.1-0.1-0.1c0,0-0.1,0-0.2,0S79.5,20.9,79.5,21z M79.2,17.4c0-0.3-0.1-0.5-0.1-0.8
	s-0.1-0.7-0.2-1c0-0.2-0.1-0.4-0.2-0.6c0-0.1-0.1-0.1-0.2-0.1c-0.1,0-0.1,0.1-0.1,0.1c0,0,0,0,0,0.1c0.1,0.6,0.4,1.6,0.5,2.2
	c0,0,0,0.1,0,0.1h0.1C79.1,17.4,79.1,17.4,79.2,17.4C79.1,17.4,79.2,17.3,79.2,17.4L79.2,17.4z M79.1,20.6
	C79.1,20.6,79,20.6,79.1,20.6C79,20.7,79,20.7,79,20.7h0.1L79.1,20.6z M79.2,18.4l-0.1-0.1c0,0-0.1,0.1-0.1,0.1l0.2,0.1L79.2,18.4z
	 M78.8,21.5C78.8,21.5,78.9,21.5,78.8,21.5c0.2-0.3,0.2-0.4,0.2-0.6c-0.1,0-0.2,0-0.2,0.1c-0.1,0.1-0.2,0.3-0.2,0.5c0,0,0,0.1,0,0.1
	C78.7,21.5,78.8,21.5,78.8,21.5L78.8,21.5z M76.8,31.3c-0.4,1.7-0.9,3.4-1.3,5.2c-0.4,1.4-0.7,2.7-1.1,4.1h1.9
	c0.3-2.3,0.6-4.7,0.9-7.1C77.4,32.7,77.9,31.3,76.8,31.3L76.8,31.3z M83,33.8v-0.1c-0.2-0.8-0.3-1.5-0.5-2.2c0-0.1,0-0.2-0.1-0.3
	c-0.1-0.2-0.2-0.3-0.4-0.2c-0.1,0-0.2,0.1-0.3,0.1c0,0.2,0.1,0.3,0.1,0.5c0.2,0.8,0.3,1.5,0.5,2.3c0,0.1,0,0.2,0.1,0.3
	c0,0.1,0.1,0.1,0.2,0.1C82.9,34.2,83,34.1,83,33.8z M82.8,35.2c-0.3,0.2,0,1.3,0.1,1.6c0.2,1.2,0.5,2.5,0.6,3.7h1.2
	c-0.2-1.4-0.5-2.7-1-4C83.6,36.2,83.4,34.8,82.8,35.2z M81.8,29.9c0-0.1,0-0.1,0-0.2c0-0.2-0.1-0.4-0.1-0.6l-0.2-1v-0.1h-0.2
	c0,0.1,0,0.2,0,0.4l0.3,1l0.1,0.5c0,0.1,0.1,0.2,0.2,0.1S81.9,30,81.8,29.9L81.8,29.9z M81.3,27.8c0-0.1,0.1-0.1,0.1-0.2
	c0-0.2-0.1-0.3-0.1-0.5c0,0-0.1-0.1-0.1-0.1c0,0,0,0,0,0l-0.2,0c0,0.2,0.1,0.4,0.2,0.6c0,0,0.1,0.1,0.1,0.1
	C81.2,27.9,81.3,27.8,81.3,27.8L81.3,27.8z M63.4,11c0.8,0.4,1.7,0.8,2.5,1.3c0.6,0.3,1.2,0.7,1.8,0.9c0.3,0.1,0.6,0.1,0.8-0.1
	c0.5-0.6-0.9-1.3-1.2-1.5l-3.2-2.5c-0.5-0.5-1.1-0.9-1.8-1.3v1.7c0,0.3,0,0.5,0.1,0.8C62.6,10.7,63.1,10.8,63.4,11z M81,25.9
	L81,25.9c-0.1-0.9-0.3-1.6-0.4-2.4c0-0.1,0-0.2-0.1-0.2c0-0.1-0.1-0.1-0.2-0.1c-0.1,0-0.1,0.1-0.1,0.1c0,0,0,0,0,0c0,0,0,0,0,0.1
	l0.4,2.4c0,0,0,0.1,0,0.2c0,0.1,0.1,0.2,0.2,0.1c0,0,0,0,0,0C81,26.1,81,26,81,25.9z M97.9,36.7c-1.5-1.4-2.9-2.8-4.3-4.3
	c-0.6-0.6-1.2-1.2-1.9-1.8c-0.2-0.2-0.4-0.5-0.7-0.2s0,0.5,0.2,0.7c0.5,0.6,1.1,1.1,1.6,1.7c1.8,1.9,3.6,3.9,5.4,5.8
	c0.6,0.6,1.4,1.9,1.6,1.8c0.2-0.6,0.2-1.4,0-2C99.3,37.9,98.4,37.2,97.9,36.7z M97.8,31.4l-3.2-2.1c-0.5-0.4-1.1-0.8-1.7-1.1
	l-0.4,0.5c0.7,0.8,1.6,1.5,2.5,2c1.6,1.3,3.3,2.5,5,3.6c0-0.4,0.1-1.1-0.1-1.5C99.2,32.3,98.5,31.8,97.8,31.4z M87.5,35.6
	c-0.4-0.7-0.8-1.8-1.3-1.5s0.2,1.2,0.4,1.7c0.9,1.5,1.6,3.1,2.2,4.7h1.5c-0.3-0.6-0.6-1.2-1-1.8C88.7,37.7,88.1,36.7,87.5,35.6z
	 M97.2,10.8c-0.8,0.4-1.7,0.8-2.5,1.2s-1.5,0.6-1.2,1.5c1.6-0.5,3.1-1.1,4.7-1.9c0.4-0.2,1.4-0.4,1.7-0.8s0.1-1.1,0.1-1.4
	C99,9.8,98.1,10.2,97.2,10.8z M79.9,35.4c-0.4,0-0.3,0.9-0.4,1.2c-0.2,1.3-0.3,2.6-0.3,3.9h1.2c0-1.3,0-2.6-0.2-3.9
	C80.3,36.3,80.4,35.4,79.9,35.4z M90.7,34.3c-0.4-0.6-0.9-1.2-1.4-1.8l-0.4,0.2c0.3,0.7,0.7,1.3,1.2,1.8c0.8,1.2,1.7,2.5,2.6,3.7
	c0.3,0.5,0.6,0.9,1,1.4c0.1,0.2,0.3,0.5,0.5,0.6c0.5,0.1,1,0.2,1.6,0.1c-0.7-1.1-1.5-2.2-2.4-3.2L90.7,34.3z M86.1,32.8
	c-0.3-0.6-0.7-1.2-1-1.8c-0.1-0.1-0.1-0.3-0.2-0.4c-0.1-0.2-0.2-0.3-0.3-0.4l-0.3,0.2c0.1,0.3,1.1,2.7,1.3,3c0.2,0,0.5-0.1,0.7-0.3
	C86.2,33,86.1,32.9,86.1,32.8z M74.5,30.2c-0.2,0.1-0.3,0.4-0.5,0.6l-0.8,1.6c-0.8,1.7-1.7,3.4-2.5,5.1c-0.5,0.9-1,1.9-1.4,2.9h2.8
	c0.3-1.3,0.6-2.6,1.1-3.9c0.6-2.1,1.2-4.2,1.9-6.2C74.9,30.3,74.7,30.1,74.5,30.2z M73,30.4c0.3-0.5,0.4-0.9-0.1-1.3
	c-0.4-0.2-0.6,0.2-0.8,0.5c-0.5,0.7-1,1.4-1.6,2.1c-1.6,2-3,4-4.6,6.1c-0.6,1-1.3,1.9-2.2,2.7c0.7,0.1,1.3,0.2,2,0.1
	c0.2,0,0.5,0,0.7-0.1c0.2-0.2,0.4-0.5,0.6-0.8c0.3-0.5,0.6-0.9,0.9-1.4c1.2-1.8,2.3-3.7,3.5-5.5C72,32,72.5,31.2,73,30.4L73,30.4z
	 M69.5,30.5c0.6-0.6,1.1-1.2,1.6-1.8c0.2-0.2,0.3-0.6,0.1-0.9s-0.7,0.1-0.9,0.3c-0.7,0.6-1.4,1.3-2.2,2c-1.4,1.3-2.8,2.5-4.2,3.7
	c-0.6,0.4-1.1,0.9-1.6,1.5c-0.1,0.3-0.1,0.7-0.1,1v2c0.4-0.2,0.7-0.5,1-0.9c0.5-0.5,0.9-1,1.3-1.5C66.2,34.1,67.9,32.3,69.5,30.5z
	 M63.5,17.3c0.8,0.1,1.7,0.3,2.6,0.5c0.3,0,0.8,0.2,1-0.1c0.2-0.2,0.2-0.6,0-0.8c0,0,0,0,0,0c-0.5-0.2-1-0.3-1.5-0.4l-1.3-0.3
	c-0.7-0.2-1.3-0.4-2-0.5c0,0.3-0.1,1.1,0.1,1.4S63.2,17.2,63.5,17.3z M73.4,23.9c0-0.1-0.1-0.2-0.2-0.2s-0.3,0-0.3,0.2l0.2,0.2
	C73.2,24.1,73.3,24,73.4,23.9z M78.8,23c0,0.1,0,0.1-0.1,0.2c0,0.1,0,0.2-0.1,0.4c-0.1,0.4-0.2,0.8-0.2,1.2c0,0,0,0.1,0,0.1
	c0.1,0.1,0.3,0,0.3-0.1c0,0,0,0,0-0.1c0,0,0-0.1,0-0.1l0.2-1.4C79.1,23.1,79,23,78.8,23z M77.7,24.9l0.8-2.1c0-0.1,0.2-0.4,0.2-0.6
	s0-0.2-0.1-0.3s-0.2,0-0.2,0.1c-0.1,0.3-0.3,0.7-0.4,1c0,0.1-0.1,0.2-0.1,0.3c-0.2,0.4-0.3,0.9-0.4,1.3c0,0.1-0.1,0.1-0.1,0.2
	c0,0,0,0.1,0,0.1c0,0.1,0.1,0.1,0.2,0.1c0.1,0,0.1,0,0.2-0.1S77.6,24.9,77.7,24.9z M79,22.5c-0.1,0-0.1,0-0.1,0.1
	c-0.1,0.1-0.1,0.2,0,0.3c0,0,0.1,0,0.1,0s0.1-0.1,0.1-0.2S79.1,22.6,79,22.5C79.1,22.5,79.1,22.5,79,22.5z M79.3,21.5
	c0.1-0.1,0.1-0.2,0-0.4C79.1,21.4,79.1,21.4,79.3,21.5C79.3,21.6,79.3,21.5,79.3,21.5L79.3,21.5z M78.4,25.1
	C78.4,25.1,78.4,25.1,78.4,25.1c-0.1,0.3-0.2,0.5-0.2,0.7c0,0.1,0,0.1,0.1,0.2c0.1,0.1,0.2,0.1,0.3,0c0,0,0,0,0-0.1
	c0.1-0.2,0.1-0.5,0.1-0.8C78.5,25.1,78.5,25.1,78.4,25.1L78.4,25.1z M78.2,26.9c-0.1,0-0.2,0.1-0.2,0.2c0,0,0,0,0,0
	c0,0.1,0,0.1,0,0.2c0,0.2-0.1,0.5-0.1,0.7l-0.3,1.7c0,0.1,0,0.1,0,0.2c0,0.1,0.1,0.2,0.2,0.2c0,0,0.1,0,0.1,0c0.1,0,0.1-0.1,0.2-0.2
	c0.1-0.1,0.1-0.3,0.1-0.4c0-0.3,0.1-0.6,0.1-1s0.1-0.8,0.2-1.2v-0.1C78.4,27,78.4,27,78.2,26.9C78.3,26.9,78.3,26.9,78.2,26.9
	L78.2,26.9z M78.4,20.8c-0.1-0.1-0.2-0.1-0.2-0.1c-0.1,0.1-0.2,0.3-0.3,0.4c0.1,0.1,0.2,0.1,0.2,0c0,0,0,0,0,0
	C78.2,21,78.3,20.9,78.4,20.8L78.4,20.8z M72.7,16.8c0,0.1,0.1,0.2,0.2,0.2l0.7,0.3c0.2-0.1,0.2-0.2,0-0.3c-0.3-0.1-0.5-0.2-0.7-0.3
	C72.8,16.6,72.8,16.7,72.7,16.8L72.7,16.8z M72.7,18.4l0.2,0.1l0.4,0.1l0.7,0.1c0,0,0.1,0,0.1,0c0,0,0.1,0,0.1-0.1c0,0,0-0.1,0-0.1
	c0,0,0,0-0.1,0l-1.2-0.3h-0.2C72.7,18.2,72.7,18.3,72.7,18.4L72.7,18.4z M72.5,19.4c-0.1,0-0.2,0.1-0.1,0.2c0,0.1,0.1,0.1,0.2,0.1
	h0.3l0.9,0h2c0.1,0,0.3,0,0.4,0c0-0.2,0-0.2-0.2-0.2h-0.3h-3L72.5,19.4z M77.8,20.3C77.8,20.3,77.8,20.3,77.8,20.3
	c-0.2,0-0.4,0-0.5,0.1c0,0,0,0-0.1,0.1s0.1,0.1,0.1,0.1C77.5,20.6,77.7,20.5,77.8,20.3C77.9,20.4,77.9,20.4,77.8,20.3L77.8,20.3z
	 M73,20.9L73,20.9c0.4-0.1,0.7-0.1,1-0.2c0.3-0.1,0.6-0.1,0.9-0.1c0.2,0,0.2-0.1,0.1-0.3c-0.2,0-0.4,0-0.6,0.1l-1.1,0.1
	c-0.1,0-0.2,0.1-0.4,0.1c-0.1,0-0.1,0.1-0.1,0.2C72.9,20.9,72.9,20.9,73,20.9C73,20.9,73,20.9,73,20.9z M73,15.4c0,0,0,0.1,0,0.1
	c0.1,0.1,0.1,0.1,0.2,0.2l1,0.7l1.3,0.8l0.3,0.1l0.2-0.2c-0.1-0.1-0.3-0.2-0.4-0.3c-0.4-0.2-0.7-0.5-1.1-0.7s-0.7-0.5-1-0.7
	C73.2,15.2,73.1,15.2,73,15.4z M74.2,14c-0.1-0.1-0.2-0.1-0.2,0c-0.1,0.1-0.1,0.2,0,0.3c0,0,0,0,0,0c0.2,0.2,0.4,0.3,0.6,0.5
	c0,0,0.1,0,0.1,0c0,0,0.1-0.1,0.1-0.1c0,0,0-0.1,0-0.1C74.6,14.4,74.4,14.2,74.2,14z M76.7,22.5c0.2-0.2,0.6-0.6,0.8-0.9
	c0,0,0-0.1,0.1-0.1c-0.1-0.1-0.2-0.1-0.3,0s-0.6,0.6-0.8,0.8c-0.1,0.1-0.1,0.1,0,0.2c0,0,0,0,0,0C76.5,22.6,76.6,22.6,76.7,22.5
	C76.7,22.6,76.7,22.6,76.7,22.5L76.7,22.5z M76.8,18.9L76.8,18.9c-0.1,0-0.1,0.1-0.1,0.1c0.1,0.1,0.2,0.1,0.3,0
	C77,18.9,76.9,18.9,76.8,18.9L76.8,18.9z M77.8,19.5c0,0,0-0.1-0.1-0.1c-0.3-0.1-0.6-0.1-0.9,0c0,0-0.1,0.1-0.1,0.1
	c0,0,0,0.1,0.1,0.1c0,0,0.1,0,0.1,0h0.7C77.7,19.6,77.8,19.6,77.8,19.5L77.8,19.5z M77.1,20c0,0.1,0,0.1,0.1,0.1c0,0,0.1,0,0.1-0.1
	c0-0.1-0.1-0.1-0.1-0.1C77.2,19.9,77.2,19.9,77.1,20C77.1,20,77.1,20,77.1,20L77.1,20z M73.3,22c0.1,0,0.2,0,0.2,0
	c0.3-0.1,0.7-0.2,1-0.4c0.1,0,0.1-0.1,0.2-0.1c0-0.1,0-0.1,0-0.2c0,0,0,0,0,0h-0.2l-0.7,0.2l-0.7,0.2C73.1,22,73.2,22.1,73.3,22
	L73.3,22z M74.6,18.4c-0.1,0-0.1,0-0.1,0.1c0,0.1,0,0.1,0.1,0.1c0.1,0,0.1,0.1,0.2,0.1c0.3,0.1,0.5,0.1,0.8,0.1c0,0,0,0,0.1,0v-0.2
	C75.3,18.6,74.9,18.5,74.6,18.4L74.6,18.4z M77,21.4c0,0,0.1-0.1,0-0.2c0,0,0,0,0,0c-0.1,0-0.1,0-0.2,0c-0.1,0-0.1,0.1-0.2,0.1
	c-0.2,0.2-0.5,0.3-0.7,0.5c-0.5,0.4-0.9,0.7-1.4,1c-0.1,0.1-0.2,0.2-0.4,0.2c0,0-0.1,0.1-0.1,0.1c0,0.1,0,0.1,0.1,0.2
	c0,0,0.1,0,0.1,0c0.1,0,0.1,0,0.2,0c0.1-0.1,0.3-0.2,0.4-0.2c0.3-0.2,0.6-0.4,0.8-0.6s0.7-0.5,1-0.7L77,21.4z M78.3,20.1
	C78.3,20.2,78.3,20.2,78.3,20.1L78.3,20.1C78.3,20.2,78.3,20.1,78.3,20.1C78.3,20.1,78.3,20.1,78.3,20.1L78.3,20.1z M78.5,19.4h-0.3
	c0,0,0,0-0.1,0c0.1,0.2,0.2,0.1,0.3,0.1S78.6,19.5,78.5,19.4L78.5,19.4z M66.5,14.1c-1.4-0.8-2.8-1.6-4.2-2.4v2
	c1.3,0.3,2.7,0.8,4,1.2c0.3,0.1,1.1,0.6,1.3,0.1S66.8,14.2,66.5,14.1L66.5,14.1z M62.2,26.1v1.7c1.5-0.8,3.1-1.6,4.7-2.4
	c0.5-0.3,1.5-0.6,1.1-1.4c-0.2-0.4-1,0-1.3,0.1c-1,0.3-2.1,0.6-3.2,0.9c-0.3,0.1-1,0.1-1.2,0.4C62.3,25.6,62.2,25.9,62.2,26.1
	L62.2,26.1z M76.2,20.3c0,0,0-0.1,0-0.1c0-0.1-0.1-0.1-0.1-0.1c-0.2,0-0.6,0.1-0.8,0.1l0,0c0,0-0.1,0-0.1,0c0,0.1-0.1,0.1-0.1,0.2
	c0,0,0.1,0.1,0.1,0.1L76.2,20.3L76.2,20.3z M75.8,17.9c-0.4-0.2-0.7-0.3-1.1-0.5c0,0-0.1,0-0.1-0.1l-0.4-0.2c-0.1,0-0.2,0-0.2,0.1
	c0,0,0,0,0,0c0,0.1,0,0.1,0.1,0.2l1.8,0.8C76,18,76,18,75.9,17.9L75.8,17.9z M75.1,15c-0.1-0.1-0.2-0.1-0.3,0c-0.1,0-0.1,0.1,0,0.2
	c0,0,0,0,0,0c0.2,0.1,0.3,0.3,0.5,0.4l0.5,0.6c0.1,0.2,0.3,0.3,0.5,0.4c0.1-0.1,0.1-0.2,0-0.3c0,0,0,0,0,0L75.1,15z M76.1,22.7
	c0,0,0,0.1,0,0.1c0,0.1,0.1,0.1,0.2,0.1c0,0,0,0,0,0l0.2-0.2c0,0,0-0.1,0-0.1l-0.1-0.1L76.1,22.7z M75.8,23L75.8,23
	c-0.4,0.4-0.6,0.7-0.9,1c0,0,0,0,0,0.1c0.2,0.1,0.2,0.2,0.3,0s0.5-0.5,0.8-0.8c0,0,0,0,0,0c0.1-0.1,0-0.2,0-0.3S75.8,23,75.8,23
	L75.8,23z M74.9,21.3c0,0.1,0,0.2,0,0.2c0.5-0.1,0.9-0.3,1.4-0.5c0.1,0,0.2-0.1,0.3-0.2c-0.1-0.2-0.1-0.2-0.3-0.2L76,20.8l-1,0.3
	C75,21.2,74.9,21.2,74.9,21.3L74.9,21.3z M79,18c0-0.1-0.1-0.2-0.1-0.4l-0.8-1.8c0-0.1-0.1-0.2-0.2-0.3c0,0-0.1,0-0.1,0
	c0,0-0.1,0.1-0.1,0.1c0,0,0,0.1,0,0.1c0.1,0.3,0.3,0.7,0.4,0.9c0.2,0.4,0.4,0.8,0.6,1.3c0,0.1,0,0.1,0.1,0.1c0,0,0.1,0,0.1,0
	C78.9,18.1,79,18.1,79,18z M71.6,20.9L70.6,21h-0.2c-0.1,0.1-0.1,0.2,0,0.3c0.1,0.1,0.2,0.1,0.3,0.1c0.3,0,0.7-0.1,1-0.2
	c0.1,0,0.1-0.1,0.2-0.1c0-0.1,0-0.1-0.1-0.1C71.8,20.8,71.8,20.8,71.6,20.9L71.6,20.9z M69.6,13.3c-0.1,0.1,0,0.2,0.1,0.3l0.1,0.1
	l2.1,1.2L72,15c0.1,0,0.3-0.1,0.3-0.3c0-0.1-0.1-0.1-0.1-0.1l-0.7-0.5c-0.5-0.3-1-0.6-1.5-0.9C69.7,13,69.6,13.1,69.6,13.3
	L69.6,13.3z M69,14.9c0,0-0.1,0.1-0.1,0.1c0,0.2,0.1,0.4,0.2,0.5h0.1l2.2,0.9c0.1,0,0.1,0.1,0.2,0.1c0,0,0.1,0,0.1,0
	c0.1-0.1,0.1-0.1,0.1-0.2c0-0.1-0.1-0.1-0.1-0.2l-0.1,0l-2.4-1L69,14.9z M73,10.9c-0.1,0.1-0.1,0.2-0.1,0.3c0,0,0,0.1,0,0.1
	c0.3,0.3,0.5,0.6,0.8,0.9c0.1,0.1,0.3,0.1,0.4,0c0,0,0,0,0,0c0.1-0.1,0.1-0.1,0-0.2c0,0,0,0,0,0l-0.9-1.1C73.1,10.8,73,10.8,73,10.9
	z M72.5,9.9c0,0-0.1,0-0.1-0.1c-0.1,0-0.1,0.1-0.2,0.1C72,10,72,10.2,72.1,10.3c0,0,0,0,0.1,0.1c0.2,0.1,0.3,0.3,0.5,0.4
	c0,0,0,0,0.1,0.1c0.1,0,0.2,0,0.2-0.1c0-0.1,0-0.1,0-0.2L72.5,9.9z M70,17.5c-0.2,0-0.3,0-0.3,0.3s0.1,0.2,0.2,0.2h0.4l1.1,0.2
	c0.1,0,0.2-0.1,0.3-0.2s0-0.2-0.2-0.2L70,17.5z M71.1,11.1L71,11h-0.1c-0.1,0.1-0.2,0.2-0.2,0.4c0,0,0,0.1,0.1,0.1l0.2,0.2l1,0.9
	c0.1,0.1,0.1,0.1,0.2,0.2c0.2,0.2,0.4,0.4,0.6,0.6l0.2,0.1c0.1,0,0.2,0,0.2-0.1c0,0,0,0,0,0c0-0.1,0-0.2,0-0.2
	c0-0.1-0.1-0.1-0.1-0.1l-1.8-1.7L71.1,11.1z M70.8,25.7c0.1,0.1,0.2,0.1,0.3,0l0.1-0.1l1.4-1l0.2-0.2c0-0.1-0.1-0.2-0.2-0.2
	l-0.2,0.1l-1.6,1c0,0-0.1,0-0.1,0.1c0,0,0,0.1-0.1,0.1C70.6,25.5,70.7,25.6,70.8,25.7L70.8,25.7z M69.9,23.6
	c0.4-0.2,0.9-0.4,1.3-0.5c0.4-0.1,0.8-0.3,1.2-0.5l0.2-0.1c0-0.1,0-0.2,0-0.2c0-0.1-0.1-0.1-0.2-0.1l-0.5,0.2
	c-0.2,0.1-0.3,0.1-0.5,0.2l-1.5,0.5c-0.1,0-0.2,0.1-0.3,0.1c0,0,0,0.1,0,0.1v0.1C69.4,23.7,69.5,23.8,69.9,23.6L69.9,23.6z M69,21.3
	c-0.1,0-0.1,0.1-0.1,0.1c0,0.1,0,0.2,0,0.2l0.2,0.1c0.1,0.1,0.2,0.1,0.3,0c0.1-0.1,0.2-0.1,0.3-0.1l0.4-0.1c0-0.1,0.1-0.1,0.1-0.2
	s0-0.2-0.2-0.2C69.6,21.2,69.3,21.3,69,21.3z M68.2,19.2c-0.1,0.1-0.1,0.2-0.1,0.4c0.1,0.1,0.3,0.2,0.4,0.2h2.9h0.2
	c0-0.1,0-0.3,0-0.4c-0.1-0.1-0.2-0.1-0.4-0.1h-1l-1.7-0.1C68.5,19.2,68.4,19.2,68.2,19.2L68.2,19.2z M68.6,17.4c0,0.1,0,0.2,0,0.2
	c0,0.1,0.1,0.2,0.1,0.2c0,0,0,0,0,0c0.1,0,0.3,0,0.4,0h0.1c0.2,0,0.2-0.1,0.2-0.2c0-0.1,0-0.2-0.1-0.2c0,0,0,0,0,0l-0.6-0.1
	C68.7,17.3,68.6,17.3,68.6,17.4C68.6,17.4,68.6,17.4,68.6,17.4L68.6,17.4z M76,14.3c-0.1-0.1-0.1-0.2-0.2-0.3
	c-0.3-0.3-0.5-0.5-0.7-0.8L75,13c-0.1,0-0.1,0-0.2,0c0,0,0,0.1-0.1,0.1c0,0.1,0.1,0.3,0.2,0.4l1.5,1.9c0,0,0.3,0.5,0.3,0.5
	c0.1,0,0.1,0,0.2,0c0.1,0,0.1-0.1,0.1-0.1c0-0.1-0.1-0.1-0.1-0.2C76.7,15.3,76.2,14.5,76,14.3z M78.2,18.4l0.1-0.2
	c-0.2-0.2-0.4-0.4-0.7-0.6h-0.1c0,0-0.1,0-0.1,0s-0.1,0.1,0,0.1c0,0.1,0.1,0.2,0.2,0.2L78.2,18.4L78.2,18.4z M78.2,19.2
	c0,0,0.1,0,0.1,0s0-0.1,0-0.2c0,0-0.1,0-0.1,0C78.2,19.1,78.2,19.1,78.2,19.2L78.2,19.2z M77.2,18.1c0-0.3-0.3-0.3-0.4-0.4
	c-0.1,0.1-0.1,0.2,0,0.2C76.9,18,77,18,77.2,18.1C77.2,18.1,77.2,18.1,77.2,18.1L77.2,18.1z M78,18.8l-1.4-0.6c0,0-0.1,0-0.1,0
	c0,0.3,0,0.3,0.3,0.4l1.1,0.4h0.1C78,19,78.1,19,78,18.8L78,18.8z M78.8,18.9c0.1,0,0.2,0,0.1-0.1c-0.1-0.2-0.2-0.3-0.4-0.4
	c0,0-0.1,0-0.1,0.1c0,0,0,0.1,0,0.1C78.5,18.8,78.6,18.9,78.8,18.9L78.8,18.9z M74.6,9.4c-0.1-0.4-0.3-0.7-0.6-1H74l-0.3,0.1
	c0,0.2,0,0.3,0.1,0.4l0.9,1.5c0.2,0.3,0.3,0.6,0.5,0.9c0,0.1,0.2,0.2,0.3,0.1c0,0,0,0,0,0c0.1,0,0.1-0.1,0.2-0.2
	c-0.2-0.3-0.3-0.6-0.5-0.8C75,10.1,74.8,9.7,74.6,9.4z M76.9,16.8c-0.1,0.2-0.1,0.3,0,0.4s0.2,0.2,0.4,0.3c0,0,0.1-0.1,0.1-0.1
	c0,0,0-0.1,0-0.1C77.2,17.1,77.1,17,76.9,16.8z M77.9,20.7C77.9,20.7,77.9,20.7,77.9,20.7c0-0.1-0.1,0-0.1,0.1l0.1,0.1
	C77.8,20.9,78,20.8,77.9,20.7L77.9,20.7z M72.2,27C72.2,27,72.2,27,72.2,27l0.8-0.7c0.1,0,0.1-0.1,0.1-0.2c0-0.1-0.1-0.1-0.2-0.1
	c-0.1,0-0.1,0-0.2,0.1c-0.2,0.2-0.4,0.4-0.6,0.6S72,27,72.2,27z M77.5,16.3c0-0.1-0.1-0.1-0.2,0c0,0,0,0.1,0,0.1c0,0,0,0.1,0.1,0.1
	l0.5,0.8l0.2,0.1c0-0.1,0-0.2-0.1-0.3c-0.1-0.2-0.3-0.4-0.4-0.7C77.6,16.4,77.6,16.4,77.5,16.3L77.5,16.3z M77.4,14.5
	c-0.1,0-0.2,0.1-0.2,0.2c0,0.1,0.2,0.4,0.3,0.4s0.2-0.1,0.2-0.1S77.4,14.5,77.4,14.5L77.4,14.5z"/>
<path class="st0" d="M0,16.5h1.6l3.3,13l3.1-13h1.6L5.6,31.4H4.1L0,16.5z"/>
<path class="st0" d="M11.1,16.5h7.2v1.3h-5.8V23h5.5v1.2h-5.5v5.9h5.8v1.2h-7.2V16.5z"/>
<path class="st0" d="M20.8,16.5h3.6c1.1-0.1,2.2,0.3,3.1,0.9c0.8,0.7,1.3,1.7,1.2,2.7c0,0.9-0.2,1.7-0.8,2.4
	c-0.6,0.8-1.4,1.3-2.3,1.6c0.6,0.1,1.2,0.5,1.6,1c0.4,0.6,0.7,1.3,0.8,2l0.9,4.4h-1.5l-0.6-3.6c-0.1-0.9-0.4-1.8-1-2.5
	c-0.5-0.5-1.3-0.8-2-0.8h-1.5v6.8h-1.4V16.5z M22.2,17.8v5.6h1.5c0.9,0,1.8-0.3,2.6-0.8c0.7-0.6,1-1.4,1-2.3
	c0.1-0.7-0.2-1.4-0.7-1.9c-0.6-0.5-1.3-0.7-2.1-0.6L22.2,17.8z"/>
<path class="st0" d="M30.7,16.5h3.4c1.5-0.1,3,0.6,3.9,1.9c1,1.7,1.4,3.7,1.3,5.6c0,1.3-0.2,2.6-0.6,3.8c-0.3,1.1-0.9,2-1.8,2.7
	c-0.8,0.6-1.8,0.9-2.8,0.9h-3.5V16.5z M32.2,17.8v12.4h2c1.2,0.1,2.3-0.6,2.8-1.6c0.7-1.5,0.9-3.2,0.8-4.9c0.1-1.5-0.2-3-0.9-4.3
	c-0.6-1-1.6-1.6-2.8-1.5H32.2z"/>
<path class="st0" d="M43.7,16.5h1.4l4.2,14.9h-1.6l-1.3-5.1h-4l-1.3,5.1h-1.5L43.7,16.5z M44.3,18.3L42.7,25H46L44.3,18.3z"/>
<path class="st0" d="M50.5,16.5H54c1.6-0.1,3,0.6,3.9,1.9c0.9,1.7,1.4,3.7,1.2,5.6c0,1.3-0.2,2.6-0.6,3.8c-0.3,1-0.9,2-1.8,2.6
	C55.9,31,55,31.3,54,31.3h-3.4V16.5z M52,17.8v12.4h2c1.2,0.1,2.3-0.6,2.8-1.6c0.7-1.5,1-3.2,0.9-4.9c0.1-1.5-0.2-3-0.9-4.3
	c-0.6-1-1.6-1.6-2.8-1.5H52z"/>
<path class="st0" d="M3.1,14.6c-0.2,0.2-0.5,0.3-0.8,0.3c-0.3,0-0.6-0.1-0.8-0.3C1.2,14.3,1.1,14,1,13.7c-0.1-0.4-0.2-0.7-0.1-1.1
	C0.8,12,1,11.5,1.2,11c0.2-0.4,0.6-0.6,1.1-0.6c0.3,0,0.6,0.1,0.8,0.3v0.5c-0.2-0.2-0.5-0.4-0.8-0.4c-0.3,0-0.6,0.2-0.8,0.5
	c-0.2,0.4-0.3,0.9-0.3,1.4c0,0.4,0.1,0.9,0.3,1.3c0.1,0.3,0.4,0.5,0.8,0.5c0.3,0,0.6-0.2,0.8-0.4V14.6z"/>
<path class="st0" d="M6.7,10.3c0.4,0,0.8,0.2,1,0.6c0.3,0.5,0.4,1.1,0.4,1.7c0,0.6-0.1,1.1-0.4,1.6c-0.3,0.6-1.1,0.8-1.6,0.4
	c-0.2-0.1-0.3-0.3-0.4-0.4c-0.3-0.5-0.4-1.1-0.4-1.6c0-0.6,0.1-1.1,0.4-1.6C5.8,10.6,6.3,10.3,6.7,10.3z M6.7,10.7
	c-0.3,0-0.7,0.2-0.8,0.5c-0.2,0.4-0.3,0.9-0.2,1.4c0,0.5,0.1,0.9,0.3,1.4c0.2,0.4,0.6,0.6,1,0.4c0.2-0.1,0.3-0.2,0.4-0.4
	c0.2-0.4,0.3-0.9,0.3-1.4c0-0.5-0.1-1-0.3-1.4C7.3,10.9,7,10.7,6.7,10.7L6.7,10.7z"/>
<path class="st0" d="M11.1,10.4l0.9,2.4l1-2.4h0.5v4.4h-0.4v-3.9c-0.1,0.3-0.2,0.6-0.3,0.9l-0.8,2l-0.6-1.7
	c-0.1-0.3-0.3-0.7-0.4-1.2c0,0.9,0,1.5,0,1.6v2.3h-0.4v-4.4H11.1z"/>
<path class="st0" d="M16.1,10.4h0.4v4.4h-0.4V10.4z"/>
<path class="st0" d="M19,13.9c0.2,0.1,0.3,0.3,0.5,0.4c0.1,0.1,0.3,0.1,0.4,0.1c0.2,0,0.4-0.1,0.6-0.2c0.2-0.2,0.3-0.4,0.3-0.6
	c0-0.2-0.1-0.4-0.2-0.5c-0.2-0.2-0.4-0.3-0.7-0.4c-0.7-0.2-1-0.6-1-1.1c0-0.3,0.1-0.6,0.4-0.8c0.2-0.2,0.5-0.4,0.8-0.4
	c0.3,0,0.6,0.1,0.8,0.3v0.6c-0.1-0.1-0.3-0.3-0.5-0.4c-0.1-0.1-0.2-0.1-0.4-0.1c-0.2,0-0.4,0.1-0.5,0.2c-0.1,0.1-0.2,0.3-0.2,0.5
	c0,0.2,0.1,0.3,0.2,0.5c0.2,0.2,0.5,0.3,0.7,0.4c0.2,0.1,0.3,0.1,0.5,0.2c0.1,0.1,0.2,0.2,0.3,0.4c0.1,0.2,0.1,0.4,0.1,0.5
	c0,0.7-0.6,1.3-1.3,1.3c-0.4,0-0.7-0.1-1-0.4V13.9z"/>
<path class="st0" d="M23.7,10.4h0.4v4.4h-0.4V10.4z"/>
<path class="st0" d="M28.1,10.3c0.4,0,0.8,0.2,1,0.6c0.3,0.5,0.4,1.1,0.4,1.7c0,0.6-0.1,1.1-0.4,1.6c-0.3,0.6-1.1,0.8-1.6,0.4
	c-0.2-0.1-0.3-0.3-0.4-0.4c-0.3-0.5-0.4-1.1-0.4-1.6c0-0.6,0.1-1.1,0.4-1.6C27.2,10.6,27.6,10.3,28.1,10.3z M28.1,10.7
	c-0.3,0-0.7,0.2-0.8,0.5c-0.2,0.4-0.3,0.9-0.2,1.4c0,0.5,0.1,0.9,0.3,1.4c0.2,0.4,0.6,0.6,1,0.4c0.2-0.1,0.4-0.2,0.4-0.4
	c0.2-0.4,0.3-0.9,0.2-1.4c0-0.5-0.1-1-0.3-1.4C28.6,10.9,28.4,10.8,28.1,10.7L28.1,10.7z M28.2,9.2h0.5L28,10.1h-0.3L28.2,9.2z"/>
<path class="st0" d="M32.3,10.4l1.3,2.9l0.3,0.8c0-0.8,0-1.2,0-1.2v-2.5h0.4v4.4h-0.5L32.6,12l-0.2-0.5l-0.2-0.4c0,0,0,0.1,0,0.1
	v0.3v3.2h-0.4v-4.4H32.3z"/>
<path class="st0" d="M39.2,10.4h1c0.5,0,0.9,0.2,1.1,0.6c0.3,0.5,0.4,1.1,0.4,1.7c0,0.4-0.1,0.8-0.2,1.1c-0.1,0.3-0.3,0.6-0.5,0.8
	c-0.2,0.2-0.5,0.3-0.8,0.3h-1L39.2,10.4z M39.6,10.8v3.6h0.6c0.3,0,0.7-0.2,0.8-0.5c0.2-0.5,0.3-0.9,0.2-1.4c0-0.4-0.1-0.9-0.3-1.3
	c-0.2-0.3-0.5-0.5-0.8-0.4L39.6,10.8z"/>
<path class="st0" d="M44.2,10.4h2.1v0.4h-1.7v1.5h1.6v0.4h-1.6v1.7h1.7v0.4h-2.1V10.4z"/>
<path class="st0" d="M51.2,10.4h0.4v4h1.6v0.4h-2L51.2,10.4z"/>
<path class="st0" d="M56.4,10.4h0.4l1.2,4.4h-0.5l-0.4-1.5H56l-0.4,1.5h-0.5L56.4,10.4z M56.6,10.9l-0.5,2h1L56.6,10.9z"/>
</svg>
