<svg xmlns="http://www.w3.org/2000/svg" viewBox="0 0 100 40.54"><title>logo-cev-spinner</title><path d="M80.34,21.17a.09.09,0,0,0-.09,0s-.08.06-.08.09a.3.3,0,0,0,0,.16l.2.39.17-.05A1.12,1.12,0,0,0,80.34,21.17ZM83,27.4l.23-.16L83,26.66c-.16,0-.26,0-.25.14A.7.7,0,0,0,83,27.4Zm-2.3-6.87a1,1,0,0,0-.32-.28c-.12.12-.13.14-.07.21a2.13,2.13,0,0,0,.31.29C80.77,20.64,80.79,20.6,80.73,20.53Zm3.21,9a1.3,1.3,0,0,0,.13.19c.12-.08.28-.06.41-.2-.12-.22-.23-.45-.35-.68s-.24-.48-.37-.71a5.09,5.09,0,0,0-.38-.68,1.81,1.81,0,0,0-.27.06.13.13,0,0,0-.09.19,1,1,0,0,0,.07.15Zm-3.07-6.43c.42.9.85,1.81,1.28,2.71a2.12,2.12,0,0,0,.11.21l.06,0c.34,0,.37,0,.23-.33a1,1,0,0,0-.07-.15c-.41-.86-.82-1.72-1.24-2.58a5.59,5.59,0,0,0-.3-.6.14.14,0,0,0-.23,0,.19.19,0,0,0,0,.24A4.4,4.4,0,0,0,80.87,23.15Zm2.65,2a1,1,0,0,0-.27-.51,7.39,7.39,0,0,1-.74-1c0-.06-.07-.12-.11-.17l-.2-.18c-.1-.07-.1-.07-.27.07a15.55,15.55,0,0,0,1.4,1.93Zm1.45,2A.29.29,0,0,0,85,27a1.27,1.27,0,0,0-.13-.19l-.38-.48c-.08-.09-.16-.19-.25-.28s-.06,0-.09,0l-.23.16c0,.07.05.12.08.16s.25.33.38.48a3.89,3.89,0,0,0,.38.43C84.81,27.29,84.94,27.24,85,27.11Zm3,4.71.12.16a.3.3,0,0,0,.27.12.57.57,0,0,0,.36-.18l-.06-.12a8.29,8.29,0,0,0-.6-.86c-.36-.42-.69-.88-1-1.33a.48.48,0,0,1-.1-.17c0-.15-.16-.22-.29-.31l-.33.16c0,.16.08.25.14.34Zm2.43-1.46c.13-.13.25-.24.36-.36a.16.16,0,0,0,0-.26l-.08-.07-2.28-1.91a1.45,1.45,0,0,0-.18-.1L88,27.9A.54.54,0,0,0,88,28l2.35,2.29Zm-3-2.88c.15-.17.16-.19.15-.25a.25.25,0,0,0-.1-.2,2.18,2.18,0,0,1-.22-.21L85.46,25l-.13-.11a.2.2,0,0,0-.25,0,.15.15,0,0,0,0,.21l.28.28c.13.12.27.22.39.33.43.4.83.82,1.22,1.25ZM85.8,28.73l.19-.12.17-.15a2.05,2.05,0,0,0-.45-.59,4.07,4.07,0,0,0-.51-.58l-.31.13a.57.57,0,0,0,0,.16C85.2,28,85.5,28.35,85.8,28.73Zm-5.58-9.87s0,.06,0,.08,0,0,0,0a.78.78,0,0,0,.2-.16s0-.12,0-.2A.36.36,0,0,0,80.22,18.86Zm1-4.12c-.21.62-.43,1.23-.64,1.84l-.41,1.21s.07.05.1.05a.12.12,0,0,0,.1,0,.22.22,0,0,0,.06-.07.38.38,0,0,0,0-.1c.33-.83.77-2,1.09-2.79a.49.49,0,0,0,0-.16.14.14,0,0,0-.17-.15A.27.27,0,0,0,81.21,14.74Zm1.42-4a.25.25,0,0,0-.18.18,1.46,1.46,0,0,0-.07.19l-.18.58-.54,1.52c0,.15-.09.3-.14.47l.35,0c.35-1,.69-1.9,1-2.87C82.74,10.74,82.73,10.74,82.63,10.76Zm-2.28,12.3c.06,0,.09,0,.1-.11v-.14c0-.07,0-.18,0-.29s-.12-.12-.23-.09-.12.07-.1.17.07.26.11.39S80.28,23.07,80.35,23.06Zm.12-5-.1.12,0,0,.11-.09Zm2.21-1.71s0,.05,0,.06a.18.18,0,0,0,.09,0,.16.16,0,0,0,.09-.05c.19-.19.37-.38.55-.58a.39.39,0,0,0,.06-.11s0-.06,0-.06-.07,0-.09,0a3.75,3.75,0,0,0-.65.67A0,0,0,0,0,82.68,16.38Zm1.75-4.8-.06.12c-.17.32-.33.64-.51,1s-.48.76-.71,1.15a2.42,2.42,0,0,0-.18.36.16.16,0,0,0,0,.15.14.14,0,0,0,.25,0L84,13.14c.3-.46.58-.93.88-1.4l0-.12s0-.07,0-.1C84.7,11.34,84.57,11.36,84.43,11.58ZM91.9,28.21a.85.85,0,0,0,.17.08A.68.68,0,0,0,92.3,28c.1-.18.09-.22-.08-.33L89.61,26l-.2-.07-.23.4c.07.13.18.17.27.24l1.68,1.13ZM79.5,33.78a1,1,0,0,0,0,.17.35.35,0,0,0,.36.25.34.34,0,0,0,.28-.29,1.85,1.85,0,0,0,0-.23V31.54a.34.34,0,0,0-.26-.35c-.06.16-.2.12-.32.12a.36.36,0,0,0-.08.27Zm.31-6.52a.23.23,0,0,0-.22.18,1,1,0,0,0,0,.3c0,.38,0,.76,0,1.14a4.19,4.19,0,0,1,0,.61,4.73,4.73,0,0,0,.07.83.11.11,0,0,0,0,.06.43.43,0,0,0,.18.06.2.2,0,0,0,.11-.11.47.47,0,0,0,0-.17c0-.6,0-1.21-.08-1.81,0-.29,0-.59,0-.88A1,1,0,0,0,79.81,27.26Zm.09-8.74c0,.05,0,.1.1.12s.12-.17.17-.27,0-.13-.13-.22C80,18.29,79.94,18.4,79.9,18.52Zm.25,2.31s0,0-.07,0-.06.07,0,.08a.31.31,0,0,0,.09.07A.29.29,0,0,0,80.15,20.83Zm-.21.78c0,.05,0,.09.08.07a.12.12,0,0,0,.07-.07c0-.08,0-.12-.08-.1A.15.15,0,0,0,79.94,21.61Zm-4.79,4.56h0a.25.25,0,0,0-.37.1c-.09.14-.2.27-.29.42-.2.32-.4.64-.59,1l-.3.48a.7.7,0,0,0,.36.28.63.63,0,0,0,.11-.12c.38-.58.74-1.17,1.12-1.76a.26.26,0,0,0,0-.37h0Zm5.09-11.09c.07,0,.19,0,.21-.06a1.19,1.19,0,0,0,0-.14c0-.13.08-.44,0-.46a.15.15,0,0,0-.18.11,3.31,3.31,0,0,0-.14.41A.12.12,0,0,0,80.24,15.08Zm.4-1.57c0-.26.09-.52.13-.79a.38.38,0,0,0,0-.15c-.22-.06-.27,0-.3.14a2.29,2.29,0,0,0-.07.36,2.32,2.32,0,0,0,0,.59C80.58,13.67,80.61,13.66,80.64,13.51Zm1.8-8.9c.47-1.52,1-3,1.38-4.57H82.08a39.79,39.79,0,0,1-.71,4.07c-.08.4-.38,1.19,0,1.5C82.07,6.19,82.3,5.06,82.44,4.61ZM81,9.65c.07,0,.34,0,.41-.08s.07-.31.09-.46,0-.4.09-.6.1-.53.15-.79,0-.4.08-.6V7c0-.12-.3-.25-.42-.25a.18.18,0,0,0-.18.17s0,0,0,.06c-.1.59-.2,1.18-.29,1.76q-.06.4-.09.81A.11.11,0,0,0,81,9.65ZM79.8,24.5a.12.12,0,0,0-.12-.1.15.15,0,0,0-.16.1.44.44,0,0,0,0,.2v.64h0V26a.42.42,0,0,0,0,.2.23.23,0,0,0,.15.11.27.27,0,0,0,.16-.1.44.44,0,0,0,0-.2c0-.44,0-.88,0-1.31A2,2,0,0,0,79.8,24.5Zm.89-12.21a.15.15,0,0,0,.17-.08,1,1,0,0,0,.08-.22,8.06,8.06,0,0,1,.13-1s0,0,0-.06a.24.24,0,0,0,0-.1.19.19,0,0,0-.17-.1.16.16,0,0,0-.14.12.15.15,0,0,0,0,.07c-.06.36-.11.73-.16,1.09a.41.41,0,0,0,0,.11A.14.14,0,0,0,80.69,12.29ZM80,17.44a1.11,1.11,0,0,0,.07-.26c.1-.51.18-1,.27-1.55a1.11,1.11,0,0,0,0-.17s0-.05,0-.06a.17.17,0,0,0-.11-.06s-.07,0-.08,0a1.42,1.42,0,0,0-.07.22c-.11.57-.13,1.16-.19,1.74a.35.35,0,0,0,0,.14S80,17.46,80,17.44Zm-2,4.64a.22.22,0,0,0-.12-.22c-.08,0-.13,0-.17.07l-.1.14-1.53,2.27c-.09.14-.17.29-.28.46.07.05.1.09.14.1.23.11.28.1.41-.11L78,22.26A.76.76,0,0,0,78.06,22.08ZM75.53,26l0-.06a.17.17,0,0,0-.2-.22.18.18,0,0,0-.12,0,.33.33,0,0,0-.08.43l.25,0ZM65.14,30.31c1-.78,2.06-1.55,3.07-2.34.46-.35,1.9-1.1,1.24-1.88-.18-.22-.54,0-.74.06-.67.33-1.28.73-1.91,1.1-1,.62-2.11,1.21-3.16,1.82-.36.21-1,.46-1.24.82a1.54,1.54,0,0,0-.09.8v1.75A34.3,34.3,0,0,0,65.14,30.31ZM93.48,25.8a1,1,0,0,0,.34-.38s-.06-.06-.09-.07L90.56,24.1a.9.9,0,0,0-.16,0,.85.85,0,0,0-.25.39c.38.18.75.31,1.11.46l1.13.46C92.75,25.52,93.11,25.69,93.48,25.8Zm-16.27,0a2.15,2.15,0,0,0,.13-.32c0-.06,0-.15-.12-.18a.15.15,0,0,0-.17.08,1.06,1.06,0,0,0-.09.37Zm7.47-11.57c-.13.14-.26.29-.38.44a1.52,1.52,0,0,0-.33.48l.2.15A9,9,0,0,0,85.29,14c0-.11-.09-.21-.22-.24S84.8,14.06,84.68,14.19Zm-1-6.83-.45,1.09-.45,1.1a.23.23,0,0,0,0,.25.35.35,0,0,0,.31.1.31.31,0,0,0,.21-.16,1,1,0,0,1,.07-.15l.9-2c0-.09.07-.19.11-.29A.73.73,0,0,0,84,7.05a.18.18,0,0,0-.23.1A1.36,1.36,0,0,0,83.69,7.36ZM99.8,23c-.22-.18-.74-.15-1-.18-.77-.08-1.55-.19-2.32-.3-.29,0-.78-.19-1-.06s-.2.4-.2.61l4.74,1C99.94,23.77,100.05,23.18,99.8,23Zm-1.94-8.15-1.41.42a8,8,0,0,0-1.66.52.37.37,0,0,0-.11.58c.3.3,1.33-.11,1.69-.19l2.57-.59c.25-.07.73-.08.91-.31s.09-.73.09-1A21.36,21.36,0,0,0,97.86,14.83ZM99.94,29V27.78a43,43,0,0,1-4.4-1.64c-.62-.24-1.43-.75-1.67.15,1.29.75,2.72,1.29,4.07,1.91A9.94,9.94,0,0,0,99.94,29Zm-8-9.76-.78.06a.24.24,0,0,0,0,.33c0,.09.15.07.24.07h0l2.89.12a.69.69,0,0,0,.4,0,.79.79,0,0,0,0-.43.67.67,0,0,0-.57-.21Zm2.37,3.43a.91.91,0,0,0,0-.54.14.14,0,0,0-.1-.08A.47.47,0,0,0,94,22l-1.9-.26a.61.61,0,0,0-.4,0,.3.3,0,0,0-.08.31.49.49,0,0,0,.28.23l.2,0,1.8.32A.74.74,0,0,0,94.29,22.7Zm5.65-3.55c-1.61,0-3.21.16-4.82.16V20l4.82.08ZM85.05,6.06a5.58,5.58,0,0,0,1-1.7c.53-.91,1.05-1.82,1.57-2.74A7.6,7.6,0,0,0,88.48,0H87.06a1.06,1.06,0,0,0-.61.09c-.39.28-.56,1.22-.72,1.66a45.23,45.23,0,0,0-1.66,4.32C84.39,6.13,84.77,6.27,85.05,6.06Zm2.16.3c-.13.2-.29.47-.09.68.73.81,1.57-.64,1.94-1.1C90,4.73,91,3.5,91.93,2.29A15.27,15.27,0,0,0,93.63,0H92.05a1.94,1.94,0,0,0-.72,0c-.4.19-.7.92-.93,1.28-.68,1.09-1.4,2.16-2.07,3.24C88,5.2,87.56,5.77,87.21,6.36Zm6.25,9.94-.49.13c-.06,0-.11.07-.16.09a.41.41,0,0,0,.12.32,2.9,2.9,0,0,0,1-.26.63.63,0,0,0-.1-.4Zm4.82-8.84a6.05,6.05,0,0,0,1.52-1,3.13,3.13,0,0,0,0-2c-1.1.8-2.15,1.67-3.23,2.5L94.46,8.54c-.78.6-1.57,1.19-2.33,1.81-.25.21-.59.62-.19.91.24.17.56,0,.77-.17.62-.39,1.23-.79,1.83-1.19C95.78,9.07,97,8.29,98.28,7.46Zm-8.23.81c-.27.24-.67.58-.3.93.55.55,1.07.17,1.55-.24l1.49-1.28q2.4-2.12,4.82-4.2c.53-.45,1.06-.9,1.58-1.36.24-.22.58-.44.7-.75a4.52,4.52,0,0,0,0-1.33,5.41,5.41,0,0,0-1.66,0,2.49,2.49,0,0,0-.75.62L96.37,1.87c-1.51,1.51-3,3.06-4.49,4.57C91.27,7.05,90.68,7.67,90.05,8.27ZM81.19,20.41c.06,0,.12-.05.13-.14s0-.06,0-.07L80.8,20s-.07,0-.08,0,0,.1,0,.12A1.09,1.09,0,0,0,81.19,20.41Zm4,1.69.07-.24-.23-.11-1.31-.53-.74-.3a.74.74,0,0,0-.35-.08c-.06.2-.05.23.06.28l.09,0,2.21.91A.6.6,0,0,0,85.21,22.1Zm-2.74-.44a.55.55,0,0,0,.32.28.13.13,0,0,0,.18,0,.17.17,0,0,0,0-.21.71.71,0,0,0-.42-.23C82.43,21.52,82.42,21.59,82.47,21.66Zm.3-2a2,2,0,0,0,.42,0h1c.15,0,.19-.05.19-.21a1.19,1.19,0,0,0,0-.14,8.08,8.08,0,0,0-1.56.11Zm2.4-1c.09,0,.12-.07.13-.16s0-.22-.19-.22l-.27,0a2.6,2.6,0,0,1-.4,0,1.13,1.13,0,0,0-.32.05.66.66,0,0,1-.3.07,3,3,0,0,0-1.06.27s0,0-.06.07a.29.29,0,0,0,.33.19l.94-.13.83-.14Zm-2.44-.27-.12-.18a1.72,1.72,0,0,0-.57.24c.06.18.1.21.21.17l.43-.16S82.71,18.47,82.73,18.44Zm5.91-.8-.53.1a3,3,0,0,1-.43.1,6,6,0,0,0-1,.23c-.15,0-.17.1-.12.28a.24.24,0,0,0,.06.09.61.61,0,0,0,.19,0,26.67,26.67,0,0,0,3.09-.71,1.29,1.29,0,0,0,0-.28.13.13,0,0,0-.14-.12,2,2,0,0,0-.71.19A1.71,1.71,0,0,1,88.64,17.64ZM82.17,20s0-.06,0-.07a.86.86,0,0,0-.23-.05l-.09,0a.1.1,0,0,0,0,.14.28.28,0,0,0,.38.07A.14.14,0,0,0,82.17,20Zm-.09.56c0-.05,0-.1-.08-.12l-.35-.17c-.06,0-.13,0-.15.11a.09.09,0,0,0,.06.13,2.72,2.72,0,0,0,.37.13S82,20.62,82.08,20.59Zm.18-1a.34.34,0,0,0,0-.12.1.1,0,0,0-.08,0l-.57,0c-.16,0-.18,0-.18.29h.79S82.25,19.61,82.26,19.57Zm-1.07-1.12a.08.08,0,0,0-.08.11s.06,0,.08,0a.31.31,0,0,0,.1-.08C81.24,18.48,81.22,18.45,81.19,18.45Zm.27,2.44.23.2s.14-.05.14-.1a.64.64,0,0,0,0-.07.35.35,0,0,0-.29-.13S81.44,20.87,81.46,20.89Zm7.09-5.72-.34.15a9,9,0,0,0-1.07.55c-.28.17-.57.32-.84.49s-.39.26-.59.39l.1.32h.06a.15.15,0,0,0,.09,0l3.09-1.57,0,0s0,0,0,0a.48.48,0,0,0-.21-.37ZM88.2,25.55l.25.18a.19.19,0,0,0,.26-.09.18.18,0,0,0-.06-.28l-.22-.11A.4.4,0,0,0,88.2,25.55ZM85.65,13.74l.68-.55c.18-.15.16-.25,0-.39l-.14-.08-.12.08c-.23.22-.46.44-.68.67s-.13.2.08.38A1.53,1.53,0,0,0,85.65,13.74Zm3.93,10.41a.35.35,0,0,0,.18,0c.07-.06.14-.13.11-.24l-.08-.06-2.85-1.16a3,3,0,0,0-.36-.12c-.17.26-.17.29,0,.39l.06,0,2.71,1.14A.73.73,0,0,0,89.58,24.15ZM91,22a.34.34,0,0,0,.29.14c.1,0,.19-.12.21-.26s0-.13-.14-.15a2.84,2.84,0,0,0-.31-.06C91,21.8,90.93,21.91,91,22ZM81,18.89a.89.89,0,0,0-.4.26c.07,0,.13.1.17.09a.76.76,0,0,0,.43-.21C81.2,18.91,81.13,18.86,81,18.89Zm6.06-11c-.17,0-.31-.21-.55-.1-.48.83-1,1.67-1.44,2.51a.58.58,0,0,0-.06.36.17.17,0,0,0,.19.19.46.46,0,0,0,.22-.06,1,1,0,0,0,.33-.32l1.42-2.1c0-.08.09-.16.12-.22S87.21,7.88,87.09,7.85Zm5.59,5.65-.17-.11a.31.31,0,0,0-.38,0l-2.12,1c-.21.1-.29.3-.42.47s0,.1,0,.17a1.4,1.4,0,0,0,1-.22l.18-.09L92.43,14A.38.38,0,0,0,92.68,13.5Zm-7.32,9.92a.93.93,0,0,0,.08-.17c-.69-.47-1.41-.88-2.11-1.32,0,0,0,0-.09,0l-.08.21.59.45a8.85,8.85,0,0,0,1.32.87A.2.2,0,0,0,85.36,23.42Zm-.58-7.77c.06.15.14.21.25.21a.47.47,0,0,0,.25-.07.41.41,0,0,0,.11-.07l2-1.49a.7.7,0,0,0,.16-.13.22.22,0,0,0,0-.28.29.29,0,0,0-.43-.11l-.13.1L85.6,14.89A7.31,7.31,0,0,0,84.78,15.65Zm-.67.91a.29.29,0,0,0,.18-.24s0-.05-.05-.07-.09,0-.12,0a.73.73,0,0,0-.18.14.17.17,0,0,0,0,.21C84,16.64,84.05,16.59,84.11,16.56Zm-.45,6.83c-.24.08-.27.16-.11.32l.07.06.84.74h0c.19-.11.2-.16.05-.29l-.64-.6Zm-.82-5.1a.22.22,0,0,0,0,.08l.14.07,1.35-.63.7-.32c.16-.08.17-.2,0-.32a.31.31,0,0,0-.32,0l-.24.12L83.18,18A1.62,1.62,0,0,0,82.84,18.29ZM92,17.16c.19,0,.39-.1.6-.16,0-.36-.09-.4-.38-.31l-1,.28c-.15.05-.29.12-.43.18v.27c.27,0,.28,0,.44,0A3,3,0,0,1,92,17.16Zm-9.61,5.52.6.54a.43.43,0,0,0,.1.09.18.18,0,0,0,.31-.09.22.22,0,0,0-.09-.21l-1-.9-.47-.34-.21.16A3.18,3.18,0,0,0,82.39,22.68Zm3.38-.36s0,0,.07-.05,0-.06,0-.07a.33.33,0,0,0-.31-.21c-.06,0-.1.05-.11.1a.2.2,0,0,0,0,.14C85.56,22.27,85.67,22.29,85.77,22.32Zm.39-1.63a.3.3,0,0,0-.19-.12c-.22-.06-.44-.1-.66-.14l-1.63-.26-.81-.12c-.12,0-.19.05-.2.17a.14.14,0,0,0,.13.17c.18,0,.64.13.83.15a3.62,3.62,0,0,1,1.13.19.3.3,0,0,0,.13,0l.63.12a2.15,2.15,0,0,0,.56.07C86.15,20.86,86.21,20.78,86.16,20.69Zm-5.42.63a.17.17,0,0,0,.14.24s.05,0,.05-.06a.23.23,0,0,0-.14-.2S80.75,21.31,80.74,21.32Zm7,3.92a1.41,1.41,0,0,0,.24.13.16.16,0,0,0,.12,0,.25.25,0,0,0,0-.38l-.12-.07a14.66,14.66,0,0,1-1.24-.81c-.13-.1-.27-.19-.42-.29l-.26.31a1.09,1.09,0,0,0,.22.17C86.72,24.61,87.21,24.93,87.7,25.24ZM81.9,23a.14.14,0,0,0,0-.18,2.7,2.7,0,0,0-.61-.69c-.07,0-.11.07-.09.13a3.16,3.16,0,0,0,.49.72A.14.14,0,0,0,81.9,23Zm9.32-11.83a.68.68,0,0,0-.38.12L88.66,12.6a.61.61,0,0,0-.17.15c0,.07-.06.15-.1.21s-.15.06-.15.18l.29.27c.19-.1.38-.19.55-.3l2.17-1.3a1.37,1.37,0,0,0,.2-.13.33.33,0,0,0,.07-.37A.3.3,0,0,0,91.22,11.13ZM81.4,21.46a.93.93,0,0,0,.13-.15,2.18,2.18,0,0,0-.52-.49l-.19.13.4.49A.13.13,0,0,0,81.4,21.46ZM89.59,9.77c-.15-.26-.27-.25-.47,0l-2.07,2.08-.14.14c-.11.14-.06.26.11.3l.11,0a.32.32,0,0,0,.29-.11c.16-.14.2-.09.37-.23l.28-.27a2.86,2.86,0,0,0,.49-.46c.31-.33.44-.33.76-.67l.32-.34a.22.22,0,0,0,0-.28A.67.67,0,0,1,89.59,9.77Zm.34,11.67a1.92,1.92,0,0,1-.41-.05,1,1,0,0,0-.46-.06.32.32,0,0,0-.06.3,4.23,4.23,0,0,0,.93.17C90,21.67,90.06,21.56,89.93,21.44Zm-2.63-.12a5,5,0,0,1,1.09.22l.17,0a.25.25,0,0,0,.2-.09c.06-.08,0-.15,0-.24l-.86-.2-.63-.13a.19.19,0,0,0-.23.19c0,.11,0,.16.16.19Zm3.13-1.6a.42.42,0,0,0,0-.38l-.22,0c-1.29,0-2.93,0-3.31.05a.55.55,0,0,0,0,.23c0,.08.12.1.2.11h.1l3.07,0A.58.58,0,0,0,90.43,19.72ZM82,15.63l-1,1.59a4.85,4.85,0,0,0-.29.49.12.12,0,0,0,0,.12c0,.05.28-.24.32-.28a2.15,2.15,0,0,0,.18-.24l.26-.39c.2-.26.4-.51.59-.78a1.2,1.2,0,0,0,.29-.56c-.07,0-.13-.08-.19-.08S82.07,15.56,82,15.63Zm3.77,2.74a.19.19,0,0,0-.33,0,.13.13,0,0,0,.08.18.35.35,0,0,0,.29-.08S85.81,18.41,85.79,18.37ZM86,19.64a.17.17,0,0,0,.15-.19c0-.09-.07-.11-.14-.12h-.14l-1,0a.15.15,0,0,0-.17.13.84.84,0,0,0,0,.16l.83,0Zm-4-.44s.07-.05.1-.08a.1.1,0,0,0,0,0s-.1-.07-.14-.06a.77.77,0,0,0-.16.07s0,0,0,.06S81.87,19.22,81.94,19.2Zm-.42-.49c-.06,0-.13.06-.12.13s.07.07.1.1l.16-.06a.1.1,0,0,0,0-.09A.13.13,0,0,0,81.52,18.71Zm1.72-1.84-1.14.82a1.12,1.12,0,0,0-.2.18.11.11,0,0,0,0,.17.21.21,0,0,0,.23,0,1,1,0,0,0,.22-.14,12.28,12.28,0,0,1,1-.75,1.09,1.09,0,0,0,.39-.38l-.09-.22C83.54,16.67,83.39,16.76,83.24,16.87Zm-2.62,2.8H81c.07-.17.06-.22-.09-.24a.45.45,0,0,0-.32.05.15.15,0,0,0-.06.1S80.59,19.67,80.62,19.67Zm-13.76.42c.34-.25.25-.67.19-1-1.58,0-3.16-.16-4.74-.16v1.57c.89,0,1.81,0,2.71-.14a1.15,1.15,0,0,0,.28.06,1.27,1.27,0,0,0-.24-.07c.22,0,.45,0,.66-.06S66.57,20.32,66.86,20.09Zm13.71-1.6a.17.17,0,0,0,.06.08s.1,0,.12,0a2.09,2.09,0,0,0,.16-.22c-.09-.11-.16-.11-.23,0S80.55,18.39,80.57,18.49Zm1.62-1.33a.39.39,0,0,0,.08-.14.76.76,0,0,0,0-.14c-.21,0-.27.19-.37.29s-.22.23-.34.33a3.48,3.48,0,0,0-.48.46c.13.13.17.14.26.06Zm.42-.48a.54.54,0,0,0,0-.1l-.1,0s-.09.08,0,.14a.15.15,0,0,0,.1.06C82.61,16.81,82.62,16.74,82.61,16.68Zm-.19-1.6-.07.07c0,.06,0,.14.11.17a.13.13,0,0,0,.17-.05.06.06,0,0,0,0,0A.21.21,0,0,0,82.42,15.08ZM76,12.39l.24.51.45.84c.11.19.22.39.34.58a.13.13,0,0,0,.2,0,.12.12,0,0,0,.06-.17c-.07-.16-.16-.3-.22-.46-.14-.32-.36-.6-.47-.93a2.73,2.73,0,0,0-.29-.53s-.11-.07-.13-.09C76,12.16,75.89,12.26,76,12.39Zm3.53,3.55s.08,0,.1-.08a.41.41,0,0,0,0-.16c0-.3-.05-.8-.07-1.08-.1,0-.15,0-.17.06a.07.07,0,0,0,0,.06c0,.22,0,.53,0,.87A.55.55,0,0,0,79.49,15.94Zm0,1.88s0,0,.09.06a.67.67,0,0,0,0-.39c0-.32,0-.63-.08-.95a1.85,1.85,0,0,0,0-.23s0-.1-.09-.08a.12.12,0,0,0-.06.1c0,.12,0,.24,0,.37s0,.51,0,.77A1.82,1.82,0,0,0,79.53,17.82ZM79.45,24c0,.11.13.2.21.18s.12-.08.12-.21v-.71h0v-.64a1,1,0,0,0,0-.23s-.06-.08-.09-.08a.17.17,0,0,0-.14.06.43.43,0,0,0-.06.22c0,.44,0,.87,0,1.31A.34.34,0,0,0,79.45,24Zm.17-2.21s.07,0,.09-.07a.53.53,0,0,0,0-.39s-.08-.07-.18-.15c0,.23,0,.37,0,.51S79.57,21.78,79.62,21.8ZM79.3,14a.49.49,0,0,0,.34-.14v-.33L79.55,11a1.41,1.41,0,0,0,0-.2.16.16,0,0,0-.13-.14c-.13,0-.25,0-.24.19s0,.09,0,.13c0,.72,0,1.45,0,2.17,0,.1,0,.2,0,.3l0,.27C79.24,13.82,79.27,13.91,79.3,14Zm-.5-8.51c.23.18.82.27.93-.07a5.15,5.15,0,0,0,0-1.24c.11-1.39.09-2.77.09-4.16H78.18c.25,1.37.18,2.78.36,4.16C78.59,4.56,78.47,5.28,78.8,5.51Zm-5.41,2.2c.24-.24,0-.61-.07-.86-.34-.64-.71-1.27-1-1.91-.66-1.18-1.31-2.38-2-3.57-.19-.33-.44-1.1-.8-1.28a2,2,0,0,0-.72,0H67.21c1.33,2.17,2.91,4.2,4.32,6.32C71.84,6.81,72.65,8.46,73.39,7.71Zm-4.23-.52a20.78,20.78,0,0,0,1.47,1.66c.2.16.54.35.73.05s-.08-.65-.24-.88c-.46-.65-1-1.27-1.42-1.91-1-1.46-2.11-2.88-3.16-4.32L65.69.62c-.14-.18-.28-.43-.5-.53a1.94,1.94,0,0,0-.72,0H63a8.08,8.08,0,0,0,1.81,2.25C66.25,3.92,67.73,5.53,69.16,7.19Zm8.39,4.57c.09.27.19.53.27.79.16.56.31,1.13.46,1.69l.06.13h.24a.86.86,0,0,0,0-.15,3,3,0,0,0-.17-.72,1.7,1.7,0,0,1-.1-.32c0-.19-.08-.39-.14-.58-.12-.41-.26-.81-.39-1.22a.15.15,0,0,0-.16-.1.18.18,0,0,0-.15.16.17.17,0,0,0,0,.1Zm2.09,6.47-.06,0a.22.22,0,0,0-.07.06.44.44,0,0,0,0,.35C79.7,18.48,79.73,18.34,79.64,18.23Zm-4.2-12c.1.14.29.25.44.12.36-.29,0-1.31-.1-1.68A28.35,28.35,0,0,1,74.94,0H73.19c.56,1.71,1.2,3.38,1.8,5.07A4.92,4.92,0,0,0,75.44,6.25ZM76.88,10c0,.12,0,.27.21.35l.24-.06a.16.16,0,0,0,.12-.18,1,1,0,0,0,0-.17c-.21-.79-.43-1.58-.63-2.38-.1-.39-.24-.32-.48-.2a.23.23,0,0,0-.14.28l.06.19C76.44,8.59,76.65,9.31,76.88,10ZM62.31,24c1.46-.3,2.89-.8,4.32-1.21.45-.12,1.32-.34,1-1-.19-.43-1-.15-1.35-.1L65,21.76s0,0,0,0,0,0,0,0c-.88.08-1.76.17-2.64.28Zm16.23-2.65c-.09,0-.18-.1-.2-.09s0,0,0,.06,0,.12,0,.12A.18.18,0,0,0,78.54,21.31ZM64,5.78C65.12,6.82,66.21,8,67.38,9c.58.51,1.13,1.07,1.74,1.56.25.19.58.42.89.17s0-.56-.14-.77c-.39-.55-.92-1-1.36-1.5-1.15-1.32-2.43-2.52-3.61-3.82a26.64,26.64,0,0,0-2.59-2.82V3.45a1.79,1.79,0,0,0,.09.83C62.7,4.87,63.48,5.34,64,5.78Zm9.24,20.3c.28-.23.47-.54.8-.69a.76.76,0,0,0,.09-.09l.23-.37s-.07-.08-.11-.09a.26.26,0,0,0-.28.07l-.81.81a.07.07,0,0,0,0,.05.41.41,0,0,0,0,.19C73.1,26,73.17,26.05,73.21,26.08Zm5.59-5.67a.17.17,0,0,0,0-.11.1.1,0,0,0-.09,0,1.34,1.34,0,0,0-.2.21s0,.1,0,.19A.73.73,0,0,0,78.8,20.41Zm-3.19,9.07s0,0,.08,0a.33.33,0,0,0,.06-.1c.38-.89.76-1.78,1.13-2.67a.9.9,0,0,0,0-.16.61.61,0,0,0-.36-.17,1.45,1.45,0,0,0-.24.44c-.09.21-.17.44-.26.65-.22.52-.44,1-.67,1.55C75.24,29.34,75.26,29.37,75.61,29.48ZM79.8,6.88c0-.23,0-.31-.26-.41a.91.91,0,0,0-.4,0,.13.13,0,0,0-.12.14v.3c0,.35,0,.7.07,1,0,.56.07,1.12.11,1.68l0,.2a.2.2,0,0,0,.2.1.14.14,0,0,0,.13-.13c0-.11,0-.22,0-.33.06-.72.11-1.44.16-2.15h0c0-.07,0-.14,0-.2A1.49,1.49,0,0,1,79.8,6.88ZM79.49,21s.06.08.09.08.09,0,.1-.06a.59.59,0,0,0,0-.23.13.13,0,0,0-.06-.11s-.09,0-.17,0S79.48,20.87,79.49,21Zm-.27-3.65c0-.28-.07-.54-.11-.79s-.11-.66-.18-1a5.29,5.29,0,0,0-.15-.57.15.15,0,0,0-.16-.1.15.15,0,0,0-.11.15.64.64,0,0,1,0,.07c.13.63.36,1.57.5,2.21a.36.36,0,0,0,0,.09l.06,0a.09.09,0,0,0,.06,0S79.21,17.33,79.22,17.33Zm-.16,3.24s-.07,0-.07.06,0,.05,0,.06l.08,0Zm.11-2.21-.11-.06s-.07.12-.1.15l.16.07Zm-.37,3.12a.16.16,0,0,0,.09-.09,1.19,1.19,0,0,0,.14-.54c-.09,0-.18,0-.21.08a1.35,1.35,0,0,0-.19.46.12.12,0,0,0,0,.08A.15.15,0,0,0,78.8,21.48Zm-2,9.79c-.4,1.73-.89,3.44-1.34,5.15-.36,1.36-.66,2.74-1.07,4.07h1.91c.3-2.35.6-4.71.94-7.06C77.39,32.73,77.9,31.31,76.85,31.27ZM83,33.81l0-.13c-.15-.75-.3-1.5-.46-2.24a1.63,1.63,0,0,0-.07-.3.32.32,0,0,0-.4-.2,1.46,1.46,0,0,0-.28.11c0,.18.07.33.1.48.16.76.31,1.52.47,2.28a1.31,1.31,0,0,0,.09.28.22.22,0,0,0,.19.13C82.91,34.24,83,34.08,83,33.81Zm-.15,1.38c-.3.22,0,1.27.05,1.56.22,1.25.47,2.5.63,3.74H84.7a19.18,19.18,0,0,0-1-4C83.62,36.24,83.38,34.81,82.85,35.19Zm-1-5.32a.75.75,0,0,0,0-.16c0-.19-.09-.37-.13-.56l-.24-1,0-.06h-.22a.43.43,0,0,0,0,.35l.27,1,.13.49c0,.12.1.16.19.12S81.88,30,81.86,29.87Zm-.55-2.08a.3.3,0,0,0,.06-.18,3.28,3.28,0,0,0-.11-.45.09.09,0,0,0-.13-.07l-.17.05a1.82,1.82,0,0,0,.15.64.13.13,0,0,0,.09.07A.11.11,0,0,0,81.31,27.79ZM63.39,11c.82.44,1.66.83,2.49,1.29a16.48,16.48,0,0,0,1.83.92.66.66,0,0,0,.78-.11c.48-.55-.86-1.26-1.19-1.52L64.06,9.11a9.7,9.7,0,0,0-1.75-1.26V9.59a1.53,1.53,0,0,0,.09.8C62.59,10.69,63.09,10.84,63.39,11ZM81,25.9l0-.09c-.14-.76-.29-1.53-.44-2.29a.63.63,0,0,0-.07-.22.13.13,0,0,0-.17-.06.13.13,0,0,0-.12.15s0,.05,0,.08l.39,2.37c0,.05,0,.11,0,.16a.19.19,0,0,0,.24.13C81,26.09,81,26,81,25.9ZM97.86,36.72c-1.48-1.39-2.9-2.85-4.33-4.28-.61-.62-1.22-1.21-1.86-1.8-.21-.19-.45-.46-.74-.22s0,.54.15.73c.53.58,1.06,1.15,1.61,1.72,1.84,1.9,3.56,3.93,5.42,5.82.58.6,1.42,1.91,1.62,1.8a3.14,3.14,0,0,0,0-2C99.27,37.9,98.4,37.23,97.86,36.72Zm-.08-5.34-3.16-2.1a7.88,7.88,0,0,0-1.74-1.08l-.42.5a11.34,11.34,0,0,0,2.49,2,51.27,51.27,0,0,0,5,3.6c0-.41.13-1.11-.14-1.47A8.59,8.59,0,0,0,97.78,31.38ZM87.5,35.61c-.38-.67-.81-1.82-1.3-1.52s.16,1.21.36,1.68a35.91,35.91,0,0,1,2.24,4.74h1.5a11.91,11.91,0,0,0-1-1.75C88.72,37.71,88.1,36.66,87.5,35.61Zm9.7-24.84c-.82.45-1.67.83-2.49,1.25s-1.54.6-1.17,1.48a32.67,32.67,0,0,0,4.65-1.86c.44-.19,1.38-.38,1.66-.77s.09-1.06.09-1.44A13.63,13.63,0,0,0,97.2,10.77ZM79.87,35.41c-.44,0-.34.91-.38,1.19a30.11,30.11,0,0,0-.28,3.91h1.24c0-1.3,0-2.62-.15-3.91C80.27,36.29,80.38,35.41,79.87,35.41Zm10.78-1.09a17.49,17.49,0,0,0-1.45-1.75l-.41.25A9.75,9.75,0,0,0,90,34.65c.83,1.25,1.69,2.51,2.56,3.74.33.46.63.94,1,1.41.13.19.26.49.49.58a5.28,5.28,0,0,0,1.55.13,21,21,0,0,0-2.45-3.2Zm-4.59-1.49c-.33-.59-.66-1.18-1-1.77-.07-.13-.12-.27-.19-.39a1.18,1.18,0,0,0-.28-.43l-.34.18c.07.3,1.12,2.71,1.29,3a.88.88,0,0,0,.66-.26C86.16,33,86.12,32.93,86.06,32.83Zm-11.6-2.59c-.24.1-.35.4-.46.62l-.79,1.58c-.85,1.71-1.68,3.43-2.53,5.14a18,18,0,0,0-1.39,2.91h2.82a25.78,25.78,0,0,1,1.11-3.9c.62-2.08,1.21-4.15,1.88-6.23C74.9,30.28,74.68,30.15,74.46,30.24Zm-1.5.2c.28-.46.43-.93-.12-1.28-.37-.21-.63.2-.82.45-.53.69-1,1.4-1.57,2.08-1.56,2-3,4.05-4.58,6.06a12.06,12.06,0,0,1-2.15,2.66,5.81,5.81,0,0,0,2,.08,1.46,1.46,0,0,0,.72-.08,2.2,2.2,0,0,0,.56-.75c.3-.47.6-.94.91-1.41,1.19-1.82,2.34-3.66,3.54-5.48C72,32,72.48,31.23,73,30.44Zm-3.48.08a23.25,23.25,0,0,0,1.61-1.82c.16-.22.3-.63.06-.85s-.66.1-.86.28c-.73.65-1.44,1.32-2.16,2-1.39,1.26-2.78,2.48-4.16,3.75a6.75,6.75,0,0,0-1.57,1.49,2.25,2.25,0,0,0-.09,1v2a3.14,3.14,0,0,0,1-.91c.45-.5.9-1,1.34-1.5C66.25,34.11,67.88,32.34,69.48,30.52Zm-6-13.24c.85.15,1.71.32,2.57.46.31.05.77.18,1-.06a.57.57,0,0,0,0-.83,4.84,4.84,0,0,0-1.47-.39l-1.32-.3c-.67-.17-1.33-.36-2-.5,0,.34-.14,1.08.09,1.35S63.19,17.24,63.48,17.28Zm9.92,6.66c0-.11-.07-.2-.17-.19s-.27.05-.3.23l.17.19C73.23,24.1,73.35,24.05,73.4,23.94ZM78.82,23c0,.08,0,.14-.06.2a2.09,2.09,0,0,1-.08.36,5.31,5.31,0,0,0-.24,1.25.13.13,0,0,0,0,.11.24.24,0,0,0,.36-.15.3.3,0,0,0,0-.1l.18-1.4C79.07,23.12,79,23,78.82,23Zm-1.17,1.85.75-2.1c0-.13.18-.42.22-.56s0-.24-.08-.28-.18,0-.23.15c-.13.28-.33.7-.45,1a2.85,2.85,0,0,0-.12.31c-.15.44-.29.88-.43,1.32a1.87,1.87,0,0,0-.07.22s0,.07,0,.1a.2.2,0,0,0,.17.15c.08,0,.12,0,.15-.1S77.62,24.91,77.65,24.85ZM79,22.47a.18.18,0,0,0-.13.08.2.2,0,0,0,0,.27s.06,0,.09,0,.12-.08.13-.19,0-.06,0-.07S79.08,22.48,79,22.47Zm.26-1a.37.37,0,0,0,0-.35c-.15.25-.15.25-.09.44C79.26,21.56,79.29,21.51,79.3,21.46Zm-.85,3.64a.16.16,0,0,0-.07.07c-.07.2-.13.41-.18.61a.16.16,0,0,0,.06.18.18.18,0,0,0,.3-.08,1.82,1.82,0,0,0,.13-.75C78.51,25.08,78.49,25.08,78.45,25.1Zm-.2,1.84a.19.19,0,0,0-.22.16,1,1,0,0,0,0,.17c0,.23-.07.47-.11.7l-.33,1.73a.88.88,0,0,0,0,.16.16.16,0,0,0,.27.12.52.52,0,0,0,.17-.16,2,2,0,0,0,.14-.41c0-.33.09-.65.13-1s.11-.78.16-1.17v-.1A.19.19,0,0,0,78.25,26.94Zm.15-6.14c-.07-.12-.15-.13-.2-.08a2.06,2.06,0,0,0-.33.4.17.17,0,0,0,.26,0C78.23,21,78.31,20.91,78.4,20.8Zm-5.63-4a.2.2,0,0,0,.15.2l.73.28c.18-.14.19-.23,0-.29a5.22,5.22,0,0,1-.73-.32C72.84,16.62,72.77,16.69,72.77,16.8Zm-.07,1.57.17.06.43.07.72.13a.19.19,0,0,0,.13,0,.14.14,0,0,0,.09-.09.18.18,0,0,0,0-.11s0,0-.09,0l-1.22-.33h-.17A.31.31,0,0,0,72.7,18.37Zm-.16,1.05a.18.18,0,0,0-.14.2.14.14,0,0,0,.15.11h.27l.91-.05h2a.68.68,0,0,0,.4-.05c0-.21,0-.21-.17-.23l-.27,0-3,0Zm5.34.92s0-.07-.06-.06a4.31,4.31,0,0,0-.49.11s0,0-.07.09.09.11.14.11a.76.76,0,0,0,.46-.16A.1.1,0,0,0,77.88,20.34ZM73,20.89h.1c.31-.07.62-.08.93-.17a5.94,5.94,0,0,1,.86-.12c.17,0,.2-.08.14-.3a2.11,2.11,0,0,0-.62.07l-1.13.13c-.12,0-.24.06-.36.09a.16.16,0,0,0-.07.2A.12.12,0,0,0,73,20.89ZM73,15.41a.22.22,0,0,0,0,.1,1.13,1.13,0,0,0,.19.19l1,.66,1.3.8.26.14.18-.21a4.2,4.2,0,0,0-.44-.33c-.38-.22-.71-.52-1.09-.74s-.7-.48-1-.73C73.21,15.17,73.14,15.19,73,15.41ZM74.15,14a.15.15,0,0,0-.21,0,.22.22,0,0,0,0,.35c.19.17.4.33.6.49a.46.46,0,0,0,.14,0s.12-.07.14-.13a.16.16,0,0,0,0-.15C74.58,14.45,74.37,14.24,74.15,14Zm2.56,8.51c.24-.24.58-.61.83-.85a.91.91,0,0,0,.06-.11c-.11-.1-.21-.13-.31,0s-.57.57-.79.8a.14.14,0,0,0,0,.21A.13.13,0,0,0,76.71,22.55Zm.09-3.63s-.08,0-.08,0a.16.16,0,0,0,0,.12.21.21,0,0,0,.26,0C77,18.94,76.89,18.93,76.8,18.92Zm1,.65s0-.09-.06-.1a1.92,1.92,0,0,0-.89,0,.11.11,0,0,0-.06.11.13.13,0,0,0,.06.1.32.32,0,0,0,.14,0h.7S77.8,19.61,77.82,19.57Zm-.68.46c0,.06,0,.15.12.14a.75.75,0,0,0,.14-.08c0-.12-.08-.12-.13-.13A.09.09,0,0,0,77.14,20Zm-3.83,2.06a.44.44,0,0,0,.23,0c.33-.11.65-.24,1-.37a.65.65,0,0,0,.16-.13.12.12,0,0,0-.06-.17h-.16l-.66.22-.65.22C73.13,22,73.19,22.08,73.31,22.09Zm1.31-3.63c-.06,0-.12,0-.12.1a.19.19,0,0,0,.07.13.54.54,0,0,0,.19.08,2.63,2.63,0,0,0,.79.09s0,0,.07,0v-.17q-.48-.11-1-.18Zm2.45,3a.12.12,0,0,0,0-.18.16.16,0,0,0-.18,0,.82.82,0,0,0-.2.12c-.24.16-.47.31-.69.48a16.9,16.9,0,0,1-1.41,1,2.31,2.31,0,0,0-.36.25.63.63,0,0,0-.11.12.13.13,0,0,0,.14.19.68.68,0,0,0,.17,0,4.77,4.77,0,0,0,.43-.25c.28-.2.55-.42.84-.62s.66-.47,1-.7Zm1.21-1.29a.09.09,0,0,0,0,.07l.08,0s0-.08,0-.09S78.27,20.09,78.28,20.13Zm.23-.68-.29,0s0,0-.07,0c.07.19.23.13.35.14S78.61,19.53,78.51,19.45Zm-12-5.35c-1.43-.76-2.81-1.59-4.24-2.35v2c1.33.27,2.68.76,4,1.16.3.1,1.08.55,1.32.14S66.82,14.25,66.55,14.1Zm-4.24,12v1.66c1.55-.81,3.1-1.63,4.65-2.42.5-.26,1.52-.61,1.05-1.37-.24-.39-1,0-1.3.08-1,.32-2.1.64-3.15.94-.32.09-1,.14-1.16.42A1.17,1.17,0,0,0,62.31,26.12Zm14-5.83a.14.14,0,0,0,0-.15.11.11,0,0,0-.12-.09c-.15,0-.62.1-.77.11h0s-.07,0-.08,0a.35.35,0,0,0-.06.18s.1.07.14.1l.82-.18Zm-.48-2.39a7.81,7.81,0,0,0-1.12-.47.75.75,0,0,1-.12-.07l-.43-.18a.15.15,0,0,0-.2.12.13.13,0,0,0,.09.16l1.83.75C76,18,76,18,75.88,17.9ZM75.14,15a.22.22,0,0,0-.28,0,.14.14,0,0,0,0,.24c.17.15.34.29.5.45l.5.55a2,2,0,0,0,.51.41.24.24,0,0,0,0-.38Zm1,7.71a.11.11,0,0,0,0,.15.14.14,0,0,0,.2.06l.15-.17a.14.14,0,0,0,0-.09l-.11-.08Zm-.32.33-.08.07c-.28.3-.55.61-.83.92,0,0,0,0,0,.06.15.15.21.17.33,0s.53-.55.79-.83a.1.1,0,0,0,0-.05c.06-.09,0-.24,0-.28S75.83,23,75.77,23.05Zm-.9-1.77a1.06,1.06,0,0,0,0,.24A9.23,9.23,0,0,0,76.32,21a.55.55,0,0,0,.33-.18c-.09-.22-.1-.22-.26-.17l-.35.13-1,.32C75,21.17,74.89,21.2,74.87,21.28ZM79,18c0-.12-.07-.24-.11-.35l-.77-1.79a1.44,1.44,0,0,0-.19-.31.13.13,0,0,0-.12,0,.58.58,0,0,0-.1.12.17.17,0,0,0,0,.1c.11.27.28.65.39.92a11.72,11.72,0,0,1,.55,1.26.31.31,0,0,0,.08.15.18.18,0,0,0,.14,0S79,18.07,79,18Zm-7.45,2.85-.93.15-.24,0a.34.34,0,0,0,0,.32.48.48,0,0,0,.33.1,7.21,7.21,0,0,0,1-.2,2,2,0,0,0,.22-.09,1.16,1.16,0,0,0-.06-.15C71.81,20.84,71.8,20.84,71.57,20.87Zm-2-7.58c-.05.15,0,.22.12.32l.08.05,2.07,1.22L72,15c.13,0,.31-.09.31-.26a.92.92,0,0,0-.14-.14l-.74-.47c-.49-.32-1-.64-1.48-.95C69.73,13,69.62,13.05,69.54,13.29ZM69,14.94s-.11.08-.12.13a.48.48,0,0,0,.25.5l.13,0,2.16.85a.73.73,0,0,0,.19.07.2.2,0,0,0,.13,0,.29.29,0,0,0,.14-.25c0-.1-.06-.14-.13-.18l-.12-.05-2.39-1Zm4-4.07a.56.56,0,0,0-.14.31.56.56,0,0,0,0,.08q.4.47.81.9a.26.26,0,0,0,.39,0,.14.14,0,0,0,0-.21l-.92-1.12A.16.16,0,0,0,73,10.87Zm-.52-.95a.45.45,0,0,0-.12-.06,1.05,1.05,0,0,0-.21.12.22.22,0,0,0,0,.37c.15.15.31.29.47.43a.24.24,0,0,0,.08.06.22.22,0,0,0,.24-.08.14.14,0,0,0,0-.18ZM70,17.51c-.2,0-.3,0-.31.27s.06.22.22.25l.36,0,1.06.16c.14,0,.24-.07.27-.25s0-.18-.21-.21Zm1.12-6.45L71,11l-.08,0a.29.29,0,0,0-.07.49l.18.16,1,.9a.85.85,0,0,1,.19.19,3,3,0,0,0,.63.55l.15.09a.14.14,0,0,0,.2-.11.59.59,0,0,0,0-.23.62.62,0,0,0-.14-.14l-1.77-1.72Zm-.33,14.62a.26.26,0,0,0,.28,0l.11-.08,1.37-1,.22-.18a.28.28,0,0,0-.21-.25l-.16.08-1.64,1s-.08,0-.1.08a.18.18,0,0,0-.05.12A.32.32,0,0,0,70.75,25.68Zm-.93-2.05a12.84,12.84,0,0,1,1.35-.5,5.31,5.31,0,0,0,1.15-.49l.17-.11c0-.09,0-.16,0-.24a.14.14,0,0,0-.16-.09l-.54.19c-.17.06-.33.14-.5.19l-1.5.5a2.09,2.09,0,0,0-.3.11.29.29,0,0,0,0,.09v.1C69.43,23.7,69.51,23.75,69.82,23.63ZM69,21.32a.15.15,0,0,0-.14.12,1.85,1.85,0,0,0,0,.23l.21.14a.24.24,0,0,0,.26,0c.09-.09.19-.08.31-.09l.41-.09c0-.09.05-.14.06-.19s0-.23-.16-.21C69.58,21.24,69.28,21.28,69,21.32Zm-.75-2.07a.69.69,0,0,0-.08.37.47.47,0,0,0,.42.19l2.9,0,.2,0a.53.53,0,0,0,0-.37.59.59,0,0,0-.36-.08l-1,0-1.69-.06A.68.68,0,0,0,68.23,19.25Zm.35-1.82a.59.59,0,0,0,0,.23.16.16,0,0,0,.15.18,4.24,4.24,0,0,0,.44.05h.13c.15,0,.22-.07.24-.23a.19.19,0,0,0-.17-.24l-.59-.1A.14.14,0,0,0,68.58,17.43ZM76,14.26a1.63,1.63,0,0,0-.23-.29,5.43,5.43,0,0,1-.69-.83L75,13a.15.15,0,0,0-.19,0,.24.24,0,0,0-.05.14.67.67,0,0,0,.17.36l1.54,1.89s.3.49.31.49a.32.32,0,0,0,.16,0,.69.69,0,0,0,.14-.15c0-.08-.08-.15-.12-.21C76.72,15.27,76.23,14.54,76,14.26Zm2.24,4.17.11-.17c-.21-.23-.43-.43-.65-.64l-.06,0s-.08,0-.09,0-.06.09,0,.12a1,1,0,0,0,.17.24l.49.45Zm0,.76s.09,0,.12,0,0-.15,0-.16a.54.54,0,0,0-.11.05S78.15,19.15,78.29,19.19Zm-1-1.1c0-.3-.28-.31-.45-.44-.11.15-.12.2,0,.24a2.82,2.82,0,0,0,.38.21S77.22,18.09,77.26,18.09Zm.77.74-1.38-.63a.26.26,0,0,0-.12,0c0,.3,0,.34.28.42l1.07.4h.06C78,19,78.07,19,78,18.83Zm.75.1c.06,0,.15-.05.14-.11a.5.5,0,0,0-.39-.35s-.07,0-.1.07a.14.14,0,0,0,0,.09A.92.92,0,0,0,78.78,18.93ZM74.6,9.4a2.89,2.89,0,0,0-.58-1l-.06,0-.26.12c0,.17,0,.28.12.39l.87,1.48c.17.29.32.58.48.86a.2.2,0,0,0,.3.1.56.56,0,0,0,.15-.16c-.16-.29-.3-.56-.46-.81A11,11,0,0,1,74.6,9.4Zm2.27,7.45c-.11.18-.12.27,0,.37s.25.19.39.29c0-.05.09-.08.11-.12a.18.18,0,0,0,0-.12A1.6,1.6,0,0,0,76.87,16.85Zm1,3.9s0-.05,0-.06-.13.09-.12.13l.07.07S78,20.78,77.91,20.75ZM72.15,27s.08,0,.1,0l.74-.72a.16.16,0,0,0,.05-.18.19.19,0,0,0-.19-.11.4.4,0,0,0-.18.07c-.21.2-.42.4-.62.61S72,27,72.15,27Zm5.37-10.68c0-.07-.12-.09-.17-.05a.12.12,0,0,0,0,.15.75.75,0,0,0,.07.12l.54.77.15.15a.35.35,0,0,0-.06-.31c-.13-.22-.26-.44-.4-.66A1,1,0,0,0,77.52,16.34Zm-.16-1.81a.19.19,0,0,0-.17.19c0,.09.22.45.29.45s.19-.08.18-.15S77.44,14.54,77.36,14.53Z" fill="#2979ff"/><path d="M0,16.45H1.59l3.31,13L8,16.45H9.65L5.58,31.36H4.14Z" fill="#2979ff"/><path d="M11.14,16.45h7.25v1.26H12.6V23h5.47V24.2H12.6v5.92h5.79v1.24H11.14Z" fill="#2979ff"/><path d="M20.79,16.45h3.59a5.07,5.07,0,0,1,3.12.89,3.19,3.19,0,0,1,1.19,2.72,3.89,3.89,0,0,1-.75,2.39A4.45,4.45,0,0,1,25.63,24a2.87,2.87,0,0,1,1.6,1,5,5,0,0,1,.78,2l.88,4.44H27.34l-.59-3.59a5,5,0,0,0-1-2.47,2.47,2.47,0,0,0-2-.76H22.21v6.82H20.79Zm1.42,1.3v5.58h1.48a3.78,3.78,0,0,0,2.56-.84,2.83,2.83,0,0,0,1-2.27,2.36,2.36,0,0,0-.69-1.85,3.09,3.09,0,0,0-2.09-.62Z" fill="#2979ff"/><path d="M30.72,16.45h3.44a4.36,4.36,0,0,1,3.89,1.94A10.28,10.28,0,0,1,39.33,24a12,12,0,0,1-.58,3.82A5.09,5.09,0,0,1,37,30.48a4.61,4.61,0,0,1-2.79.88H30.72Zm1.45,1.3V30.1h2A2.94,2.94,0,0,0,37,28.46a10.91,10.91,0,0,0,.85-4.89,8.55,8.55,0,0,0-.88-4.32,3,3,0,0,0-2.78-1.5Z" fill="#2979ff"/><path d="M43.65,16.45h1.43l4.16,14.91H47.62l-1.27-5.15h-4l-1.26,5.15H39.54Zm.69,1.82L42.69,25H46Z" fill="#2979ff"/><path d="M50.51,16.45H54a4.37,4.37,0,0,1,3.9,1.94A10.28,10.28,0,0,1,59.13,24a12.24,12.24,0,0,1-.58,3.82,5.09,5.09,0,0,1-1.8,2.63,4.62,4.62,0,0,1-2.8.88H50.51ZM52,17.75V30.1h2a2.93,2.93,0,0,0,2.8-1.64,10.76,10.76,0,0,0,.86-4.89,8.54,8.54,0,0,0-.89-4.32A3,3,0,0,0,54,17.75Z" fill="#2979ff"/><path d="M3.09,14.58a1.59,1.59,0,0,1-.82.27,1.17,1.17,0,0,1-.79-.31A1.71,1.71,0,0,1,1,13.71a4.11,4.11,0,0,1-.15-1.13A3,3,0,0,1,1.23,11a1.22,1.22,0,0,1,1.08-.63,1.36,1.36,0,0,1,.78.27v.5a1.19,1.19,0,0,0-.77-.38.86.86,0,0,0-.76.5,3,3,0,0,0-.28,1.44A2.77,2.77,0,0,0,1.55,14a.83.83,0,0,0,.75.51,1.27,1.27,0,0,0,.79-.4Z" fill="#2979ff"/><path d="M6.71,10.33a1.19,1.19,0,0,1,1,.61,3.2,3.2,0,0,1,.39,1.72,2.8,2.8,0,0,1-.41,1.59,1.19,1.19,0,0,1-2.06,0,2.85,2.85,0,0,1-.4-1.63A3.12,3.12,0,0,1,5.65,11,1.19,1.19,0,0,1,6.71,10.33Zm0,.39a.83.83,0,0,0-.78.53,3.47,3.47,0,0,0-.25,1.4A2.85,2.85,0,0,0,6,14a.79.79,0,0,0,1.46,0,3.06,3.06,0,0,0,.26-1.37,2.74,2.74,0,0,0-.28-1.4A.78.78,0,0,0,6.73,10.72Z" fill="#2979ff"/><path d="M11.09,10.4,12,12.81,13,10.4h.52v4.38H13.1V10.87c-.08.28-.18.59-.3.92l-.76,2-.65-1.67q-.2-.48-.45-1.2c0,.95,0,1.47,0,1.57v2.31h-.4V10.4Z" fill="#2979ff"/><path d="M16.14,10.4h.43v4.38h-.43Z" fill="#2979ff"/><path d="M19,13.94a3.08,3.08,0,0,0,.54.37.94.94,0,0,0,.43.1.91.91,0,0,0,.61-.24.84.84,0,0,0,.27-.64.69.69,0,0,0-.18-.49,1.79,1.79,0,0,0-.68-.38q-1-.37-1-1.14a1.11,1.11,0,0,1,.35-.84,1.15,1.15,0,0,1,.84-.35,1.49,1.49,0,0,1,.84.3v.57a2.13,2.13,0,0,0-.45-.35.85.85,0,0,0-.38-.09.7.7,0,0,0-.54.22.73.73,0,0,0-.22.53.6.6,0,0,0,.19.47,2.55,2.55,0,0,0,.71.39,2.1,2.1,0,0,1,.5.25,1,1,0,0,1,.32.36,1.2,1.2,0,0,1,.13.54A1.33,1.33,0,0,1,20,14.85a1.67,1.67,0,0,1-1-.37Z" fill="#2979ff"/><path d="M23.74,10.4h.42v4.38h-.42Z" fill="#2979ff"/><path d="M28.07,10.33a1.16,1.16,0,0,1,1,.61,3.19,3.19,0,0,1,.4,1.72,2.8,2.8,0,0,1-.41,1.59,1.19,1.19,0,0,1-2.06,0,2.85,2.85,0,0,1-.4-1.63A3.22,3.22,0,0,1,27,11,1.22,1.22,0,0,1,28.07,10.33Zm0,.39a.83.83,0,0,0-.78.53,3.31,3.31,0,0,0-.25,1.4A2.85,2.85,0,0,0,27.32,14a.78.78,0,0,0,1.45,0A2.92,2.92,0,0,0,29,12.58a2.85,2.85,0,0,0-.28-1.4A.79.79,0,0,0,28.09,10.72Zm.15-1.54h.47L28,10.1h-.27Z" fill="#2979ff"/><path d="M32.34,10.4l1.3,2.92.34.76c0-.78,0-1.19,0-1.22V10.4h.38v4.38H33.9L32.64,12l-.2-.51-.15-.38a1.24,1.24,0,0,0,0,.15l0,.34v3.21h-.38V10.4Z" fill="#2979ff"/><path d="M39.21,10.4h1a1.27,1.27,0,0,1,1.14.57,2.93,2.93,0,0,1,.38,1.66,3.7,3.7,0,0,1-.17,1.12,1.47,1.47,0,0,1-.53.77,1.36,1.36,0,0,1-.82.26h-1Zm.43.38v3.63h.58a.86.86,0,0,0,.83-.48,3.18,3.18,0,0,0,.25-1.44A2.56,2.56,0,0,0,41,11.22a.9.9,0,0,0-.82-.44Z" fill="#2979ff"/><path d="M44.19,10.4h2.13v.37h-1.7v1.54h1.61v.37H44.62v1.73h1.7v.37H44.19Z" fill="#2979ff"/><path d="M51.25,10.4h.43v4H53.3v.37h-2Z" fill="#2979ff"/><path d="M56.38,10.4h.42L58,14.78h-.48l-.37-1.52H56l-.37,1.52h-.46Zm.2.54-.48,2h1Z" fill="#2979ff"/></svg>