<?xml version="1.0" encoding="utf-8"?>
<!-- Generator: Adobe Illustrator 25.4.1, SVG Export Plug-In . SVG Version: 6.00 Build 0)  -->
<svg version="1.1" id="Capa_1" xmlns="http://www.w3.org/2000/svg" xmlns:xlink="http://www.w3.org/1999/xlink" x="0px" y="0px"
	 viewBox="0 0 389.2 179.3" style="enable-background:new 0 0 389.2 179.3;" xml:space="preserve">
<style type="text/css">
	.st0{fill:#FFFFFF;}
</style>
<g id="Group_1659" transform="translate(-954.237 -453.199)">
	<g id="Group_1126" transform="translate(954.237 453.199)">
		<path id="Path_3427" class="st0" d="M30.8,25.7h13.5v36.9H34.1V39.3L27,57.6h-7.6l-7-18.2v23.3H2.1V25.7h13.5l7.6,19.8L30.8,25.7z
			"/>
		<path id="Path_3428" class="st0" d="M83.9,48c0,8.9-6.2,15.3-15.5,15.3C58,63.3,52.7,57,52.7,48V25.7h10V48c0,3.2,1.9,6.2,5.7,6.2
			s5.6-3,5.6-6.2V25.7h10L83.9,48z"/>
		<path id="Path_3429" class="st0" d="M50.4,81.7c-3.4-1.5-7.1-2.4-10.8-2.6c-2.5,0-3.9,0.9-3.9,2.1c0,5,16.4,4.2,16.4,14.7
			c0,7.7-6.2,12.5-14.6,12.5c-4.6,0-9-1.1-13.1-3.2l1.1-9.3c0,0,6.7,3.3,11.5,3.3c2.6,0,4.3-0.9,4.3-2.4c0-4.3-16.3-5.2-16.3-15.3
			c0-7.5,6.3-11.5,13.2-11.5c8.3,0,12.9,2.6,13.1,2.6L50.4,81.7z"/>
		<path id="Path_3430" class="st0" d="M82.2,93.4h-13v6h16.2v8.4H59V70.8h25.8v8.4H69.2v5.7h13L82.2,93.4z"/>
		<path id="Path_3431" class="st0" d="M67,115.4c12.6,0,19.1,8.5,19.1,19.1c0,10.6-6.6,19.2-19.1,19.2c-13,0-19-8.5-19-19.2
			C47.9,123.9,54.7,115.4,67,115.4z M67,144c5.1,0,8.1-4.1,8.1-9.6c0-5.4-3.3-9.5-8.1-9.5s-8.1,4.1-8.1,9.5
			C58.9,139.9,62,144,67,144z"/>
	</g>
	<g id="Group_1658_00000073694370572494969480000011029954150641552056_" transform="translate(1035.632 453.199)">
		<g id="Group_1651_00000138532407340680775900000005578226011495050400_" transform="translate(0)">
			<g id="Group_1650_00000144322387882241926220000011223769879873823902_">
				<g id="Group_1649_00000023246507847140897560000001832575579680798138_">
					<g id="Group_1648_00000178200879150678843640000006239339220421672619_">
						<g id="Group_1647_00000129175098970659149680000018222504479229504175_">
							<path id="Path_4432_00000137107587620608891820000004909564327687423135_" class="st0" d="M79.5,111.8L79.5,111.8
								c-0.5,0-0.9,0.4-0.9,0.9l-3.2,27.1c-0.1,1,0.6,1.9,1.6,2c0.1,0,0.2,0,0.3,0h0c0.9,0,1.7-0.8,1.7-1.7l1.5-27.3
								C80.5,112.3,80.1,111.8,79.5,111.8C79.5,111.8,79.5,111.8,79.5,111.8z"/>
							<path id="Path_4433_00000098922332989202021360000007007139234467143306_" class="st0" d="M80.1,98.9l-1.1,9.4
								c-0.1,0.5,0.3,0.9,0.7,0.9c0,0,0.1,0,0.1,0h0c0.4,0,0.8-0.4,0.8-0.8l0.5-9.4c0-0.3-0.2-0.6-0.5-0.6c0,0,0,0-0.1,0l0,0
								C80.4,98.5,80.2,98.7,80.1,98.9z"/>
							<path id="Path_4434_00000145778506412924501180000001809245160671646648_" class="st0" d="M80.8,93.3l-0.2,2.1
								c0,0.2,0.1,0.4,0.4,0.5c0,0,0.1,0,0.1,0h0c0.2,0,0.4-0.2,0.4-0.4l0.1-2.1c0-0.2-0.1-0.4-0.3-0.4c0,0,0,0,0,0h0
								C81,93,80.8,93.1,80.8,93.3z"/>
							<path id="Path_4435_00000174594924809290512360000002880516980043433866_" class="st0" d="M79.8,93.2L79,95.3
								c-0.1,0.2,0,0.5,0.3,0.6c0,0,0.1,0,0.1,0h0c0.2,0,0.4-0.1,0.5-0.3l0.6-2.1c0.1-0.2-0.1-0.4-0.2-0.4c0,0,0,0-0.1,0h0
								C80,92.9,79.8,93,79.8,93.2z"/>
							<path id="Path_4436_00000129900354933620399860000013578766633051630008_" class="st0" d="M77.8,98.7l-3.3,9.2
								c-0.2,0.4,0.1,0.9,0.5,1.1c0.1,0,0.1,0,0.2,0h0c0.4,0.1,0.8-0.2,0.9-0.6l2.8-9.4c0.1-0.3-0.1-0.6-0.4-0.7c0,0,0,0-0.1,0h0
								C78.1,98.3,77.9,98.4,77.8,98.7z"/>
							<path id="Path_4437_00000024698270865348628010000000460853658410327467_" class="st0" d="M75.4,97.9l-5.6,8.5
								c-0.3,0.4-0.2,1,0.3,1.2c0.1,0,0.1,0.1,0.2,0.1h0c0.4,0.2,0.9,0,1.1-0.4l5-8.8c0.1-0.3,0.1-0.6-0.2-0.7c0,0-0.1,0-0.1,0l0,0
								C75.8,97.6,75.5,97.7,75.4,97.9z"/>
							<path id="Path_4438_00000081649850667698682270000009073746596574391704_" class="st0" d="M78.7,92.9l-1.3,2
								c-0.1,0.2-0.1,0.5,0.1,0.6c0,0,0.1,0,0.1,0.1h0c0.2,0.1,0.4,0,0.5-0.2l1.2-2.1c0.1-0.2,0-0.4-0.1-0.5c0,0,0,0-0.1,0l0,0
								C79,92.7,78.8,92.7,78.7,92.9z"/>
							<path id="Path_4439_00000135688469303169179980000004847867764147090102_" class="st0" d="M77.7,92.3l-1.8,1.7
								c-0.2,0.2-0.2,0.5,0,0.7c0,0,0.1,0.1,0.1,0.1h0c0.2,0.1,0.4,0.1,0.6-0.1l1.7-1.9c0.1-0.1,0.1-0.4,0-0.5c0,0,0,0-0.1-0.1
								l-0.1,0C77.9,92.2,77.8,92.2,77.7,92.3z"/>
							<path id="Path_4440_00000177462368245854222210000016927091048549691022_" class="st0" d="M73.1,96.6l-7.7,7.3
								c-0.4,0.3-0.4,0.9,0,1.3c0.1,0.1,0.1,0.1,0.2,0.1l0,0c0.4,0.2,0.9,0.2,1.2-0.1l7.3-7.8c0.2-0.2,0.2-0.6,0-0.8
								c0,0,0,0-0.1-0.1l-0.1,0C73.6,96.4,73.3,96.4,73.1,96.6z"/>
							<path id="Path_4441_00000012474732295682045450000003067290261580035462_" class="st0" d="M71,94.8l-9.6,5.5
								c-0.5,0.3-0.6,0.9-0.4,1.3c0,0.1,0.1,0.1,0.1,0.2l0,0c0.3,0.3,0.8,0.4,1.2,0.1l9.2-6.1c0.3-0.2,0.4-0.6,0.2-0.8
								c0,0,0-0.1-0.1-0.1l0,0C71.5,94.7,71.2,94.6,71,94.8z"/>
							<path id="Path_4442_00000145016651970039022250000010230721268405703555_" class="st0" d="M76.6,91.5l-2.3,1.3
								c-0.2,0.1-0.3,0.4-0.2,0.7c0,0,0.1,0.1,0.1,0.1l0,0c0.2,0.1,0.4,0.2,0.6,0l2.2-1.5c0.2-0.1,0.2-0.4,0.1-0.6
								c0,0,0-0.1-0.1-0.1l0,0C76.9,91.4,76.7,91.4,76.6,91.5z"/>
							<path id="Path_4443_00000153670108594236366400000003044149886728844213_" class="st0" d="M75.7,90.3l-2.8,0.8
								c-0.3,0.1-0.4,0.4-0.3,0.6c0,0.1,0,0.1,0.1,0.2v0c0.1,0.2,0.4,0.3,0.6,0.2l2.7-1c0.2-0.1,0.3-0.3,0.2-0.5c0,0,0-0.1,0-0.1v0
								C76.1,90.4,75.9,90.3,75.7,90.3z"/>
							<path id="Path_4444_00000159462028877142297550000010653942314010438560_" class="st0" d="M69.3,92.3l-11.1,3.3
								c-0.5,0.2-0.8,0.7-0.7,1.2c0,0.1,0.1,0.1,0.1,0.2l0,0c0.2,0.4,0.8,0.6,1.2,0.4l10.9-4c0.3-0.1,0.5-0.5,0.4-0.8
								c0,0,0-0.1,0-0.1l0-0.1C69.8,92.3,69.5,92.2,69.3,92.3z"/>
							<path id="Path_4445_00000037654951884389498400000004263644819450521749_" class="st0" d="M68.1,89.3L56.1,90
								c-0.6,0-1,0.5-1,1.1c0,0.1,0,0.1,0,0.2v0c0.1,0.5,0.6,0.8,1.1,0.8l12-1.5c0.3,0,0.6-0.3,0.5-0.7c0,0,0-0.1,0-0.1l0-0.1
								C68.7,89.5,68.4,89.3,68.1,89.3z"/>
							<path id="Path_4446_00000170260114397674760340000016869970256206292661_" class="st0" d="M75.1,88.9L72,89.1
								c-0.3,0-0.5,0.3-0.5,0.6c0,0.1,0,0.1,0,0.2v0c0.1,0.2,0.3,0.4,0.6,0.3l3.1-0.4c0.2,0,0.4-0.2,0.4-0.5c0,0,0-0.1,0-0.1v0
								C75.4,89,75.3,88.9,75.1,88.9z"/>
							<path id="Path_4447_00000158733924737270990290000018155943651320334724_" class="st0" d="M68.4,86.6L68.4,86.6
								c0-0.3-0.2-0.6-0.5-0.6l-12.5-2.2c-0.5-0.1-1,0.3-1.1,0.8c0,0.1,0,0.1,0,0.2v0c0,0.1,0,0.1,0,0.2c0,0.5,0.4,0.9,0.9,1
								l12.6,1.4c0.3,0,0.6-0.2,0.7-0.5c0,0,0,0,0-0.1C68.4,86.7,68.4,86.6,68.4,86.6z"/>
							<path id="Path_4448_00000170988688085503186840000002335932165666534286_" class="st0" d="M74.8,87.2l-3.2-0.6
								c-0.3-0.1-0.6,0.2-0.7,0.5c0,0,0,0.1,0,0.1l0,0c0,0.3,0.2,0.5,0.5,0.5l3.2,0.4c0.2,0,0.5-0.1,0.5-0.4c0,0,0-0.1,0-0.1v0
								C75.2,87.4,75,87.3,74.8,87.2z"/>
							<path id="Path_4449_00000098925335453080144040000005778548235279870636_" class="st0" d="M68.4,82.6l-12-5.2
								c-0.6-0.2-1.2,0-1.5,0.6c0,0.1-0.1,0.1-0.1,0.2v0c-0.1,0.5,0.2,1.1,0.7,1.3l12.3,4.4c0.3,0.1,0.7-0.1,0.8-0.4c0,0,0,0,0-0.1
								c0-0.1,0-0.1,0-0.2C68.8,83,68.7,82.7,68.4,82.6z"/>
							<path id="Path_4450_00000060723148593943447430000006038362782813246139_" class="st0" d="M75.1,85.5l-3.2-1.4
								c-0.3-0.1-0.6,0-0.8,0.3c0,0,0,0.1,0,0.1v0c0,0.3,0.1,0.5,0.4,0.6l3.3,1.2c0.2,0.1,0.5,0,0.6-0.3c0,0,0,0,0-0.1
								c0,0,0,0,0-0.1C75.4,85.7,75.3,85.5,75.1,85.5z"/>
							<path id="Path_4451_00000136375264789847367560000005698007134746636179_" class="st0" d="M79.3,87.6c0-0.2-0.1-0.4-0.3-0.5
								l-0.7-0.3c-0.2-0.1-0.4,0-0.5,0.2c0,0,0,0.1,0,0.1v0c0,0.2,0.1,0.3,0.2,0.4l0.7,0.3C79,87.9,79.2,87.8,79.3,87.6z"/>
							<path id="Path_4452_00000045596495845940170300000005666873808207221909_" class="st0" d="M75.8,83.7l-2.9-2.2
								c-0.3-0.2-0.6-0.1-0.8,0.1c0,0,0,0.1-0.1,0.1v0c-0.1,0.3,0,0.6,0.2,0.7l3.1,2c0.2,0.1,0.5,0.1,0.7-0.1c0,0,0,0,0,0v0
								C76,84.1,76,83.8,75.8,83.7z"/>
							<path id="Path_4453_00000138552037798344336340000002651075131475295419_" class="st0" d="M79.7,87c0.1-0.2,0-0.4-0.2-0.5
								l-1-0.7c-0.2-0.1-0.4-0.1-0.5,0.1c0,0,0,0.1-0.1,0.1v0c-0.1,0.2,0,0.3,0.1,0.4l1,0.7C79.3,87.2,79.6,87.2,79.7,87z"/>
							<path id="Path_4454_00000007402837852266629810000015208318890094801578_" class="st0" d="M69.8,79.2l-10.9-8.1
								c-0.5-0.4-1.2-0.3-1.6,0.2c0,0.1-0.1,0.1-0.1,0.2l0,0c-0.2,0.5-0.1,1.1,0.4,1.5L69,80.4c0.3,0.2,0.7,0.1,0.8-0.2
								c0,0,0,0,0-0.1c0-0.1,0.1-0.1,0.1-0.2C70.1,79.7,70,79.4,69.8,79.2z"/>
							<path id="Path_4455_00000008838558929746242760000006184067768158201482_" class="st0" d="M72,76.2l-9.1-10.9
								c-0.4-0.5-1.2-0.6-1.7-0.1c-0.1,0-0.1,0.1-0.2,0.2l0,0c-0.4,0.5-0.4,1.1,0.1,1.6l9.8,10.3c0.2,0.2,0.6,0.3,0.9,0c0,0,0,0,0,0
								L72,77C72.2,76.8,72.2,76.4,72,76.2z"/>
							<path id="Path_4456_00000110432833604211260760000009616791953460469678_" class="st0" d="M80.3,86.6c0.1-0.2,0.1-0.4,0-0.5
								l-1-1.2c-0.1-0.2-0.4-0.2-0.5-0.1c0,0,0,0-0.1,0.1l0,0c-0.1,0.1-0.1,0.4,0,0.5l1.1,1.1C79.9,86.6,80.1,86.7,80.3,86.6z"/>
							<path id="Path_4457_00000159446704647485403780000015193866247542432140_" class="st0" d="M77,82.2l-2.5-3
								c-0.2-0.3-0.6-0.3-0.9-0.1c0,0-0.1,0.1-0.1,0.1l0,0c-0.2,0.2-0.2,0.6,0,0.8l2.7,2.8c0.2,0.2,0.5,0.2,0.7,0c0,0,0,0,0,0l0,0
								C77.2,82.6,77.2,82.4,77,82.2z"/>
							<path id="Path_4458_00000013167544914955621100000008112869644104207024_" class="st0" d="M80.9,86.2
								c0.2-0.1,0.2-0.4,0.1-0.5l-0.8-1.6c-0.1-0.2-0.3-0.3-0.5-0.2c0,0,0,0,0,0l0,0c-0.2,0.1-0.2,0.3-0.1,0.5l0.9,1.6
								C80.5,86.2,80.7,86.3,80.9,86.2z"/>
							<path id="Path_4459_00000004506109389777918660000009178424477222756542_" class="st0" d="M78.6,81l-1.9-3.7
								c-0.2-0.3-0.5-0.4-0.9-0.3c0,0-0.1,0-0.1,0.1l0,0c-0.3,0.2-0.3,0.5-0.2,0.8l2.1,3.6c0.1,0.2,0.4,0.3,0.7,0.2c0,0,0,0,0,0h0
								C78.7,81.5,78.8,81.2,78.6,81z"/>
							<path id="Path_4460_00000072282243981339104990000016752778699292098738_" class="st0" d="M75,73.6l-6.6-13.2
								c-0.3-0.6-1-0.9-1.7-0.5c-0.1,0-0.1,0.1-0.2,0.1l0,0c-0.5,0.4-0.6,1.1-0.3,1.6l7.4,12.7c0.2,0.4,0.7,0.5,1,0.3c0,0,0,0,0,0
								l0,0C75,74.4,75.1,74,75,73.6z"/>
							<path id="Path_4461_00000098216423575126670460000004862507240372469637_" class="st0" d="M81.6,86.1L81.6,86.1
								c0.2-0.1,0.3-0.3,0.2-0.5l-0.5-1.9c-0.1-0.2-0.3-0.3-0.5-0.3h0c-0.2,0.1-0.3,0.3-0.3,0.5c0,0,0,0,0,0l0.6,1.9
								C81.2,86,81.4,86.1,81.6,86.1z"/>
							<path id="Path_4462_00000047046367736361495210000010039913722686595775_" class="st0" d="M78.6,72l-3.6-15
								c-0.2-0.7-0.8-1.1-1.5-0.9c-0.1,0-0.1,0-0.2,0.1l-0.1,0c-0.6,0.2-0.9,0.9-0.7,1.5l4.5,14.8c0.1,0.4,0.6,0.6,1,0.5
								c0,0,0,0,0,0h0C78.5,72.8,78.7,72.4,78.6,72z"/>
							<path id="Path_4463_00000078767635872168720130000015080700357708792510_" class="st0" d="M80.6,80.3l-1-4.4
								c-0.1-0.3-0.4-0.6-0.8-0.5c0,0-0.1,0-0.1,0h0c-0.3,0.1-0.5,0.5-0.4,0.8l1.3,4.3c0.1,0.3,0.3,0.4,0.6,0.3h0
								C80.5,80.8,80.7,80.5,80.6,80.3z"/>
							<path id="Path_4464_00000091700842867832945640000002449439110020480645_" class="st0" d="M82.4,86.1c0.2,0,0.3-0.2,0.3-0.4
								v-2c0-0.2-0.2-0.4-0.4-0.4h0c-0.2,0-0.4,0.2-0.4,0.4c0,0,0,0,0,0.1l0.1,2C82,85.9,82.2,86.1,82.4,86.1z"/>
							<path id="Path_4465_00000102506781414882543120000001673743586783789986_" class="st0" d="M82.7,80.2v-4.8
								c0-0.4-0.3-0.7-0.7-0.7c0,0,0,0,0,0l0,0c-0.4,0-0.6,0.3-0.6,0.7l0.3,4.8c0,0.3,0.2,0.5,0.5,0.5h0
								C82.5,80.7,82.7,80.5,82.7,80.2C82.7,80.2,82.7,80.2,82.7,80.2z"/>
							<path id="Path_4466_00000065058448412932857500000016583881390137291916_" class="st0" d="M82.7,71.4V55.3
								c0-0.7-0.5-1.2-1.2-1.2c0,0-0.1,0-0.1,0l-0.2,0c-0.6,0.1-1.1,0.6-1.1,1.3l1,16.1c0,0.4,0.4,0.7,0.8,0.7c0,0,0,0,0,0h0
								C82.4,72.1,82.7,71.8,82.7,71.4z"/>
							<path id="Path_4467_00000013174743359772271570000003142532012580404115_" class="st0" d="M84.8,80.6l1.2-4.9
								c0.1-0.4-0.1-0.7-0.5-0.8c0,0,0,0,0,0h0c-0.4-0.1-0.7,0.2-0.8,0.5l-0.8,5c0,0.3,0.1,0.5,0.4,0.6h0
								C84.4,81.1,84.7,80.9,84.8,80.6C84.7,80.6,84.7,80.6,84.8,80.6z"/>
							<path id="Path_4468_00000034056549684283550300000004901727010372417931_" class="st0" d="M83.1,86.3c0.2,0,0.4-0.1,0.4-0.4
								l0.4-1.9c0-0.2-0.1-0.4-0.3-0.5h0c-0.2-0.1-0.4,0-0.5,0.3c0,0,0,0,0,0.1l-0.3,1.9C82.8,86,82.9,86.2,83.1,86.3z"/>
							<path id="Path_4469_00000012443967132331885150000007868422415174501786_" class="st0" d="M86.8,71.8l3.9-16.2
								c0.2-0.7-0.3-1.3-0.9-1.5c0,0-0.1,0-0.1,0l-0.2,0c-0.6-0.1-1.2,0.4-1.3,1l-2.8,16.4c-0.1,0.4,0.2,0.8,0.6,0.9h0
								C86.3,72.5,86.7,72.2,86.8,71.8z"/>
							<path id="Path_4470_00000097472422250163535350000016062386422404394674_" class="st0" d="M86.6,81.5l2.4-4.8
								c0.2-0.3,0-0.7-0.3-0.9c0,0,0,0,0,0h0c-0.3-0.1-0.7,0-0.9,0.4l-2.1,4.9c-0.1,0.2,0,0.5,0.2,0.6h0
								C86.2,81.9,86.5,81.8,86.6,81.5C86.6,81.6,86.6,81.5,86.6,81.5z"/>
							<path id="Path_4471_00000022555323594114755280000011668086320276613053_" class="st0" d="M83.7,86.6
								c0.2,0.1,0.4-0.1,0.5-0.3l0.8-1.7c0.1-0.2,0-0.4-0.1-0.5h0c-0.2-0.1-0.4-0.1-0.5,0.1c0,0,0,0,0,0.1l-0.7,1.7
								C83.5,86.2,83.6,86.5,83.7,86.6z"/>
							<path id="Path_4472_00000054243064011939715770000000430215204158334362_" class="st0" d="M90.8,73.2l7.8-15.5
								c0.3-0.6,0.1-1.3-0.5-1.6c0,0-0.1,0-0.1-0.1l-0.3-0.1c-0.6-0.2-1.3,0.1-1.5,0.7l-6.8,16c-0.2,0.4,0,0.8,0.4,1c0,0,0,0,0,0
								l0,0C90.2,73.7,90.6,73.5,90.8,73.2z"/>
							<path id="Path_4473_00000132066421536061904810000004708283772105501608_" class="st0" d="M84.3,87.1c0.2,0.1,0.4,0,0.5-0.1
								l1.1-1.4c0.1-0.1,0.1-0.4,0-0.5l0,0c-0.1-0.2-0.4-0.2-0.6,0c0,0,0,0-0.1,0.1l-1.1,1.4C84.1,86.7,84.1,86.9,84.3,87.1z"/>
							<path id="Path_4474_00000104704490720066974430000001503443899095316127_" class="st0" d="M94.5,75.4l11.7-13.9
								c0.4-0.5,0.4-1.3-0.2-1.7c0,0-0.1-0.1-0.1-0.1l-0.3-0.2c-0.5-0.3-1.2-0.2-1.6,0.3L93.2,74.4c-0.3,0.4-0.2,0.9,0.2,1.1l0,0
								C93.7,75.8,94.2,75.8,94.5,75.4z"/>
							<path id="Path_4475_00000038392238123805122320000015383762858382731954_" class="st0" d="M88.2,82.9l3.6-4.3
								c0.2-0.3,0.2-0.7-0.1-1c0,0,0,0,0,0l0,0c-0.3-0.2-0.7-0.2-0.9,0.1c0,0,0,0,0,0l-3.4,4.5c-0.2,0.2-0.1,0.5,0.1,0.7l0,0
								C87.7,83.1,88,83.1,88.2,82.9C88.2,82.9,88.2,82.9,88.2,82.9z"/>
							<path id="Path_4476_00000100380812878768458420000001689729973354004113_" class="st0" d="M97.5,78.5l15.1-11.2
								c0.6-0.5,0.7-1.3,0.3-2c0-0.1-0.1-0.1-0.1-0.2l0,0c-0.5-0.5-1.3-0.5-1.9-0.1L96.5,77.2c-0.3,0.3-0.4,0.8-0.1,1.1l0,0
								C96.7,78.7,97.2,78.8,97.5,78.5z"/>
							<path id="Path_4477_00000150785051801869111100000003212703131405551523_" class="st0" d="M89.4,84.6l4.8-3.6
								c0.3-0.2,0.4-0.7,0.1-1c0,0,0,0,0,0l0,0c-0.2-0.3-0.7-0.3-1-0.1l-4.6,3.9c-0.2,0.2-0.2,0.4-0.1,0.7v0
								C88.8,84.7,89.2,84.7,89.4,84.6C89.4,84.6,89.4,84.6,89.4,84.6z"/>
							<path id="Path_4478_00000119800197132675194270000017078037296585143439_" class="st0" d="M84.7,87.6c0.2,0.1,0.4,0.1,0.5,0
								l1.3-1c0.2-0.1,0.2-0.3,0.1-0.5v0c-0.1-0.2-0.3-0.3-0.5-0.2c0,0,0,0-0.1,0l-1.3,1.1C84.7,87.2,84.6,87.5,84.7,87.6z"/>
							<path id="Path_4479_00000155862155010499947200000003080002286577040013_" class="st0" d="M90.2,86.4l5.9-2.5
								c0.4-0.2,0.5-0.6,0.4-0.9c0,0,0,0,0,0l0,0c-0.2-0.3-0.6-0.5-0.9-0.3l-5.7,2.9c-0.2,0.1-0.3,0.4-0.2,0.6v0
								C89.6,86.4,89.9,86.5,90.2,86.4C90.2,86.4,90.2,86.4,90.2,86.4z"/>
							<path id="Path_4480_00000096753794061102451240000010113744996331330203_" class="st0" d="M99.8,82.3l18.6-8
								c0.4-0.2,0.6-0.7,0.4-1.1c0,0,0-0.1,0-0.1c-0.2-0.4-0.5-0.8-0.7-1.1c-0.2-0.4-0.7-0.5-1.1-0.3l-18,9.1
								c-0.4,0.2-0.6,0.7-0.4,1.1l0,0C98.9,82.3,99.4,82.5,99.8,82.3z"/>
							<path id="Path_4481_00000049205673647719630740000001120877020857885337_" class="st0" d="M90.5,88.4l6.6-1.2
								c0.4-0.1,0.6-0.4,0.6-0.8c0,0,0,0,0,0l0,0c-0.1-0.4-0.5-0.6-0.8-0.5h0l-6.5,1.6c-0.2,0.1-0.4,0.3-0.4,0.5v0
								C89.9,88.3,90.2,88.4,90.5,88.4C90.5,88.4,90.5,88.4,90.5,88.4z"/>
							<path id="Path_4482_00000072958791032405077360000009534400297753254823_" class="st0" d="M101.1,86.5l20.1-3.5
								c0.8-0.1,1.3-0.9,1.2-1.7c0-0.1,0-0.1,0-0.2l0,0c-0.2-0.7-1-1.2-1.7-1l-19.9,4.8c-0.4,0.1-0.7,0.5-0.6,1l0,0
								C100.3,86.3,100.7,86.6,101.1,86.5z"/>
							<path id="Path_4483_00000155141473122752417740000007254808885912069279_" class="st0" d="M101.4,91l21.1,1.2
								c0.8,0,1.5-0.6,1.6-1.4c0-0.1,0-0.1,0-0.2l0,0c0-0.8-0.7-1.4-1.5-1.4l-21.1,0.1c-0.5,0-0.8,0.4-0.8,0.8v0
								C100.6,90.6,101,91,101.4,91z"/>
							<path id="Path_4484_00000114758317670486093000000005520489181938141869_" class="st0" d="M90.3,90.4l7,0.4
								c0.4,0,0.7-0.3,0.7-0.7c0,0,0,0,0,0v0c0-0.4-0.3-0.7-0.7-0.7c0,0,0,0,0,0l-7,0c-0.2,0-0.5,0.2-0.5,0.4v0
								C89.8,90.1,90,90.4,90.3,90.4C90.3,90.4,90.3,90.4,90.3,90.4z"/>
							<path id="Path_4485_00000059311866967525737560000012350987752773320095_" class="st0" d="M100.7,95.5l20.9,6.3
								c0.8,0.2,1.7-0.2,1.9-1c0-0.1,0-0.1,0-0.2v0c0.1-0.8-0.4-1.5-1.2-1.7l-21.2-4.9c-0.5-0.1-0.9,0.2-1,0.6c0,0,0,0,0,0v0
								C100.1,95,100.3,95.4,100.7,95.5z"/>
							<path id="Path_4486_00000131360302826710705100000015153779720454022016_" class="st0" d="M89.8,92.3l6.9,2.1
								c0.4,0.1,0.8-0.1,0.9-0.5c0,0,0,0,0-0.1v0c0.1-0.4-0.2-0.7-0.5-0.8l-7.1-1.6c-0.2-0.1-0.5,0.1-0.6,0.3v0
								C89.4,91.9,89.6,92.2,89.8,92.3C89.8,92.3,89.8,92.3,89.8,92.3z"/>
							<path id="Path_4487_00000065036257892771062510000001209936727779328911_" class="st0" d="M85.1,90.4
								C85,90.4,85,90.4,85.1,90.4c-0.1,0.2-0.1,0.4,0.1,0.5c0,0,0,0,0,0l0,0l1.3,0.4c0.2,0.1,0.4,0,0.5-0.2v0
								c0.1-0.2,0-0.4-0.2-0.5c0,0,0,0,0,0l-1.3-0.3l0,0C85.2,90.2,85.1,90.3,85.1,90.4z"/>
							<path id="Path_4488_00000018217962026630619990000005766147778862013327_" class="st0" d="M88.9,94l6.5,3.8
								c0.3,0.2,0.8,0.1,1-0.3c0,0,0-0.1,0-0.1v0c0.1-0.4,0-0.8-0.3-0.9l-6.8-3.4c-0.2-0.1-0.5,0-0.6,0.2v0
								C88.6,93.6,88.7,93.9,88.9,94z"/>
							<path id="Path_4489_00000122717091104037417340000001609152896785795997_" class="st0" d="M84.6,91.1L84.6,91.1
								c-0.1,0.1-0.1,0.4,0.1,0.5c0,0,0,0,0,0l0,0l1.2,0.7c0.2,0.1,0.4,0,0.5-0.1c0,0,0,0,0,0l0,0c0.1-0.2,0-0.4-0.2-0.5
								c0,0,0,0,0,0L85,91h0C84.9,90.9,84.7,91,84.6,91.1z"/>
							<path id="Path_4490_00000076570815759571474080000011900209844029777547_" class="st0" d="M99.1,99.9l19.5,11.3
								c0.8,0.4,1.7,0.2,2.2-0.6c0-0.1,0.1-0.1,0.1-0.2l0,0c0.3-0.8,0-1.6-0.8-2l-20.2-10c-0.4-0.2-0.9,0-1.1,0.4c0,0,0,0,0,0v0
								C98.6,99.2,98.7,99.7,99.1,99.9z"/>
							<path id="Path_4491_00000103257297696900979290000000306107979453012926_" class="st0" d="M87.7,95.6l5.8,5.4
								c0.3,0.3,0.8,0.3,1,0c0,0,0-0.1,0.1-0.1l0,0c0.2-0.3,0.2-0.7-0.1-1l-6.1-5.1c-0.2-0.2-0.5-0.1-0.7,0.1l0,0
								C87.5,95.1,87.6,95.4,87.7,95.6z"/>
							<path id="Path_4492_00000096017933804127981350000016035011140425278399_" class="st0" d="M96.6,103.9l17.1,16.1
								c0.6,0.6,1.7,0.6,2.3-0.1c0.1-0.1,0.1-0.1,0.2-0.2l0,0c0.4-0.7,0.3-1.6-0.3-2.1l-18.1-15c-0.4-0.3-0.9-0.3-1.2,0.1
								c0,0,0,0,0,0l0,0C96.2,103.1,96.2,103.6,96.6,103.9z"/>
							<path id="Path_4493_00000125585576040775364090000011193708975558300598_" class="st0" d="M84.1,91.7L84.1,91.7
								c-0.2,0.1-0.2,0.4,0,0.5c0,0,0,0,0,0l0,0l1.1,1.1c0.2,0.1,0.4,0.1,0.5,0c0,0,0,0,0,0v0c0.1-0.2,0.1-0.4-0.1-0.5l-1.2-1l0,0
								C84.4,91.5,84.2,91.5,84.1,91.7z"/>
							<path id="Path_4494_00000144328737926606567580000017010016187450589594_" class="st0" d="M86.2,96.9l4.6,6.9
								c0.2,0.4,0.7,0.4,1.1,0.2c0,0,0.1-0.1,0.1-0.1l0,0c0.3-0.3,0.3-0.7,0.1-1l-5-6.6c-0.2-0.2-0.5-0.3-0.7-0.1c0,0,0,0,0,0l0,0
								C86.1,96.4,86.1,96.7,86.2,96.9z"/>
							<path id="Path_4495_00000031890587505261812410000008483066387743313084_" class="st0" d="M93.1,107.4l13.4,20.4
								c0.5,0.8,1.5,1,2.3,0.5c0.1-0.1,0.2-0.1,0.2-0.2l0,0c0.6-0.6,0.7-1.5,0.2-2.2l-14.7-19.5c-0.3-0.4-0.9-0.5-1.2-0.2
								c0,0,0,0-0.1,0l0,0C93,106.6,92.9,107.1,93.1,107.4z"/>
							<path id="Path_4496_00000064316915788381654370000003217988301880335248_" class="st0" d="M83.5,92.2L83.5,92.2
								c-0.2,0.1-0.2,0.3-0.1,0.5l0.9,1.4c0.1,0.2,0.4,0.2,0.5,0.1c0,0,0,0,0,0l0,0c0.2-0.1,0.2-0.4,0.1-0.5l-1-1.3
								C83.9,92.1,83.6,92,83.5,92.2z"/>
							<path id="Path_4497_00000125578349892669826440000008942000752125533869_" class="st0" d="M84.4,98l3,8.2
								c0.1,0.4,0.6,0.6,1,0.5c0,0,0.1,0,0.1-0.1l0,0c0.3-0.2,0.5-0.6,0.3-1l-3.5-8c-0.1-0.2-0.4-0.4-0.6-0.3c0,0,0,0,0,0l-0.1,0
								C84.5,97.5,84.3,97.7,84.4,98z"/>
							<path id="Path_4498_00000074421525346058023450000003864447747048604851_" class="st0" d="M88.9,110.2l8.7,24
								c0.3,0.9,1.3,1.3,2.2,1c0.1,0,0.2-0.1,0.3-0.1l0,0c0.7-0.4,1-1.4,0.7-2.2l-10.2-23.4c-0.2-0.5-0.7-0.7-1.2-0.5
								c0,0-0.1,0-0.1,0l0,0C88.9,109.3,88.7,109.8,88.9,110.2z"/>
							<path id="Path_4499_00000145056042656759376090000012441241435507106465_" class="st0" d="M82.8,92.6L82.8,92.6
								c-0.2,0.1-0.2,0.2-0.2,0.4c0.1,0.4,0.4,1.3,0.6,1.8c0.1,0.2,0.3,0.3,0.5,0.3c0,0,0,0,0.1,0l0,0c0.2-0.1,0.3-0.3,0.2-0.5
								c-0.2-0.5-0.5-1.3-0.7-1.7C83.2,92.6,83,92.5,82.8,92.6C82.8,92.6,82.8,92.6,82.8,92.6z"/>
							<path id="Path_4500_00000160873804083492772610000008002452000988083645_" class="st0" d="M81.7,93.2l0.2,1.9
								c0,0.2,0.2,0.4,0.5,0.4c0,0,0.1,0,0.1,0l0,0c0.2-0.1,0.3-0.3,0.3-0.5l-0.3-1.9c0-0.2-0.2-0.3-0.4-0.3c0,0,0,0,0,0l0,0
								C81.8,92.9,81.7,93,81.7,93.2z"/>
							<path id="Path_4501_00000149340285589024632610000011547972823672095132_" class="st0" d="M83.9,112l3.1,26.3
								c0.1,1,1,1.7,2,1.6c0.1,0,0.2,0,0.3-0.1l0,0c0.9-0.3,1.4-1.1,1.2-2l-4.7-26c-0.1-0.5-0.6-0.9-1.1-0.8c0,0-0.1,0-0.1,0h0
								C84.2,111.1,83.9,111.6,83.9,112z"/>
							<path id="Path_4502_00000126320161453488408380000010793060612378146479_" class="st0" d="M82.8,98.1L82.8,98.1
								c-0.3,0.1-0.5,0.3-0.4,0.5l1.1,9c0.1,0.4,0.5,0.8,0.9,0.7c0,0,0.1,0,0.1,0h0c0.4-0.1,0.6-0.5,0.5-0.9l-1.6-9
								C83.4,98.2,83.1,98.1,82.8,98.1C82.9,98.1,82.8,98.1,82.8,98.1z"/>
							<path id="Path_4503_00000062180859685170061580000008685487885673508998_" class="st0" d="M87.2,87.4
								c-0.1-0.2-0.3-0.3-0.5-0.3c0,0-0.1,0-0.1,0l-1.4,0.7c-0.2,0.1-0.3,0.2-0.3,0.4c0,0,0,0.1,0,0.1c0.1,0.2,0.4,0.2,0.5,0.1l0,0
								l1.4-0.6C87.2,87.7,87.2,87.6,87.2,87.4L87.2,87.4z"/>
							<path id="Path_4504_00000034068820006109805380000012332481132789234834_" class="st0" d="M87.4,88.6c0-0.2-0.2-0.4-0.4-0.4
								c0,0-0.1,0-0.1,0l-1.3,0.3l-0.1,0c-0.2,0-0.4,0.2-0.3,0.4c0,0.1,0.2,0.2,0.3,0.2c0.1,0,0.1,0,0.2,0L87,89
								C87.2,89,87.4,88.8,87.4,88.6L87.4,88.6z"/>
							<path id="Path_4505_00000081645595172054201390000011041400804362804611_" class="st0" d="M85.5,89.4
								C85.5,89.4,85.4,89.4,85.5,89.4c-0.3,0-0.4,0.2-0.4,0.3l0,0c0,0.1,0.1,0.2,0.1,0.3c0.1,0.1,0.2,0.1,0.3,0.1l1.4,0.1
								c0.2,0,0.4-0.1,0.4-0.3v0c0-0.2-0.1-0.4-0.3-0.4c0,0,0,0-0.1,0L85.5,89.4z"/>
							<path id="Path_4506_00000104674521404639438470000003195183542045146783_" class="st0" d="M84.9,90.5c0,0.1,0,0.1,0,0.2
								c0.1-0.1,0.2-0.3,0.2-0.4C85,90.3,84.9,90.3,84.9,90.5z"/>
							<path id="Path_4507_00000049926563007144626960000009921345427996683648_" class="st0" d="M78.7,146.4c0.1-1-0.7-1.9-1.7-1.9
								c-0.1,0-0.1,0-0.2,0l-0.4,0c-0.9,0-1.6,0.7-1.7,1.6l-0.4,3.5c-0.1,1.2,0.7,2.2,1.9,2.4c0.1,0,0.2,0,0.2,0l0,0
								c1.1,0,2.1-0.9,2.2-2L78.7,146.4z"/>
							<path id="Path_4508_00000181772537522905168110000016651576904272651915_" class="st0" d="M74,111.4L74,111.4
								c-0.5-0.1-1,0.2-1.1,0.6l-13.5,37c-0.4,1.1,0.2,2.4,1.3,2.8c0.2,0.1,0.5,0.1,0.7,0.1h0.2c1,0,1.8-0.6,2.1-1.5l11.1-37.7
								c0.2-0.5-0.1-1.1-0.7-1.2C74.1,111.4,74.1,111.4,74,111.4z"/>
							<path id="Path_4509_00000007418792728551632100000008635528574268599726_" class="st0" d="M68.6,109.9L68.6,109.9
								c-0.5-0.2-1,0-1.3,0.4l-24.9,37.9c-0.8,1.1-0.4,2.7,0.7,3.4c0.4,0.3,0.9,0.4,1.4,0.4l0,0c0.9,0,1.7-0.5,2.2-1.2l22.5-39.4
								c0.3-0.5,0.1-1.1-0.4-1.4C68.7,109.9,68.6,109.9,68.6,109.9z"/>
							<path id="Path_4510_00000017499809629554835550000006062448601400378509_" class="st0" d="M113,130.9c-0.6-0.8-1.8-1-2.6-0.4
								c-0.1,0-0.1,0.1-0.2,0.1l0,0c-0.7,0.6-0.8,1.6-0.3,2.4l11.7,17.8c0.5,0.7,1.3,1.1,2.1,1.1l0,0c1.4,0,2.5-1.1,2.5-2.5
								c0-0.6-0.2-1.1-0.5-1.5L113,130.9z"/>
							<path id="Path_4511_00000083811338248491589630000008404182586517490867_" class="st0" d="M103.2,138.4
								c-0.4-0.9-1.4-1.3-2.2-0.9c-0.1,0-0.1,0.1-0.2,0.1c-0.1,0.1-0.2,0.1-0.4,0.2c-0.7,0.4-1.1,1.3-0.8,2.1l3.9,10.7
								c0.3,0.8,1.1,1.4,2,1.4h0.3c1.2,0,2.2-1,2.1-2.2c0-0.3-0.1-0.6-0.2-0.9L103.2,138.4z"/>
							<path id="Path_4512_00000124878026819496322680000001779656180673279402_" class="st0" d="M91.6,143.8
								c-0.3-1.1-1.5-1.6-2.5-1.3c-0.8,0.3-1.4,1-1.4,1.9l0.7,5.6c0.1,1.1,1,1.9,2.1,1.9h0c1.2,0,2.2-1,2.1-2.2c0-0.1,0-0.3,0-0.4
								L91.6,143.8z"/>
							<path id="Path_4513_00000122678955234616643340000012413275604710924978_" class="st0" d="M114.9,61.6
								c-0.6,0.5-0.7,1.4-0.2,2c0,0,0,0,0,0l0.3,0.3c0.5,0.5,1.3,0.6,1.9,0.2l21.3-15.8c0.6-0.5,1-1.2,1-1.9l0,0
								c0-1.3-1.1-2.4-2.4-2.4c-0.6,0-1.1,0.2-1.6,0.6L114.9,61.6z"/>
							<path id="Path_4514_00000018206201304868598250000016661386302229032879_" class="st0" d="M121.6,69.3
								c-0.8,0.4-1.1,1.4-0.7,2.2c0,0,0,0.1,0.1,0.1l0,0c0.4,0.7,1.3,1,2,0.7l14.9-6.4c0.8-0.3,1.3-1.1,1.3-2l0,0
								c0-1.2-1-2.1-2.1-2.1c-0.3,0-0.7,0.1-1,0.2L121.6,69.3z"/>
							<path id="Path_4515_00000124158518342495505030000017753679116348744623_" class="st0" d="M126.2,78.8
								c-0.9,0.2-1.4,1.1-1.2,2c0,0,0,0.1,0,0.1v0c0.2,0.8,1,1.3,1.9,1.2l10.7-1.9c0.9-0.2,1.6-1,1.6-1.9v-0.1c0-1.1-0.9-2-2-2
								c-0.2,0-0.3,0-0.5,0.1L126.2,78.8z"/>
							<path id="Path_4516_00000158722475355935319720000008764059885867875739_" class="st0" d="M128.4,89.2
								c-0.9,0-1.7,0.8-1.7,1.7c0,0,0,0,0,0.1v0c0,0.9,0.7,1.6,1.6,1.6l8.8,0.5c1.1,0.1,2-0.8,2.1-1.9c0,0,0-0.1,0-0.1l0,0
								c0-1.1-0.9-2-2-2c0,0,0,0,0,0L128.4,89.2z"/>
							<path id="Path_4517_00000150789528294999068170000005582516439730640295_" class="st0" d="M128.1,100.1
								c-0.9-0.2-1.8,0.4-2.1,1.3c0,0,0,0.1,0,0.1v0c-0.1,0.8,0.4,1.7,1.2,1.9l9.4,2.8c1,0.3,2.1-0.3,2.5-1.3
								c0.1-0.2,0.1-0.4,0.1-0.6v-0.1c0-0.9-0.6-1.7-1.5-1.9L128.1,100.1z"/>
							<path id="Path_4518_00000041295815934125455970000005970408749455520650_" class="st0" d="M125.5,111
								c-0.9-0.4-1.9-0.1-2.3,0.8c0,0,0,0.1-0.1,0.1l0,0c-0.3,0.8,0,1.7,0.7,2.2l12.4,7.2c0.9,0.5,2.1,0.2,2.7-0.7
								c0.2-0.3,0.3-0.6,0.3-1v-0.6c0-0.7-0.4-1.4-1.1-1.8L125.5,111z"/>
							<path id="Path_4519_00000150089563522501789610000000140122649154768513_" class="st0" d="M120.5,121.5
								c-0.8-0.6-1.9-0.5-2.5,0.2c0,0-0.1,0.1-0.1,0.1l0,0c-0.5,0.7-0.4,1.7,0.3,2.3l16.8,15.9c1,1,2.6,0.9,3.6-0.1
								c0.4-0.5,0.7-1.1,0.7-1.7l0,0c0-0.8-0.3-1.5-0.9-2L120.5,121.5z"/>
							<path id="Path_4520_00000104678236959361740230000001049192043985324422_" class="st0" d="M65.6,57.5L65.6,57.5
								c0.6-0.4,0.8-1.2,0.4-1.8L51.5,27c-0.4-0.8-1.2-1.3-2.2-1.3l0,0c-1.3,0-2.4,1.1-2.4,2.4c0,0.4,0.1,0.8,0.3,1.2l16.3,27.8
								c0.4,0.7,1.2,0.9,1.9,0.5C65.5,57.6,65.5,57.6,65.6,57.5z"/>
							<path id="Path_4521_00000134939740318903005000000017950250845837959871_" class="st0" d="M73,53.5L73,53.5
								c0.7-0.3,1.1-1,0.9-1.7l-5.8-24.5c-0.2-1-1.1-1.7-2.1-1.7h-0.1c-1.2,0-2.2,1-2.2,2.2c0,0.2,0,0.4,0.1,0.6l7.4,24.1
								C71.3,53.3,72.1,53.8,73,53.5C72.9,53.5,72.9,53.5,73,53.5z"/>
							<path id="Path_4522_00000075153074774375170090000000021484954151626926_" class="st0" d="M81.4,51.4L81.4,51.4
								c0.8-0.1,1.3-0.7,1.3-1.4V27.8c0-1.2-1-2.2-2.2-2.2c0,0,0,0,0,0l0,0c-1.2,0-2.2,1-2.2,2.2c0,0,0,0.1,0,0.1l1.4,22.1
								C79.8,50.9,80.5,51.5,81.4,51.4C81.3,51.4,81.4,51.4,81.4,51.4z"/>
							<path id="Path_4523_00000115516583943999390770000013016470758403510149_" class="st0" d="M90.3,51.5L90.3,51.5
								c0.8,0.1,1.5-0.4,1.6-1.1l5.2-22.1c0.3-1.2-0.5-2.4-1.6-2.7c-0.2,0-0.3-0.1-0.5-0.1l0,0c-1.1,0-2,0.8-2.2,1.8L89,49.8
								C88.8,50.6,89.4,51.4,90.3,51.5C90.2,51.5,90.2,51.5,90.3,51.5z"/>
							<path id="Path_4524_00000170987057664457483060000012245134587220736169_" class="st0" d="M99.1,53.6L99.1,53.6
								c0.7,0.3,1.5-0.1,1.9-0.7l12-23.8c0.6-1.2,0.1-2.6-1.1-3.2c-0.3-0.2-0.7-0.3-1.1-0.3l0,0c-0.9,0-1.8,0.6-2.2,1.4L98.3,51.6
								C97.9,52.4,98.3,53.3,99.1,53.6C99.1,53.6,99.1,53.6,99.1,53.6z"/>
							<path id="Path_4525_00000095338955075708961040000001639169923620589229_" class="st0" d="M107.5,57.7L107.5,57.7
								c0.7,0.4,1.5,0.3,2-0.3l23-27.4c1-1.1,0.8-2.8-0.3-3.8c-0.5-0.4-1.1-0.6-1.7-0.6l0,0c-0.9,0-1.7,0.4-2.2,1.1l-21.2,28.8
								C106.6,56.2,106.8,57.2,107.5,57.7C107.5,57.7,107.5,57.7,107.5,57.7z"/>
							<g id="Group_1645_00000061437609801772898440000011355445134808574344_" transform="translate(35.503 46.243)">
								<path id="Path_4526_00000045579162447899282520000004668303197376351633_" class="st0" d="M43.5,42c0-0.2-0.2-0.4-0.4-0.4
									l-0.3-0.1c-0.2,0-0.4,0.1-0.4,0.3c0,0.1,0,0.1,0,0.2v0c0,0.1,0.2,0.2,0.3,0.2l0.3,0C43.2,42.4,43.4,42.2,43.5,42z"/>
								<path id="Path_4527_00000112597190058451146790000009804984067389517188_" class="st0" d="M43,42.4c-0.2,0-0.3,0.1-0.3,0.3
									c0,0,0,0.1,0,0.1l0,0c0,0.1,0.1,0.2,0.2,0.2c0.1,0,0.2,0,0.2,0c0.2,0,0.3-0.1,0.4-0.3c0-0.2-0.1-0.3-0.3-0.3
									C43.2,42.4,43.1,42.4,43,42.4z"/>
								<circle id="Ellipse_254_00000023981222945539856160000004142026802753830068_" class="st0" cx="43.3" cy="43.4" r="0.3"/>
							</g>
							<g id="Group_1646_00000018943305706864516420000010448377503166490815_" transform="translate(0 3.847)">
								<path id="Path_4528_00000155824968922244345180000015195977526496360362_" class="st0" d="M63.3,103.2L63.3,103.2
									c-0.4-0.3-1-0.3-1.3,0.1l-31,29.3c-0.5,0.5-0.8,1.1-0.8,1.8l0,0c0,1.3,1.1,2.4,2.4,2.4c0.7,0,1.3-0.3,1.8-0.8l29.1-31.2
									c0.4-0.4,0.4-1.1-0.1-1.5C63.4,103.2,63.4,103.2,63.3,103.2z"/>
								<path id="Path_4529_00000151525094837832667530000001601912021773217938_" class="st0" d="M58.4,100.7
									c0.5-0.3,0.6-1,0.3-1.5c0,0-0.1-0.1-0.1-0.1l0,0c-0.3-0.4-0.9-0.5-1.4-0.2l-26,15c-0.6,0.4-1,1.1-1,1.8l0,0
									c0,1.1,0.9,2.1,2.1,2.1c0.4,0,0.8-0.1,1.1-0.3L58.4,100.7z"/>
								<path id="Path_4530_00000083077606772718664140000018068741332899760008_" class="st0" d="M54.2,95.3
									c0.6-0.2,0.9-0.9,0.7-1.5c0,0,0-0.1-0.1-0.1l0,0c-0.3-0.5-0.8-0.7-1.3-0.6l-22.1,6.6c-0.8,0.2-1.3,0.9-1.3,1.7v0.2
									c0,1,0.8,1.8,1.8,1.8c0.2,0,0.4,0,0.6-0.1L54.2,95.3z"/>
								<path id="Path_4531_00000000219944384237906710000000291918649573375911_" class="st0" d="M51.4,88.8c0.7-0.1,1.1-0.7,1-1.3
									c0,0,0-0.1,0-0.1v0c-0.1-0.6-0.7-0.9-1.2-0.9l-19.3,1.1c-1,0.1-1.7,0.8-1.7,1.8l0,0c0,1,0.8,1.8,1.8,1.8c0.1,0,0.1,0,0.2,0
									L51.4,88.8z"/>
								<path id="Path_4532_00000049913605820313958090000006955405379137808535_" class="st0" d="M50.3,81.6
									c0.7,0.1,1.3-0.4,1.3-1.1c0,0,0-0.1,0-0.1v0c0-0.6-0.4-1.1-1-1.2l-18.4-3.2c-1-0.2-1.9,0.5-2.1,1.5c0,0.1,0,0.2,0,0.3v0
									c0,0.9,0.7,1.7,1.6,1.8L50.3,81.6z"/>
								<path id="Path_4533_00000121976794131950003690000012707877546731515319_" class="st0" d="M50.9,73.9
									c0.7,0.2,1.4-0.1,1.6-0.8c0,0,0-0.1,0-0.1v0c0.1-0.6-0.2-1.2-0.7-1.4l-19.1-8.3c-0.9-0.4-2,0-2.4,0.9
									c-0.1,0.2-0.1,0.5-0.1,0.7v0.3c0,0.8,0.5,1.4,1.2,1.7L50.9,73.9z"/>
								<path id="Path_4534_00000028291661892627952210000005979967257305783223_" class="st0" d="M53.3,66.4
									c0.6,0.4,1.4,0.2,1.8-0.4c0,0,0.1-0.1,0.1-0.1l0,0c0.3-0.6,0.1-1.2-0.4-1.6L33.6,48.4c-1-0.7-2.3-0.5-3,0.4
									c-0.3,0.4-0.4,0.8-0.4,1.3l0,0c0,0.7,0.4,1.4,1,1.8L53.3,66.4z"/>
								<path id="Path_4535_00000033366328600802198890000004286856468005645219_" class="st0" d="M57.6,59.3c0.5,0.5,1.4,0.6,1.9,0
									c0,0,0.1-0.1,0.1-0.1l0,0c0.4-0.5,0.4-1.2,0-1.7L34.7,27.9c-0.9-1.1-2.5-1.2-3.6-0.3c-0.6,0.5-0.9,1.2-0.9,2l0,0
									c0,0.7,0.3,1.3,0.7,1.8L57.6,59.3z"/>
							</g>
						</g>
					</g>
				</g>
			</g>
		</g>
		<g id="Group_1657_00000145777982580019196430000000127609380031550109_" transform="translate(93.693 16.278)">
			<g id="Group_1652_00000057140056332567724670000009414309811827156891_" transform="translate(8.857)">
				<path id="Path_4536_00000027566765672976978470000014373981463417954216_" class="st0" d="M71.2,31.9v17.3h6.9V54H65.5V31.9
					H71.2z"/>
				<path id="Path_4537_00000177459725764633966200000008160889885875207822_" class="st0" d="M93.5,36.8h-6.8v3.7h6.4v4.9h-6.4v3.8
					h6.8V54H81V31.9h12.5L93.5,36.8z"/>
				<path id="Path_4538_00000117656840398327276010000005371159076808669867_" class="st0" d="M108.4,41.6h11.3c0,1.1,0,2.1-0.1,3.2
					c-0.1,0.9-0.3,1.8-0.6,2.7c-0.4,1.1-0.9,2.1-1.7,3.1c-0.7,0.9-1.5,1.6-2.5,2.2c-1,0.6-2,1.1-3.1,1.4c-1.2,0.3-2.4,0.5-3.6,0.5
					c-1.6,0-3.2-0.3-4.7-0.9c-1.4-0.5-2.6-1.4-3.6-2.4c-1-1.1-1.8-2.3-2.4-3.7c-1.1-3.1-1.1-6.4,0-9.5c0.5-1.4,1.3-2.6,2.4-3.7
					c1.1-1,2.3-1.8,3.7-2.4c1.5-0.6,3.2-0.9,4.8-0.9c2.1,0,4.2,0.5,6,1.5c1.8,1.1,3.2,2.7,4.1,4.6l-5.4,2.3c-0.4-1-1.1-2-2-2.6
					c-0.8-0.5-1.8-0.8-2.8-0.8c-0.8,0-1.6,0.2-2.3,0.5c-0.7,0.3-1.3,0.8-1.8,1.4c-0.5,0.6-0.9,1.4-1.2,2.2c-0.3,0.9-0.4,1.9-0.4,2.8
					c0,0.9,0.1,1.8,0.4,2.6c0.2,0.8,0.6,1.5,1.1,2.1c0.5,0.6,1.1,1.1,1.8,1.4c0.8,0.3,1.6,0.5,2.5,0.5c0.6,0,1.1-0.1,1.6-0.2
					c0.5-0.1,1-0.3,1.4-0.6c0.4-0.3,0.8-0.7,1-1.1c0.3-0.5,0.5-1.1,0.6-1.6h-4.7L108.4,41.6z"/>
				<path id="Path_4539_00000152225870747806423760000013859908410825010870_" class="st0" d="M136,50.2h-8.2l-1.3,3.8h-6.1
					l8.4-22.1h6.2l8.4,22.1h-6.1L136,50.2z M134.5,45.8l-2.6-7.4l-2.6,7.4H134.5z"/>
				<path id="Path_4540_00000182493690361540549370000005991159797073459889_" class="st0" d="M145.9,31.9h8.5
					c1.5,0,2.9,0.3,4.2,0.9c1.3,0.6,2.5,1.4,3.4,2.4c1,1,1.8,2.2,2.3,3.5c1.1,2.7,1.1,5.7,0,8.4c-0.5,1.3-1.3,2.5-2.3,3.5
					c-1,1-2.2,1.8-3.4,2.4c-1.3,0.6-2.8,0.9-4.2,0.9h-8.5V31.9z M151.6,49.1h1.3c0.9,0,1.8-0.1,2.7-0.5c0.7-0.3,1.4-0.7,2-1.3
					c0.5-0.6,1-1.2,1.2-2c0.3-0.8,0.4-1.6,0.4-2.5c0-0.8-0.1-1.7-0.4-2.5c-0.5-1.5-1.7-2.7-3.2-3.3c-0.8-0.3-1.7-0.5-2.6-0.5h-1.3
					V49.1z"/>
				<path id="Path_4541_00000123411046764416520960000001880556321381974913_" class="st0" d="M167.8,42.9c0-1.6,0.3-3.1,0.9-4.6
					c1.2-2.8,3.5-5.1,6.3-6.2c3.2-1.2,6.7-1.2,9.8,0c1.4,0.6,2.8,1.4,3.9,2.5c1.1,1.1,1.9,2.3,2.5,3.7c1.2,2.9,1.2,6.2,0,9.2
					c-0.6,1.4-1.4,2.7-2.5,3.7c-1.1,1.1-2.4,1.9-3.9,2.5c-3.2,1.2-6.7,1.2-9.8,0c-2.9-1.1-5.2-3.4-6.3-6.2
					C168.1,46.1,167.8,44.5,167.8,42.9z M173.8,42.9c0,0.8,0.2,1.7,0.5,2.4c0.3,0.7,0.8,1.4,1.3,1.9c0.6,0.6,1.2,1,2,1.3
					c2.3,0.9,4.9,0.4,6.7-1.3c0.6-0.6,1-1.2,1.4-1.9c0.7-1.6,0.7-3.3,0-4.9c-0.3-0.7-0.8-1.4-1.4-1.9c-1.8-1.7-4.4-2.2-6.7-1.3
					c-0.7,0.3-1.4,0.7-2,1.3c-0.6,0.6-1,1.2-1.3,1.9C174,41.3,173.8,42.1,173.8,42.9z"/>
			</g>
			<g id="Group_1653_00000155848662422842359690000002017918922977276563_" transform="translate(8.857 29.627)">
				<path id="Path_4542_00000137125563435149526370000007787472936055505812_" class="st0" d="M74.2,46v2c-0.8-0.7-1.9-1.2-3-1.2
					c-1.1,0-2.1,0.4-2.9,1.2c-0.8,0.8-1.2,1.9-1.2,3c0,1.1,0.4,2.2,1.2,2.9c0.7,0.8,1.8,1.2,2.9,1.2c0.5,0,1-0.1,1.5-0.3
					c0.2-0.1,0.5-0.2,0.7-0.4c0.3-0.2,0.5-0.4,0.8-0.6v2c-0.9,0.5-1.9,0.8-3,0.8c-3.1,0-5.7-2.5-5.7-5.6c0,0,0,0,0-0.1
					c0-1.4,0.5-2.7,1.4-3.8c1.1-1.3,2.7-2.1,4.4-2C72.3,45.2,73.3,45.5,74.2,46z"/>
				<path id="Path_4543_00000086669049506136780270000018254723395122301325_" class="st0" d="M75.6,50.9c0-1.5,0.6-3,1.7-4
					c1.1-1.1,2.5-1.7,4.1-1.7c1.5,0,3,0.6,4,1.7c1.1,1.1,1.7,2.5,1.7,4.1c0,1.5-0.6,3-1.7,4c-2.2,2.2-5.7,2.2-7.9,0.2
					C76.3,54.1,75.6,52.6,75.6,50.9z M77.3,50.9c0,1.1,0.4,2.2,1.2,3c1.6,1.6,4.1,1.6,5.7,0c0,0,0,0,0,0c1.6-1.7,1.6-4.3,0-5.9
					c-0.7-0.8-1.8-1.2-2.9-1.2c-1.1,0-2.1,0.4-2.9,1.2C77.7,48.8,77.3,49.8,77.3,50.9L77.3,50.9z"/>
				<path id="Path_4544_00000101090979577067597200000013434741593914292119_" class="st0" d="M88.8,56.5l2.3-11.9l3.8,8.6l3.9-8.6
					l2.1,11.9h-1.7l-1.1-6.7L94.9,57l-3.2-7.2l-1.2,6.7H88.8z"/>
				<path id="Path_4545_00000134247064483041056940000001944368504826189232_" class="st0" d="M104.9,45.4v11.1h-1.7V45.4H104.9z"/>
				<path id="Path_4546_00000085224154848030672260000012800299935297468049_" class="st0" d="M113.7,47.1l-1.3,0.8
					c-0.2-0.3-0.4-0.6-0.7-0.9c-0.3-0.2-0.6-0.2-0.9-0.2c-0.4,0-0.8,0.1-1.1,0.4c-0.3,0.2-0.5,0.6-0.5,1c0,0.5,0.4,1,1.2,1.3
					l1.1,0.5c0.8,0.3,1.4,0.7,2,1.3c0.4,0.6,0.6,1.2,0.6,1.9c0,0.9-0.3,1.9-1,2.5c-0.7,0.7-1.6,1-2.5,1c-0.9,0-1.7-0.3-2.4-0.9
					c-0.6-0.6-1.1-1.5-1.1-2.4l1.7-0.4c0,0.5,0.2,0.9,0.4,1.3c0.6,0.8,1.8,1,2.6,0.3c0,0,0.1-0.1,0.1-0.1c0.3-0.4,0.5-0.8,0.5-1.3
					c0-0.2,0-0.4-0.1-0.6c-0.1-0.2-0.2-0.3-0.3-0.5c-0.1-0.2-0.3-0.3-0.5-0.4c-0.2-0.1-0.5-0.3-0.7-0.4l-1.1-0.4
					c-1.3-0.4-2.2-1.5-2.3-2.8c0-0.8,0.3-1.6,0.9-2.1c0.6-0.6,1.5-0.9,2.4-0.8C112,45.2,113.2,45.9,113.7,47.1z"/>
				<path id="Path_4547_00000145774194848403108170000013254705399269055411_" class="st0" d="M117.7,45.4v11.1H116V45.4H117.7z"/>
				<path id="Path_4548_00000046341443016642483690000016599994699399816327_" class="st0" d="M119.8,50.9c0-1.5,0.6-3,1.7-4
					c1.1-1.1,2.5-1.7,4.1-1.7c1.5,0,3,0.6,4,1.7c1.1,1.1,1.7,2.5,1.7,4.1c0,1.5-0.6,3-1.7,4c-2.2,2.2-5.7,2.2-7.9,0.2
					C120.4,54.1,119.7,52.6,119.8,50.9z M121.4,50.9c0,1.1,0.4,2.2,1.2,3c1.6,1.6,4.1,1.6,5.7,0c0,0,0,0,0,0c1.6-1.7,1.6-4.3,0-5.9
					c-0.7-0.8-1.8-1.2-2.9-1.2c-1.1,0-2.1,0.4-2.9,1.2C121.8,48.8,121.4,49.8,121.4,50.9L121.4,50.9z M128,42.5l-2.9,2l-0.8-0.7
					l2.3-2.3L128,42.5z"/>
				<path id="Path_4549_00000085955383279588062010000016796771105209863080_" class="st0" d="M133.3,56.5V44.7l8,8.4v-7.7h1.7v11.7
					l-8-8.4v7.7L133.3,56.5z"/>
				<path id="Path_4550_00000160150246169528292140000005206821652634229128_" class="st0" d="M150.1,56.5V45.4h2.3
					c0.9,0,1.8,0.1,2.6,0.3c0.7,0.2,1.3,0.6,1.9,1.1c1.1,1.1,1.8,2.6,1.7,4.1c0.1,1.6-0.6,3.1-1.8,4.1c-0.5,0.5-1.2,0.9-1.9,1.1
					c-0.8,0.2-1.7,0.3-2.6,0.3L150.1,56.5z M151.8,54.9h0.7c0.6,0,1.3-0.1,1.9-0.2c0.5-0.2,1-0.4,1.3-0.8c0.8-0.8,1.3-1.8,1.2-2.9
					c0-1.1-0.4-2.2-1.2-3c-0.9-0.7-2.1-1.1-3.2-1h-0.7L151.8,54.9z"/>
				<path id="Path_4551_00000034774305448775700740000012900655490803126412_" class="st0" d="M166.8,47h-4.4v2.7h4.3v1.6h-4.3v3.7
					h4.4v1.6h-6.1V45.4h6.1V47z"/>
				<path id="Path_4552_00000038387279795407001360000004274542105215183538_" class="st0" d="M175.1,45.4v9.5h3.2v1.6h-4.9V45.4
					L175.1,45.4z"/>
				<path id="Path_4553_00000114031183619008037250000010037669520184177542_" class="st0" d="M187,53.8h-4.7l-1.2,2.7h-1.8
					l5.4-11.8l5.2,11.8h-1.8L187,53.8z M186.3,52.2l-1.6-3.8l-1.7,3.8H186.3z"/>
			</g>
			<g id="Group_1654_00000008848597089146654340000016165991391527996325_" transform="translate(7.814 44.939)">
				<path id="Path_4554_00000163065907041074357190000010352070211858666889_" class="st0" d="M71.4,46.7l5.3,13.5L82,46.7h6.2
					l-9.3,22.1h-4.5l-9.2-22.1L71.4,46.7z"/>
				<path id="Path_4555_00000078736378887954209350000014780974490287152314_" class="st0" d="M103,51.6h-6.8v3.7h6.4v4.9h-6.4V64
					h6.8v4.9H90.5V46.7H103L103,51.6z"/>
				<path id="Path_4556_00000181059152905193785350000011661771946109453953_" class="st0" d="M125.4,68.9h-7.1l-5.5-8.5v8.5h-5.7
					V46.7h8.9c1.1,0,2.2,0.2,3.2,0.5c0.9,0.3,1.6,0.8,2.3,1.5c0.6,0.6,1.1,1.4,1.3,2.2c0.3,0.8,0.5,1.7,0.5,2.6
					c0.1,1.5-0.4,2.9-1.2,4.1c-0.9,1.1-2.2,1.9-3.6,2.1L125.4,68.9z M112.8,56.6h1.1c0.9,0.1,1.8-0.2,2.6-0.7c1.1-1,1.2-2.7,0.2-3.8
					c-0.1-0.1-0.1-0.1-0.2-0.2c-0.8-0.5-1.7-0.8-2.6-0.7h-1.1V56.6z"/>
				<path id="Path_4557_00000160873745677658781290000004655023644908118462_" class="st0" d="M127.8,46.7h8.5
					c1.5,0,2.9,0.3,4.2,0.9c1.3,0.6,2.5,1.4,3.4,2.4c1,1,1.8,2.2,2.3,3.5c1.1,2.7,1.1,5.7,0,8.4c-0.5,1.3-1.3,2.5-2.3,3.5
					c-1,1-2.2,1.8-3.4,2.4c-1.3,0.6-2.8,0.9-4.2,0.9h-8.5L127.8,46.7z M133.5,64h1.3c0.9,0,1.8-0.1,2.7-0.5c0.7-0.3,1.4-0.7,2-1.3
					c0.5-0.6,1-1.2,1.2-2c0.3-0.8,0.4-1.6,0.4-2.5c0-0.8-0.1-1.7-0.4-2.5c-0.5-1.5-1.7-2.7-3.2-3.3c-0.8-0.3-1.7-0.5-2.6-0.5h-1.3
					L133.5,64z"/>
				<path id="Path_4558_00000153681075345519277880000001795154464708104875_" class="st0" d="M163.2,65h-8.2l-1.3,3.8h-6.1
					l8.4-22.1h6.2l8.4,22.1h-6.1L163.2,65z M161.7,60.7l-2.6-7.4l-2.6,7.4H161.7z"/>
				<path id="Path_4559_00000171687703290895058260000010457208071331392937_" class="st0" d="M173.1,46.7h8.5
					c1.5,0,2.9,0.3,4.2,0.9c1.3,0.6,2.5,1.4,3.4,2.4c1,1,1.8,2.2,2.3,3.5c1.1,2.7,1.1,5.7,0,8.4c-0.5,1.3-1.3,2.5-2.3,3.5
					c-1,1-2.2,1.8-3.4,2.4c-1.3,0.6-2.8,0.9-4.2,0.9h-8.5L173.1,46.7z M178.8,64h1.3c0.9,0,1.8-0.1,2.7-0.5c0.7-0.3,1.4-0.7,2-1.3
					c0.5-0.6,1-1.2,1.2-1.9c0.3-0.8,0.4-1.6,0.4-2.5c0-0.8-0.1-1.7-0.4-2.5c-0.5-1.5-1.7-2.7-3.2-3.3c-0.8-0.3-1.7-0.5-2.6-0.5h-1.3
					L178.8,64z"/>
			</g>
			<g id="Group_1656_00000050648324177857732360000012870227885883114687_" transform="translate(0 23.606)">
				<g id="Group_1655_00000163051339373239615050000015409662721977130898_">
					
						<rect id="Rectangle_1021_00000071533356836883851500000013738008439306348204_" x="62.5" y="39.4" class="st0" width="148.3" height="1.9"/>
				</g>
			</g>
		</g>
	</g>
</g>
</svg>
