<?xml version="1.0" encoding="iso-8859-1"?>
<!-- Generator: Adobe Illustrator 19.0.0, SVG Export Plug-In . SVG Version: 6.00 Build 0)  -->
<svg version="1.1" id="Layer_1" xmlns="http://www.w3.org/2000/svg" xmlns:xlink="http://www.w3.org/1999/xlink" x="0px" y="0px"
	 viewBox="0 0 60 60" style="enable-background:new 0 0 60 60;" xml:space="preserve" fill="rgba(42, 80, 130, 0.5)" color="#2A5082">
      <path   class="front" fill="currentColor" d="M42,6.1h-2.5v1.8h1.4l10.2,18.6v0.6H36.3l-2.9,2.6H19.7l-2.9-2.6H2v-0.6L12.2,7.9h1.4V6.1h-2.5L0.2,26v1.1V28
            v20.2H53V28v-0.9V26L42,6.1z M51.1,46.4H2V28.9h14.1l2.9,2.6h15.1l2.9-2.6h14.1V46.4z"/>
 
        <polygon  class="front" fill="currentColor" points="46.2,26.3 44.4,26.3 44.4,22.8 8.7,22.8 8.7,26.3 6.9,26.3 6.9,21 46.2,21"/>

        <polygon class="front" fill="currentColor" points="43.3,20.1 41.5,20.1 41.5,17.5 11.6,17.5 11.6,20.1 9.8,20.1 9.8,15.7 43.3,15.7 "/>
 
        <polygon  class="front" fill="currentColor" points="40.5,14.9 38.6,14.9 38.6,12.3 14.5,12.3 14.5,14.9 12.7,14.9 12.7,10.5 40.5,10.5"/>
 
        <polygon class="front" fill="currentColor"  points="37.6,9.6 35.7,9.6 35.7,7 17.4,7 17.4,9.6 15.6,9.6 15.6,5.2 37.6,5.2"/>
       
        <path class="front" fill="currentColor"  d="M29.9,42.1h-6.7c-1.6,0-2.8-1.2-2.8-2.7V35h12.4v4.4C32.8,40.9,31.5,42.1,29.9,42.1z M22.2,36.8v2.6
            c0,0.5,0.5,0.8,1,0.8h6.7c0.6,0,1-0.4,1-0.8v-2.6H22.2z"/>
             <path  class="back" d="M36.9,28.9l-2.8,2.5H18.8L16,28.9h-14v17.5h49V28.9H36.9z M31.9,39.3c0,1.1-0.9,1.8-2,1.8h-6.7
            c-1.1,0-1.9-0.8-1.9-1.8v-3.5h10.6V39.3z"/>
</svg>