
<svg xmlns="http://www.w3.org/2000/svg" style="display: none;">

  
<defs>

    
        <svg style="display: none;">           
 <symbol id="icono-audio" viewBox="0 0 60 60">  
<path class="back" d="M24.9,44.1c-1.4-1.2-2.2-1.7-3.4-2.8c-2.8-2.5-5.9-5.3-8.7-7.7c-0.4-0.4-1.4-0.7-2-0.7
    c-2.1-0.1-3.6-0.2-5.7-0.2c-0.9,0-1.7-0.1-1.7-1c0-2.9,0.1-5.8,0.1-8.7c0-1-0.1-1.9,1-1.9c2,0,4.4,0.2,6.5,0.1c0.6,0,1.7-0.6,2.1-1
    c3.9-3.3,7.4-6.4,11.2-9.8c0.2-0.1,0.3-0.3,0.7-0.5C25,21.3,24.9,32.7,24.9,44.1z"/>
<path class="front" fill="currentColor"  d="M11.7,36.3c-0.5-0.5-1-0.7-1.8-0.7c-1.8,0.1-3.6,0-5.4,0c-2.2,0-3.7-1.6-3.7-3.8c0-3.1,0-6.3,0-9.4c0-2.2,1.6-3.8,3.8-3.8
    c1.8,0,3.6,0,5.5,0c0.7,0,1.1-0.2,1.6-0.6c3.6-3.2,7.2-6.4,10.8-9.6C24.2,6.9,25.6,7,27,8.1c0.8,0.7,1,1.7,1,2.7
    c0,6.6,0,13.1,0,19.7c0,4.3,0,8.6,0,12.9c0,1.8-0.7,2.6-2.3,3.2c-0.9,0.3-1.7,0-2.4-0.5C21.5,45,12.6,37.1,11.7,36.3z M24.9,44.1
    c0-11.4,0-22.6,0-33.9c-0.3,0.2-0.5,0.3-0.7,0.4c-3.8,3.4-7.7,6.8-11.5,10.1c-0.4,0.4-1.1,0.6-1.7,0.6c-2,0.1-4.1,0-6.1,0
    c-1.1,0-1.4,0.3-1.4,1.3c0,2.9,0,5.8,0,8.7c0,0.9,0.3,1.2,1.3,1.2c2.1,0,4.1,0,6.2,0c0.6,0,1.2,0.2,1.6,0.6c2.8,2.4,5.6,4.9,8.4,7.4
    C22.3,41.8,23.5,42.9,24.9,44.1z"/>
<path class="front" fill="currentColor"  d="M37.6,27.1c0,3.1-1,5.9-3.1,8.2c-0.5,0.6-1.1,1-2,0.6c-0.9-0.5-1-1.6-0.2-2.4c2.3-2.4,2.9-5.3,2.2-8.5
    c-0.3-1.6-1.1-2.9-2.2-4.1c-0.7-0.8-0.8-1.7-0.2-2.2c0.7-0.6,1.5-0.5,2.2,0.3C36.4,21,37.5,24,37.6,27.1z"/>
<path class="front" fill="currentColor" d="M52.2,22.3c-0.9-5.5-3.7-10-7.3-14.1c-0.7-0.8-1.7-0.8-2.2-0.2c-0.6,0.6-0.5,1.3,0.1,2l0,0l2.1,2.6l0.5,0.6
    c2.1,3,3.5,6.4,4.1,10.2c0.8,4.9,0,9.6-2.1,14.1c-1.1,2.5-2.8,4.6-4.6,6.6c-0.7,0.7-0.7,1.5-0.1,2.1c0.6,0.5,1.5,0.5,2.1-0.1
    c1.8-1.9,3.4-3.9,4.6-6.2C52.3,34.3,53.3,28.5,52.2,22.3z"/>
<path class="front" fill="currentColor" d="M44.6,22.6c-0.2-1.1-0.6-2.2-1.1-3.1v-0.1c-0.5-1.1-1-2.1-1.5-2.9l0,0l-0.1-0.1c-1.5-2.3-2.8-3.2-2.8-3.2
    c-0.6-0.4-1.3-0.3-1.7,0.2c-0.5,0.6-0.5,1.3,0,1.9c0.2,0.3,0.4,0.5,0.7,0.7c2.5,2.9,4,6.2,4.2,10c0.3,4.9-1.3,9.1-4.6,12.8
    c-0.7,0.8-0.8,1.7-0.2,2.2c0.6,0.6,1.5,0.5,2.2-0.3C44.4,35.6,46,29.5,44.6,22.6z"/>
                  </symbol>

  </svg>

        <svg style="display: none;">           
 <symbol id="icono-calendar" viewBox="0 0 60 60">  

<path class="front" fill="currentColor" d="M11.8,14.2c-1.8,0-3.3-1.5-3.3-3.3c0-0.4,0.1-0.9,0.3-1.3l1.7,0.7c-0.1,0.2-0.1,0.4-0.1,0.5c0,0.8,0.6,1.4,1.4,1.4
        c0.8,0,1.4-0.6,1.4-1.4c0-0.2,0-0.4-0.1-0.5l1.7-0.7c0.2,0.4,0.3,0.8,0.3,1.3C15.1,12.7,13.6,14.2,11.8,14.2z"/>

<rect class="front" fill="currentColor" x="10.8" y="5.3" width="1.9" height="5.5"/>

    <path class="front" fill="currentColor" d="M40.9,14.2c-1.8,0-3.3-1.5-3.3-3.3c0-0.4,0.1-0.9,0.3-1.3l1.7,0.7c-0.1,0.2-0.1,0.4-0.1,0.5c0,0.8,0.6,1.4,1.4,1.4
        c0.8,0,1.4-0.6,1.4-1.4c0-0.2,0-0.4-0.1-0.5L44,9.6c0.2,0.4,0.3,0.8,0.3,1.3C44.2,12.7,42.8,14.2,40.9,14.2z"/>

<rect class="front" fill="currentColor" x="40" y="5.3" width="1.9" height="5.5"/>
<rect class="front" fill="currentColor" x="14.4" y="5.9" width="24" height="1.9"/>
<path class="front" fill="currentColor" d="M49.4,5.9h-5.8v1.9h5.8c0.9,0,1.5,0.7,1.5,1.5V17H1.8V9.3c0-0.9,0.7-1.5,1.5-1.5h5.8V5.9H3.3c-1.9,0-3.4,1.5-3.4,3.4v8.6v1
    v25.5c0,1.9,1.5,3.4,3.4,3.4h46c1.9,0,3.4-1.5,3.4-3.4V18.9v-1V9.3C52.8,7.4,51.3,5.9,49.4,5.9z M50.9,44.3c0,0.9-0.7,1.5-1.5,1.5
    h-46c-0.9,0-1.5-0.7-1.5-1.5V18.9H51L50.9,44.3L50.9,44.3z"/>
<rect class="front" fill="currentColor" x="14.3" y="23.4" width="1.9" height="5.2"/>
<rect class="front" fill="currentColor" x="21.7" y="23.4" width="1.9" height="5.2"/>
<rect class="front" fill="currentColor" x="29.1" y="23.4" width="1.9" height="5.2"/>
<rect class="front" fill="currentColor" x="36.4" y="23.4" width="1.9" height="5.2"/>
<rect class="front" fill="currentColor" x="14.3" y="36.1" width="1.9" height="5.2"/>
<rect class="front" fill="currentColor" x="21.7" y="36.1" width="1.9" height="5.2"/>
<rect class="front" fill="currentColor" x="29.1" y="36.1" width="1.9" height="5.2"/>
<rect class="front" fill="currentColor" x="36.4" y="36.1" width="1.9" height="5.2"/>
<rect class="front" fill="currentColor" x="11.1" y="31.4" width="30.4" height="1.9"/>

    <path class="back" d="M44.8,11c-0.1,2-1.8,3.6-3.9,3.6c-2.1,0-3.7-1.6-3.9-3.6H15.6c-0.1,2-1.8,3.6-3.9,3.6S8,13,7.8,11H3v4.7h46.7
        V11H44.8z"/>

                  </symbol>

  </svg>
        <svg style="display: none;">           
 <symbol id="icono-informe" viewBox="0 0 60 60">  
   <polygon  class="back" points="33,7.6 33,16 41.4,16 "/>
<path  class="front" fill="currentColor"  d="M39.5,46.7H12.7c-1.5,0-2.8-1.3-2.8-2.8V9.7c0-1.5,1.3-2.8,2.8-2.8h21.6l7.9,7.9v29.1C42.3,45.4,41.1,46.7,39.5,46.7z
     M12.7,8.8c-0.5,0-0.9,0.4-0.9,0.9v34.2c0,0.5,0.4,0.9,0.9,0.9h26.8c0.5,0,0.9-0.4,0.9-0.9V15.7l-6.8-6.8
    C33.5,8.8,12.7,8.8,12.7,8.8z"/>
<polygon  class="front" fill="currentColor"  points="38.6,17.1 32.1,17.1 32.1,10.6 34,10.6 34,15.3 38.6,15.3 "/>
<rect  class="front" fill="currentColor"  x="46.9" y="30" width="1.9" height="1.9"/>
<rect  class="front" fill="currentColor"  x="46.9" y="33.7" width="1.9" height="1.9"/>
<path  class="front" fill="currentColor"  d="M43.3,53H32.1v-1.7h11.1c2.1,0,3.7-1.7,3.7-3.7V37.5h1.9v10.1C48.8,50.7,46.3,53,43.3,53z"/>
<rect  class="front" fill="currentColor"  x="24.7" y="51.3" width="1.9" height="1.7"/>
<rect  class="front" fill="currentColor"  x="21" y="51.3" width="1.9" height="1.7"/>
<rect  class="front" fill="currentColor"  x="28.5" y="51.3" width="1.9" height="1.7"/>
<path  class="front" fill="currentColor"  d="M9,51.3c-2.1,0-3.7-1.7-3.7-3.7V31.3l2.1,2.1l1.3-1.3l-4.4-4.4L0,32.1l1.3,1.3l2.1-2.1v16.3c0,3.1,2.5,5.4,5.6,5.4H19v-1.7
    C19,51.3,9,51.3,9,51.3z"/>
<rect  class="front" fill="currentColor" x="3.5" y="24.5" width="1.9" height="1.9"/>
<rect  class="front" fill="currentColor"  x="3.5" y="20.6" width="1.9" height="2.1"/>
<path  class="front" fill="currentColor"  d="M50.9,22.9L48.8,25V6c0-3.1-2.5-5.6-5.6-5.6H32.1v1.9h11.1c2.1,0,3.7,1.7,3.7,3.7v19L44.8,23l-1.3,1.3l4.4,4.4l4.4-4.4
    L50.9,22.9z"/>
<path  class="front" fill="currentColor"  d="M5.4,18.9H3.5V6C3.5,3,6,0.5,9,0.5h10.1v1.9H9C6.9,2.4,5.4,3.9,5.4,6V18.9z"/>
<rect  class="front" fill="currentColor"  x="24.7" y="0.5" width="1.9" height="1.9"/>
<rect  class="front" fill="currentColor"  x="21" y="0.5" width="1.9" height="1.9"/>
<rect  class="front" fill="currentColor"  x="28.5" y="0.5" width="1.9" height="1.9"/>
                  </symbol>

  </svg>

                <svg style="display: none;">           
 <symbol id="icono-fichacorta" viewBox="0 0 60 60">  
        <path class="back" d="M50.1,13L4.3,13.1c-1.3,0-3.5,1.3-3.5,1.9v27.6c0,0.7,2.1,2.3,3.4,2.3H50c1.3,0,2.4-0.5,2.4-1.2V15
            C52.4,14.3,51.4,13,50.1,13z M47.8,42.1H5.2V16.3h42.5V42.1z"/>
    
            <path class="front" fill="currentColor"  d="M49.2,46.3H4c-2.2,0-3.9-1.8-3.9-3.9V15.9C0.1,13.8,1.8,12,4,12h40.2v1.6H4c-1.3,0-2.3,1-2.3,2.3v26.4
                c0,1.3,1,2.3,2.3,2.3h45.2c1.3,0,2.3-1,2.3-2.3V22.7h1.6v19.6C53.2,44.5,51.4,46.3,49.2,46.3z"/>
    
        <path class="front" fill="currentColor"  d="M48.6,42.8H4.4V15.5h44.1V42.8z M6,41.3h41V17.1H6V41.3z"/>

        <rect x="23.9" y="25.1" class="front" fill="currentColor"  width="19.8" height="1.5"/>

        <rect x="23.9" y="20" class="front" fill="currentColor"  width="19.8" height="1.5"/>

        <rect x="23.9" y="30.2" class="front" fill="currentColor"  width="19.8" height="1.5"/>

        <rect x="8.6" y="19.8" class="back" width="10.7" height="11.8"/>
        <path class="front" fill="currentColor"  d="M19.6,31.9H8.3V19.5h11.3V31.9z M8.9,31.3H19V20.1H8.9V31.3z"/>

                  </symbol>

  </svg>


                <svg style="display: none;">           
 <symbol id="icono-concepto" viewBox="0 0 60 60">  

              
	<path class="back" d="M14.3,36.3c-4.3,0-12.6,2.3-12.6,6.9v7.5h25.2v-7.5C26.9,38.6,18.6,36.3,14.3,36.3z"/>

	<path class="front" fill="currentColor"  d="M21.2,52.5c-0.6,0-1.1-0.5-1.1-1.1v-7c0-0.6,0.5-1.1,1.1-1.1s1.1,0.5,1.1,1.1v7C22.3,51.9,21.8,52.5,21.2,52.5z"/>
<path class="front" fill="currentColor"  d="M7.5,52.5c-0.6,0-1.1-0.5-1.1-1.1v-7c0-0.6,0.5-1.1,1.1-1.1s1.1,0.5,1.1,1.1v7C8.6,51.9,8.1,52.5,7.5,52.5z"/>
	<path class="front" fill="currentColor"  d="M14.3,34c-3.8,0-6.9-3.2-6.9-7v-2c0-3.9,3.1-7,6.9-7s6.9,3.2,6.9,7v2C21.2,30.8,18.1,34,14.3,34z M14.3,20.2
		c-2.5,0-4.6,2.1-4.6,4.7v2c0,2.7,2,4.7,4.6,4.7s4.6-2.1,4.6-4.7v-2C18.9,22.4,16.8,20.2,14.3,20.2z"/>
	<path class="front" fill="currentColor"  d="M29.9,26.7c-0.2,0-0.4,0-0.6-0.1c-0.7-0.2-1.2-0.9-1.2-1.6v-3.5h-1.4c-1.5,0-2.8-1.3-2.8-2.8V6.9c0-1.5,1.3-2.8,2.8-2.8h23
		c1.5,0,2.8,1.3,2.8,2.8v11.9c0,1.5-1.3,2.8-2.8,2.8h-15L31.2,26C30.9,26.5,30.4,26.7,29.9,26.7z M26.7,5.5c-0.8,0-1.4,0.6-1.4,1.4
		v11.9c0,0.8,0.6,1.4,1.4,1.4h2.8V25c0,0.2,0.1,0.2,0.2,0.3c0.1,0,0.3,0,0.4-0.1l3.9-5.1h15.7c0.8,0,1.4-0.6,1.4-1.4V6.9
		c0-0.8-0.6-1.4-1.4-1.4H26.7z"/>
	<path class="front" fill="currentColor"  d="M44.8,10.4H32.3c-0.4,0-0.7-0.3-0.7-0.7S31.9,9,32.3,9h12.6c0.4,0,0.7,0.3,0.7,0.7C45.5,10,45.2,10.4,44.8,10.4z"/>

	<path class="front" fill="currentColor"  d="M44.8,13.1H32.3c-0.4,0-0.7-0.3-0.7-0.7s0.3-0.7,0.7-0.7h12.6c0.4,0,0.7,0.3,0.7,0.7S45.2,13.1,44.8,13.1z"/>

	<path class="front" fill="currentColor"  d="M38.5,15.9h-6.3c-0.4,0-0.7-0.3-0.7-0.7s0.3-0.7,0.7-0.7h6.3c0.4,0,0.7,0.3,0.7,0.7C39.2,15.6,38.9,15.9,38.5,15.9z"/>

<path class="front" fill="currentColor"  d="M26.9,51.8c-0.6,0-1.1-0.5-1.1-1.1v-7.5c0-3.5-7.5-5.7-11.4-5.7S2.9,39.6,2.9,43.1v7.5c0,0.6-0.5,1.1-1.1,1.1
	s-1.1-0.5-1.1-1.1v-7.5c0-5.3,8.8-8,13.7-8s13.7,2.7,13.7,8v7.5C28,51.3,27.5,51.8,26.9,51.8z"/>

          </symbol>

  </svg>

            <svg style="display: none;">           
 <symbol id="icono-metadata" viewBox="0 0 60 60">  
<path class="front" fill="currentColor" d="M20.4,43.1c-0.8,0-1.2-0.3-1.4-0.6c-0.2-0.3-0.4-0.8-0.3-1.5l0.4-1.7c0.2-0.9,0.4-1.8,0.6-2.7
            c0.2-0.8,0.4-1.5,0.6-2.3s0.4-1.5,0.6-2.3s0.4-1.5,0.5-2.3c0.2-0.7,0.3-1.4,0.5-2.2c0.2-0.7,0.3-1.3,0.5-2
            c0.2-0.6,0.3-1.2,0.5-1.9l1.1-4.5c0.1-0.5,0.3-1,0.4-1.6c0.1-0.5,0.3-1,0.4-1.6c0.4-1.5,0.7-3,1.1-4.4c0.2-1.1,0.8-1.5,1.9-1.5
            l0,0h4.9c0.7,0,1.2,0.2,1.5,0.6c0.3,0.4,0.4,0.9,0.2,1.5l-2,8.6c-0.2,0.6-0.3,1.3-0.5,1.9s-0.3,1.3-0.5,1.9
            c-0.2,0.8-0.4,1.6-0.6,2.4L30.3,29c-0.1,0.5-0.2,1-0.4,1.5c-0.1,0.5-0.3,1-0.4,1.5l-0.4,1.9c-0.2,0.7-0.3,1.3-0.5,2
            c-0.2,0.8-0.4,1.7-0.6,2.5l-0.5,2c-0.1,0.4-0.2,0.9-0.3,1.3c-0.2,0.8-0.8,1.2-1.6,1.2C25.3,43.1,20.4,43.1,20.4,43.1z M23,41.5
            h0.8c0.6,0,1.2,0,1.9,0h0.1c0,0,0,0,0-0.1c0.1-0.4,0.2-0.8,0.3-1.3l0.5-2c0.2-0.8,0.4-1.7,0.6-2.5c0.2-0.7,0.3-1.3,0.5-2l0.4-1.9
            c0.1-0.5,0.2-1,0.4-1.5c0.1-0.5,0.3-1,0.4-1.5l0.5-2.1c0.2-0.8,0.4-1.6,0.6-2.4c0.2-0.6,0.3-1.3,0.5-1.9s0.3-1.3,0.5-1.9l2-8.6
            c0-0.1,0-0.2,0-0.2s-0.1,0-0.2,0h-4.9c-0.2,0-0.3,0-0.3,0s0,0.1-0.1,0.3c-0.3,1.5-0.7,3-1.1,4.5c-0.1,0.5-0.3,1-0.4,1.6
            c-0.1,0.5-0.3,1-0.4,1.6l-1.1,4.5c-0.1,0.6-0.3,1.2-0.5,1.9c-0.2,0.7-0.3,1.3-0.5,2s-0.3,1.4-0.5,2.1c-0.2,0.8-0.4,1.5-0.5,2.3
            c-0.2,0.8-0.4,1.5-0.6,2.3s-0.4,1.5-0.6,2.3c-0.2,0.9-0.4,1.8-0.6,2.7l-0.4,1.7c0,0.1,0,0.1,0,0.2h0.1L23,41.5z"/>

<path class="back"  d="M9.8,27.7c0.5,0.5,1.1,1,1.6,1.5c1.9,1.9,3.7,3.7,5.6,5.6c0.2,0.2,0.5,0.5,0.6,0.8c0.2,0.6-0.1,1.1-0.7,1.1
    c-0.3,0-0.7,0-1,0c-1.9,0-3.8,0-5.8,0c-0.4,0-0.7-0.1-0.9-0.4c-1.7-1.8-7.5-7.6-8-8.1c-0.4-0.4-0.4-0.9,0-1.3
    c0.8-0.8,1.7-1.7,2.5-2.5c1.9-1.9,3.7-3.8,5.6-5.6c0.2-0.2,0.5-0.3,0.8-0.3c2.2,0,4.5,0,6.7,0c0.3,0,0.7,0.1,0.8,0.4
    c0.2,0.4,0.1,0.7-0.2,1.1c-2.5,2.5-4.9,5-7.4,7.5C10,27.5,9.9,27.6,9.8,27.7z"/>
<path  class="front" fill="currentColor" d="M16.4,37.5c-0.1,0-0.2,0-0.2,0h-1.8c-1.4,0-2.8,0-4.2,0l0,0c-0.6,0-1.1-0.2-1.5-0.6c-1.2-1.2-4.1-4.2-6.1-6.1
    c-1-1-1.7-1.8-1.9-1.9c-0.7-0.7-0.7-1.7,0-2.4l0.9-0.9c0.5-0.5,1-1,1.6-1.6c1.9-1.9,3.7-3.8,5.6-5.6c0.4-0.4,0.8-0.5,1.3-0.5l0,0
    h2.5c1.4,0,2.8,0,4.2,0c1,0,1.4,0.6,1.5,0.9c0.3,0.7,0.2,1.4-0.4,2l-7,7.1c0.4,0.3,0.7,0.7,1.1,1c1.9,1.9,3.7,3.7,5.6,5.6l0.1,0.1
    c0.2,0.2,0.5,0.5,0.7,0.9c0.2,0.5,0.2,1-0.1,1.4c-0.3,0.4-0.8,0.7-1.3,0.7C16.8,37.5,16.6,37.5,16.4,37.5z M12.4,35.9
    c0.7,0,1.3,0,2,0h1.8c0.2,0,0.5,0,0.7,0c0-0.1-0.2-0.3-0.3-0.4l-0.1-0.1c-1.8-1.9-3.7-3.7-5.5-5.6c-0.3-0.3-0.7-0.7-1.1-1l-1.1-1
    l0.5-0.7C9.4,27,9.4,27,9.5,26.9l7.4-7.5c0.1-0.1,0.1-0.1,0.1-0.1l0,0h-0.1c-1.4,0-2.8,0-4.2,0h-2.5c-0.1,0-0.1,0-0.2,0.1
    c-2,1.9-3.8,3.7-5.7,5.6c-0.5,0.5-1,1.1-1.6,1.6l-0.9,0.9c-0.1,0.1-0.1,0.1,0,0.2c0.1,0.2,0.9,0.9,1.9,1.9c2,2,4.9,5,6.1,6.2
    C9.9,35.9,10,36,10.2,36C10.9,35.9,11.6,35.9,12.4,35.9z"/>
<path   class="back"  d="M43.4,27.6c-0.3-0.3-0.6-0.6-0.9-0.9c-2.2-2.2-4.5-4.5-6.7-6.7c-0.3-0.3-0.4-0.6-0.2-1c0.1-0.4,0.4-0.5,0.8-0.5
    c2.3,0,4.5,0,6.8,0c0.2,0,0.5,0.1,0.7,0.3c2.3,2.3,4.7,4.7,7,7c0.4,0.4,0.7,0.7,1.1,1.1c0.3,0.3,0.4,0.9,0,1.3
    c-1.7,1.7-3.4,3.5-5.2,5.2c-1,1-1.9,1.9-2.9,2.9c-0.2,0.2-0.5,0.3-0.8,0.3c-2.2,0-4.5,0-6.7,0c-0.6,0-0.9-0.2-0.9-0.7
    c0-0.1-0.1-0.1,0.3-0.7C35.8,35.3,43.3,27.7,43.4,27.6z"/>
<path class="front" fill="currentColor"    d="M43.1,37.5L43.1,37.5h-6.7c-0.9,0-1.6-0.5-1.7-1.4c-0.1-0.4,0.1-0.8,0.4-1.3l0.1,0.1c0.4-0.6,1.6-1.8,4.5-4.7
    c1-1,2-2,2.5-2.6c-0.1-0.1-0.2-0.2-0.3-0.3c-2.2-2.2-4.5-4.5-6.7-6.7c-0.5-0.5-0.7-1.2-0.4-1.8c0.3-0.6,0.8-1,1.5-1h1
    c1.9,0,3.9,0,5.8,0c0.4,0,0.9,0.2,1.2,0.5c1.9,1.9,3.8,3.8,5.7,5.7l1.7,1.7c0.2,0.2,0.5,0.5,0.7,0.7c0.3,0.3,0.5,0.7,0.6,1.2
    c0,0.5-0.2,0.9-0.5,1.3c-1.7,1.7-3.4,3.5-5.2,5.2l-0.6,0.6c-0.8,0.8-1.5,1.5-2.3,2.3C44.1,37.3,43.7,37.5,43.1,37.5z M36.3,35.9
    L36.3,35.9h6.8c0.1,0,0.2,0,0.2-0.1c0.8-0.8,1.5-1.6,2.3-2.3l0.6-0.6c1.7-1.7,3.4-3.5,5.2-5.2c0.1-0.1,0.1-0.1,0.1-0.1
    c-0.3-0.3-0.6-0.6-0.8-0.9L49,25.1c-1.9-1.9-3.8-3.8-5.6-5.7l-0.1-0.1c-1.9,0-3.9,0-5.8,0h-1c-0.1,0-0.1,0-0.1,0s0,0.1,0.1,0.1
    c2.2,2.2,4.5,4.5,6.7,6.7c0.2,0.2,0.4,0.4,0.6,"/>
      </symbol>

  </svg>
  <svg style="display: none;">           
 <symbol id="icono-casos" viewBox="0 0 60 60">  
    <path class="front" fill="currentColor" d="M33.3,50.2l-3.6,0l-3-4.6c-0.6-0.9-1.6-1.4-2.6-1.4h-9.9c-1.1,0-2.1,0.6-2.7,1.5l-2.8,4.6l-3.6,0l0,2.4
    l28.4-0.2L33.3,50.2z M13.4,46.9c0.1-0.2,0.4-0.4,0.7-0.4H24c0.3,0,0.5,0.1,0.7,0.4l2.1,3.3l-15.7,0.1L13.4,46.9z"/>

            <polygon class="back" points="20.1,17.1 32.8,6.4 39.2,13.9 26,24.8"/>

<path class="front" fill="currentColor" d="M52.2,37.2L36.1,17.5l3-2.4l0.1,0.1l4.8-2c0.9-0.4,1.6-1.2,1.8-2.1c0.2-1,0-2-0.6-2.7l-5.8-7
    c-0.6-0.7-1.5-1.1-2.5-1.1c-1,0-1.8,0.5-2.4,1.3l-3.1,4.1l0.2,0.2l-11.4,9.5L19.9,15l-4.7,2v0c-0.9,0.4-1.5,1.1-1.8,2.1
    c-0.2,0.9-0.1,1.9,0.5,2.7l5.5,7.3c0.6,0.8,1.5,1.2,2.5,1.2c0,0,0,0,0,0c1,0,1.9-0.5,2.5-1.3l3-4.2l-0.2-0.2l2.7-2.1l16.3,19.7
    c0.6,0.7,1.4,1.1,2.2,1.1c0.1,0,0.1,0,0.2,0c0.8,0,1.6-0.3,2.2-0.8l0.9-0.8C53.1,40.5,53.2,38.6,52.2,37.2z M36.4,2.9
    c0.2-0.3,0.4-0.3,0.6-0.3c0.2,0,0.4,0,0.6,0.3l5.8,7c0.2,0.3,0.2,0.5,0.1,0.7s-0.1,0.4-0.4,0.5l-3.2,1.3l-5.5-6.8L36.4,2.9z
     M22.5,27.6c-0.1,0.2-0.4,0.3-0.6,0.3c-0.2,0-0.4,0-0.6-0.3l-5.5-7.3c-0.2-0.3-0.2-0.5-0.1-0.6c0-0.1,0.1-0.4,0.4-0.5l3-1.3l5.4,6.9
    L22.5,27.6z M32.6,8.1l4.6,5.5L26,22.6l-4.3-5.4L32.6,8.1z M50.2,39.9l-0.9,0.8c-0.2,0.2-0.4,0.2-0.6,0.2c-0.2,0-0.4-0.1-0.6-0.3
    L32.6,21.9L35,20l15.3,18.8C50.6,39.1,50.6,39.6,50.2,39.9z"/>

  </symbol>

  </svg>
        <svg style="display: none;">           
 <symbol id="icono-acceso" viewBox="0 0 60 60">  
  
            <path class="back" d="M26.4,1.4C23.4,4.7,12,10.1,7.1,10.1v20.7c0,9.7,18.3,20.4,19.3,20.7h0c1.1-0.3,19.3-11,19.3-20.7V10.1
                C40.9,10.1,29.5,4.7,26.4,1.4z M41.4,29.8c0,7.5-14.1,15.8-14.9,16h0c-0.8-0.2-14.9-8.5-14.9-16v-16c3.8,0,12.6-4.2,14.9-6.7
                c2.4,2.5,11.1,6.7,14.9,6.7V29.8z"/>
     
                <path class="front" fill="currentColor" d="M26.5,52.4L26.5,52.4c-0.1,0-0.2,0-0.3,0c-1-0.3-20-11.2-20-21.6V10.1c0-0.5,0.4-0.9,0.9-0.9
                    c4.7,0,15.8-5.3,18.7-8.4c0.3-0.4,1-0.4,1.3,0c2.9,3.1,14,8.4,18.7,8.4c0.5,0,0.9,0.4,0.9,0.9v20.7c0,10.3-18.9,21.3-20,21.6
                    C26.6,52.4,26.5,52.4,26.5,52.4z M26.5,51.5L26.5,51.5L26.5,51.5z M26.5,51.5L26.5,51.5L26.5,51.5z M8,10.9v19.9
                    c0,8.7,16,18.5,18.5,19.8c2.5-1.2,18.5-11.1,18.5-19.8V10.9c-5.1-0.5-14.8-5.1-18.5-8.3C22.8,5.8,13.1,10.4,8,10.9z"/>
   
                <path class="front" fill="currentColor" d="M37.4,38.4c-0.2,0-0.4-0.1-0.6-0.2c-0.4-0.3-0.4-0.9,0-1.2c2.5-2.6,3.7-5,3.7-7.1V14.6
                    c-4-0.5-11.1-3.9-14.1-6.4c-1.3,1.1-3.1,2.1-4.1,2.7c-0.4,0.2-1,0.1-1.2-0.4c-0.2-0.4-0.1-1,0.4-1.2c2-1.1,3.6-2.1,4.3-2.9
                    c0.3-0.4,1-0.4,1.3,0c2.2,2.4,10.7,6.5,14.3,6.5c0.5,0,0.9,0.4,0.9,0.9v16c0,2.5-1.4,5.3-4.2,8.3C37.9,38.4,37.7,38.4,37.4,38.4
                    z"/>
        
                <path class="front" fill="currentColor" d="M26.4,46.7c-0.1,0-0.2,0-0.3,0c-0.8-0.2-15.6-8.6-15.6-16.8v-16c0-0.5,0.4-0.9,0.9-0.9c1.2,0,3-0.5,5.3-1.3
                    c0.5-0.2,1,0.1,1.1,0.5c0.2,0.5-0.1,1-0.5,1.1c-1.4,0.6-3.4,1.2-5,1.4v15.2c0,6.5,12,13.9,14.1,15c0.8-0.4,3.2-1.9,5.8-3.8
                    c0.4-0.3,0.9-0.2,1.2,0.2c0.3,0.4,0.2,0.9-0.2,1.2c-3,2.3-6,4.1-6.6,4.2C26.6,46.7,26.5,46.7,26.4,46.7z"/>
 
  
        <path class="front" fill="currentColor" d="M33.8,29.2c0,3.3-2.7,5.6-6.9,5.6c-2.5,0-5.1-0.8-6.7-2.1l1.8-3.4c1.3,1.4,2.9,2.1,4.6,2.1
            c1.9,0,2.9-0.8,2.9-2.1c0-1.4-1-2.1-2.9-2.1h-2.9v-2.4l4-3.8H21l0-3.4h11.9v2.6l-4.6,4.3l0.9,0.1C31.9,24.9,33.8,26.6,33.8,29.2z"
            />


        </symbol>

  </svg>
   <svg style="display: none;">           
 <symbol id="icono-acta" viewBox="0 0 60 60">    
    <path class="back" d="M11.3,46.4c0,2.4,1.9,4.3,4.3,4.3h23.3c-2.4,0-4.3-1.9-4.3-4.3H11.3z"/>
<path class="back" d="M8.7,41.6l-2.5,7.7l-2.6-7.8v-31c0-1,0.8-1.7,1.7-1.7H7c1,0,1.7,0.8,1.7,1.7V41.6z"/>
<line class="front" fill="currentColor" x1="3.6" y1="40.7" x2="8.7" y2="40.7"/>
<path class="front" fill="currentColor" d="M11.3,9.7v2.6H9.6v-1.7c0-0.7-0.3-1.4-0.8-1.8V6.2c0-1.4-1.2-2.6-2.6-2.6c-1.4,0-2.6,1.2-2.6,2.6v2.5
    c-0.5,0.5-0.9,1.2-0.9,1.9v31L6.2,52l3.4-10.2V14h1.7v8.6H13V9.7H11.3z M4.4,10.5c0-0.4,0.2-0.7,0.5-0.8h2.4
    c0.3,0.1,0.5,0.4,0.5,0.8v1.8H4.4V10.5z M5.3,6.2c0-0.5,0.3-0.9,0.8-0.9S7,5.7,7,6.2v1.7H5.3V6.2z M6.1,46.6l-1.7-5.1h3.3L6.1,46.6z
     M7.8,39.8H4.4V14h3.4V39.8z"/>
<g>
    <g>
        <g>
            <rect x="21.7" y="19.1" class="front" fill="currentColor" width="15.5" height="1.7"/>
        </g>
        <g>
            <rect x="21.7" y="22.6" class="front" fill="currentColor" width="15.5" height="1.7"/>
        </g>
        <g>
            <rect x="21.7" y="26" class="front" fill="currentColor" width="15.5" height="1.7"/>
        </g>
        <g>
            <rect x="21.7" y="29.5" class="front" fill="currentColor" width="9.5" height="1.7"/>
        </g>
    </g>
    <path class="front" fill="currentColor" d="M47.6,10.6L47.6,10.6l-0.1-0.1H20.8c-2.9,0-5.2,2.3-5.2,5.2v30.1h-5.2v0.9c0,2.9,2.3,5.2,5.2,5.2h23.2h0.1
        c2.9,0,5.2-2.3,5.2-5.2v-31c0-1.9,1.5-3.4,3.4-3.4h0.1c1.9,0,3.4,1.5,3.4,3.4h-5.2v1.7h6.9h0.1v-1.6C52.8,12.9,50.5,10.6,47.6,10.6
        z M17.7,50.2h-2.1c-1.6,0-2.9-1.1-3.3-2.6h21.5c0.1,1,0.6,1.9,1.2,2.6H17.7z M42.4,15.8v31c0,1.9-1.5,3.4-3.4,3.4h-0.2v-0.1
        c-1.9,0-3.4-1.5-3.4-3.4v-0.9h-18v-30c0-1.9,1.5-3.4,3.4-3.4h22.9C42.9,13.3,42.4,14.5,42.4,15.8z"/>
</g>
  </symbol>

  </svg>
       <svg style="display: none;">           
 <symbol id="icono-fichalarga" viewBox="0 0 60 60">

    <path class="back"  d="M49.4,7.2h-9.8c1,0,1.8,0.8,1.8,1.8v1.8h6.2V48H17.5V34.7L14,31.2v18.6c0,1,0.8,1.8,1.8,1.8h33.7
        c1,0,1.8-0.8,1.8-1.8V9C51.2,8,50.4,7.2,49.4,7.2z"/>
    <path class="back" d="M17.3,27.7V10.8h6.2V9.1c0-1,0.8-1.8,1.8-1.8h-9.8c-1,0-1.8,0.8-1.8,1.8v15.1L17.3,27.7z"/>

        <rect x="29.9" y="19.8" class="front" fill="currentColor" width="12.4" height="1.8"/>
 
        <rect x="29.9" y="25.1" class="front" fill="currentColor" width="12.4" height="1.8"/>
 
        <polygon class="front" fill="currentColor" points="26.2,23.4 25,23.4 23,21.3 24.3,20.1 25.3,21.1 26.4,18.6 28,19.3        "/>
 
        <polygon class="front" fill="currentColor" points="26.2,28.7 25,28.7 23,26.7 24.3,25.4 25.3,26.4 26.4,23.9 28,24.6        "/>

    <path class="front" fill="currentColor" d="M49.4,6.5H42c-0.6-0.5-1.4-0.9-2.3-0.9H37c-0.1-2.3-1.8-4.2-4-4.4c-1.3-0.1-2.5,0.3-3.4,1.1s-1.5,2-1.5,3.3
        h-2.7c-0.9,0-1.7,0.3-2.3,0.9h-7.4c-1.5,0-2.7,1.2-2.7,2.7v11.5h1.8V9.2c0-0.5,0.4-0.9,0.9-0.9H22c-0.1,0.3-0.1,0.6-0.1,0.9v0.9
        h-5.3v14.2h1.8V11.8h3.5v1.8h21.3v-1.8h3.5v35.5H18.3v-8.9h-1.8V49h31.9V10h-5.3V9.2c0-0.3-0.1-0.6-0.1-0.9h6.3
        c0.5,0,0.9,0.4,0.9,0.9V50c0,0.5-0.4,0.9-0.9,0.9H15.7c-0.5,0-0.9-0.4-0.9-0.9V34.9H13V50c0,1.5,1.2,2.7,2.7,2.7h33.7
        c1.5,0,2.7-1.2,2.7-2.7V9.2C52,7.7,50.8,6.5,49.4,6.5z M41.4,11.8H23.6V9.2c0-1,0.8-1.8,1.8-1.8h4.4V5.6c0-0.7,0.3-1.5,0.9-2
        S32,2.9,32.8,3c1.3,0.1,2.4,1.4,2.4,2.8v1.6h4.4c1,0,1.8,0.8,1.8,1.8V11.8z"/>

        <path class="front" fill="currentColor" d="M32.7,6.5h-0.4c-0.4,0-0.7-0.3-0.7-0.7V5.4c0-0.4,0.3-0.7,0.7-0.7h0.4c0.4,0,0.7,0.3,0.7,0.7v0.4
            C33.4,6.2,33.1,6.5,32.7,6.5z"/>

<line class="front" fill="currentColor" x1="27.2" y1="37.6" x2="23.6" y2="41.1"/>
<path class="front" fill="currentColor" d="M31.5,44.3L28,37.2c0-0.1-0.1-0.2-0.2-0.2L7.4,16.5c-0.3-0.3-0.7-0.3-1-0.1l-0.8-0.8c-1-1-2.8-1-3.8,0l-0.2,0.2
    c-1,1-1,2.7,0,3.8l0.8,0.8c-0.1,0.1-0.1,0.3-0.1,0.4c0,0.2,0.1,0.5,0.3,0.6l2,2l-1.4,1.4l-2-2L-0.1,24l8.9,8.9l1.3-1.3L4.5,26
    l1.4-1.4L23,41.7c0.1,0.1,0.1,0.1,0.2,0.2l7.1,3.5c0.1,0.1,0.3,0.1,0.4,0.1c0.2,0,0.5-0.1,0.6-0.3C31.6,45,31.7,44.6,31.5,44.3z
     M2.9,17L3,16.8c0.3-0.3,0.9-0.3,1.3,0l0.8,0.8L3.7,19l-0.8-0.8C2.6,17.9,2.6,17.3,2.9,17z M4.5,20.7l2.3-2.3l1.4,1.4l-2.3,2.3
    L4.5,20.7z M7.1,23.4l2.3-2.3l16.5,16.5l-2.3,2.3L7.1,23.4z M25.1,40.9l1.8-1.8l1.8,3.6L25.1,40.9z"/>
  </symbol>

  </svg>

       <svg style="display: none;">           
 <symbol id="icono-documento" viewBox="0 0 60 60">
    <polyline class="back" points="6.3,12.6 17.6,12.6 17.6,1.4 "/>
<g>
    <path class="front" fill="currentColor" d="M45.3,53.2H8.9v-2.4h36.4c0.7,0,1.2-0.5,1.2-1.2V3.5c0-0.7-0.5-1.2-1.2-1.2H16.7l-9,9v39.5H5.3V10.3L15.7-0.1
        h29.6c2,0,3.6,1.6,3.6,3.6v46.1C48.9,51.6,47.3,53.2,45.3,53.2z"/>
</g>
<g>
    <polygon class="front" fill="currentColor" points="18.6,13.2 10.1,13.2 10.1,10.8 16.2,10.8 16.2,4.7 18.6,4.7  "/>
</g>
<g>
    <rect x="15" y="24.6" class="front" fill="currentColor" width="24.2" height="2.4"/>
</g>
<g>
    <rect x="15" y="29.5" class="front" fill="currentColor" width="14.5" height="2.4"/>
</g>
<g>
    <rect x="15" y="19.8" class="front" fill="currentColor" width="24.2" height="2.4"/>
</g>
  </symbol>

  </svg>
           <svg style="display: none;">           
 <symbol id="icono-casos_comision" viewBox="0 0 60 60">
    <g>
    <path class="back" d="M49.2,43.2c-0.4-2-1.6-3.6-5.1-3.6c-2.4,0-13.1,0-13.1,0s0.7,4.4,4.4,4.4h5.3l2.9,7.9h8.2L49.2,43.2z"/>
    <path class="back" d="M30.1,29.3l-6.6,5.9l-6.6,1.1c-2.1,0.4-3.5,1.4-4,3.2l-6,1.2c-2.2,0.4-3.6,1.4-4.1,3.4l-1.6,7.6h19l2.2-11
        l2.7-0.8l4.7-4.7C32.2,33,30.1,29.3,30.1,29.3z"/>
    <path class="front" fill="currentColor"  d="M52.5,51.6L50,43c-0.6-2.9-2.6-4.3-6-4.3H32.9l-1.6-3.9c1.5-2.6-0.4-5.8-0.5-6c-0.1-0.2-0.4-0.4-0.6-0.4
        c-0.3,0-0.5,0-0.7,0.2l-0.6,0.5l-10-23.3c0,0,0,0,0,0c0,0,0,0,0,0l-1.2-2.8c-0.2-0.4-0.7-0.7-1.1-0.5c-0.4,0.2-0.6,0.7-0.5,1.1
        l0.9,2L2.5,11.9C2.2,12,2,12.2,1.9,12.6c0,0.3,0.1,0.6,0.3,0.8L6.9,17l-0.6,5.8c0,0.3,0.1,0.6,0.3,0.8c0.2,0.1,0.3,0.2,0.5,0.2
        c0.1,0,0.2,0,0.3-0.1L22,17.4l5.5,12.9l-4.5,4l-6.4,1.1c-2.4,0.4-3.9,1.5-4.5,3.3l-5.4,1.1C4,40.4,2.5,41.7,2,44l-1.6,7.6
        c-0.1,0.5,0.2,0.9,0.7,1c0.1,0,0.1,0,0.2,0C1.6,52.7,2,52.4,2,52l1.6-7.6C4,42.8,5,42,7.1,41.6l4.6-0.9l-2.3,11
        c-0.1,0.5,0.2,0.9,0.7,1c0.1,0,0.1,0,0.2,0c0.4,0,0.8-0.3,0.9-0.7l2.6-12.1c0.3-1.5,1.4-2.4,3.3-2.7l6.6-1.1c0.2,0,0.3-0.1,0.4-0.2
        l5.1-4.6c0,0,0,0,0,0l0.5-0.5c0.4,1.1,0.7,2.8-0.5,3.9l-4.6,4.5l-7.1,2.2c-0.5,0.1-0.7,0.6-0.6,1.1c0.1,0.5,0.6,0.7,1.1,0.6l3.1-1
        l-1.9,9.6c-0.1,0.5,0.2,0.9,0.7,1c0.1,0,0.1,0,0.2,0c0.4,0,0.8-0.3,0.9-0.7l2.1-10.5l2.2-0.7c0.1,0,0.3-0.1,0.4-0.2l4.3-4.3l1,2.4
        h0c-0.3,0-0.5,0.1-0.7,0.3c-0.2,0.2-0.2,0.5-0.2,0.7c0.2,1.4,1.2,3.7,3.2,4.7l3.2,7.7c0.1,0.3,0.5,0.5,0.8,0.5c0.1,0,0.2,0,0.3-0.1
        c0.4-0.2,0.7-0.7,0.5-1.1l-2.7-6.7H40l2.6,7.3c0.1,0.4,0.5,0.6,0.8,0.6c0.1,0,0.2,0,0.3-0.1c0.5-0.2,0.7-0.7,0.5-1.1l-2.4-6.7h2.2
        c0.5,0,0.9-0.4,0.9-0.9s-0.4-0.9-0.9-0.9h-3.4c0,0,0,0,0,0h-5.3c-1.9,0-2.8-1.5-3.2-2.6h12c3.2,0,3.9,1.4,4.3,3l2.5,8.6
        c0.1,0.4,0.5,0.6,0.8,0.6c0.1,0,0.2,0,0.2,0C52.4,52.5,52.6,52,52.5,51.6z M8.2,21.4l0.5-4.8c0-0.3-0.1-0.6-0.3-0.8l-3.9-3
        l13.1-5.6l3.7,8.6L8.2,21.4z"/>
    <g>
        <path  class="front" fill="currentColor"  d="M42.3,37.8c-2.6,0-4.8-2.2-4.8-4.8s2.2-4.8,4.8-4.8s4.8,2.2,4.8,4.8S45,37.8,42.3,37.8z M42.3,30
            c-1.7,0-3.1,1.4-3.1,3.1s1.4,3.1,3.1,3.1c1.7,0,3.1-1.4,3.1-3.1S44,30,42.3,30z"/>
    </g>
    <g>
        <path  class="front" fill="currentColor"  d="M17.9,34.3c-2.6,0-4.8-2.2-4.8-4.8c0-2.6,2.2-4.8,4.8-4.8s4.8,2.2,4.8,4.8C22.7,32.2,20.5,34.3,17.9,34.3z
             M17.9,26.5c-1.7,0-3.1,1.4-3.1,3.1c0,1.7,1.4,3.1,3.1,3.1s3.1-1.4,3.1-3.1C20.9,27.8,19.5,26.5,17.9,26.5z"/>
    </g>
    <g>
        <path  class="front" fill="currentColor"  d="M6.5,38.7c-2.6,0-4.8-2.2-4.8-4.8s2.2-4.8,4.8-4.8s4.8,2.2,4.8,4.8S9.2,38.7,6.5,38.7z M6.5,30.8
            c-1.7,0-3.1,1.4-3.1,3.1s1.4,3.1,3.1,3.1s3.1-1.4,3.1-3.1S8.2,30.8,6.5,30.8z"/>
    </g>
    <g>
        <line  class="front" fill="currentColor" x1="41.9" y1="18.6" x2="41.9" y2="20.3"/>
        <line  class="front" fill="currentColor"  x1="41.9" y1="22.1" x2="41.9" y2="23.8"/>
        <line  class="front" fill="currentColor"  x1="42.8" y1="21.2" x2="44.5" y2="21.2"/>
        <line  class="front" fill="currentColor"  x1="39.3" y1="21.2" x2="41" y2="21.2"/>
    </g>
    <g>
        <line  class="front" fill="currentColor"  x1="36.6" y1="14.2" x2="38.4" y2="16"/>
        <line  class="front" fill="currentColor"  x1="32.3" y1="9.9" x2="34" y2="11.6"/>
        <line  class="front" fill="currentColor"  x1="34" y1="14.2" x2="32.3" y2="16"/>
        <line  class="front" fill="currentColor"  x1="38.4" y1="9.9" x2="36.6" y2="11.6"/>
    </g>
</g>
  </symbol>

  </svg>
       <svg style="display: none;">           
 <symbol id="icono-descarga" viewBox="0 0 60 60">
    <g>
    <polygon class="back" points="11.9,9.6 19.9,9.6 19.9,1.6     "/>
    <polygon class="back" points="30.6,42.6 30.6,31.9 29.2,31.9 23.5,31.9 23.5,42.6 19.2,42.6 27.2,52.4 35.2,42.6    "/>
    <rect x="23.5" y="25.7" class="back" width="7.1" height="3.6"/>
    <rect x="23.5" y="20.3" class="back" width="7.1" height="2.7"/>
</g>
<polygon class="front" fill="currentColor"  points="20.8,10.5 14.6,10.5 14.6,8.8 19,8.8 19,4.3 20.8,4.3 "/>
<g>
    <path class="front" fill="currentColor"  d="M39.5,38.1h-6.2v-1.8h6.2c0.5,0,0.9-0.4,0.9-0.9v-32c0-0.5-0.4-0.9-0.9-0.9H19.4l-6.6,6.6v26.4
        c0,0.5,0.4,0.9,0.9,0.9h7.1v1.8h-7.1c-1.5,0-2.7-1.2-2.7-2.7V8.4l7.6-7.6h20.9c1.5,0,2.7,1.2,2.7,2.7v32.1
        C42.2,37,41,38.1,39.5,38.1z"/>
</g>
<path class="front" fill="currentColor" d="M27.2,53.8l-9.9-12.1h5.3V31h8.9v10.7h5.6L27.2,53.8z M21.1,43.5l6.1,7.5l6.1-7.5h-3.6V32.8h-5.3v10.7H21.1z"/>
<polygon class="front" fill="currentColor"  points="31.5,29.2 29.7,29.2 29.7,26.6 24.4,26.6 24.4,29.2 22.6,29.2 22.6,24.8 31.5,24.8 "/>
<polygon class="front" fill="currentColor"  points="31.5,23 29.7,23 29.7,21.2 24.4,21.2 24.4,23 22.6,23 22.6,19.4 31.5,19.4 "/>
  </symbol>

  </svg>
   <svg style="display: none;">
           <symbol id="icono-favorito" viewBox="0 0 60 60">
    <g>
    <polygon class="back" points="27.5,9.7 32.5,20 43.7,21.7 35.5,29.6 37.3,40.8 27.3,35.4 17.1,40.6 19.2,29.4 11.1,21.4 22.4,19.9   
        "/>
</g>
<g>
    <path class="front" fill="currentColor"  d="M38.2,42.1l-10.9-5.9l-11,5.6l2.2-12.2l-8.8-8.7L22,19.3l5.6-11l5.4,11.2l12.2,1.9l-9,8.5L38.2,42.1z
         M27.3,34.7l9.1,4.9l-1.6-10.2l7.5-7.2L32,20.6l-4.5-9.4l-4.7,9.3l-10.3,1.4l7.4,7.3L18,39.4L27.3,34.7z"/>
</g>
<g>
    <path class="front" fill="currentColor"  d="M26.3,52.1c-14.3,0-25.9-11.6-25.9-25.9S12.1,0.4,26.3,0.4S52.2,12,52.2,26.3S40.6,52.1,26.3,52.1z M26.3,2.1
        C13,2.1,2.2,13,2.2,26.3S13,50.4,26.3,50.4s24.1-10.8,24.1-24.1S39.6,2.1,26.3,2.1z"/>
</g>
  </symbol>

  </svg>
     <svg style="display: none;">
           <symbol id="icono-transcripcion" viewBox="0 0 60 60">
    <path class="back" d="M49.4,38.8c-2.4-2.6-2.8-6.5-2.8-10.2c-0.6,0-3.7,0-3.7,0h-5.6c-1.5,1.9-4.2,3.7-9.3,3.7s-8.7-1.9-10.2-3.7
    h-4.6c0,0-3.1,0-3.7,0c0,3.7-0.3,7.7-2.8,10.2c-1.5,1.5-2.8,3.5-2.8,5.6c0,1.9,0,4.3,0,5.6H28h24.1c0-0.9,0-3.7,0-5.6
    C52.1,42.3,50.8,40.3,49.4,38.8z"/>
<g>
    <path class="front" fill="currentColor"  d="M46.6,20.3v-7.4h-1.9v7.4h-1.9V2.6H12.3v17.6h-1.9v-7.4H8.5v7.4H6.7v-3.7H3c-1.5,0-2.8,1.2-2.8,2.8v5.6
        c0,1.5,1.2,2.8,2.8,2.8h3.7V24H4.8v1.9H3c-0.5,0-0.9-0.4-0.9-0.9v-5.6c0-0.5,0.4-0.9,0.9-0.9h1.9v1.9v0.9v0.9h7.4h30.6h9.2v-1.9
        C52.1,20.3,46.6,20.3,46.6,20.3z M14.1,20.3V4.5H41v15.8H14.1z"/>
    <g>
        <path class="front" fill="currentColor"  d="M52.1,50.9H3.9C3.4,50.9,3,50.5,3,50v-5.6c0-2,1-4.1,3-6.2c2.2-2.3,2.5-6.1,2.5-9.6c0-0.5,0.4-0.9,0.9-0.9
            h3.7v1.9h-2.8c-0.1,3.5-0.6,7.3-3,9.9c-1.7,1.8-2.5,3.4-2.5,4.9V49h46.4v-4.6c0-1.5-0.8-3.2-2.5-4.9c-2.5-2.6-3-6.4-3-9.9h-2.8
            v-1.9h3.7c0.5,0,0.9,0.4,0.9,0.9c0,3.4,0.3,7.2,2.5,9.6c2,2.1,3,4.2,3,6.2v5.5C53.1,50.5,52.7,50.9,52.1,50.9z"/>
    </g>
    <g>
        <path  class="front" fill="currentColor" d="M28,33.2c-5.3,0-9-1.9-10.6-3.7H16v-1.9h2.3l0.3,0.3c1.3,1.7,4.8,3.4,9.5,3.4c3.9,0,6.8-1.1,8.6-3.4l0.3-0.3
            h3.1v1.9h-2.4C36.2,31.3,33.3,33.2,28,33.2z"/>
    </g>
    <g>
        <rect class="front" fill="currentColor" x="22.5" y="36"  width="4.6" height="1.9"/>
    </g>
    <g>
        <rect class="front" fill="currentColor" x="29" y="36"  width="4.6" height="1.9"/>
    </g>
    <g>
        <rect class="front" fill="currentColor" x="35.4" y="36"  width="4.6" height="1.9"/>
    </g>
    <g>
        <rect class="front" fill="currentColor" x="22.5" y="43.4"  width="12.1" height="1.9"/>
    </g>
    <g>
        <rect class="front" fill="currentColor" x="19.7" y="39.7"  width="4.6" height="1.9"/>
    </g>
    <g>
        <rect class="front" fill="currentColor" x="16" y="36"  width="4.6" height="1.9"/>
    </g>
    <g>
        <rect class="front" fill="currentColor" x="26.2" y="39.7" width="4.6" height="1.9"/>
    </g>
    <g>
        <rect class="front" fill="currentColor" x="32.7" y="39.7" width="4.6" height="1.9"/>
    </g>
    <g>
        <rect class="front" fill="currentColor" x="8.5" y="24"  width="39" height="1.9"/>
    </g>
    <g>
        <rect class="front" fill="currentColor" x="19.7" y="9.1" width="16.7" height="1.9"/>
    </g>
    <g>
        <rect class="front" fill="currentColor" x="19.7" y="12.8"  width="10.2" height="1.9"/>
    </g>
</g>
  </symbol>

  </svg>
     <svg style="display: none;">
           <symbol id="icono-grafo" viewBox="0 0 60 60">
    <circle  class="back" cx="18.2" cy="22.5" r="3.3"/>
<circle  class="back" cx="47.8" cy="22.5" r="3.3"/>
<g>
    <path class="front" fill="currentColor" d="M47.9,17.7c-2.6,0-4.7,2.1-4.7,4.7c0,0.6,0.1,1.2,0.3,1.7l-8,4.5c0,0-1.3-0.9-2.3-0.9c-0.9,0-1.7,0.4-2.2,0.9
        l-8.2-4.9c0.1-0.4,0.2-0.9,0.2-1.4c0-2.6-2.1-4.7-4.7-4.7s-4.7,2.1-4.7,4.7c0,0.5,0.1,1.1,0.3,1.5l-0.1-0.1l-8.5,5.4v0.1
        c-0.5-0.4-1.2-0.6-1.9-0.6c-1.7,0-3.2,1.4-3.2,3.2c0,1.8,1.4,3.2,3.2,3.2c1.7,0,3.2-1.4,3.2-3.2c0-0.5-0.1-0.9-0.3-1.3l8.3-5.3
        c0.9,1.1,2.2,1.8,3.7,1.8s2.9-0.8,3.8-1.9l8.1,4.8c-0.1,0.3-0.1,0.5-0.1,0.8c0,1.7,1.4,3.2,3.2,3.2c1.8,0,3.2-1.4,3.2-3.2
        c0-0.4-0.1-0.7-0.2-1.1l0.1,0.2l8.1-4.5c0.9,1,2.1,1.6,3.5,1.6c2.6,0,4.7-2.1,4.7-4.7S50.5,17.7,47.9,17.7z M3.4,33.5
        c-0.8,0-1.5-0.7-1.5-1.5s0.7-1.5,1.5-1.5s1.5,0.7,1.5,1.5S4.2,33.5,3.4,33.5z M18.3,25.6c-1.7,0-3.1-1.4-3.1-3.1s1.4-3.1,3.1-3.1
        s3.1,1.4,3.1,3.1S20,25.6,18.3,25.6z M33.2,32.5c-0.8,0-1.5-0.7-1.5-1.5s0.7-1.5,1.5-1.5s1.5,0.7,1.5,1.5S34,32.5,33.2,32.5z
         M47.9,25.6c-1.7,0-3.1-1.4-3.1-3.1s1.4-3.1,3.1-3.1s3.1,1.4,3.1,3.1C50.9,24.2,49.6,25.6,47.9,25.6z"/>
</g>
  </symbol>

  </svg>
         <svg style="display: none;">
           <symbol id="icono-etiqueta" viewBox="0 0 60 60">
<path class="front" fill="currentColor" d="M44.4,7.5c-2.9,0-5.4,1.5-6.8,3.8L37,10.7c-1.8-1.7-4.4-1.6-6.1,0.1c-1.7,1.8-1.6,4.4,0,6.1l3.5,3.5l0,0
    c0.8,0.8,1.9,1.3,3.1,1.3c1.1,0,2.2-0.4,3.1-1.3c1.7-1.8,1.6-4.4,0-6.1l-1.2-1.2c0.9-1.9,2.8-3.1,5-3.1c3.1,0,5.6,2.4,5.6,5.6
    c0,2.9-2.2,5.3-5,5.5v-7.6l-1.3-2.8l-2.2,1.1l1.1,2.2v14L25.7,44.7c-0.2,0.2-0.5,0.5-0.7,0.8c-0.9,1.1-2.1,2.4-3.6,2.5
    c-1,0.1-2.1-0.5-3.4-1.6C16.3,44.9,4.1,32.5,4.1,32.5c-0.3-0.5-1.5-2.9,0.7-5.3C6,26,20.1,12.7,20.8,11.9l3.8-3.3h14.2V6.3H23.6
    l-4.9,4.3l0,0C16.2,13,4.1,24.4,3,25.6c-3.1,3.2-2,6.9-0.9,8.4c0,0,12.2,12.4,14.3,14.2c1.7,1.5,3.3,2.3,4.9,2.3c0.1,0,0.2,0,0.3,0
    c2.5-0.1,4.1-2,5.3-3.3c0.2-0.3,0.4-0.5,0.6-0.7L45,29v-5.5c4.2-0.3,7.5-3.7,7.5-8C52.4,11,48.9,7.5,44.4,7.5z M38.8,18.6
    c-0.7,0.7-1.9,0.7-2.7,0l-3.4-3.5c-0.7-0.7-0.7-1.9,0-2.7c0.7-0.7,1.9-0.7,2.7,0l1.2,1.2c-0.1,0.6-0.2,1.2-0.2,1.8h2l0.5,0.5
    C39.6,16.7,39.5,17.9,38.8,18.6z"/>
<path class="front" fill="currentColor" d="M24.9,37.9c-1.2,0-2.5-0.5-3.4-1.4l-8.2-8.2c-1.8-1.8-1.9-4.8-0.1-6.7c0.9-0.9,2.1-1.4,3.3-1.5
    c1.3,0,2.5,0.4,3.4,1.3l8.4,8.1c0.9,0.9,1.5,2.1,1.5,3.4c0,1.3-0.5,2.5-1.4,3.4l-0.1,0.1C27.4,37.5,26.2,37.9,24.9,37.9z M14.6,27.1
    l8.2,8.2c1.1,1.1,3.1,1.1,4.2,0l0.1-0.1c0.6-0.6,0.9-1.3,0.8-2.1c0-0.8-0.3-1.5-0.9-2.1l-8.3-8.1c-1.1-1.1-2.9-1.1-4.1,0.1
    C13.5,24.1,13.5,25.9,14.6,27.1L14.6,27.1z"/>
<path class="back" d="M14.7,27.2l7.9,7.9c1.2,1.2,3.2,1.5,4.4,0.2l0.1-0.1c1.2-1.3,1.1-3.2-0.1-4.4L18.9,23c-1.3-1.2-3-1.4-4.2-0.1
    l0,0C13.4,24.1,13.4,26,14.7,27.2z"/>

  </symbol>

  </svg>
         <svg style="display: none;">
    <symbol id="icono-carpeta" viewBox="0 0 60 60">
     <path   class="back"  d="M32.7,13.8l-7-5.2L2.2,8.8v35.5c0,1,1.3,0.8,2.3,0.8l43.6,0.1c0.9,0,2.2-0.8,2.4-2.4l0.1-29L32.7,13.8z"/>
<path   class="front" fill="currentColor"   d="M48.1,46.8h-45c-1.6,0-2.9-1.3-2.9-2.9v-37l20.9-0.2l5.2-0.1l7.3,5.5l18.8-0.2l-0.1,30.5
    C52.3,46.2,49.3,46.8,48.1,46.8z M2.2,8.8V44c0,0.5,0.4,1,1,1h45c0.3,0,2.3,0,2.3-2.6l0.1-28.6L29.4,14l-4.6,0.1L6.2,14.4L5.9,42.2
    H4l0.1-11.9l0.1-17.7h0.9L30.3,12l-4.6-3.4l-4.5,0.1L2.2,8.8z"/>
    </symbol>
    
</svg>
     <svg style="display: none;">
    <symbol id="icono-carpetaopen" viewBox="0 0 60 60">
<path class="back" d="M22.9,11.8v-0.5l-3.1-3.2L1.9,8.2v35.4c0,1,0.3,1.2,1.3,1.2h28.9c0.8,0,1.6-0.4,2.1-1l14.1-13.2V29H33l-3.6,2.8
    H17.8L6.2,42.7H3.7V11.8H22.9z"/>
<path  class="front" fill="currentColor" d="M43.3,27.4l4.2-4.2V21h-7.4l4.7-7v-2.1H24.7v-1.3l-4.2-4.2H0.1v37.4c0,1.5,1.2,2.7,2.7,2.7h29.8
    c1.3,0,2.4-0.9,2.8-1.4l14.8-13.7v-4C50.2,27.4,43.3,27.4,43.3,27.4z M42.8,13.7L37.9,21H11.4l-4,12.5L9.2,34l3.6-11.2h32.5
    l-4.6,4.6h-8.1L29,30.1H17.2l-11.6,11V13.7h13.7h5.5H42.8z M48.4,30.6L34.2,43.9c-0.5,0.5-1.1,0.9-1.5,0.9H2.8
    c-0.5,0-0.9-0.4-0.9-0.9V8.2h17.9l3.1,3.1v0.5h-3.6H3.7v31h2.5l11.7-10.9h11.6l3.6-2.7h5.7h2.6h6.9v1.4
    C48.3,30.6,48.4,30.6,48.4,30.6z"/>
<g>
    <rect  class="front" fill="currentColor" x="41.2" y="3.7" width="1.8" height="4.6"/>
</g>
<g>
    <rect   class="front" fill="currentColor" x="44.3" y="6" transform="matrix(0.4999 -0.8661 0.8661 0.4999 17.2434 43.6453)"  width="4.3" height="1.8"/>
</g>
<g>
    <rect  class="front" fill="currentColor" x="47.5" y="9.3" transform="matrix(0.8661 -0.4999 0.4999 0.8661 1.5417 26.1815)"  width="4.3" height="1.8"/>
</g>
    </symbol>

</svg>
   <svg style="display: none;">

  <symbol id="icono-lupa" viewBox="0 0 60 60">
  <path class="front" fill="currentColor"  d="M52,47.5l-13-13c2.7-3.6,4.3-8,4.3-12.8c0-11.8-9.6-21.4-21.4-21.4S0.6,9.9,0.6,21.7S10.2,43,21.9,43
    c4.5,0,8.7-1.4,12.2-3.8l13.1,13.1c0.5,0.5,1.2,0.8,1.9,0.8s1.4-0.3,1.9-0.8l1-1c0.5-0.5,0.8-1.2,0.8-1.9S52.5,48,52,47.5z M22,41.2
    c-10.8,0-19.6-8.8-19.6-19.6S11.2,2.1,22,2.1s19.6,8.8,19.6,19.6S32.8,41.2,22,41.2z"/>

     <path  class="back" d="M51,48L38.4,35.3L35,38.5l12.8,12.8c0.6,0.6,1.7,0.6,2.3,0l1-1C51.7,49.7,51.7,48.6,51,48z"/> 
  </symbol>
  </svg>
            <svg style="display: none;">
    <symbol id="icono-fondos" viewBox="0 0 60 60">
      <path   class="front" fill="currentColor" d="M42,6.1h-2.5v1.8h1.4l10.2,18.6v0.6H36.3l-2.9,2.6H19.7l-2.9-2.6H2v-0.6L12.2,7.9h1.4V6.1h-2.5L0.2,26v1.1V28
            v20.2H53V28v-0.9V26L42,6.1z M51.1,46.4H2V28.9h14.1l2.9,2.6h15.1l2.9-2.6h14.1V46.4z"/>
 
        <polygon  class="front" fill="currentColor" points="46.2,26.3 44.4,26.3 44.4,22.8 8.7,22.8 8.7,26.3 6.9,26.3 6.9,21 46.2,21"/>

        <polygon class="front" fill="currentColor" points="43.3,20.1 41.5,20.1 41.5,17.5 11.6,17.5 11.6,20.1 9.8,20.1 9.8,15.7 43.3,15.7 "/>
 
        <polygon  class="front" fill="currentColor" points="40.5,14.9 38.6,14.9 38.6,12.3 14.5,12.3 14.5,14.9 12.7,14.9 12.7,10.5 40.5,10.5"/>
 
        <polygon class="front" fill="currentColor"  points="37.6,9.6 35.7,9.6 35.7,7 17.4,7 17.4,9.6 15.6,9.6 15.6,5.2 37.6,5.2"/>
       
        <path class="front" fill="currentColor"  d="M29.9,42.1h-6.7c-1.6,0-2.8-1.2-2.8-2.7V35h12.4v4.4C32.8,40.9,31.5,42.1,29.9,42.1z M22.2,36.8v2.6
            c0,0.5,0.5,0.8,1,0.8h6.7c0.6,0,1-0.4,1-0.8v-2.6H22.2z"/>
             <path  class="back" d="M36.9,28.9l-2.8,2.5H18.8L16,28.9h-14v17.5h49V28.9H36.9z M31.9,39.3c0,1.1-0.9,1.8-2,1.8h-6.7
            c-1.1,0-1.9-0.8-1.9-1.8v-3.5h10.6V39.3z"/>
    </symbol>

</svg>
   <svg style="display: none;">
<symbol id="icono-entrevista" viewBox="0 0 60 60">
    <path  class="front" fill="currentColor"   d="M26.6,33.7c-2.7,0-4.9-2.3-4.9-5v-1.4c0-2.8,2.2-5,4.9-5s4.9,2.3,4.9,5v1.4C31.5,31.5,29.3,33.7,26.6,33.7z
     M26.6,23.9c-1.8,0-3.3,1.5-3.3,3.4v1.4c0,1.9,1.4,3.4,3.3,3.4c1.8,0,3.3-1.5,3.3-3.4v-1.4C29.9,25.4,28.4,23.9,26.6,23.9z"/>
<path  class="front" fill="currentColor"   d="M44.7,38.6h-2.3c-0.9,0-1.7,0.4-2.3,1l-3.6,3.6v-3c0-3.8-6.3-5.7-9.9-5.7c-3.5,0-9.9,1.9-9.9,5.7v2.9l-3.6-3.6
    c-0.6-0.6-1.4-1-2.3-1H8.5c-2.3,0-4.1,1.8-4.1,4.1v9c0,0.5,0.4,0.8,0.8,0.8S6,52,6,51.6v-9c0-1.4,1.1-2.5,2.5-2.5h2.3
    c0.4,0,0.9,0.2,1.2,0.5l5.3,5.3h5.3c0,0.5-0.2,1.3-0.7,1.8c-0.4,0.5-1,0.7-1.8,0.7h-5.4L10,43.7c-0.3-0.3-0.8-0.3-1.2,0
    c-0.3,0.3-0.3,0.8,0,1.2l3,3v3.8c0,0.5,0.4,0.8,0.8,0.8s0.8-0.4,0.8-0.8v-1.6h0.5H20h13.2h6.1h0.5v1.6c0,0.5,0.4,0.8,0.8,0.8
    s0.8-0.4,0.8-0.8V48l3.1-3.1c0.3-0.3,0.3-0.8,0-1.2c-0.3-0.3-0.8-0.3-1.2,0L40,47.1l-0.1,0.1l-1.3,1.3h-5.4c-0.8,0-1.4-0.2-1.8-0.7
    c-0.5-0.5-0.6-1.2-0.7-1.8H36l5.3-5.3c0.3-0.3,0.7-0.5,1.2-0.5h2.3c1.4,0,2.5,1.1,2.5,2.5v9c0,0.5,0.4,0.8,0.8,0.8s0.8-0.4,0.8-0.8
    v-9C48.8,40.5,46.9,38.6,44.7,38.6z M34.8,44.4h-2.5v-3.3c0-0.5-0.4-0.8-0.8-0.8s-0.8,0.4-0.8,0.8v3.3h-1.5l-0.1,0.7
    c0,0.1-0.2,1.9,0.8,3.4h-6.5c1-1.4,0.8-3.3,0.8-3.4L24,44.4h-1.6v-3.3c0-0.5-0.4-0.8-0.8-0.8s-0.8,0.4-0.8,0.8v3.3h-2.5v-4.1
    c0-2.5,5.4-4.1,8.2-4.1s8.2,1.6,8.2,4.1L34.8,44.4L34.8,44.4z"/>
<g>
    <path class="back" d="M29.1,44.4h1.5v-3.3c0-0.5,0.4-0.8,0.8-0.8s0.8,0.4,0.8,0.8v3.3h2.5v-4.1c0-2.5-5.4-4.1-8.2-4.1
        s-8.2,1.6-8.2,4.1v4.1h2.5v-3.3c0-0.5,0.4-0.8,0.8-0.8s0.8,0.4,0.8,0.8v3.3H24l0.1,0.7c0,0.1,0.2,1.9-0.8,3.4h6.5
        c-1-1.4-0.8-3.3-0.8-3.4L29.1,44.4z"/>
</g>
<path  class="front" fill="currentColor"   d="M10.2,37.8c-2.7,0-4.9-2.3-4.9-5v-1.4c0-2.8,2.2-5,4.9-5s4.9,2.3,4.9,5v1.4C15.1,35.6,12.9,37.8,10.2,37.8z
     M10.2,28c-1.8,0-3.3,1.5-3.3,3.4v1.4c0,1.9,1.4,3.4,3.3,3.4s3.3-1.5,3.3-3.4v-1.4C13.4,29.5,12,28,10.2,28z"/>
<path  class="front" fill="currentColor"   d="M43,37.8c-2.7,0-4.9-2.3-4.9-5v-1.4c0-2.8,2.2-5,4.9-5s4.9,2.3,4.9,5v1.4C47.9,35.6,45.7,37.8,43,37.8z M43,28
    c-1.8,0-3.3,1.5-3.3,3.4v1.4c0,1.9,1.4,3.4,3.3,3.4s3.3-1.5,3.3-3.4v-1.4C46.3,29.5,44.8,28,43,28z"/>
<path  class="front" fill="currentColor"   d="M16.4,26.7c-0.2,0-0.5,0-0.7-0.1c-0.8-0.3-1.4-1-1.4-1.9v-4.1h-1.6c-1.8,0-3.3-1.5-3.3-3.3v-14
    c0-1.8,1.5-3.3,3.3-3.3h27.1c1.8,0,3.3,1.5,3.3,3.3v14c0,1.8-1.5,3.3-3.3,3.3H22.1L18,25.9C17.6,26.4,17,26.7,16.4,26.7z M12.6,1.7
    c-0.9,0-1.6,0.7-1.6,1.6v14c0,0.9,0.7,1.6,1.6,1.6h3.3v5.7c0,0.2,0.2,0.3,0.3,0.3c0.2,0.1,0.4,0,0.5-0.1l4.6-6h18.5
    c0.9,0,1.6-0.7,1.6-1.6v-14c0-0.9-0.7-1.6-1.6-1.6H12.6V1.7z"/>
<path  class="front" fill="currentColor"   d="M34,7.4H19.2c-0.5,0-0.8-0.4-0.8-0.8s0.4-0.8,0.8-0.8H34c0.5,0,0.8,0.4,0.8,0.8S34.4,7.4,34,7.4z"/>
<path  class="front" fill="currentColor"   d="M34,10.7H19.2c-0.5,0-0.8-0.4-0.8-0.8s0.4-0.8,0.8-0.8H34c0.5,0,0.8,0.4,0.8,0.8S34.4,10.7,34,10.7z"/>
<path  class="front" fill="currentColor"   d="M26.6,14h-7.4c-0.5,0-0.8-0.4-0.8-0.8s0.4-0.8,0.8-0.8h7.4c0.5,0,0.8,0.4,0.8,0.8S27,14,26.6,14z"/>

</symbol>

</svg>
    <svg style="display: none;">
<symbol id="icono-localizacion" viewBox="0 0 60 60">
    <path class="back" d="M26.9,2.2c-5.3,0-10.4,2.2-14.1,5.9c-3.6,3.7-5.5,8.5-5.4,13.6c0.1,9.6,9.6,19.5,11.2,21.4
    c6.9,8.7,7.1,8.7,7.7,8.7c0.7,0,0.6-0.1,11.4-12.6c5.9-6.9,8.7-13.4,8.7-17.5C46.4,10.9,37.7,2.2,26.9,2.2z M26.5,33.7
    c-6.3,0-11.4-5.1-11.4-11.4c0-6.3,5.1-11.4,11.4-11.4c6.3,0,11.4,5.1,11.4,11.4C37.9,28.6,32.8,33.7,26.5,33.7z"/>

    <path class="front" fill="currentColor"   d="M26.3,52.8c-1.1,0-1.3,0-8.5-9.1c-0.2-0.2-0.4-0.5-0.8-0.9C14.2,39.5,6.5,30.6,6.4,21.7
        c-0.1-5.4,2-10.5,5.7-14.3c3.9-4,9.3-6.2,14.8-6.2c11.3,0,20.5,9.2,20.5,20.5c0,4.8-3.4,11.7-9,18.2l-4.1,4.8
        C27.4,52.8,27.4,52.8,26.3,52.8z M26.9,3.2c-5,0-9.8,2-13.3,5.6c-3.4,3.4-5.2,8-5.1,12.9c0.1,8.1,7.4,16.6,10.1,19.8
        c0.4,0.4,0.6,0.7,0.8,1c3.7,4.6,6.2,7.7,6.9,8.3c0.6-0.5,2.4-2.7,6.5-7.4l4.1-4.8c6.2-7.3,8.5-13.5,8.5-16.9
        C45.4,11.5,37.1,3.2,26.9,3.2z M26.5,34.7c-6.9,0-12.4-5.6-12.4-12.4S19.6,9.8,26.5,9.8s12.4,5.6,12.4,12.4S33.3,34.7,26.5,34.7z
         M26.5,11.9c-5.7,0-10.4,4.6-10.4,10.4c0,5.7,4.6,10.4,10.4,10.4c5.7,0,10.4-4.6,10.4-10.4C36.8,16.5,32.2,11.9,26.5,11.9z"/>
</symbol>

</svg>
    <svg style="display: none;">
<symbol id="icono-nube" viewBox="0 0 60 60">
        <path  class="front" fill="currentColor"  d="M40.3,41.9H10.2c-5.4,0-9.8-4.4-9.8-9.9c0-3.9,2.4-7.6,6-9.1c0.3-3.3,3-5.8,6.3-5.8c0.4,0,0.8,0,1.1,0.1
                c1.9-5.9,7.4-9.9,13.6-9.9c5.8,0,11.1,3.6,13.3,9.1c6.9,0.1,12.5,5.8,12.5,12.7c0,4.5-2.4,8.7-6.3,11
                C44.9,41.3,42.6,41.9,40.3,41.9z M35.2,40.5h5.2c2,0,4-0.5,5.7-1.6c3.4-2,5.6-5.7,5.6-9.7c0-6.2-5.1-11.3-11.3-11.3h-0.7
                l-0.3-0.6c-1.9-5.1-6.7-8.4-12-8.4c-5.7,0-10.7,3.8-12.3,9.2l-0.3,1l-1-0.3c-0.4-0.1-0.7-0.1-1.2-0.1c-2.6,0-4.7,2-4.8,4.6l0,0.7
                l-0.6,0.2c-3.2,1.2-5.3,4.4-5.3,7.8c0,4.6,3.8,8.4,8.4,8.4H35.2z"/>
     
     
            <path  class="front" fill="currentColor"  d="M40.3,37.1h-5.1v-1.5h5.1c1.2,0,2.3-0.3,3.3-0.9c2-1.2,3.2-3.3,3.2-5.6c0-3.6-2.9-6.5-6.5-6.5v-1.5
                c4.4,0,8,3.6,8,8c0,2.8-1.5,5.5-3.9,6.9C43.2,36.8,41.8,37.1,40.3,37.1z"/>
  
    <path   class="back" d="M12.5,38.8c0,0-5.9,0.5-7.9-3.9c-1.1-2.4-0.7-5.2,1-7.2c0.9-1,2.2-2,4.1-2.3c0,0-1.2-2.9,1.2-4.5
        c0,0,1.6-1.1,4.6-0.2c0,0,1.1-8.6,10.6-10.2c0,0-10.2,3.5-7.8,13c0,0-3.1-1.7-4.7,1c0,0-1.2,2.1,0.2,3.4c0,0-2.7-0.5-4.6,2.1
        c-0.8,1.1-1,2.4-0.9,3.7C8.6,35.4,9.4,38,12.5,38.8z"/>
</symbol>

</svg>

    <svg style="display: none;">
<symbol id="icono-libro" viewBox="0 0 60 60">
   
<path  class="back"  d="M48.3,27.9v10.5H34.1c-2.4,0-5,1.4-5.9,2.6h-0.9l0,0l0,0h-0.9c-0.9-1.2-3.5-2.6-5.9-2.6H6.3V12.2H1.9v30.6h18.4
    l2.6,2.6h8.8l2.6-2.6h18.4V23.5L48.3,27.9z"/>
<path class="front" fill="currentColor"  d="M52.1,22.9c-0.5,0-0.9,0.4-0.9,0.9v18.3H33.7c-0.2,0-0.5,0.1-0.6,0.3l-2.4,2.4h-8l-2.4-2.4
    c-0.2-0.2-0.4-0.3-0.6-0.3H2.2V13.2l2.6-0.1v25.6c0,0.4,0.4,0.8,0.9,0.8h14.2c2.1,0,4.5,1.4,5.2,2.3c0.1,0.1,0.2,0.2,0.3,0.2
    c0,0,0,0,0.1,0c0.1,0,0.2,0.1,0.3,0.1h0.9h0.9c0.3,0,0.5-0.1,0.7-0.3c0.7-0.9,3.1-2.3,5.2-2.3h14.2c0.5,0,0.9-0.4,0.9-0.9V28.1
    c0-0.5-0.4-0.9-0.9-0.9s-0.9,0.4-0.9,0.9v9.6H33.5c-2.1,0-4.5,1.1-5.9,2.2V16.7c0-2.9,1.6-6.1,6.2-6.1h13v1.8c0,0.5,0.4,0.9,0.9,0.9
    s0.9-0.4,0.9-0.9V9.7c0-0.5-0.4-0.9-0.9-0.9H33.8c-3.2,0-5.7,1.4-7,3.6c-1-2.6-2.8-4.4-5.2-5.2l-10.4-3c-0.3-0.1-0.5,0-0.8,0.1
    c-0.2,0.3-0.3,0.6-0.3,0.9v3.7H5.7c-0.5,0-0.9,0.4-0.9,0.9v1.5l-3.5,0.1c-0.5,0-0.9,0.4-0.9,0.9v30.6c0,0.5,0.4,0.9,0.9,0.9h18
    l2.4,2.4c0.2,0.2,0.4,0.3,0.6,0.3h8.8c0.2,0,0.5-0.1,0.6-0.3l2.4-2.4h18c0.5,0,0.9-0.4,0.9-0.9V23.7C53,23.3,52.6,22.9,52.1,22.9z
     M11.7,6.3L11.7,6.3L21.1,9c3.5,1,4.7,4.8,4.7,7.7v22.9c-0.9-1.3-2.4-2.8-4-3.3l-10.1-2.9V6.3z M6.6,10.6h3.5V34
    c0,0.4,0.3,0.7,0.6,0.8l10,2.9c-0.3,0-0.5,0-0.8,0H6.6V10.6z"/>

</symbol>

</svg>       
 <svg style="display: none;">
<symbol id="icono-microdato" viewBox="0 0 60 60">
<rect class="back"  x="34.2" y="40" transform="matrix(0.7071 -0.7071 0.7071 0.7071 -17.9637 43.1829)" width="17.8" height="6.5"/>
<rect class="back" x="1.4" y="7.2" transform="matrix(0.7071 -0.7071 0.7071 0.7071 -4.3758 10.3833)"  width="17.8" height="6.5"/>
<path class="front" fill="currentColor" d="M33.5,17.2l-3.7-3.7c-1.1-1.1-2.5-2.3-5-2.7c-1.7-0.3-2.8-0.7-3.9-1.7l-1.6-1.6l0.1-0.2c0.3-0.3,0.3-0.9,0-1.2
    l-4.6-4.6c-0.3-0.3-0.9-0.3-1.2,0L0.9,14.1c-0.1,0.2-0.2,0.4-0.2,0.6s0.1,0.5,0.2,0.6l4.6,4.6c0.2,0.2,0.4,0.3,0.6,0.3
    s0.5-0.1,0.6-0.3l0.1-0.1l1.6,1.6c0.5,0.5,0.8,1.3,1.1,2.3c0.4,1.2,0.9,2.6,1.9,3.7l3,3c0.2,0.2,0.4,0.3,0.6,0.3s0.5-0.1,0.6-0.3
    c0.3-0.3,0.3-0.9,0-1.2l-3-3c-0.7-0.7-1.1-1.9-1.5-3s-0.7-2.2-1.5-3L8,18.6l9.9-9.9l1.6,1.6c1.5,1.5,3.2,1.9,4.8,2.2
    c2,0.4,3.2,1.3,4.1,2.2l3.7,3.7c0.2,0.2,0.4,0.3,0.6,0.3s0.5-0.1,0.6-0.3C33.8,18.1,33.8,17.5,33.5,17.2z M2.8,14.7L14.2,3.3
    l3.3,3.3L6.1,18.1L2.8,14.7z"/>
<rect class="back" x="7.1" y="33.5" transform="matrix(0.7071 -0.7071 0.7071 0.7071 -26.9782 19.7103)"  width="6.5" height="17.8"/>
<path class="front" fill="currentColor" d="M24.8,41.6c-0.2-0.5-0.7-0.7-1.1-0.5c-0.3,0.1-0.6,0.2-0.9,0.3c-1.1,0.4-2.2,0.7-3,1.5l-1.6,1.6l-9.9-9.9
    L9.9,33c1.3-1.3,1.7-2.7,2-3.9c0.1-0.5-0.2-0.9-0.7-1.1c-0.5-0.1-0.9,0.2-1.1,0.7c-0.3,1.4-0.8,2.3-1.6,3l-1.6,1.6L7,33.2
    c-0.3-0.3-0.9-0.3-1.2,0l-4.6,4.6C1,38,0.9,38.2,0.9,38.5S1,39,1.2,39.1l12.6,12.6c0.2,0.2,0.4,0.3,0.6,0.3s0.5-0.1,0.6-0.3l4.6-4.6
    c0.3-0.3,0.3-0.9,0-1.2l-0.1-0.1l1.6-1.6c0.5-0.5,1.3-0.8,2.3-1.1c0.3-0.1,0.6-0.2,1-0.3C24.8,42.6,25,42.1,24.8,41.6z M14.4,49.8
    L3,38.5l3.3-3.3l0.1,0.1l0,0l0,0l11.1,11.1l0,0l0,0l0.1,0.1L14.4,49.8z"/>
<rect class="back" x="39.9" y="0.7" transform="matrix(0.7071 -0.7071 0.7071 0.7071 5.8223 33.2976)" width="6.5" height="17.8"/>
<path class="front" fill="currentColor" d="M47.8,34c-0.3-0.3-0.9-0.3-1.2,0l-0.1,0.1l-1.6-1.6c-1-1-1.4-2.2-1.7-3.9c-0.5-2.5-1.6-4-2.7-5l-3.7-3.7
    c-0.9-0.9-1.7-1-2.3-1c-0.7,0.1-1.3,0.4-1.9,1l-0.9,0.9L27.9,17c-0.6-0.6-1.3-0.9-2.1-0.9c-0.8,0-1.5,0.3-2.1,0.8l-0.9,0.9l-0.1-0.1
    c-1.2-1.2-3-1.2-4.2,0c-1.2,1.2-1.2,3.1,0,4.2l0.1,0.1l-0.8,0.8c-1.2,1.2-1.2,3.1-0.1,4.3l0.9,0.9l-0.8,0.8
    c-1.2,1.2-1.2,3.1-0.1,4.3l8.9,8.9c1,1,2.4,1.5,3.7,1.9c0.9,0.3,1.8,0.6,2.3,1.1l1.6,1.6l-0.1,0.1c-0.2,0.2-0.3,0.4-0.3,0.6
    c0,0.2,0.1,0.5,0.3,0.6l4.6,4.6c0.2,0.2,0.4,0.3,0.6,0.3s0.5-0.1,0.6-0.3l12.6-12.6c0.3-0.3,0.3-0.9,0-1.2L47.8,34z M33.7,43.6
    c-0.8-0.8-1.8-1.1-3-1.5c-1.1-0.4-2.2-0.7-3-1.5l-8.9-8.9c-0.5-0.5-0.4-1.3,0.1-1.8l0.8-0.8l5.3,5.3c0.2,0.2,0.4,0.3,0.6,0.3
    s0.5-0.1,0.6-0.3c0.3-0.3,0.3-0.9,0-1.2l-7.4-7.4c-0.5-0.5-0.4-1.3,0.1-1.8l0.8-0.8l8.3,8.3c0.2,0.2,0.4,0.3,0.6,0.3
    s0.5-0.1,0.6-0.3c0.3-0.3,0.3-0.9,0-1.2l-9.7-9.6c-0.5-0.5-0.5-1.3,0-1.8s1.2-0.5,1.7,0l9.6,9.7c0.3,0.3,0.9,0.3,1.2,0
    s0.3-0.9,0-1.2L23.9,19l0.9-0.9c0.5-0.5,1.2-0.4,1.7,0.1l4.5,4.5l0,0l0,0l3.7,3.7c0.2,0.2,0.4,0.3,0.6,0.3s0.5-0.1,0.6-0.3
    c0.3-0.3,0.3-0.9,0-1.2L32.8,22l0.9-0.9c0.8-0.8,1.3-0.4,1.7,0l3.7,3.7c0.9,0.9,1.9,2.1,2.2,4.1c0.3,1.6,0.7,3.3,2.2,4.8l1.6,1.6
    l-9.9,9.9L33.7,43.6z M39.1,50.6l-3.3-3.3l0.1-0.1l0,0l0,0L47,36l0,0l0,0l0.1-0.1l3.3,3.3L39.1,50.6z"/>
<path class="front" fill="currentColor" d="M29.7,11.3c0.1,0,0.1,0,0.2,0c1.1-0.3,2.5-0.7,3.8-2l1.6-1.6l9.9,9.9l-1.6,1.6c-0.8,0.8-1.1,1.8-1.5,3
    c-0.1,0.3-0.2,0.6-0.3,0.8c-0.2,0.5,0.1,1,0.5,1.1c0.1,0,0.2,0.1,0.3,0.1c0.4,0,0.7-0.2,0.8-0.6c0.1-0.3,0.2-0.6,0.3-0.9
    c0.3-0.9,0.6-1.8,1.1-2.3l1.6-1.6l0.1,0.1c0.2,0.2,0.4,0.3,0.6,0.3s0.5-0.1,0.6-0.3l4.6-4.6c0.2-0.2,0.3-0.4,0.3-0.6
    s-0.1-0.5-0.3-0.6L39.8,0.4c-0.3-0.3-0.9-0.3-1.2,0L33.9,5c-0.2,0.2-0.3,0.4-0.3,0.6s0.1,0.5,0.3,0.6L34,6.4L32.4,8
    c-0.8,0.8-1.6,1.2-2.9,1.5c-0.5,0.1-0.8,0.6-0.6,1.1C29,11,29.3,11.3,29.7,11.3z M39.1,2.3l11.4,11.4L47.2,17L47,16.9l0,0l0,0
    L35.9,5.8l-0.1-0.1L39.1,2.3z"/>
      </symbol>
</svg>
 <svg style="display: none;">
<symbol id="icono-ojo" viewBox="0 0 60 60">
        <path class="front" fill="currentColor"  d="M17.5,31.6c-0.6-1.3-0.9-2.7-0.9-4.1c0-5.4,4.4-9.7,9.7-9.7c2.4,0,4.8,0.9,6.6,2.6l-0.7,0.7
            c-1.6-1.5-3.7-2.3-5.9-2.3c-4.8,0-8.7,3.9-8.7,8.7c0,1.3,0.3,2.5,0.8,3.7L17.5,31.6z"/>


        <path class="front" fill="currentColor"  d="M26.3,37.2c-2.4,0-4.6-0.9-6.4-2.4l0.7-0.8c1.6,1.4,3.6,2.2,5.7,2.2c4.8,0,8.7-3.9,8.7-8.7
            c0-1-0.2-1.9-0.5-2.8l1-0.3c0.3,1,0.5,2.1,0.5,3.1C36,32.8,31.7,37.2,26.3,37.2z"/>

    <path class="front" fill="currentColor" d="M52.5,27.1C40.9,11.4,26.9,11.9,26.3,11.9l0,0c-1.2,0-2.4,0.2-3.5,0.4c-1.4,0.2-3.2,0.6-5.1,1.3
        C13,15.3,6.2,19,0.2,27.2L0,27.5l0.2,0.3c7.9,10.7,17.1,13.8,22.3,14.8c1.2,0.3,2.5,0.5,3.8,0.5l0,0c0,0,0.2,0,0.4,0
        c2.4,0,15.2-0.7,25.9-15.2l0.3-0.4L52.5,27.1z M1.2,27.5C6.5,20.5,12.3,16.9,17,15c-3.8,2.8-6.3,7.4-6.3,12.5s2.5,9.7,6.4,12.5
        C12.7,38.3,6.7,34.8,1.2,27.5z M12,27.5c0-7.9,6.4-14.3,14.3-14.3s14.3,6.4,14.3,14.3s-6.4,14.3-14.3,14.3S12,35.4,12,27.5z
         M36,39.6c3.6-2.9,5.8-7.2,5.8-12.1s-2.3-9.4-5.9-12.2c4.3,1.8,10,5.3,15.3,12.2C46.2,34.2,40.6,37.7,36,39.6z"/>

<circle class="back" cx="26.2" cy="27.5" r="7.9"/>
      </symbol>
</svg>

<!-- Ícono crea - menú inferior -->
<svg id="crea-inferior" viewBox="0 0 30 30" fill="none" xmlns="http://www.w3.org/2000/svg">
    <path d="M15 30C23.2843 30 30 23.2843 30 15C30 6.71573 23.2843 0 15 0C6.71573 0 0 6.71573 0 15C0 23.2843 6.71573 30 15 30Z" fill="#FFC258"/>
    <path d="M15 29.5C23.0081 29.5 29.5 23.0081 29.5 15C29.5 6.99187 23.0081 0.5 15 0.5C6.99187 0.5 0.5 6.99187 0.5 15C0.5 23.0081 6.99187 29.5 15 29.5Z" stroke="#E07714"/>
    <path d="M7.223 22.687H10.482L20.093 13.076L16.835 9.817L7.223 19.427V22.687ZM8.961 20.149L16.835 12.275L17.635 13.075L9.761 20.949H8.961V20.149Z" fill="white"/>
    <path d="M20.58 7.297C20.4996 7.21642 20.4042 7.15249 20.2991 7.10887C20.194 7.06525 20.0813 7.04279 19.9675 7.04279C19.8537 7.04279 19.741 7.06525 19.6359 7.10887C19.5308 7.15249 19.4354 7.21642 19.355 7.297L17.765 8.887L21.023 12.145L22.613 10.555C22.6936 10.4746 22.7575 10.3792 22.8011 10.2741C22.8448 10.169 22.8672 10.0563 22.8672 9.9425C22.8672 9.8287 22.8448 9.71603 22.8011 9.61092C22.7575 9.50582 22.6936 9.41035 22.613 9.33L20.58 7.297Z" fill="white"/>
</svg>

<!-- Ícono conoce - menú inferior -->
<svg id="conoce-inferior" width="30" height="30" viewBox="0 0 30 30" fill="none" xmlns="http://www.w3.org/2000/svg">
<g opacity="0.804">
<path opacity="0.804" d="M15 30C23.2843 30 30 23.2843 30 15C30 6.71573 23.2843 0 15 0C6.71573 0 0 6.71573 0 15C0 23.2843 6.71573 30 15 30Z" fill="#13C0C8"/>
<path d="M15 29.5C23.0081 29.5 29.5 23.0081 29.5 15C29.5 6.99187 23.0081 0.5 15 0.5C6.99187 0.5 0.5 6.99187 0.5 15C0.5 23.0081 6.99187 29.5 15 29.5Z" stroke="#019592"/>
</g>
<path opacity="0.8" d="M14.72 7.644C14.7752 7.64347 14.8299 7.65394 14.881 7.67481C14.9321 7.69567 14.9785 7.72652 15.0175 7.76553C15.0565 7.80455 15.0873 7.85095 15.1082 7.90203C15.1291 7.9531 15.1395 8.00783 15.139 8.063V9.741H20.172V14.774H21.85C21.9613 14.774 22.068 14.8182 22.1466 14.8969C22.2253 14.9755 22.2695 15.0822 22.2695 15.1935C22.2695 15.3048 22.2253 15.4115 22.1466 15.4901C22.068 15.5688 21.9613 15.613 21.85 15.613H20.172V20.646H18.39C18.1029 19.9049 17.5984 19.2679 16.9427 18.8187C16.287 18.3695 15.5108 18.1291 14.716 18.1291C13.9212 18.1291 13.145 18.3695 12.4893 18.8187C11.8336 19.2679 11.3291 19.9049 11.042 20.646H9.268V18.866C10.0082 18.5785 10.6444 18.0743 11.0933 17.4192C11.5421 16.7641 11.7827 15.9888 11.7836 15.1947C11.7844 14.4006 11.5455 13.6248 11.0981 12.9688C10.6507 12.3127 10.0156 11.8071 9.276 11.518L9.268 9.741H14.3V8.066C14.2995 8.01083 14.3099 7.9561 14.3308 7.90503C14.3517 7.85395 14.3825 7.80755 14.4215 7.76853C14.4605 7.72952 14.5069 7.69867 14.558 7.67781C14.6091 7.65694 14.6638 7.64647 14.719 7.647L14.72 7.644ZM14.719 5.969C14.162 5.969 13.6279 6.19025 13.2341 6.58408C12.8402 6.9779 12.619 7.51205 12.619 8.069H9.268C8.82515 8.07032 8.40084 8.24697 8.08789 8.5603C7.77493 8.87363 7.59879 9.29815 7.598 9.741V12.928H7.841C8.43334 12.9404 8.99723 13.1845 9.41175 13.6078C9.82626 14.0311 10.0584 14.6 10.0584 15.1925C10.0584 15.785 9.82626 16.3539 9.41175 16.7772C8.99723 17.2005 8.43334 17.4446 7.841 17.457H7.59V20.644C7.59132 21.0886 7.76853 21.5147 8.08293 21.8291C8.39733 22.1435 8.82337 22.3207 9.268 22.322H12.455V22.066C12.4487 21.7646 12.5026 21.465 12.6135 21.1847C12.7245 20.9044 12.8903 20.6491 13.1012 20.4337C13.3121 20.2183 13.5638 20.0472 13.8417 19.9304C14.1196 19.8136 14.4181 19.7534 14.7195 19.7534C15.0209 19.7534 15.3194 19.8136 15.5973 19.9304C15.8752 20.0472 16.1269 20.2183 16.3378 20.4337C16.5487 20.6491 16.7145 20.9044 16.8255 21.1847C16.9364 21.465 16.9903 21.7646 16.984 22.066V22.318H20.171C20.6156 22.3167 21.0417 22.1395 21.3561 21.8251C21.6705 21.5107 21.8477 21.0846 21.849 20.64V17.29C22.1338 17.3052 22.4188 17.2623 22.6864 17.1638C22.9541 17.0653 23.1989 16.9133 23.4059 16.7171C23.6129 16.5209 23.7778 16.2845 23.8904 16.0225C24.0031 15.7605 24.0612 15.4782 24.0612 15.193C24.0612 14.9078 24.0031 14.6255 23.8904 14.3635C23.7778 14.1015 23.6129 13.8651 23.4059 13.6689C23.1989 13.4727 22.9541 13.3207 22.6864 13.2222C22.4188 13.1237 22.1338 13.0808 21.849 13.096V9.741C21.8469 9.29707 21.6695 8.87194 21.3554 8.55822C21.0413 8.24449 20.6159 8.06758 20.172 8.066H16.817C16.817 7.50956 16.5962 6.97588 16.203 6.58213C15.8098 6.18839 15.2764 5.96679 14.72 5.966L14.719 5.969Z" fill="#FDFDFD"/>
</svg>


<!-- Ícono explora - menú inferior -->
<svg id="explora-inferior" width="30" height="30" viewBox="0 0 30 30" fill="none" xmlns="http://www.w3.org/2000/svg">
<g opacity="0.8">
<path opacity="0.8" d="M15 30C23.2843 30 30 23.2843 30 15C30 6.71573 23.2843 0 15 0C6.71573 0 0 6.71573 0 15C0 23.2843 6.71573 30 15 30Z" fill="#F45353"/>
<path d="M15 29.5C23.0081 29.5 29.5 23.0081 29.5 15C29.5 6.99187 23.0081 0.5 15 0.5C6.99187 0.5 0.5 6.99187 0.5 15C0.5 23.0081 6.99187 29.5 15 29.5Z" stroke="#E02020"/>
</g>
<path opacity="0.8" d="M15 5.09C13.04 5.09 11.124 5.67121 9.4943 6.76014C7.86461 7.84906 6.59442 9.39679 5.84435 11.2076C5.09429 13.0184 4.89804 15.011 5.28042 16.9333C5.6628 18.8557 6.60663 20.6215 7.99257 22.0074C9.37851 23.3934 11.1443 24.3372 13.0667 24.7196C14.989 25.102 16.9816 24.9057 18.7924 24.1556C20.6032 23.4056 22.1509 22.1354 23.2399 20.5057C24.3288 18.876 24.91 16.96 24.91 15C24.9092 12.3719 23.8649 9.85176 22.0065 7.99345C20.1482 6.13514 17.6281 5.0908 15 5.09ZM15 22.927C13.432 22.927 11.8992 22.462 10.5954 21.5909C9.29169 20.7198 8.27553 19.4816 7.67548 18.0329C7.07543 16.5843 6.91843 14.9902 7.22433 13.4523C7.53024 11.9144 8.28531 10.5018 9.39406 9.39306C10.5028 8.28431 11.9154 7.52924 13.4533 7.22333C14.9912 6.91743 16.5853 7.07443 18.0339 7.67448C19.4826 8.27453 20.7207 9.29069 21.5919 10.5944C22.463 11.8982 22.928 13.431 22.928 14.999C22.9254 17.1008 22.0892 19.1158 20.603 20.602C19.1168 22.0882 17.1018 22.9244 15 22.927ZM9.549 20.45L16.99 16.99L20.45 9.549L13.008 13.008L9.549 20.45ZM14.999 13.91C15.2146 13.91 15.4253 13.9739 15.6046 14.0937C15.7838 14.2135 15.9235 14.3837 16.006 14.5829C16.0885 14.782 16.1101 15.0012 16.0681 15.2126C16.026 15.4241 15.9222 15.6183 15.7697 15.7707C15.6173 15.9232 15.4231 16.027 15.2116 16.0691C15.0002 16.1111 14.781 16.0895 14.5819 16.007C14.3827 15.9245 14.2125 15.7848 14.0927 15.6056C13.9729 15.4263 13.909 15.2156 13.909 15C13.9086 14.8567 13.9366 14.7147 13.9913 14.5822C14.046 14.4497 14.1263 14.3293 14.2277 14.228C14.3291 14.1267 14.4496 14.0465 14.5821 13.9919C14.7146 13.9373 14.8557 13.9095 14.999 13.91Z" fill="white"/>
</svg>


</defs>
</svg>