<svg width="55" height="64" viewBox="0 0 55 64" fill="none" xmlns="http://www.w3.org/2000/svg">
<path d="M24.9795 43.2849C24.8664 43.2883 24.7582 43.333 24.6752 43.4106C24.5921 43.4882 24.5397 43.5934 24.5276 43.707L22.9838 57.0293C22.9692 57.1577 22.9828 57.2875 23.0226 57.4103C23.0625 57.533 23.1281 57.6455 23.2152 57.7402C23.3022 57.8348 23.4084 57.9094 23.5267 57.9587C23.6449 58.008 23.7726 58.0308 23.9005 58.0257C24.1188 58.0145 24.325 57.9219 24.4796 57.7659C24.6342 57.6099 24.7259 57.4018 24.737 57.1814L25.4483 43.7874C25.4523 43.7229 25.443 43.6581 25.4213 43.5972C25.3995 43.5364 25.3656 43.4807 25.3217 43.4336C25.2778 43.3865 25.2248 43.3491 25.1659 43.3235C25.1071 43.2979 25.0436 43.2847 24.9795 43.2849Z" fill="white"/>
<path d="M25.3014 36.9553L24.7662 41.5536C24.7622 41.6115 24.77 41.6696 24.7892 41.7242C24.8084 41.7789 24.8383 41.829 24.8776 41.8714C24.9168 41.9138 24.9647 41.9476 25.0175 41.9706C25.0703 41.9937 25.127 42.0056 25.1845 42.0054C25.2818 41.9959 25.3731 41.9522 25.4419 41.882C25.5107 41.8118 25.5525 41.7195 25.5609 41.6212L25.8034 36.9976C25.8059 36.9603 25.8006 36.923 25.7876 36.888C25.7746 36.8531 25.7545 36.8214 25.7284 36.795C25.7022 36.7686 25.6705 36.7481 25.6359 36.7349C25.6013 36.7218 25.5646 36.7162 25.5277 36.7187C25.4689 36.7262 25.4145 36.7538 25.3734 36.7968C25.3323 36.8398 25.3067 36.8958 25.3014 36.9553Z" fill="white"/>
<path d="M25.6199 34.1979L25.5024 35.2112C25.4991 35.242 25.503 35.273 25.5132 35.3022C25.5234 35.3314 25.5395 35.3579 25.5612 35.3798C25.5828 35.4017 25.6094 35.4185 25.6383 35.4288C25.6672 35.439 25.6982 35.4427 25.7287 35.4393C25.7765 35.4334 25.8204 35.4107 25.8533 35.3752C25.8862 35.3396 25.9058 35.2936 25.9084 35.245L25.9626 34.2231C25.9638 34.1986 25.9602 34.1741 25.9513 34.1512C25.9425 34.1283 25.9289 34.1076 25.9115 34.0904C25.8941 34.0732 25.8731 34.0599 25.8502 34.0515C25.8273 34.0431 25.803 34.0399 25.7787 34.0417C25.7385 34.0453 25.7004 34.0627 25.6715 34.0912C25.6425 34.1196 25.6246 34.1573 25.6199 34.1979Z" fill="white"/>
<path d="M25.1258 34.1388L24.7576 35.1607C24.7457 35.1915 24.7412 35.2247 24.7443 35.2576C24.7475 35.2905 24.7585 35.3222 24.776 35.3501C24.7935 35.378 24.8173 35.4014 24.8454 35.4184C24.8735 35.4354 24.9047 35.4454 24.9373 35.4478C24.986 35.4518 25.0349 35.4391 25.0752 35.4114C25.1156 35.3838 25.1453 35.3428 25.1595 35.2957L25.4649 34.253C25.4724 34.2284 25.4746 34.2023 25.471 34.1769C25.4674 34.1515 25.458 34.1272 25.4439 34.1058C25.4299 34.0844 25.4116 34.0665 25.3898 34.0532C25.368 34.0399 25.3436 34.0316 25.3183 34.029C25.2786 34.0223 25.2379 34.0296 25.2029 34.0496C25.1679 34.0696 25.1406 34.101 25.1258 34.1388Z" fill="white"/>
<path d="M24.1555 36.841L22.5321 41.338C22.5117 41.3965 22.5044 41.459 22.5106 41.5207C22.5168 41.5824 22.5363 41.6417 22.5678 41.695C22.5994 41.7482 22.6425 41.7938 22.6934 41.8285C22.7444 41.8631 22.8023 41.886 22.863 41.8955C22.9614 41.9088 23.0608 41.8865 23.1444 41.8323C23.2279 41.7782 23.2896 41.6957 23.3185 41.5999L24.6575 37.0056C24.668 36.969 24.6709 36.9306 24.6657 36.8928C24.6604 36.8549 24.647 36.8186 24.6268 36.7863C24.6067 36.754 24.5802 36.7263 24.5487 36.7051C24.5172 36.684 24.4814 36.6699 24.444 36.6636C24.383 36.6552 24.3209 36.6685 24.2684 36.7008C24.2158 36.7331 24.1761 36.7824 24.1555 36.841Z" fill="white"/>
<path d="M22.9924 36.4696L20.2731 40.6373C20.235 40.6912 20.21 40.7531 20.2 40.8185C20.1901 40.8839 20.196 40.9507 20.2164 41.0136C20.2367 41.0765 20.2713 41.1335 20.3175 41.1803C20.3637 41.2272 20.4202 41.2624 20.4824 41.2832C20.578 41.3213 20.6842 41.3226 20.7807 41.2868C20.8771 41.251 20.9571 41.1807 21.0054 41.0891L23.4566 36.7524C23.4754 36.7185 23.4867 36.6812 23.4898 36.6426C23.4929 36.6039 23.4881 36.5649 23.475 36.5284C23.4619 36.492 23.4412 36.4589 23.4142 36.4312C23.3873 36.4036 23.3546 36.382 23.3187 36.3681H23.2978C23.2429 36.3493 23.1833 36.3493 23.1282 36.3676C23.0732 36.3859 23.0256 36.4217 22.9924 36.4696Z" fill="white"/>
<path d="M24.6112 33.9953L23.9795 34.9623C23.9604 34.9914 23.9486 35.0246 23.9448 35.0592C23.9409 35.0939 23.9453 35.1289 23.9575 35.1615C23.9698 35.1941 23.9896 35.2232 24.0152 35.2466C24.0409 35.2699 24.0717 35.2869 24.1051 35.2958C24.1522 35.3092 24.2022 35.3064 24.2476 35.2881C24.293 35.2698 24.3309 35.237 24.3558 35.1945L24.9247 34.1853C24.9378 34.1625 24.9458 34.137 24.9477 34.1108C24.9496 34.0846 24.9456 34.0582 24.936 34.0337C24.9263 34.0093 24.9114 33.9875 24.8921 33.9698C24.8727 33.9521 24.8497 33.9393 24.8246 33.9319H24.7996C24.7656 33.9215 24.7292 33.9219 24.6954 33.9332C24.6617 33.9446 24.6322 33.9664 24.6112 33.9953Z" fill="white"/>
<path d="M24.0967 33.7205L23.2015 34.565C23.1754 34.5904 23.1557 34.6218 23.1438 34.6563C23.1319 34.6908 23.1282 34.7275 23.1331 34.7638C23.138 34.8 23.1513 34.8345 23.1719 34.8645C23.1925 34.8946 23.2197 34.9193 23.2516 34.9367C23.2958 34.9596 23.3465 34.9675 23.3956 34.9591C23.4446 34.9507 23.4895 34.9266 23.5237 34.8903L24.3602 33.9741C24.3782 33.9549 24.3918 33.9318 24.3996 33.9066C24.4073 33.8813 24.4092 33.8545 24.4052 33.8285C24.4011 33.8024 24.391 33.7777 24.3761 33.756C24.3611 33.7344 24.3412 33.7165 24.3184 33.7037H24.2852C24.2556 33.6876 24.2221 33.6806 24.1886 33.6836C24.1552 33.6866 24.123 33.6994 24.0967 33.7205Z" fill="white"/>
<path d="M21.8879 35.8278L18.1227 39.4087C18.0732 39.4559 18.0353 39.5137 18.0114 39.578C17.9874 39.6423 17.9784 39.7114 17.9848 39.7798C17.9913 39.8482 18.0131 39.9142 18.0487 39.9728C18.0842 40.0314 18.1322 40.081 18.1896 40.1179C18.2778 40.1751 18.3834 40.1993 18.4873 40.1862C18.5913 40.1731 18.687 40.1236 18.7585 40.0463L22.2939 36.2459C22.3226 36.2169 22.3444 36.1817 22.3577 36.143C22.371 36.1043 22.3753 36.0631 22.3705 36.0224C22.3656 35.9817 22.3516 35.9427 22.3296 35.9082C22.3076 35.8738 22.278 35.845 22.2433 35.8237L22.206 35.7982C22.1569 35.768 22.0994 35.7547 22.0421 35.7601C21.9849 35.7654 21.9307 35.7891 21.8879 35.8278Z" fill="white"/>
<path d="M20.8338 34.9115L16.1693 37.6307C16.1081 37.6666 16.0557 37.7161 16.0161 37.7753C15.9765 37.8345 15.9506 37.9018 15.9405 37.9725C15.9304 38.0432 15.9364 38.1152 15.9579 38.1833C15.9794 38.2513 16.0159 38.3137 16.0646 38.3655C16.1404 38.4449 16.2419 38.4949 16.3506 38.5065C16.4592 38.5181 16.5685 38.4906 16.659 38.4289L21.1479 35.4181C21.1839 35.3939 21.2142 35.3619 21.2367 35.3246C21.2592 35.2872 21.2733 35.2454 21.2781 35.2019C21.2829 35.1585 21.2781 35.1145 21.2643 35.073C21.2505 35.0316 21.2278 34.9936 21.1979 34.962C21.1517 34.9135 21.0908 34.8822 21.0248 34.8731C20.9588 34.8639 20.8913 34.8775 20.8338 34.9115Z" fill="white"/>
<path d="M23.5905 33.3153L22.4568 33.974C22.4237 33.9934 22.3957 34.0208 22.3751 34.0534C22.3546 34.0861 22.3422 34.1231 22.3389 34.1617C22.3356 34.2002 22.3415 34.2388 22.3562 34.2745C22.3709 34.3102 22.3938 34.342 22.4231 34.3668C22.4646 34.3987 22.5155 34.4158 22.5677 34.4158C22.6198 34.4158 22.6702 34.3987 22.7117 34.3668L23.804 33.6362C23.8296 33.6193 23.8509 33.597 23.8663 33.5704C23.8817 33.5439 23.8908 33.514 23.8929 33.4833C23.8949 33.4526 23.8893 33.4218 23.8775 33.3934C23.8658 33.365 23.8481 33.3398 23.8249 33.3197C23.7915 33.2937 23.7507 33.2792 23.7085 33.2784C23.6663 33.2777 23.6249 33.2905 23.5905 33.3153Z" fill="white"/>
<path d="M23.1348 32.7454L21.7877 33.1675C21.7498 33.1795 21.7154 33.2004 21.687 33.2284C21.6587 33.2563 21.6374 33.2907 21.6247 33.3286C21.6121 33.3665 21.6088 33.4068 21.6145 33.4464C21.6203 33.486 21.635 33.5236 21.6579 33.5562C21.69 33.6006 21.7356 33.6332 21.7877 33.6492C21.8397 33.6652 21.8953 33.6637 21.9465 33.6449L23.2645 33.1549C23.2942 33.1443 23.3212 33.1272 23.3432 33.1044C23.3651 33.0816 23.3815 33.0539 23.3912 33.0237C23.4009 32.9935 23.4034 32.9614 23.3988 32.9299C23.3943 32.8985 23.3825 32.8687 23.3646 32.8426C23.3422 32.8031 23.3076 32.7722 23.2661 32.7547C23.2245 32.7371 23.1784 32.7338 23.1348 32.7454Z" fill="white"/>
<path d="M20.0014 33.6997L14.5965 35.3296C14.5259 35.3509 14.4608 35.3882 14.4065 35.4383C14.3522 35.4885 14.3097 35.5503 14.2824 35.6192C14.255 35.6882 14.2436 35.7626 14.2487 35.8368C14.2537 35.9109 14.2755 35.9828 14.312 36.0473C14.3698 36.1471 14.4604 36.2231 14.5684 36.2618C14.6763 36.3004 14.7946 36.2994 14.9018 36.2587L20.198 34.2824C20.2374 34.2671 20.2731 34.2434 20.3027 34.2131C20.3324 34.1828 20.3555 34.1466 20.3701 34.1067C20.3848 34.0667 20.3905 34.0239 20.3875 33.9814C20.3845 33.9389 20.3728 33.8978 20.3528 33.8603V33.8348C20.3186 33.7748 20.2651 33.7287 20.2011 33.7041C20.137 33.6795 20.0664 33.6779 20.0014 33.6997Z" fill="white"/>
<path d="M19.4699 32.2344L13.5879 32.5805C13.513 32.5847 13.4398 32.6059 13.3739 32.6424C13.3081 32.6788 13.2512 32.7297 13.2075 32.7913C13.1637 32.8529 13.1343 32.9237 13.1212 32.9983C13.1081 33.0729 13.1118 33.1495 13.1319 33.2225C13.1641 33.3404 13.2371 33.4427 13.3377 33.5109C13.4382 33.5791 13.5596 33.6084 13.6798 33.5939L19.5368 32.8761C19.579 32.871 19.6199 32.8568 19.6563 32.8344C19.6926 32.8119 19.7234 32.7819 19.7472 32.7462C19.771 32.7106 19.7872 32.6701 19.7941 32.6277C19.8011 32.5853 19.7991 32.5419 19.788 32.5004V32.4496C19.7687 32.3816 19.7262 32.3228 19.668 32.2834C19.6098 32.2439 19.5395 32.2267 19.4699 32.2344Z" fill="white"/>
<path d="M22.8247 32.0401L21.3269 32.1288C21.2863 32.1316 21.2471 32.1438 21.212 32.1646C21.1769 32.1854 21.147 32.214 21.1247 32.2484C21.1024 32.2827 21.0881 32.322 21.0833 32.3628C21.0785 32.4036 21.0835 32.4447 21.0971 32.4834C21.1181 32.5385 21.1564 32.585 21.2064 32.6156C21.2564 32.6462 21.3148 32.6592 21.3729 32.6525L22.8625 32.4708C22.8939 32.4668 22.9241 32.456 22.9509 32.4388C22.9776 32.4216 22.9999 32.3986 23.0167 32.3716C23.0336 32.3445 23.0442 32.3139 23.0479 32.2821C23.0516 32.2504 23.0484 32.2181 23.0382 32.1878C23.0236 32.143 22.9945 32.1044 22.956 32.0777C22.9174 32.051 22.8714 32.0378 22.8247 32.0401Z" fill="white"/>
<path d="M19.566 30.917C19.5662 30.8457 19.5417 30.7767 19.4966 30.7219C19.4514 30.6671 19.3888 30.6301 19.3194 30.6172L13.2577 29.5363C13.1897 29.524 13.1197 29.5267 13.0529 29.5446C12.9861 29.5624 12.9241 29.5947 12.8711 29.6394C12.818 29.6841 12.7753 29.7402 12.746 29.8033C12.7166 29.8665 12.7012 29.9351 12.701 30.0049C12.701 30.0429 12.701 30.0767 12.701 30.1147C12.7022 30.2313 12.7451 30.3436 12.8221 30.4306C12.899 30.5176 13.0046 30.5733 13.1193 30.5876L19.2356 31.2801C19.2773 31.2849 19.3197 31.2806 19.3597 31.2677C19.3997 31.2548 19.4362 31.2337 19.4674 31.2054C19.4987 31.177 19.524 31.1423 19.541 31.1035C19.558 31.0648 19.5663 31.0227 19.566 30.9804V30.917Z" fill="white"/>
<path d="M22.7203 31.2167L21.1643 30.9381C21.1236 30.9302 21.0818 30.9319 21.0418 30.943C21.0018 30.954 20.9646 30.9743 20.9335 31.002C20.9024 31.0297 20.8778 31.0641 20.862 31.1028C20.8462 31.1414 20.8394 31.1834 20.8421 31.2252C20.8457 31.2902 20.8722 31.3517 20.9166 31.3989C20.9611 31.4461 21.0205 31.4757 21.0847 31.4826L22.6575 31.66C22.6891 31.663 22.721 31.6593 22.751 31.6489C22.7809 31.6385 22.8082 31.6217 22.8312 31.5996C22.8542 31.5776 22.8724 31.5509 22.8843 31.5213C22.8962 31.4917 22.902 31.4597 22.9006 31.4277C22.8987 31.3772 22.8797 31.329 22.847 31.2906C22.8143 31.2523 22.7696 31.2262 22.7203 31.2167Z" fill="white"/>
<path d="M19.5827 28.9324L13.7723 26.3987C13.6997 26.3669 13.621 26.3518 13.5419 26.3543C13.4629 26.3569 13.3856 26.377 13.3152 26.4134C13.2448 26.4497 13.1832 26.5012 13.1349 26.5644C13.0866 26.6276 13.0528 26.7009 13.0359 26.7788C13.0088 26.9072 13.0285 27.041 13.0915 27.1559C13.1546 27.2707 13.2568 27.3588 13.379 27.4038L19.3488 29.5656C19.3886 29.5797 19.4309 29.5852 19.4729 29.5816C19.5149 29.5779 19.5556 29.5655 19.5924 29.5447C19.6292 29.524 19.6613 29.4954 19.6864 29.4612C19.7114 29.427 19.7291 29.3876 19.7379 29.346V29.2617C19.7516 29.1973 19.7435 29.13 19.7155 29.0705C19.6875 29.011 19.6408 28.9625 19.5827 28.9324Z" fill="white"/>
<path d="M22.842 30.3511L21.2982 29.6798C21.2593 29.6625 21.2167 29.6544 21.1741 29.6561C21.1316 29.6578 21.0901 29.6692 21.0526 29.6896C21.0151 29.7099 20.983 29.7384 20.9581 29.7733C20.9333 29.8082 20.9163 29.8485 20.9091 29.8908C20.8975 29.9571 20.9096 30.0253 20.9433 30.0834C20.977 30.1414 21.0305 30.1855 21.0935 30.2076L22.6786 30.7818C22.7071 30.7921 22.7378 30.7961 22.768 30.7937C22.7981 30.7912 22.8272 30.7824 22.8537 30.7676C22.8803 30.7528 22.9035 30.7323 22.9217 30.7078C22.9398 30.6833 22.9524 30.6555 22.9589 30.6256V30.5919C22.9693 30.5443 22.9634 30.4943 22.9421 30.4506C22.9208 30.4069 22.8856 30.372 22.842 30.3511Z" fill="white"/>
<path d="M24.8791 31.4069C24.8907 31.3582 24.8836 31.3069 24.8587 31.2636C24.8337 31.2203 24.793 31.1885 24.7453 31.1747L24.4021 31.0267C24.3763 31.0159 24.3487 31.0116 24.3209 31.0139C24.2931 31.0161 24.266 31.025 24.2423 31.0399C24.2186 31.0547 24.1984 31.075 24.1841 31.0992C24.1697 31.1233 24.1614 31.1507 24.1596 31.1788C24.1564 31.2168 24.1657 31.2547 24.1861 31.2868C24.2065 31.3189 24.2369 31.3432 24.2724 31.3561L24.6284 31.487C24.6725 31.5084 24.7227 31.512 24.7693 31.4971C24.8159 31.4822 24.8552 31.4499 24.8791 31.4069Z" fill="white"/>
<path d="M23.1849 29.4898L21.7668 28.4215C21.7323 28.3988 21.6936 28.3838 21.6529 28.3775C21.6122 28.3711 21.5705 28.3735 21.5308 28.3847C21.4912 28.3959 21.4546 28.4157 21.4231 28.4424C21.3916 28.4691 21.3663 28.5024 21.3485 28.5398C21.3207 28.6035 21.3163 28.675 21.3363 28.7416C21.3562 28.8082 21.3992 28.8655 21.4573 28.903L22.9424 29.8782C22.9697 29.896 23.0001 29.9081 23.0322 29.9132C23.0644 29.9184 23.0973 29.9167 23.1287 29.9084C23.1602 29.9 23.1901 29.8853 23.2156 29.8648C23.241 29.8443 23.2617 29.8186 23.2768 29.7895C23.2996 29.7367 23.3029 29.6775 23.286 29.6225C23.2691 29.5675 23.2333 29.5204 23.1849 29.4898Z" fill="white"/>
<path d="M25.0715 31.1237C25.0939 31.0788 25.0981 31.0267 25.0832 30.9786C25.0684 30.9306 25.0355 30.8902 24.9918 30.866L24.5276 30.5199C24.5047 30.5023 24.4778 30.4904 24.4495 30.4853C24.4211 30.4803 24.3922 30.4823 24.3647 30.491C24.3373 30.4997 24.3121 30.5149 24.2917 30.5353C24.2713 30.5558 24.2561 30.5809 24.2473 30.6085C24.2331 30.6472 24.2323 30.6897 24.2452 30.7289C24.2581 30.768 24.2839 30.8016 24.3182 30.824L24.808 31.1448C24.8463 31.176 24.8948 31.191 24.9438 31.1871C24.9928 31.1832 25.0385 31.1606 25.0715 31.1237Z" fill="white"/>
<path d="M20.2562 27.2897L14.964 23.3076C14.8982 23.2576 14.8221 23.2231 14.7414 23.2063C14.6606 23.1896 14.5774 23.1912 14.4973 23.211C14.4172 23.2308 14.3427 23.2682 14.2787 23.3208C14.2148 23.3733 14.1631 23.4395 14.1276 23.5146C14.069 23.6373 14.0567 23.7776 14.0928 23.9089C14.129 24.0402 14.2112 24.1536 14.3242 24.2282L19.867 27.8681C19.9021 27.8893 19.9414 27.9029 19.9819 27.9083C20.0225 27.9136 20.0637 27.9105 20.103 27.899C20.1422 27.8875 20.1788 27.8679 20.2102 27.8415C20.2416 27.8151 20.2674 27.7825 20.2858 27.7456L20.3317 27.6529C20.3614 27.5926 20.3699 27.5239 20.3563 27.458C20.3426 27.3921 20.3073 27.3329 20.2562 27.2897Z" fill="white"/>
<path d="M21.3442 25.8119L16.9095 20.4746C16.8557 20.4091 16.7881 20.3562 16.7118 20.32C16.6356 20.2838 16.5526 20.2651 16.4683 20.2651C16.384 20.2651 16.3004 20.2838 16.2242 20.32C16.1479 20.3562 16.0808 20.4091 16.027 20.4746C15.9386 20.5845 15.8924 20.7229 15.8978 20.8643C15.9032 21.0057 15.9596 21.1402 16.0561 21.2429L20.8253 26.31C20.8532 26.3416 20.8872 26.367 20.9254 26.3843C20.9636 26.4016 21.0051 26.4103 21.047 26.4103C21.0888 26.4103 21.1303 26.4016 21.1685 26.3843C21.2067 26.367 21.2407 26.3416 21.2686 26.31L21.3483 26.2173C21.398 26.1614 21.4251 26.0887 21.4243 26.0137C21.4236 25.9386 21.395 25.8666 21.3442 25.8119Z" fill="white"/>
<path d="M25.3685 30.8959C25.4021 30.8599 25.4206 30.8123 25.4206 30.7629C25.4206 30.7135 25.4021 30.6659 25.3685 30.6299L24.8875 30.0472C24.8698 30.0259 24.8476 30.0087 24.8226 29.9969C24.7977 29.9852 24.7705 29.9791 24.743 29.9791C24.7154 29.9791 24.6882 29.9852 24.6633 29.9969C24.6384 30.0087 24.6166 30.0259 24.5989 30.0472C24.5695 30.0811 24.553 30.1246 24.553 30.1696C24.553 30.2147 24.5695 30.2581 24.5989 30.292L25.1219 30.8451C25.1501 30.8821 25.1904 30.9077 25.2358 30.917C25.2811 30.9263 25.3282 30.9188 25.3685 30.8959Z" fill="white"/>
<path d="M23.7746 28.7337L22.5612 27.273C22.533 27.2384 22.4977 27.2106 22.4576 27.1915C22.4174 27.1724 22.3738 27.1624 22.3294 27.1624C22.285 27.1624 22.2413 27.1724 22.2012 27.1915C22.1611 27.2106 22.1253 27.2384 22.097 27.273C22.0428 27.3296 22.0128 27.4053 22.0128 27.484C22.0128 27.5628 22.0428 27.6384 22.097 27.6951L23.3982 29.0757C23.4205 29.0996 23.4475 29.1189 23.4774 29.1319C23.5072 29.1449 23.5393 29.1515 23.5719 29.1515C23.6044 29.1515 23.6365 29.1449 23.6663 29.1319C23.6962 29.1189 23.7232 29.0996 23.7455 29.0757C23.7699 29.0554 23.79 29.0303 23.8047 29.002C23.8194 28.9737 23.8286 28.9429 23.8313 28.9111C23.834 28.8792 23.8302 28.8472 23.8206 28.8167C23.8109 28.7863 23.7952 28.758 23.7746 28.7337Z" fill="white"/>
<path d="M25.6824 30.7227C25.7221 30.6924 25.7486 30.6478 25.7564 30.5982C25.7642 30.5486 25.7527 30.4977 25.7242 30.4565L25.3264 29.6627C25.3143 29.6383 25.2973 29.6168 25.2764 29.5995C25.2555 29.5823 25.2314 29.5699 25.2054 29.5627C25.1794 29.5555 25.1519 29.5539 25.1252 29.558C25.0986 29.5622 25.0734 29.5719 25.0507 29.5867C25.0098 29.6136 24.9806 29.6553 24.969 29.7031C24.9573 29.751 24.964 29.8014 24.9879 29.8444L25.4352 30.617C25.4547 30.6636 25.4918 30.7007 25.5379 30.7204C25.5839 30.7401 25.6357 30.741 25.6824 30.7227Z" fill="white"/>
<path d="M24.5693 28.1428L23.6572 26.306C23.6369 26.2655 23.6078 26.2297 23.5725 26.2016C23.5371 26.1735 23.4963 26.1536 23.4525 26.1431C23.4086 26.1327 23.3633 26.1322 23.3192 26.1413C23.2751 26.1504 23.2333 26.1692 23.1971 26.1962C23.1313 26.2416 23.0856 26.3111 23.07 26.39C23.0543 26.4689 23.07 26.5509 23.1134 26.6184L24.1424 28.3961C24.1583 28.4239 24.1798 28.448 24.2052 28.4673C24.2305 28.4866 24.2597 28.5006 24.2905 28.5085C24.3213 28.5164 24.353 28.518 24.3844 28.5132C24.4158 28.5084 24.4462 28.4971 24.4733 28.4804C24.5303 28.4484 24.5722 28.395 24.5902 28.3317C24.6083 28.2684 24.6008 28.2005 24.5693 28.1428Z" fill="white"/>
<path d="M22.7833 24.5492L19.5747 18.0929C19.5354 18.0138 19.4791 17.9444 19.4103 17.8896C19.3414 17.8347 19.2613 17.7958 19.1759 17.7757C19.0904 17.7555 19.0018 17.7546 18.9159 17.7729C18.8301 17.7913 18.7495 17.8285 18.6795 17.8818C18.5631 17.9711 18.4828 18.1001 18.4543 18.2448C18.4258 18.3895 18.451 18.5399 18.5247 18.6673L22.1347 24.9123C22.1599 24.9564 22.1942 24.9948 22.2348 25.025C22.2754 25.0551 22.3215 25.0762 22.3706 25.0873C22.4198 25.0984 22.4708 25.0992 22.5203 25.0894C22.5697 25.0796 22.6163 25.0596 22.6576 25.0306C22.7331 24.9796 22.7877 24.9025 22.8108 24.8139C22.8339 24.7252 22.8241 24.6311 22.7833 24.5492Z" fill="white"/>
<path d="M26.0296 30.676C26.0757 30.6564 26.1122 30.6194 26.1318 30.5729C26.1513 30.5264 26.1524 30.4741 26.1343 30.427L25.9168 29.4894C25.9109 29.4644 25.9001 29.4409 25.8851 29.4201C25.8701 29.3993 25.8513 29.3817 25.8295 29.3683C25.8077 29.3549 25.7832 29.3461 25.758 29.3423C25.7327 29.3384 25.7071 29.3396 25.6824 29.3459C25.657 29.3522 25.6332 29.3637 25.6124 29.3796C25.5916 29.3956 25.5743 29.4155 25.5613 29.4384C25.5484 29.4613 25.5403 29.4867 25.5373 29.5129C25.5344 29.5391 25.5369 29.5657 25.5445 29.591L25.8249 30.5157C25.8331 30.5634 25.8584 30.6064 25.8964 30.6361C25.9343 30.6657 25.9818 30.6799 26.0296 30.676Z" fill="white"/>
<path d="M24.5655 23.7427L22.8333 16.3617C22.8141 16.2775 22.7769 16.1984 22.7245 16.1299C22.6722 16.0615 22.6059 16.0053 22.53 15.9652C22.4541 15.9251 22.3704 15.902 22.2848 15.8976C22.1993 15.8931 22.1137 15.9074 22.0341 15.9395H21.9881C21.851 15.9961 21.7401 16.1025 21.6766 16.2376C21.6132 16.3728 21.6021 16.527 21.6455 16.67L23.8332 23.9202C23.8479 23.9689 23.8724 24.0141 23.9047 24.0532C23.937 24.0922 23.9768 24.1242 24.0216 24.1475C24.0665 24.1707 24.1154 24.1846 24.1657 24.1883C24.216 24.1921 24.2665 24.1856 24.3143 24.1693C24.3998 24.1403 24.4725 24.0813 24.5185 24.003C24.5646 23.9248 24.5812 23.8324 24.5655 23.7427Z" fill="white"/>
<path d="M25.5235 27.805L25.0169 25.6597C25.0067 25.6156 24.9876 25.5742 24.9602 25.5383C24.9329 25.5025 24.8983 25.473 24.8586 25.4518C24.819 25.4305 24.7752 25.4181 24.7304 25.4154C24.6856 25.4127 24.6406 25.4198 24.5987 25.436C24.5244 25.4646 24.4636 25.5206 24.4286 25.5927C24.3937 25.6648 24.3875 25.7476 24.4107 25.8244L25.0465 27.9357C25.065 27.997 25.1061 28.0488 25.1614 28.0803C25.2168 28.1117 25.2817 28.1206 25.3432 28.1048C25.4063 28.0888 25.4607 28.0483 25.4944 27.9921C25.5281 27.936 25.5387 27.8689 25.5235 27.805Z" fill="white"/>
<path d="M26.3768 30.6594C26.4249 30.6501 26.4675 30.6226 26.4963 30.5826C26.525 30.5426 26.5377 30.4929 26.5315 30.4439V29.4769C26.5316 29.4275 26.5128 29.38 26.4794 29.3439C26.446 29.3078 26.4006 29.2858 26.3518 29.2826C26.3244 29.2807 26.2968 29.285 26.2711 29.2947C26.2454 29.3044 26.2221 29.3194 26.2026 29.339C26.1832 29.3586 26.1679 29.3824 26.1582 29.4084C26.1486 29.4343 26.1446 29.4619 26.1465 29.4895L26.2052 30.4609C26.2039 30.5097 26.2209 30.5571 26.2527 30.5939C26.2845 30.6307 26.3287 30.6541 26.3768 30.6594Z" fill="white"/>
<path d="M26.5443 27.7583V25.4189C26.5444 25.3744 26.5352 25.3305 26.5177 25.2896C26.5003 25.2487 26.4748 25.2118 26.4427 25.1813C26.4105 25.1508 26.3724 25.1273 26.3308 25.1123C26.2893 25.0972 26.2452 25.0911 26.2011 25.094C26.1588 25.0966 26.1177 25.1078 26.0796 25.1267C26.0415 25.1456 26.0075 25.1718 25.9795 25.204C25.9515 25.2362 25.9298 25.2735 25.9162 25.3141C25.9026 25.3546 25.897 25.3974 25.8998 25.4401L26.0464 27.7753C26.0505 27.837 26.0774 27.8948 26.1215 27.9377C26.1655 27.9806 26.2237 28.0056 26.2849 28.0075C26.3183 28.0093 26.352 28.0041 26.3834 27.9923C26.4148 27.9806 26.4434 27.9625 26.4677 27.9392C26.492 27.9159 26.5112 27.8879 26.5244 27.8568C26.5376 27.8257 26.5443 27.7921 26.5443 27.7583Z" fill="white"/>
<path d="M26.5403 23.4388V15.5299C26.5403 15.4451 26.5221 15.3613 26.4877 15.2839C26.4532 15.2066 26.403 15.1375 26.3401 15.0812C26.2772 15.025 26.2033 14.9828 26.1231 14.9575C26.0428 14.9322 25.9583 14.9244 25.8749 14.9346H25.7957C25.6456 14.9536 25.5081 15.0298 25.4117 15.1475C25.3153 15.2652 25.2672 15.4156 25.2769 15.568L25.7702 23.4556C25.7733 23.5071 25.787 23.5575 25.81 23.6036C25.833 23.6497 25.8648 23.6906 25.904 23.7238C25.9431 23.757 25.9888 23.7817 26.0378 23.7966C26.0867 23.8115 26.1381 23.8162 26.1889 23.8104C26.2833 23.805 26.3719 23.7637 26.4371 23.6947C26.5024 23.6257 26.5394 23.5341 26.5403 23.4388Z" fill="white"/>
<path d="M27.5355 27.9778L28.1003 25.5709C28.1106 25.5273 28.1122 25.4821 28.1044 25.438C28.0965 25.3938 28.0796 25.3515 28.0548 25.3143C28.0301 25.277 27.9978 25.2453 27.9604 25.2212C27.9229 25.1971 27.8807 25.181 27.8368 25.1741C27.7531 25.1606 27.6677 25.181 27.5988 25.2308C27.5299 25.2805 27.4829 25.356 27.4686 25.4403L27.0503 27.8724C27.0407 27.9331 27.0532 27.9951 27.0856 28.0472C27.1179 28.0992 27.1677 28.1375 27.226 28.1552C27.2579 28.1654 27.2913 28.169 27.3246 28.1655C27.3578 28.1619 27.39 28.1515 27.419 28.1348C27.4481 28.1181 27.4736 28.0956 27.4936 28.0686C27.5136 28.0416 27.5278 28.0107 27.5355 27.9778Z" fill="white"/>
<path d="M26.728 30.7438C26.7771 30.7462 26.8255 30.7298 26.8628 30.6976C26.9002 30.6654 26.9239 30.6201 26.9292 30.5708L27.1468 29.6502C27.1578 29.6038 27.1513 29.5549 27.1289 29.5129C27.1065 29.4708 27.0697 29.4385 27.0252 29.4221C26.9986 29.4125 26.9702 29.4089 26.942 29.4116C26.9138 29.4142 26.8867 29.4231 26.8623 29.4376C26.838 29.4521 26.817 29.472 26.801 29.4956C26.7851 29.5192 26.7744 29.546 26.7699 29.5742L26.6111 30.5159C26.5998 30.5618 26.6053 30.6103 26.6269 30.6523C26.6485 30.6942 26.6843 30.7267 26.728 30.7438Z" fill="white"/>
<path d="M28.5435 23.6499L30.4177 15.6777C30.4372 15.5954 30.4391 15.5098 30.4233 15.4268C30.4075 15.3437 30.3745 15.2651 30.3262 15.196C30.278 15.1269 30.2156 15.0689 30.1434 15.026C30.0712 14.9831 29.9908 14.9562 29.9075 14.9471H29.8069C29.6562 14.9298 29.5049 14.9714 29.3835 15.0633C29.2622 15.1551 29.18 15.2903 29.1542 15.4412L27.7821 23.5105C27.7699 23.6075 27.7954 23.7056 27.8531 23.7843C27.9107 23.8629 27.9965 23.9161 28.092 23.9327C28.1891 23.9555 28.2908 23.9386 28.3755 23.8856C28.4602 23.8325 28.5206 23.7478 28.5435 23.6499Z" fill="white"/>
<path d="M28.4478 28.4342L29.6106 26.0949C29.6307 26.0544 29.6425 26.0102 29.6448 25.965C29.6472 25.9198 29.6401 25.8746 29.6244 25.8323C29.6087 25.7899 29.5846 25.7511 29.5534 25.7186C29.5223 25.6861 29.4846 25.6603 29.4431 25.6431C29.3642 25.6121 29.2766 25.6131 29.1985 25.6462C29.1205 25.6793 29.0582 25.7418 29.0249 25.8204L28.0127 28.2229C27.9894 28.2789 27.9868 28.3417 28.0061 28.3992C28.0254 28.4567 28.0647 28.5053 28.1169 28.5355C28.1452 28.551 28.1763 28.5606 28.2083 28.5639C28.2403 28.5672 28.2726 28.564 28.3033 28.5546C28.334 28.5452 28.3628 28.5297 28.3876 28.509C28.4123 28.4883 28.4329 28.463 28.4478 28.4342Z" fill="white"/>
<path d="M27.0461 30.9042C27.0938 30.919 27.1451 30.9144 27.1896 30.8916C27.2341 30.8687 27.2684 30.8294 27.2846 30.7818L27.7028 29.9668C27.7243 29.9247 27.7297 29.8761 27.7182 29.8302C27.7066 29.7844 27.6788 29.7443 27.64 29.7176C27.6166 29.7016 27.5899 29.6911 27.5619 29.6867C27.5339 29.6823 27.5053 29.6843 27.4781 29.6924C27.451 29.7004 27.4258 29.7144 27.4046 29.7333C27.3834 29.7523 27.3668 29.7759 27.3556 29.8022L27.0002 30.6467C26.9746 30.6877 26.9651 30.7367 26.9736 30.7843C26.9821 30.832 27.008 30.8748 27.0461 30.9042Z" fill="white"/>
<path d="M30.4976 24.3256L34.2919 16.6996C34.3315 16.623 34.354 16.5386 34.3583 16.4523C34.3626 16.3661 34.3482 16.28 34.3164 16.1998C34.2846 16.1196 34.2365 16.0473 34.1745 15.9878C34.1124 15.9283 34.0379 15.883 33.9569 15.855L33.8318 15.8128C33.69 15.7631 33.5346 15.7695 33.3972 15.8306C33.2598 15.8917 33.1507 16.003 33.0913 16.1422L29.7862 23.9834C29.767 24.0295 29.757 24.079 29.7566 24.1289C29.7563 24.1789 29.7655 24.2284 29.7842 24.2747C29.8028 24.321 29.8306 24.363 29.8654 24.3985C29.9002 24.434 29.9413 24.4624 29.9869 24.4818C30.0306 24.5054 30.0786 24.5201 30.1279 24.5251C30.1772 24.53 30.227 24.5251 30.2744 24.5106C30.3219 24.4961 30.3659 24.4723 30.4042 24.4405C30.4424 24.4088 30.4743 24.3697 30.4976 24.3256Z" fill="white"/>
<path d="M27.322 31.1365C27.365 31.1619 27.4161 31.1695 27.4645 31.1577C27.5128 31.1459 27.5547 31.1155 27.5814 31.0731L28.134 30.4059C28.164 30.3707 28.1804 30.3258 28.1804 30.2794C28.1804 30.2329 28.164 30.1878 28.134 30.1526C28.1159 30.1304 28.0933 30.1127 28.0676 30.1005C28.0419 30.0883 28.0138 30.0819 27.9854 30.0819C27.957 30.0819 27.9288 30.0883 27.9032 30.1005C27.8775 30.1127 27.8548 30.1304 27.8368 30.1526L27.322 30.8577C27.3035 30.8758 27.2891 30.8977 27.2791 30.9216C27.2691 30.9455 27.2638 30.9711 27.2638 30.9971C27.2638 31.0231 27.2691 31.049 27.2791 31.0729C27.2891 31.0968 27.3035 31.1184 27.322 31.1365Z" fill="white"/>
<path d="M32.2628 25.4402L37.9312 18.6208C37.9855 18.5552 38.0256 18.4788 38.0482 18.3965C38.0708 18.3143 38.0756 18.2281 38.0625 18.1437C38.0494 18.0594 38.0185 17.9788 37.9721 17.9074C37.9257 17.836 37.8648 17.7755 37.7934 17.7298L37.6468 17.6369C37.5207 17.5594 37.3703 17.5325 37.2255 17.5614C37.0807 17.5903 36.9518 17.6731 36.8644 17.7932L31.6438 24.9462C31.5824 25.0297 31.5559 25.1343 31.5708 25.2372C31.5857 25.3401 31.6404 25.4328 31.723 25.4951C31.8027 25.5576 31.9034 25.5869 32.0039 25.5766C32.1043 25.5664 32.197 25.5175 32.2628 25.4402Z" fill="white"/>
<path d="M29.2172 29.0928L30.9866 26.9815C31.0158 26.9462 31.0378 26.9051 31.0505 26.8609C31.0632 26.8167 31.0666 26.7704 31.0607 26.7248C31.0548 26.6792 31.0398 26.6354 31.0163 26.596C30.9928 26.5566 30.9615 26.5226 30.9243 26.496C30.8895 26.4707 30.8497 26.4525 30.8079 26.4426C30.7661 26.4327 30.7226 26.4312 30.6802 26.4382C30.6379 26.4453 30.5977 26.4609 30.5613 26.4839C30.5248 26.5068 30.4933 26.5365 30.4683 26.5717L28.8367 28.8057C28.8008 28.8547 28.7838 28.9151 28.7892 28.9758C28.7946 29.0365 28.8219 29.0933 28.8658 29.1351C28.8912 29.1566 28.9209 29.1727 28.9526 29.1822C28.9844 29.1918 29.0177 29.1947 29.0507 29.1907C29.0836 29.1868 29.1155 29.1759 29.1441 29.159C29.1728 29.1422 29.1975 29.1198 29.2172 29.0928Z" fill="white"/>
<path d="M33.7435 26.952L41.0605 21.4627C41.1389 21.4041 41.2039 21.3291 41.2509 21.2428C41.298 21.1566 41.326 21.0609 41.3332 20.9627C41.3403 20.8645 41.3264 20.7661 41.2923 20.6738C41.2582 20.5815 41.2047 20.4977 41.1355 20.4282C41.0151 20.306 40.8537 20.2339 40.6831 20.2269C40.5124 20.2198 40.3452 20.2782 40.2153 20.39L33.2584 26.3396C33.1797 26.4068 33.1307 26.5029 33.122 26.6066C33.1134 26.7103 33.1459 26.8134 33.2124 26.893C33.2773 26.9686 33.3682 27.0165 33.4667 27.0275C33.5653 27.0385 33.6639 27.0115 33.7435 26.952Z" fill="white"/>
<path d="M29.807 29.9079L32.1541 28.1469C32.1911 28.1189 32.2217 28.0836 32.2445 28.043C32.2673 28.0024 32.2817 27.9575 32.2864 27.9111C32.2911 27.8647 32.2862 27.8179 32.2721 27.7735C32.2579 27.729 32.2348 27.6881 32.2042 27.6531C32.1462 27.5877 32.0656 27.5475 31.9789 27.5412C31.8923 27.5349 31.8066 27.5628 31.74 27.6191L29.5144 29.5237C29.4701 29.5628 29.4412 29.6166 29.4327 29.6755C29.4243 29.7343 29.4369 29.7943 29.4685 29.8445C29.4861 29.8717 29.5091 29.8951 29.5359 29.9131C29.5627 29.9311 29.5926 29.9433 29.6242 29.9492C29.6559 29.9551 29.6883 29.9545 29.7197 29.9474C29.7511 29.9403 29.7809 29.9269 29.807 29.9079Z" fill="white"/>
<path d="M27.5103 31.4238C27.5462 31.4589 27.5941 31.4785 27.6441 31.4785C27.694 31.4785 27.742 31.4589 27.7779 31.4238L28.4305 30.9339C28.4665 30.9069 28.492 30.8677 28.502 30.8236C28.512 30.7795 28.506 30.7333 28.4851 30.6932C28.4719 30.6681 28.4532 30.6464 28.4305 30.6295C28.4078 30.6127 28.3816 30.601 28.3539 30.5958C28.3262 30.5905 28.2974 30.5918 28.2701 30.5991C28.2429 30.6065 28.2175 30.6198 28.1961 30.6383L27.5731 31.1746C27.5343 31.2013 27.5065 31.2414 27.4949 31.2872C27.4834 31.3331 27.4889 31.3817 27.5103 31.4238Z" fill="white"/>
<path d="M30.1797 30.8326L33.0241 29.5952C33.0667 29.5763 33.1054 29.5488 33.137 29.5143C33.1686 29.4798 33.1926 29.4391 33.208 29.3947C33.2233 29.3503 33.2293 29.3032 33.2258 29.2563C33.2223 29.2095 33.2093 29.1638 33.1875 29.1223C33.1672 29.0829 33.1395 29.048 33.1058 29.0195C33.0721 28.9909 33.0329 28.9694 32.9909 28.9561C32.949 28.9427 32.905 28.9377 32.8612 28.9416C32.8174 28.9455 32.7746 28.9582 32.7356 28.9787L29.979 30.3934C29.927 30.4198 29.8858 30.4641 29.8636 30.5184C29.8413 30.5727 29.8392 30.6332 29.8574 30.689C29.868 30.7207 29.8851 30.7496 29.9075 30.7743C29.9298 30.799 29.9568 30.8188 29.9871 30.8323C30.0174 30.8458 30.05 30.8529 30.0831 30.8529C30.1163 30.8529 30.1493 30.846 30.1797 30.8326Z" fill="white"/>
<path d="M34.8565 28.7972L43.9219 24.8534C43.9722 24.8288 44.0169 24.7941 44.0537 24.7516C44.0905 24.7092 44.1184 24.6598 44.1359 24.6063C44.1535 24.5528 44.1603 24.4963 44.1558 24.4401C44.1514 24.3839 44.1361 24.3293 44.1104 24.2792C44.0016 24.0934 43.8897 23.9076 43.7754 23.7218C43.7194 23.6401 43.6369 23.581 43.542 23.5548C43.4471 23.5285 43.3464 23.5368 43.2571 23.5782L34.5179 28.0626C34.4272 28.1144 34.3584 28.1985 34.3259 28.2985C34.2934 28.3984 34.299 28.5071 34.3417 28.6031C34.3898 28.6927 34.4688 28.7617 34.5633 28.7974C34.6579 28.8331 34.7619 28.8329 34.8565 28.7972Z" fill="white"/>
<path d="M30.347 31.8037L33.5597 31.2336C33.6059 31.2258 33.6502 31.2083 33.6894 31.1823C33.7286 31.1564 33.7619 31.1223 33.7874 31.0826C33.813 31.0429 33.8304 30.9984 33.838 30.9517C33.8456 30.905 33.8435 30.8571 33.8318 30.8112C33.8211 30.7668 33.8016 30.725 33.7747 30.6883C33.7477 30.6516 33.7136 30.6208 33.6746 30.5976C33.6356 30.5743 33.5923 30.5593 33.5474 30.5532C33.5025 30.5471 33.4573 30.5502 33.4136 30.5623L30.2464 31.3349C30.19 31.348 30.1403 31.3813 30.1065 31.4287C30.0726 31.4761 30.057 31.5342 30.0626 31.5924C30.066 31.6258 30.0762 31.6581 30.0927 31.6872C30.1092 31.7164 30.1318 31.7418 30.1586 31.7617C30.1854 31.7816 30.216 31.7955 30.2484 31.8027C30.2809 31.8099 30.3144 31.8104 30.347 31.8037Z" fill="white"/>
<path d="M35.4964 30.8831L45.286 29.1434C45.3856 29.1259 45.4802 29.087 45.5638 29.0295C45.6473 28.9721 45.7174 28.8973 45.7701 28.8102C45.8227 28.7231 45.8568 28.6257 45.8692 28.5244C45.8816 28.4231 45.8722 28.3203 45.8421 28.2229C45.7879 28.0511 45.6721 27.906 45.5173 27.8162C45.3625 27.7263 45.18 27.6982 45.0056 27.7373L35.3503 30.0975C35.2496 30.1226 35.1623 30.1868 35.1082 30.2761C35.0542 30.3655 35.0373 30.473 35.0613 30.5749C35.0824 30.6719 35.139 30.7572 35.2196 30.8143C35.3001 30.8713 35.3988 30.896 35.4964 30.8831Z" fill="white"/>
<path d="M35.6432 33.1043L45.9011 33.7082C46.0039 33.7143 46.1065 33.6984 46.2029 33.6615C46.2992 33.6247 46.3872 33.5676 46.4603 33.4943C46.5333 33.4209 46.5897 33.3328 46.6267 33.2358C46.6637 33.1387 46.6802 33.035 46.6747 32.9311C46.665 32.74 46.5829 32.5599 46.4449 32.4286C46.307 32.2972 46.1239 32.2247 45.9343 32.226L35.66 32.2765C35.5491 32.2765 35.4423 32.321 35.3638 32.4002C35.2854 32.4794 35.2413 32.5869 35.2413 32.6989C35.2454 32.8051 35.2894 32.9057 35.3638 32.9809C35.4383 33.056 35.538 33.1002 35.6432 33.1043Z" fill="white"/>
<path d="M30.2547 32.7749L33.6436 32.9734C33.69 32.9763 33.7367 32.9694 33.7804 32.9536C33.8242 32.9377 33.8644 32.9131 33.8984 32.8811C33.9324 32.8491 33.9593 32.8104 33.9781 32.7675C33.9969 32.7245 34.0072 32.6783 34.0077 32.6314C34.0082 32.5856 33.9997 32.5399 33.9827 32.4974C33.9657 32.4549 33.9405 32.4163 33.9086 32.3837C33.8767 32.3511 33.8387 32.3251 33.7968 32.3074C33.7549 32.2898 33.7099 32.2809 33.6645 32.2809H30.2716C30.2125 32.2806 30.1553 32.3024 30.1112 32.3422C30.0672 32.382 30.0393 32.4367 30.0331 32.4961C30.0271 32.5294 30.0284 32.5637 30.0367 32.5966C30.0449 32.6295 30.0601 32.6601 30.0811 32.6865C30.1021 32.713 30.1287 32.7347 30.1587 32.7499C30.1887 32.7652 30.2212 32.7737 30.2547 32.7749Z" fill="white"/>
<path d="M35.3081 35.3043L45.4659 38.3741C45.567 38.4042 45.6731 38.4121 45.7775 38.3975C45.8818 38.3829 45.982 38.346 46.0711 38.2893C46.1602 38.2325 46.2363 38.1572 46.2943 38.0684C46.3522 37.9796 46.3906 37.8794 46.4071 37.7743C46.4353 37.5877 46.3928 37.3973 46.2881 37.2409C46.1835 37.0844 46.0243 36.9732 45.8423 36.9298L35.5175 34.5146C35.4111 34.4917 35.3002 34.5115 35.208 34.5698C35.1159 34.6281 35.0496 34.7204 35.0237 34.827C35.0057 34.9278 35.025 35.032 35.0773 35.1198C35.1296 35.2076 35.2114 35.2731 35.3081 35.3043Z" fill="white"/>
<path d="M29.9993 33.6995L33.3753 34.7214C33.4215 34.7353 33.47 34.7393 33.5178 34.7332C33.5656 34.7271 33.6118 34.7111 33.6531 34.6861C33.6944 34.6611 33.73 34.6276 33.7578 34.5879C33.7856 34.5482 33.8054 34.5031 33.815 34.4554C33.8255 34.4102 33.8267 34.3633 33.8191 34.3175C33.8115 34.2717 33.7951 34.228 33.7706 34.1887C33.7461 34.1494 33.7138 34.1154 33.6761 34.0887C33.6385 34.062 33.5959 34.043 33.551 34.033L30.1208 33.2307C30.0626 33.2162 30.0014 33.2248 29.9492 33.2547C29.8971 33.2845 29.858 33.3334 29.8404 33.3913C29.8288 33.4219 29.8238 33.4549 29.8256 33.4877C29.8275 33.5204 29.8361 33.5523 29.8512 33.5815C29.8662 33.6106 29.8874 33.6361 29.913 33.6565C29.9385 33.6768 29.9677 33.6915 29.9993 33.6995Z" fill="white"/>
<path d="M27.6862 32.7663L27.6612 32.8127C27.6516 32.831 27.6459 32.8513 27.6448 32.872C27.6437 32.8927 27.6475 32.9133 27.655 32.9326C27.6626 32.9518 27.6739 32.9693 27.6887 32.9836C27.7036 32.9979 27.7214 33.0088 27.7408 33.0155L28.3766 33.2096C28.4221 33.223 28.4709 33.2182 28.513 33.1962C28.5551 33.1742 28.587 33.1368 28.6023 33.0916C28.6106 33.0669 28.6139 33.0407 28.6115 33.0148C28.6091 32.9889 28.6012 32.9637 28.5885 32.9411C28.5759 32.9184 28.5587 32.8986 28.538 32.8831C28.5173 32.8675 28.4937 32.8566 28.4685 32.8509L27.8159 32.6988C27.7901 32.6956 27.764 32.7004 27.7408 32.7125C27.7177 32.7245 27.6986 32.7432 27.6862 32.7663Z" fill="white"/>
<path d="M29.5813 34.5566L32.7607 36.4104C32.8039 36.436 32.8518 36.4521 32.9017 36.4573C32.9515 36.4626 33.0022 36.4571 33.0498 36.4411C33.0973 36.4251 33.1407 36.399 33.1774 36.3646C33.2142 36.3301 33.2434 36.2883 33.2627 36.2416C33.2976 36.1584 33.2994 36.0648 33.2683 35.98C33.2372 35.8953 33.1754 35.8256 33.0952 35.7854L29.807 34.1386C29.7518 34.1115 29.6887 34.1071 29.6303 34.126C29.5719 34.1448 29.5228 34.1855 29.4934 34.2399C29.4645 34.2938 29.4571 34.3571 29.4735 34.4162C29.4899 34.4753 29.5288 34.5257 29.5813 34.5566Z" fill="white"/>
<path d="M27.4729 33.1166C27.4589 33.1344 27.4487 33.1552 27.4433 33.1772C27.4378 33.1992 27.4373 33.2221 27.4412 33.2445C27.4452 33.2668 27.4535 33.2881 27.4662 33.3068C27.4789 33.3256 27.4955 33.3414 27.5147 33.3532L28.1127 33.7037C28.1561 33.7281 28.2074 33.7342 28.2552 33.7207C28.303 33.7073 28.3435 33.6753 28.3681 33.6318C28.3796 33.6094 28.3865 33.5851 28.3885 33.5599C28.3905 33.5348 28.3876 33.5094 28.3798 33.4854C28.372 33.4615 28.3594 33.4393 28.3431 33.4202C28.3267 33.4012 28.3067 33.3856 28.2843 33.3744L27.6567 33.0617C27.6242 33.0501 27.5892 33.0493 27.5561 33.0592C27.523 33.069 27.4939 33.089 27.4729 33.1166Z" fill="white"/>
<path d="M34.5179 37.4407L44.0144 42.9764C44.1099 43.0321 44.2165 43.0663 44.3264 43.0767C44.4362 43.087 44.5466 43.0733 44.6507 43.0365C44.7547 42.9996 44.8496 42.9404 44.929 42.863C45.0083 42.7856 45.0702 42.6918 45.1103 42.588C45.1805 42.4079 45.1812 42.2078 45.1123 42.0272C45.0434 41.8466 44.9098 41.6985 44.738 41.6125L34.9111 36.6933C34.8609 36.6684 34.8065 36.654 34.7507 36.6508C34.695 36.6475 34.6389 36.6556 34.5863 36.6745C34.5337 36.6934 34.4855 36.7225 34.4443 36.7606C34.4031 36.7986 34.3696 36.8446 34.3463 36.8959C34.302 36.9919 34.2951 37.1012 34.3269 37.2021C34.3586 37.303 34.4268 37.3882 34.5179 37.4407Z" fill="white"/>
<path d="M28.9955 35.3295L31.7945 37.9939C31.8323 38.0299 31.8775 38.0571 31.9268 38.0738C31.9761 38.0905 32.0283 38.0964 32.08 38.0908C32.1317 38.0852 32.1814 38.0682 32.2261 38.0413C32.2707 38.0144 32.3091 37.9779 32.3384 37.9346C32.3894 37.8599 32.4105 37.7686 32.3982 37.6787C32.3858 37.5888 32.3408 37.5069 32.2715 37.4491L29.3137 34.9705C29.2656 34.9312 29.2043 34.9122 29.1426 34.9177C29.0809 34.9232 29.0238 34.9529 28.9833 35.0002C28.9425 35.0459 28.9207 35.1059 28.923 35.1674C28.9254 35.2289 28.9514 35.2871 28.9955 35.3295Z" fill="white"/>
<path d="M33.2877 39.4127L41.6046 47.3342C41.6872 47.4129 41.7858 47.4723 41.8936 47.5084C42.0014 47.5445 42.1158 47.5565 42.2286 47.5432C42.3414 47.5299 42.4501 47.4918 42.5468 47.4316C42.6435 47.3714 42.7258 47.2908 42.7883 47.195C42.8932 47.0328 42.9353 46.8373 42.9068 46.6458C42.8782 46.4543 42.7811 46.28 42.6336 46.1561L33.8485 38.7836C33.8043 38.7452 33.7526 38.7165 33.6968 38.6994C33.641 38.6822 33.5821 38.677 33.5242 38.6841C33.4663 38.6913 33.4103 38.7106 33.3603 38.7408C33.3102 38.7711 33.2673 38.8116 33.2336 38.8597C33.1748 38.9429 33.1475 39.0448 33.1575 39.1465C33.1675 39.2482 33.2139 39.3428 33.2877 39.4127Z" fill="white"/>
<path d="M27.2304 33.3913C27.2142 33.4063 27.201 33.4246 27.1921 33.4449C27.1832 33.4653 27.1788 33.4874 27.1788 33.5096C27.1788 33.5318 27.1832 33.5537 27.1921 33.574C27.201 33.5944 27.2142 33.6129 27.2304 33.6279L27.7824 34.1514C27.8015 34.1693 27.8238 34.1831 27.8483 34.1918C27.8729 34.2005 27.899 34.2038 27.9249 34.2019C27.9509 34.1999 27.976 34.1925 27.999 34.1802C28.0219 34.1679 28.0426 34.1508 28.0587 34.1302C28.0883 34.0912 28.1015 34.0422 28.096 33.9934C28.0905 33.9446 28.0666 33.8997 28.0291 33.8684L27.4393 33.3743C27.4087 33.3501 27.3703 33.3384 27.3315 33.3416C27.2928 33.3447 27.2568 33.3625 27.2304 33.3913Z" fill="white"/>
<path d="M28.2591 35.9797L30.4764 39.3832C30.5063 39.4288 30.5457 39.4671 30.5918 39.4958C30.6379 39.5245 30.6892 39.5427 30.743 39.5492C30.7968 39.5556 30.8514 39.5502 30.9028 39.5332C30.9543 39.5162 31.0016 39.488 31.0412 39.4507C31.1072 39.388 31.1479 39.303 31.1556 39.2118C31.1633 39.1206 31.1376 39.0298 31.0831 38.9567L28.6564 35.7011C28.6375 35.6756 28.6141 35.6544 28.5869 35.6384C28.5597 35.6225 28.5293 35.6122 28.4981 35.6083C28.4668 35.6044 28.4349 35.6068 28.4046 35.6155C28.3743 35.6242 28.3464 35.6388 28.3219 35.6588C28.2725 35.6938 28.2381 35.747 28.2264 35.8067C28.2147 35.8665 28.2265 35.9283 28.2591 35.9797Z" fill="white"/>
<path d="M31.6148 41.1398L38.1407 51.1555C38.2086 51.2551 38.297 51.339 38.3996 51.4011C38.5023 51.4633 38.6167 51.5025 38.7357 51.5161C38.8546 51.5297 38.9752 51.5174 39.089 51.48C39.2029 51.4426 39.3077 51.3811 39.396 51.2993C39.5362 51.1577 39.6219 50.9703 39.638 50.7708C39.6541 50.5712 39.5995 50.3723 39.4838 50.2097L32.3425 40.6287C32.308 40.5782 32.2632 40.536 32.2108 40.5048C32.1584 40.4736 32.0997 40.4541 32.0392 40.4481C31.9787 40.4421 31.9174 40.4495 31.8599 40.4697C31.8025 40.49 31.7504 40.5226 31.7067 40.5653C31.6214 40.6309 31.564 40.7273 31.5469 40.8342C31.5298 40.941 31.5543 41.0504 31.6148 41.1398Z" fill="white"/>
<path d="M26.9244 33.6404C26.8884 33.6645 26.8636 33.702 26.8549 33.7448C26.8463 33.7875 26.8546 33.8321 26.8784 33.8685L27.3217 34.5483C27.3366 34.5713 27.3565 34.5906 27.3794 34.6053C27.4023 34.62 27.4281 34.6297 27.455 34.6336C27.4819 34.6376 27.509 34.636 27.5352 34.6285C27.5613 34.621 27.5858 34.608 27.6067 34.5903C27.6432 34.5584 27.6661 34.5139 27.6715 34.4654C27.6769 34.4168 27.6644 34.3681 27.6358 34.3288L27.1506 33.6783C27.1255 33.6433 27.0877 33.6197 27.0454 33.6125C27.0032 33.6054 26.9595 33.6155 26.9244 33.6404Z" fill="white"/>
<path d="M27.3849 36.4948L28.8326 40.5106C28.8518 40.5637 28.8823 40.6118 28.922 40.6516C28.9617 40.6914 29.0097 40.7218 29.0624 40.7408C29.1152 40.7597 29.1717 40.7666 29.2274 40.7611C29.2831 40.7557 29.3366 40.738 29.3847 40.7091C29.4639 40.6614 29.5232 40.5863 29.5517 40.4978C29.5801 40.4092 29.5758 40.3132 29.5394 40.2277L27.8409 36.3089C27.8283 36.2791 27.8101 36.2522 27.7868 36.2298C27.7635 36.2075 27.7358 36.1904 27.7056 36.1793C27.6754 36.1682 27.6432 36.1634 27.6111 36.1654C27.579 36.1674 27.5478 36.1762 27.5192 36.1909H27.4937C27.4407 36.2182 27.4 36.2646 27.3798 36.3211C27.3596 36.3775 27.3614 36.4396 27.3849 36.4948Z" fill="white"/>
<path d="M29.5519 42.5205L33.79 54.2761C33.8338 54.3909 33.9021 54.4948 33.9897 54.5802C34.0773 54.6657 34.182 54.7307 34.2971 54.7709C34.4123 54.8112 34.5349 54.8255 34.6561 54.813C34.7773 54.8004 34.8941 54.7612 34.9988 54.6983C35.173 54.5932 35.3036 54.4278 35.366 54.2328C35.4283 54.0378 35.4184 53.8266 35.3379 53.6385L30.3762 42.1785C30.3518 42.1208 30.316 42.0691 30.2705 42.0264C30.2249 41.9838 30.1709 41.9511 30.1122 41.9308C30.0534 41.9105 29.9912 41.9028 29.9293 41.9084C29.8675 41.914 29.8074 41.9326 29.7531 41.963C29.6581 42.0152 29.5848 42.1008 29.5479 42.2035C29.5109 42.3062 29.5123 42.4189 29.5519 42.5205Z" fill="white"/>
<path d="M26.5859 33.8517C26.5498 33.8683 26.5213 33.8976 26.5052 33.9341C26.489 33.9707 26.4863 34.0119 26.498 34.0501L26.7702 34.9284C26.7787 34.9564 26.7932 34.9821 26.8126 35.0039C26.832 35.0258 26.8554 35.0431 26.882 35.0547C26.9087 35.0664 26.9378 35.0722 26.9668 35.0715C26.9958 35.0708 27.0245 35.0637 27.0506 35.0509C27.0958 35.028 27.1308 34.9888 27.1486 34.9411C27.1665 34.8933 27.1656 34.8404 27.1466 34.7931C27.0545 34.5651 26.8954 34.1642 26.8034 33.9488C26.796 33.9276 26.7843 33.9081 26.7692 33.8916C26.7541 33.8751 26.736 33.8618 26.7156 33.8527C26.6952 33.8436 26.673 33.8387 26.6507 33.8385C26.6284 33.8383 26.6064 33.8429 26.5859 33.8517Z" fill="white"/>
<path d="M26.0796 34.1556L26.1884 35.1058C26.1916 35.1363 26.2018 35.1657 26.218 35.1917C26.2341 35.2177 26.256 35.2396 26.2818 35.2558C26.3076 35.2721 26.3364 35.2822 26.3666 35.2855C26.3968 35.2887 26.4274 35.2851 26.456 35.2746C26.5009 35.2584 26.5389 35.2265 26.5627 35.1847C26.5865 35.1429 26.5944 35.0939 26.5857 35.0466L26.4146 34.1051C26.4107 34.0818 26.402 34.0596 26.3891 34.0399C26.3762 34.0202 26.3592 34.0034 26.3395 33.9907C26.3198 33.9779 26.2978 33.9695 26.2747 33.9659C26.2515 33.9624 26.2278 33.9638 26.2052 33.97C26.1658 33.9809 26.1317 34.0053 26.1087 34.0394C26.0857 34.0734 26.0752 34.1146 26.0796 34.1556Z" fill="white"/>
<path d="M27.1503 43.3988L28.6441 56.2946C28.6589 56.4207 28.7009 56.542 28.7671 56.65C28.8334 56.758 28.9223 56.8502 29.0276 56.9198C29.1328 56.9895 29.2518 57.0349 29.3764 57.0531C29.5009 57.0713 29.6281 57.0616 29.7486 57.025C29.9534 56.9683 30.1288 56.8353 30.2399 56.6526C30.351 56.4699 30.3893 56.2512 30.3466 56.0412L28.0542 43.2637C28.0432 43.2004 28.0188 43.1401 27.9832 43.0867C27.9476 43.0333 27.9014 42.9879 27.8474 42.9537C27.7934 42.9195 27.7328 42.8971 27.6697 42.888C27.6066 42.8788 27.5421 42.8831 27.4807 42.9006C27.3762 42.9309 27.2859 42.9975 27.2254 43.0888C27.1649 43.18 27.1382 43.2897 27.1503 43.3988Z" fill="white"/>
<path d="M26.6022 36.5585H26.5649C26.5104 36.5733 26.4626 36.6075 26.4311 36.6548C26.3996 36.7022 26.3863 36.7593 26.3933 36.8159L26.9076 41.2539C26.9141 41.3117 26.9333 41.3672 26.9637 41.4166C26.9941 41.466 27.0353 41.508 27.0838 41.5395C27.1322 41.571 27.187 41.5912 27.2441 41.5988C27.3013 41.6063 27.3593 41.6009 27.4142 41.5831C27.5054 41.5546 27.5828 41.4934 27.6322 41.4109C27.6816 41.3284 27.6994 41.2304 27.6818 41.1356L26.8912 36.7358C26.8844 36.7047 26.8713 36.6751 26.8529 36.6492C26.8346 36.6233 26.811 36.6016 26.784 36.585C26.757 36.5684 26.7274 36.5574 26.6962 36.5528C26.6649 36.5482 26.6327 36.5503 26.6022 36.5585Z" fill="white"/>
<path d="M28.7238 31.2887C28.7168 31.2611 28.7041 31.2353 28.686 31.2134C28.6678 31.1916 28.6448 31.1741 28.6191 31.1624C28.5934 31.1506 28.5656 31.1447 28.5374 31.1454C28.5091 31.146 28.4813 31.1531 28.4562 31.166L27.7744 31.5165C27.736 31.5328 27.7034 31.5607 27.681 31.5961C27.6585 31.6316 27.6472 31.6729 27.6488 31.7149C27.6464 31.7289 27.6464 31.7432 27.6488 31.7572C27.6762 31.7989 27.7184 31.8282 27.7668 31.8392C27.8151 31.8502 27.8657 31.8422 27.9082 31.8165L28.594 31.5209C28.635 31.5032 28.6686 31.4714 28.6885 31.4312C28.7084 31.391 28.7133 31.345 28.7028 31.3013L28.7238 31.2887Z" fill="white"/>
<path d="M28.8072 31.9091C28.806 31.8812 28.799 31.8539 28.7862 31.8292C28.7735 31.8044 28.7556 31.783 28.7336 31.766C28.7117 31.7491 28.6861 31.7372 28.6591 31.7313C28.6321 31.7253 28.6043 31.7255 28.5774 31.7318L27.9288 31.8879H27.8869C27.8381 31.8943 27.7935 31.9193 27.7623 31.9578C27.7312 31.9963 27.7158 32.0454 27.7194 32.0949C27.7299 32.1295 27.7512 32.16 27.7797 32.182C27.8082 32.204 27.8429 32.2163 27.8788 32.2173H27.9625L28.6565 32.0949C28.6993 32.0869 28.7382 32.064 28.7658 32.03C28.7934 31.9959 28.8079 31.953 28.8072 31.9091Z" fill="white"/>
<path d="M27.9079 32.3019H27.8619C27.8212 32.3054 27.7828 32.3228 27.7532 32.3512C27.7235 32.3796 27.7041 32.4172 27.6985 32.4581C27.6992 32.4825 27.7058 32.5064 27.7174 32.5277C27.7291 32.549 27.7454 32.567 27.7654 32.5805C27.8057 32.6099 27.8542 32.6263 27.9038 32.6272L28.5687 32.6651C28.6137 32.6679 28.6584 32.6539 28.6938 32.6259C28.7293 32.5979 28.7531 32.5577 28.7612 32.513C28.7655 32.4863 28.764 32.4589 28.7566 32.4329C28.7493 32.4068 28.7364 32.3825 28.7189 32.362C28.7013 32.3415 28.6795 32.3252 28.655 32.3141C28.6305 32.3029 28.6042 32.2975 28.5774 32.2978L27.9079 32.3019Z" fill="white"/>
<path d="M27.5981 32.8085C27.5855 32.8411 27.5855 32.8775 27.5981 32.9101C27.6393 32.8417 27.6769 32.771 27.711 32.6987C27.6843 32.7056 27.6598 32.7195 27.64 32.7387C27.6202 32.7579 27.6059 32.7819 27.5981 32.8085Z" fill="white"/>
<path d="M24.5905 60.2469C24.5976 60.1226 24.5787 59.9983 24.5354 59.8817C24.4921 59.7652 24.4255 59.6589 24.3393 59.5699C24.2531 59.4809 24.1494 59.411 24.0349 59.3647C23.9204 59.3184 23.7976 59.2968 23.6744 59.3011H23.4691C23.2594 59.3108 23.0602 59.3955 22.9068 59.5402C22.7535 59.685 22.6563 59.8802 22.6326 60.0907L22.4319 61.8178C22.4148 61.9656 22.4285 62.1155 22.4728 62.2574C22.5171 62.3994 22.5908 62.5302 22.6888 62.6414C22.7868 62.7527 22.9072 62.8417 23.0417 62.9028C23.1762 62.9638 23.3216 62.9956 23.4691 62.9958C23.7373 62.9962 23.9955 62.8926 24.1902 62.7064C24.3848 62.5201 24.501 62.2654 24.515 61.9951L24.5905 60.2469Z" fill="white"/>
<path d="M22.3313 43.0948C22.2193 43.0739 22.1033 43.094 22.0045 43.1512C21.9057 43.2085 21.8303 43.2993 21.7915 43.4074L15.236 61.5644C15.1789 61.7238 15.1607 61.8946 15.1829 62.0626C15.2051 62.2306 15.2673 62.3909 15.3637 62.5296C15.4601 62.6683 15.588 62.7815 15.737 62.8597C15.8859 62.938 16.0517 62.9787 16.2196 62.9788H16.3197C16.5454 62.9791 16.7653 62.9058 16.9463 62.7695C17.1272 62.6333 17.2595 62.4416 17.3237 62.2232L22.7245 43.6986C22.7417 43.6327 22.7451 43.5639 22.7342 43.4966C22.7234 43.4293 22.6983 43.3652 22.6612 43.3082C22.6241 43.2512 22.5756 43.203 22.5187 43.1662C22.4619 43.1294 22.3981 43.105 22.3313 43.0948Z" fill="white"/>
<path d="M19.6749 42.3391C19.5676 42.2953 19.4489 42.2903 19.3384 42.3249C19.2278 42.3595 19.1321 42.4316 19.0682 42.529L6.93664 61.1337C6.8172 61.3165 6.7491 61.5286 6.73952 61.7473C6.72993 61.9661 6.77901 62.1835 6.88199 62.3762C6.98498 62.5689 7.13787 62.7298 7.32424 62.8419C7.51061 62.954 7.72367 63.0131 7.94062 63.0128C8.15231 63.0125 8.36028 62.9556 8.54322 62.8481C8.72615 62.7406 8.87766 62.5861 8.9824 62.4004L19.9261 43.0568C19.9617 42.9942 19.9835 42.9244 19.99 42.8525C19.9964 42.7805 19.9872 42.708 19.9634 42.6399C19.9396 42.5717 19.9014 42.5096 19.8516 42.4576C19.8018 42.4057 19.7416 42.3654 19.6749 42.3391Z" fill="white"/>
<path d="M41.2781 52.6378C41.2024 52.5362 41.106 52.4518 40.9957 52.3902C40.8854 52.3286 40.7638 52.2911 40.6382 52.2804C40.5127 52.2696 40.386 52.2856 40.267 52.3275C40.148 52.3695 40.0394 52.4363 39.9478 52.5237C39.7946 52.6701 39.697 52.8663 39.6726 53.0778C39.6481 53.2893 39.6984 53.5025 39.814 53.6806L45.5075 62.4213C45.6214 62.5929 45.7753 62.7338 45.9554 62.8316C46.1355 62.9295 46.3361 62.9814 46.5406 62.9829C46.7674 62.9761 46.9883 62.9073 47.1795 62.784C47.3706 62.6606 47.525 62.4873 47.6263 62.2824C47.7276 62.0775 47.7717 61.8487 47.7545 61.6203C47.7372 61.392 47.6592 61.1728 47.5282 60.9858L41.2781 52.6378Z" fill="white"/>
<path d="M36.5259 56.3453C36.4782 56.2375 36.4085 56.141 36.3216 56.062C36.2347 55.9831 36.1325 55.9234 36.0213 55.8868C35.9102 55.8502 35.7929 55.8376 35.6766 55.8497C35.5603 55.8617 35.4477 55.8982 35.3462 55.9569L35.1746 56.054C35.0041 56.1525 34.873 56.3084 34.8049 56.4945C34.7368 56.6806 34.7361 56.8848 34.8024 57.0715L36.6888 62.3034C36.7626 62.5066 36.8965 62.6821 37.0723 62.8059C37.2482 62.9298 37.4579 62.9961 37.6723 62.9959H37.8102C37.9838 62.9958 38.1544 62.9519 38.3071 62.8686C38.4598 62.7852 38.59 62.6647 38.685 62.518C38.7801 62.3714 38.8375 62.2032 38.852 62.0286C38.8666 61.854 38.8377 61.6784 38.7683 61.5178L36.5259 56.3453Z" fill="white"/>
<path d="M30.9073 58.997C30.834 58.7754 30.6852 58.5872 30.487 58.4664C30.2889 58.3456 30.0547 58.2999 29.8262 58.3375C29.5978 58.3751 29.3898 58.4935 29.24 58.6715C29.0901 58.8496 29.0079 59.0758 29.0081 59.3094L29.3263 62.0624C29.356 62.3192 29.4777 62.5561 29.6689 62.7281C29.8602 62.9001 30.1073 62.9953 30.3634 62.9957C30.5168 62.9957 30.6684 62.9618 30.8072 62.8962C30.9461 62.8306 31.0691 62.7349 31.1672 62.616C31.2654 62.4972 31.3366 62.3582 31.3756 62.2086C31.4146 62.0589 31.4201 61.9023 31.3925 61.7501L30.9073 58.997Z" fill="white"/>
<path d="M42.2071 18.6587C42.1367 18.7188 42.0791 18.7927 42.038 18.876C41.997 18.9593 41.9731 19.0503 41.9681 19.1431C41.963 19.236 41.9767 19.3289 42.0084 19.4162C42.0401 19.5035 42.0891 19.5834 42.1524 19.651L42.2821 19.7862C42.3961 19.9087 42.5508 19.9846 42.7167 19.9994C42.8826 20.0142 43.0479 19.967 43.1814 19.8664L53.5272 12.0968C53.6748 11.9862 53.7952 11.8424 53.878 11.6767C53.9608 11.511 54.0038 11.3281 54.0041 11.1426C54.0038 10.9157 53.9394 10.6936 53.8182 10.5025C53.6971 10.3114 53.5243 10.1592 53.3203 10.0639C53.1164 9.96848 52.8899 9.93385 52.6672 9.96412C52.4444 9.99439 52.2347 10.0883 52.0631 10.2347L42.2071 18.6587Z" fill="white"/>
<path d="M45.4657 22.4422C45.3703 22.4917 45.2858 22.5602 45.2175 22.6438C45.1493 22.7274 45.0992 22.824 45.0695 22.9281C45.0397 23.0321 45.0309 23.1413 45.0444 23.2487C45.058 23.3561 45.0935 23.4596 45.1481 23.5528C45.2453 23.7177 45.3987 23.8411 45.5796 23.9002C45.7606 23.9593 45.9566 23.9499 46.1311 23.8736L53.3643 20.7235C53.5504 20.6421 53.7089 20.5076 53.8204 20.3366C53.9318 20.1656 53.9916 19.9656 53.9919 19.7609C53.9917 19.5815 53.9455 19.4052 53.8587 19.2488C53.7718 19.0923 53.6469 18.9608 53.4956 18.8668C53.3442 18.7729 53.1716 18.7195 52.9941 18.7119C52.8166 18.7043 52.6401 18.7426 52.4814 18.8233L45.4657 22.4422Z" fill="white"/>
<path d="M47.6912 27.0617C47.5855 27.0874 47.4861 27.135 47.3991 27.2009C47.3121 27.2668 47.2392 27.3497 47.1852 27.4449C47.1311 27.5402 47.0968 27.6456 47.0846 27.7547C47.0723 27.8638 47.0827 27.9744 47.1142 28.0794C47.1698 28.2701 47.2929 28.4333 47.4604 28.5377C47.628 28.6421 47.8279 28.6803 48.0217 28.6452L53.205 27.7248C53.427 27.6851 53.6282 27.5674 53.7729 27.3929C53.9175 27.2183 53.996 26.998 53.9955 26.7705V26.7367C53.9958 26.5902 53.9633 26.4454 53.9 26.3135C53.8368 26.1816 53.7449 26.0658 53.6309 25.9751C53.5169 25.8844 53.3836 25.8213 53.2418 25.7901C53.0999 25.7589 52.9529 25.7604 52.8118 25.795L47.6912 27.0617Z" fill="white"/>
<path d="M48.754 32.2005C48.5365 32.2071 48.33 32.299 48.1785 32.4567C48.027 32.6144 47.9425 32.8254 47.9426 33.0451C47.9549 33.2476 48.0389 33.4388 48.1795 33.5837C48.3201 33.7287 48.5078 33.8179 48.7081 33.8348L52.9834 34.0881C53.1141 34.0962 53.2449 34.0772 53.368 34.0322C53.491 33.9872 53.6036 33.9171 53.6989 33.8265C53.7941 33.7359 53.8703 33.6267 53.9221 33.5054C53.9738 33.3841 54.0004 33.2532 54.0002 33.1211C54.0002 32.9938 53.9751 32.8676 53.9266 32.75C53.8782 32.6324 53.8072 32.5257 53.7178 32.4358C53.6284 32.346 53.5225 32.2749 53.4058 32.2266C53.289 32.1782 53.1637 32.1536 53.0376 32.1541L48.754 32.2005Z" fill="white"/>
<path d="M48.6115 37.559C48.5011 37.5345 48.387 37.5329 48.276 37.5541C48.165 37.5753 48.0598 37.6189 47.966 37.6825C47.8722 37.746 47.7916 37.8281 47.73 37.9237C47.6685 38.0193 47.6269 38.1265 47.6075 38.2389C47.5754 38.4402 47.6165 38.6467 47.7234 38.8198C47.8303 38.9929 47.9959 39.121 48.1891 39.1806L52.7699 40.5656C52.9132 40.6092 53.0647 40.6181 53.2121 40.5919C53.3595 40.5657 53.4986 40.5052 53.6186 40.4149C53.7386 40.3245 53.8362 40.207 53.9031 40.0718C53.97 39.9367 54.0047 39.7876 54.0042 39.6365V39.5734C54.0042 39.3551 53.9308 39.1431 53.7963 38.9721C53.6619 38.8011 53.4743 38.6812 53.2637 38.6317L48.6115 37.559Z" fill="white"/>
<path d="M47.3358 42.9132C47.2313 42.859 47.1164 42.8277 46.9992 42.8212C46.882 42.8146 46.7647 42.8331 46.655 42.8753C46.5454 42.9175 46.4461 42.9826 46.3629 43.0663C46.2798 43.1499 46.2147 43.2503 46.1725 43.3608C46.0941 43.5519 46.088 43.7652 46.1551 43.9606C46.2222 44.1559 46.3579 44.3195 46.5366 44.4206L52.5732 47.9424C52.7193 48.0271 52.8848 48.0714 53.0533 48.0708C53.2217 48.0702 53.3873 48.0247 53.5328 47.9391C53.6783 47.8534 53.7986 47.7306 53.8821 47.5829C53.9656 47.4352 54.0093 47.2679 54.0082 47.0979V46.8234C54.0044 46.6471 53.9528 46.4751 53.8591 46.3262C53.7655 46.1774 53.633 46.0573 53.4766 45.9788L47.3358 42.9132Z" fill="white"/>
<path d="M44.9006 48.0351C44.8066 47.9562 44.6976 47.898 44.5799 47.8645C44.4623 47.8309 44.3389 47.8225 44.2179 47.84C44.0968 47.8575 43.9808 47.9007 43.8773 47.9663C43.7737 48.0318 43.6851 48.1185 43.6168 48.2209C43.4992 48.3944 43.4465 48.6046 43.4687 48.8137C43.491 49.0227 43.5864 49.2168 43.7378 49.3611L51.9163 57.1516C52.0946 57.3127 52.3149 57.419 52.5511 57.458C52.7872 57.497 53.0298 57.4671 53.2497 57.3717C53.4695 57.2763 53.6576 57.1195 53.792 56.9196C53.9264 56.7198 54.0012 56.4853 54.008 56.2439C54.0064 56.061 53.9658 55.8805 53.8885 55.715C53.8112 55.5496 53.6994 55.4028 53.5607 55.2851L44.9006 48.0351Z" fill="white"/>
<path d="M18.2066 16.6531C18.3331 16.5587 18.4229 16.4224 18.4604 16.2682C18.4978 16.1139 18.4803 15.9513 18.4113 15.8085L11.3794 1.67139C11.2816 1.47477 11.1312 1.3094 10.9458 1.19382C10.7604 1.07825 10.5468 1.01702 10.3289 1.01689C10.1227 1.01768 9.92035 1.07318 9.74214 1.17784C9.56393 1.2825 9.41626 1.43261 9.31369 1.61314C9.21112 1.79367 9.15742 1.99831 9.15793 2.20642C9.15845 2.41453 9.21329 2.61879 9.31675 2.7988L17.2194 16.463C17.2678 16.5457 17.3326 16.6171 17.4104 16.6723C17.4882 16.7275 17.5769 16.7654 17.6704 16.7834C17.7638 16.8013 17.8598 16.799 17.9522 16.7765C18.0447 16.7541 18.1315 16.712 18.2066 16.6531Z" fill="white"/>
<path d="M21.8172 14.6854C21.972 14.6238 22.0993 14.5079 22.1762 14.3589C22.2531 14.21 22.2742 14.038 22.2354 13.8747L19.4114 1.84032C19.3568 1.60729 19.2261 1.39969 19.0401 1.25104C18.8542 1.10238 18.6237 1.02137 18.3865 1.02114H18.3196C18.1551 1.02127 17.9931 1.06022 17.8462 1.13493C17.6993 1.20964 17.5719 1.31805 17.4739 1.45142C17.3759 1.58478 17.3101 1.73937 17.2819 1.90295C17.2537 2.06653 17.2639 2.23449 17.3115 2.3934L20.8883 14.2419C20.916 14.3357 20.963 14.4225 21.0262 14.4967C21.0893 14.5709 21.1673 14.6309 21.2549 14.6727C21.3426 14.7145 21.4379 14.7373 21.5348 14.7395C21.6317 14.7416 21.7278 14.7232 21.8172 14.6854Z" fill="white"/>
<path d="M25.9043 13.6551C26.0759 13.6354 26.2342 13.5526 26.3491 13.4225C26.4641 13.2924 26.5274 13.1241 26.5274 12.9498V2.06828C26.5274 1.78607 26.4166 1.51541 26.2189 1.31585C26.0212 1.1163 25.7529 1.00426 25.4733 1.00426C25.3294 1.00455 25.1871 1.0345 25.0551 1.09241C24.9231 1.15031 24.8042 1.23496 24.7058 1.34098C24.6074 1.447 24.5317 1.57217 24.4831 1.70888C24.4345 1.8456 24.4142 1.99097 24.4234 2.13594L25.101 12.9963C25.1076 13.0941 25.134 13.1895 25.1787 13.2765C25.2233 13.3635 25.2851 13.4403 25.3605 13.5021C25.4358 13.5639 25.5228 13.6095 25.6163 13.6358C25.7098 13.6621 25.8082 13.6687 25.9043 13.6551Z" fill="white"/>
<path d="M30.2338 13.7015C30.4082 13.7229 30.5843 13.6789 30.7286 13.5777C30.8729 13.4764 30.9753 13.325 31.0161 13.1525L33.5593 2.33014C33.5973 2.1708 33.5992 2.00481 33.5644 1.84472C33.5295 1.68463 33.4588 1.53461 33.3581 1.40607C33.2573 1.27752 33.129 1.1738 32.9827 1.10273C32.8364 1.03165 32.6758 0.995045 32.5134 0.99577C32.2601 0.995133 32.0152 1.08522 31.8214 1.24989C31.6277 1.41455 31.4978 1.64319 31.4553 1.89523L29.5934 12.8739C29.5793 12.971 29.5853 13.0699 29.6102 13.1648C29.6351 13.2596 29.6786 13.3484 29.7384 13.4257C29.7982 13.5031 29.8729 13.5674 29.958 13.6148C30.0431 13.6622 30.137 13.6917 30.2338 13.7015Z" fill="white"/>
<path d="M34.5386 14.7276C34.7066 14.7881 34.8908 14.7846 35.0564 14.7177C35.222 14.6508 35.3575 14.5252 35.4379 14.3645L41.257 2.67639C41.3465 2.49934 41.3898 2.30207 41.3821 2.10346C41.3745 1.90485 41.3164 1.7115 41.2136 1.54201C41.1107 1.37251 40.9667 1.23257 40.7948 1.13545C40.623 1.03832 40.429 0.987346 40.2321 0.987383C40.0066 0.987304 39.7865 1.05402 39.5983 1.17939C39.4102 1.30476 39.2625 1.48323 39.174 1.69252L34.0994 13.7269C34.0587 13.8212 34.0378 13.9231 34.0381 14.026C34.0384 14.1289 34.0601 14.2305 34.1014 14.3245C34.1427 14.4186 34.2028 14.5031 34.2781 14.5725C34.3534 14.6418 34.442 14.6947 34.5386 14.7276Z" fill="white"/>
<path d="M38.6174 16.746C38.771 16.8453 38.955 16.8847 39.1353 16.8567C39.3155 16.8287 39.4795 16.7352 39.5964 16.5939L50.7699 3.15769C50.9302 2.96562 51.0329 2.73139 51.0656 2.48245C51.0984 2.23351 51.0599 1.98033 50.9548 1.7527C50.8497 1.52506 50.6826 1.3324 50.4727 1.19756C50.2628 1.06272 50.0193 0.991207 49.7705 0.991507C49.5661 0.991663 49.3646 1.04037 49.1823 1.13351C48.9999 1.22666 48.8413 1.3617 48.7201 1.52783L38.4081 15.6481C38.3462 15.7326 38.3024 15.8291 38.2794 15.9316C38.2563 16.034 38.2546 16.1401 38.2743 16.2433C38.2939 16.3465 38.3347 16.4444 38.3938 16.5309C38.4528 16.6174 38.5289 16.6907 38.6174 16.746Z" fill="white"/>
<path d="M24.7331 31.7362C24.7331 31.6861 24.7137 31.6379 24.6794 31.6017C24.6451 31.5655 24.5983 31.5441 24.5487 31.5419L24.4067 31.5166C24.3782 31.5115 24.3488 31.5138 24.3215 31.5236C24.2941 31.5334 24.2695 31.5502 24.2505 31.5723C24.2315 31.5944 24.2188 31.6211 24.2132 31.6499C24.2075 31.6786 24.2091 31.7084 24.2183 31.7362C24.2279 31.7678 24.2466 31.7959 24.2719 31.8169C24.2972 31.8379 24.3282 31.851 24.3608 31.8545H24.5109C24.5558 31.8648 24.603 31.8584 24.6437 31.8367C24.6844 31.815 24.7162 31.7794 24.7331 31.7362Z" fill="white"/>
<path d="M24.5233 31.9007C24.5007 31.8984 24.4781 31.9014 24.4569 31.9095C24.4357 31.9176 24.4166 31.9306 24.4012 31.9474C24.3858 31.9641 24.3744 31.9842 24.368 32.0061C24.3617 32.0281 24.3605 32.0514 24.3645 32.0739C24.3695 32.0987 24.3807 32.1215 24.3976 32.1401C24.4146 32.1587 24.4364 32.1724 24.4605 32.1796C24.4971 32.1912 24.535 32.1981 24.5733 32.2005C24.6138 32.2065 24.6553 32.1964 24.6882 32.1718C24.7212 32.1473 24.7428 32.1106 24.749 32.0698C24.7495 32.0335 24.7373 31.9982 24.7143 31.9703C24.6913 31.9424 24.6593 31.9238 24.6239 31.9177L24.5233 31.9007Z" fill="white"/>
<path d="M24.6364 32.5384C24.7058 32.5384 24.7619 32.4817 24.7619 32.4117C24.7619 32.3417 24.7058 32.285 24.6364 32.285C24.5671 32.285 24.5109 32.3417 24.5109 32.4117C24.5109 32.4817 24.5671 32.5384 24.6364 32.5384Z" fill="white"/>
<path d="M17.1189 40.9328C17.0215 40.8646 16.904 40.8323 16.7859 40.8416C16.6678 40.8508 16.5561 40.9011 16.4703 40.9836L1.37631 55.3402C1.26162 55.4488 1.1696 55.5797 1.10566 55.7247C1.04172 55.8697 1.00719 56.026 1.00403 56.1847C1.0054 56.4225 1.07721 56.6545 1.21034 56.8507C1.34348 57.0469 1.53196 57.1985 1.75115 57.2857C1.97034 57.373 2.21059 57.3918 2.44056 57.3401C2.67053 57.2884 2.87984 57.1684 3.04162 56.9955L17.2108 41.6928C17.2565 41.6378 17.2906 41.5741 17.3109 41.5052C17.3311 41.4364 17.3369 41.3639 17.3282 41.2926C17.3196 41.2213 17.2969 41.1527 17.2608 41.0908C17.2247 41.0289 17.1764 40.9751 17.1189 40.9328Z" fill="white"/>
<path d="M14.7427 39.7252C14.8073 39.6818 14.8618 39.6249 14.9025 39.5582C14.9433 39.4916 14.9691 39.4167 14.9786 39.3389C14.9882 39.2611 14.9811 39.1822 14.9577 39.1075C14.9342 39.0328 14.8949 38.9642 14.8428 38.9062C14.7606 38.8144 14.6498 38.7538 14.5287 38.7345C14.4077 38.7153 14.284 38.7386 14.1779 38.8005L1.51471 46.1774C1.36226 46.2667 1.23562 46.3949 1.14753 46.549C1.05945 46.7031 1.01302 46.8778 1.01271 47.0557C1.01254 47.2392 1.06142 47.4191 1.15468 47.5766C1.24795 47.734 1.3821 47.8631 1.54228 47.9498C1.70246 48.0365 1.88264 48.0776 2.06419 48.0688C2.24574 48.0601 2.42153 48.0019 2.57282 47.9003L14.7427 39.7252Z" fill="white"/>
<path d="M12.7051 37.0861C12.781 37.0583 12.8504 37.0145 12.9079 36.9573C12.9653 36.9001 13.0095 36.8309 13.0381 36.7547C13.0667 36.6785 13.0788 36.597 13.0733 36.5158C13.0679 36.4345 13.045 36.3554 13.0064 36.2838C12.9463 36.1708 12.8496 36.0823 12.7322 36.0331C12.6148 35.9838 12.4843 35.9771 12.3625 36.0137L1.63578 39.2523C1.45567 39.3072 1.29773 39.4187 1.18485 39.5706C1.07197 39.7225 1.00993 39.907 1.00816 40.0969V40.177C1.00678 40.3213 1.04048 40.4638 1.1057 40.5922C1.17092 40.7206 1.26612 40.831 1.38299 40.9141C1.49986 40.9972 1.63499 41.0503 1.77672 41.069C1.91846 41.0877 2.06238 41.0715 2.1965 41.0216L12.7051 37.0861Z" fill="white"/>
<path d="M11.3288 33.8939C11.4102 33.8839 11.4886 33.8562 11.5586 33.8132C11.6287 33.7703 11.689 33.7128 11.7353 33.6444C11.7816 33.5761 11.8129 33.4986 11.8273 33.4171C11.8416 33.3356 11.8388 33.252 11.8186 33.1718C11.7825 33.0434 11.7035 32.9314 11.5954 32.8545C11.4873 32.7777 11.3561 32.7407 11.2241 32.7496L1.83234 33.2986C1.60702 33.3104 1.39506 33.4089 1.23945 33.5738C1.08385 33.7387 0.996623 33.9574 0.995861 34.1851C0.996164 34.3109 1.02272 34.4352 1.07399 34.5498C1.12527 34.6644 1.19982 34.7667 1.29307 34.8501C1.38633 34.9334 1.49642 34.9958 1.61531 35.0333C1.7342 35.0708 1.85931 35.0825 1.98299 35.0676L11.3288 33.8939Z" fill="white"/>
<path d="M10.7891 30.3217C10.8714 30.3311 10.9551 30.3231 11.0342 30.298C11.1133 30.2729 11.1864 30.2314 11.2487 30.1761C11.3109 30.1208 11.361 30.0529 11.3957 29.9769C11.4305 29.9009 11.4492 29.8183 11.4504 29.7346C11.4516 29.593 11.4031 29.4557 11.3135 29.3467C11.2239 29.2378 11.0987 29.1642 10.9606 29.1393L2.03764 27.5473C1.91117 27.5252 1.78112 27.5314 1.65718 27.5651C1.53325 27.5988 1.41851 27.6592 1.32014 27.7424C1.22177 27.8256 1.14231 27.9295 1.08778 28.0468C1.03325 28.164 1.00458 28.2919 1.00403 28.4215C1.00468 28.6398 1.08503 28.8503 1.22924 29.013C1.37345 29.1757 1.57152 29.2791 1.78638 29.3039L10.7891 30.3217Z" fill="white"/>
<path d="M11.099 26.5848C11.1791 26.6141 11.2638 26.6261 11.3488 26.6204C11.4337 26.6147 11.5169 26.5913 11.5924 26.5516C11.6679 26.5119 11.7341 26.4567 11.7874 26.3897C11.8408 26.3227 11.8797 26.2454 11.9018 26.1624C11.935 26.0208 11.9179 25.8719 11.8528 25.742C11.7877 25.6122 11.6791 25.51 11.5464 25.4531L2.23835 21.3994C2.10441 21.3415 1.95858 21.3181 1.81347 21.3311C1.66836 21.344 1.52824 21.3929 1.40646 21.4736C1.28468 21.5543 1.18487 21.6642 1.11538 21.7934C1.04588 21.9227 1.00882 22.0673 1.00813 22.2143V22.3411C1.007 22.5258 1.06305 22.706 1.16797 22.8573C1.2729 23.0086 1.42158 23.1233 1.59388 23.1854L11.099 26.5848Z" fill="white"/>
<path d="M12.2491 22.8772C12.324 22.9264 12.4084 22.959 12.4967 22.9729C12.5851 22.9868 12.6756 22.9817 12.7618 22.9577C12.848 22.9338 12.9283 22.8916 12.9972 22.834C13.0661 22.7764 13.1217 22.7048 13.1611 22.6238C13.2278 22.4897 13.2456 22.3362 13.2112 22.1902C13.1767 22.0442 13.0926 21.9152 12.9732 21.8258L2.66525 14.0773C2.50987 13.9596 2.32504 13.8881 2.1316 13.8704C1.93816 13.8528 1.74358 13.89 1.56986 13.9777C1.39613 14.0653 1.25015 14.2001 1.14804 14.3668C1.04593 14.5336 0.991776 14.7258 0.991776 14.9218C0.992313 15.0974 1.03617 15.2699 1.11944 15.424C1.20272 15.5781 1.32283 15.7088 1.46874 15.8043L12.2491 22.8772Z" fill="white"/>
<path d="M14.3158 19.4188C14.3793 19.4862 14.4562 19.5391 14.5415 19.5743C14.6268 19.6094 14.7185 19.626 14.8106 19.6228C14.9027 19.6196 14.9935 19.5968 15.0762 19.5558C15.1589 19.5149 15.2318 19.4566 15.2906 19.3851C15.3894 19.267 15.4438 19.1174 15.4438 18.9628C15.4438 18.8082 15.3894 18.6586 15.2906 18.5405L3.20861 4.00223C3.04294 3.80463 2.82168 3.66304 2.57384 3.59645C2.326 3.52986 2.06372 3.5415 1.82264 3.62982C1.58156 3.71814 1.37298 3.87884 1.22515 4.09038C1.07733 4.30192 0.997396 4.55405 0.995861 4.81291C0.996022 5.13848 1.1204 5.45149 1.34312 5.68698L14.3158 19.4188Z" fill="white"/>
</svg>
